<?xml version="1.0" encoding="utf-8"?>
<!-- Generator: Adobe Illustrator 16.0.0, SVG Export Plug-In . SVG Version: 6.00 Build 0)  -->
<!DOCTYPE svg PUBLIC "-//W3C//DTD SVG 1.1//EN" "http://www.w3.org/Graphics/SVG/1.1/DTD/svg11.dtd">
<svg version="1.1" id="Layer_1" xmlns="http://www.w3.org/2000/svg" xmlns:xlink="http://www.w3.org/1999/xlink" x="0px" y="0px"
	 width="100px" height="100px" viewBox="0 0 100 100" enable-background="new 0 0 100 100" xml:space="preserve">
<g>
	<path fill="#EF4874" d="M78.961,24.993C64.963,14.081,54.065,24.612,51.344,27.7c-1.813-3.695-9.559-16.72-25.933-9.873
		c-18.97,7.934-15.066,40.909,18.386,66.264l0,0.002c0,0,0.001,0,0.002-0.001c0,0.001,0.001,0.001,0.002,0.002l0-0.003
		C82.741,68.423,95.178,37.634,78.961,24.993z"/>
	<path fill="#BC234F" d="M44.102,81.829c-9.71-7.523-17.404-16.197-22.289-25.139c-4.461-8.167-6.445-16.396-5.585-23.174
		c0.851-6.703,4.291-11.497,9.947-13.862c4.794-2.004,9.18-2.337,13.036-0.989c5.984,2.092,9.235,7.625,10.356,9.908l1.305,2.659
		l1.958-2.222c1.978-2.244,9.165-9.305,18.655-5.987c2.077,0.727,4.184,1.915,6.258,3.532c4.836,3.77,6.894,9.299,5.952,15.989
		c-0.951,6.765-5.029,14.185-11.48,20.891C65.151,70.777,55.447,77.123,44.102,81.829z"/>
	<g>
		<path fill="#A81D43" d="M26.162,34.414l-5.735-10.735c-1.235,1.378-2.219,2.991-2.942,4.818l6.285,8.309L26.162,34.414z"/>
		<path fill="#A81D43" d="M71.485,23.022c-0.898-0.314-1.776-0.535-2.632-0.676l-3.701,13.508l7.54,3.585l6.516-11.604
			c-0.456-0.447-0.943-0.875-1.465-1.281C75.669,24.938,73.563,23.749,71.485,23.022z"/>
		<path fill="#A81D43" d="M47.372,24.983c-1.534-2.068-3.775-4.354-6.818-5.769l0.688,11.522l3.794,2.88L47.372,24.983z"/>
		<path fill="#A81D43" d="M33.703,17.868c-2.373,0.088-4.888,0.683-7.528,1.786c-1.166,0.488-2.237,1.081-3.211,1.771l7.318,12.683
			l7.913-2.529L33.703,17.868z"/>
		<path fill="#A81D43" d="M61.983,33.87l0.401-11.138c-2.793,0.796-5.122,2.284-6.838,3.679l1.654,9.218L61.983,33.87z"/>
	</g>
	<g>
		<path fill="#481B11" d="M43.924,79.698C35.195,72.936,28.278,65.138,23.887,57.1c-4.011-7.342-5.794-14.74-5.021-20.833
			c0.765-6.026,3.857-10.335,8.942-12.461c4.309-1.802,8.252-2.102,11.718-0.89c5.379,1.881,8.303,6.855,9.31,8.907l1.174,2.391
			l1.76-1.998c1.777-2.017,8.239-8.365,16.771-5.382c1.868,0.653,3.761,1.721,5.626,3.175c4.347,3.389,6.197,8.359,5.352,14.374
			c-0.856,6.082-4.521,12.751-10.321,18.78C62.847,69.763,54.124,75.468,43.924,79.698z"/>
		<g>
			<path fill="#2F1811" d="M19.922,47.517c0.113,0.405,0.235,0.813,0.364,1.221c0.097-0.181,0.05-0.567-0.011-0.733
				C20.217,47.851,20.086,47.687,19.922,47.517z"/>
			<path fill="#2F1811" d="M42.554,26.514c0.221,0.758,2.274,1.012,3.129,0.638c-0.471-0.522-0.991-1.04-1.563-1.534
				C43.417,25.884,42.42,26.058,42.554,26.514z"/>
			<path fill="#2F1811" d="M48.151,77.819c-0.131-0.106-0.238-0.229-0.246-0.33c-0.021-0.288,0.658-0.633,0.766-0.9
				c0.058-0.144,0.136-0.492,0.032-0.606c-0.166-0.188-0.852,0.039-1.025-0.138c-0.104-0.106-0.112-0.448-0.026-0.561
				c0.076-0.095,0.229-0.151,0.41-0.192c2.613,0.012,3.027-0.726,3.261-2.061c0.082-0.246,0.155-0.497,0.235-0.651
				c0.121-0.235,0.313-0.551,0.524-0.883c0.213-0.194,0.47-0.383,0.776-0.657c0.833-0.747,1.377-1.079,0.779-2.502
				c-0.6-1.422,0.27-2.232,1.074-2.223c0.808,0.013,3.27-0.108,2.549-2.81c-0.719-2.701,1.529-3.213,1.199-4.749
				c-0.33-1.533-1.946-1.136-1.946-1.136c-0.14-0.011-0.263-0.029-0.345-0.074c-0.278-0.151-0.529-0.674-0.803-1.012
				c-0.408-0.797-0.81-1.049-1.239-1.049c-0.598,0-1.256,0.483-2.077,0.67c-1.416,0.319-2.519,0.065-2.607-1.643
				s-0.967-1.896-2.562-1.556c-1.597,0.342-2.328-0.603-2.375-0.666c-0.164-0.228-0.328-0.43-0.49-0.553
				c-0.434-0.414-0.785-0.559-1.094-0.559c-0.751,0-1.243,0.864-2.018,0.854c-1.094-0.015-0.673-1.352-1.992-1.366
				c-0.9-0.008-1.426,0.449-1.67,0.741c-0.088,0.088-0.17,0.203-0.25,0.332c-0.449,0.514-1.37,1.339-2.469,1.018
				c-1.558-0.454-0.583-2.48-2.456-2.457l-0.002,0.002c-0.572-0.047-1.621,0.366-1.873,0.021c-0.254-0.346,0.632-1.153,0.622-1.575
				c-0.004-0.219-0.136-0.762-0.367-0.811c-0.812-0.172-1.718,1.771-2.493,2.05c-0.41,0.149-1.368,0.219-1.758,0.026
				c-0.328-0.166-0.721-0.833-0.803-1.173c-0.078-0.328,0.099-1.009,0.188-1.337c0.121-0.452,0.401-1.378,0.712-1.747
				c0.382-0.453,1.461-1.1,2.039-1.307c0.997-0.36,3.388-1.145,4.236-0.542c0.259,0.184-0.045,0.966,0.166,1.2
				c0.274,0.301,1.303,0.723,1.618,0.461c0.417-0.346-0.548-1.526-0.423-2.027c0.088-0.356,0.678-0.897,0.945-1.165
				c0.455-0.451,1.735-1.063,2.015-1.626c0.039-0.08,0.039-0.201,0.028-0.332c0,0,0.002-0.399,0.239-0.864
				c0.24-0.463,0.714-0.989,1.657-1.245c1.886-0.512,2.986-1.046,2.786-2.134c-0.171-0.914,0.088-1.388,0.697-1.417
				c0,0,0.013,0,0.035,0c0.023,0,0.058,0,0.099,0.002c0.078,0.004,0.16,0.012,0.248,0.029c0.058,0.012,0.119,0.016,0.181,0.014
				c0.369,0.057,0.876,0.192,1.383,0.501c0.973,0.594,4.514,0.068,4.475-1.339c-0.041-1.407,0.141-3.017-1.104-3.363
				c-0.188-0.072-0.423-0.121-0.548-0.172c-0.17-0.07-0.563-0.139-0.68-0.274c-0.332-0.387,0.112-1.757-0.382-1.948
				c-0.485-0.19-1.26,0.92-1.75,1.092c-0.166,0.059-0.557,0.192-0.688,0.088c-0.313-0.244,0.235-1.237-0.043-1.516
				c-0.453-0.448-2.018-0.44-2.643-0.233c-0.313,0.106-0.842,0.582-0.948,0.875c-0.196,0.541,0.628,1.757,0.337,2.263
				c-0.24,0.409-1.491,0.446-1.821,0.798c-0.293,0.309-0.229,1.28-0.544,1.569c-0.151,0.137-0.63,0.334-0.809,0.227
				c-0.432-0.254,0.11-1.571-0.278-1.884c-0.345-0.276-1.379,0.094-1.823,0c-0.266-0.055-0.788-0.246-0.976-0.426
				c-0.237-0.229-0.625-0.866-0.539-1.173c0.23-0.839,2.143-1.691,2.941-2.144c0.056-0.031,0.121-0.074,0.194-0.119
				c1.238-0.5,0.859,0.909,2.043,0.823c1.182-0.084,2.261-1.747,2.501-2.64c0.164-0.612,0.595-0.875,0.85-0.979
				c0.19-0.064,0.394-0.122,0.596-0.167c-0.763-0.509-1.597-0.963-2.505-1.33c-0.269,0.285-0.382,0.552-0.425,0.688
				c0,0.002-0.002,0.004-0.004,0.008c-0.011,0.024-0.017,0.053-0.02,0.084v0.004c0,0.011-0.002,0.021-0.002,0.031
				c0,0.407,0.587,1.145,0.343,1.417c-0.227,0.25-1.116,0.168-1.405-0.019c-0.194-0.129-0.38-0.612-0.339-0.832
				c0.075-0.407,1.361-0.903,1.154-1.271c-0.28-0.496-1.823,0.051-2.404,0.192c-0.177,0.045-0.543,0.151-0.658,0.283
				c-0.136,0.155-0.322,0.625-0.19,0.782c0.143,0.168,0.764-0.131,0.917,0.026c0.157,0.158,0.095,0.69-0.059,0.852
				c-0.252,0.268-1.228,0.029-1.506,0.274c-0.117,0.106-0.039,0.481-0.16,0.583c-0.244,0.209-0.822,0.396-1.342,0.447
				c-0.199,0.012-0.816,0.01-0.816-0.582c0-0.467,0.51-0.684,0.853-0.778c0.112-0.019,0.214-0.041,0.304-0.063
				c0.084-0.022,0.158-0.049,0.209-0.076c0.399-0.217,1.271-0.946,1.139-1.356c-0.06-0.182-0.574-0.295-0.77-0.242
				c-0.319,0.088-0.529,0.832-0.827,0.981c-0.35,0.174-1.221,0.25-1.595,0.117c-0.22-0.078-0.434-0.387-0.649-0.659
				c-0.059-0.088-0.584-0.568-1.277-1.181c-0.904,0.25-1.826,0.567-2.766,0.96c-5.085,2.126-8.178,6.436-8.942,12.461
				c-0.39,3.075-0.128,6.482,0.741,10.047c0.57,0.688,2.12,1.526,2.272,2.278c0.05,0.246-0.432,0.687-0.386,0.93
				c0.099,0.533,1.012,1.378,1.528,1.626c0.5,0.244,1.59,0.563,2.401,0.558h0.002c0.356-0.004,0.66-0.072,0.835-0.238
				c0.088-0.083-0.155-0.378-0.071-0.469c0.211-0.221,1.055-0.203,1.28,0.007c0.16,0.149-0.153,0.691,0.004,0.841
				c0.175,0.17,0.758,0.025,1.008,0.043c0.283,0.023,0.779,0.035,1.172,0.095c0.812,0.348,1.426,1.428,1.636,2.111
				c0.209,0.682,1.409,0.682,2.488,0.34c0.96-0.303,1.644-0.187,1.99,0.379c0,0,0.317,0.844-0.822,1.471
				c-0.151,0.082-0.309,0.186-0.464,0.311c-1.019,0.808-1.949,2.434-0.285,4.209c1.918,2.048,2.756,2.701,3.116,3.874
				c0.358,1.174,2.112,0.619,3.167,1.108c1.055,0.491,1.213,1.706,1.101,2.752c-0.112,1.045-0.336,2.558,0.427,3.156
				c0.764,0.596-0.382,1.974,0.854,3.344c0.808,0.895,0.603,2.568,1.975,4.276C45.96,78.834,47.065,78.335,48.151,77.819z"/>
			<path fill="#2F1811" d="M78.976,36.745c-0.047-0.02-0.094-0.041-0.138-0.063c-0.005-0.002-0.009-0.004-0.016-0.006
				c-0.002-0.002-0.004-0.004-0.004-0.004c-0.114-0.072-0.227-0.137-0.335-0.19c-1.832-1.182-3.718,0.391-5.336,0.518
				c-1.068,0.086-1.331-0.541-1.388-0.977c0.009-0.142,0.011-0.277-0.002-0.396c-0.016-0.123-0.046-0.228-0.105-0.299h0.002
				c0,0-0.562-0.76-1.686-0.514s-2.002,0.889-2.805,1.542c-0.188,0.146-0.385,0.307-0.557,0.412
				c-0.235,0.084-0.538,0.137-0.92,0.115c-1.234-0.076-2.078-0.203-2.82,0.266c-0.74,0.469-0.781,1.087-0.619,1.645c0,0,0,0,0,0.002
				c0.039,0.174,0.102,0.367,0.162,0.555c0.004,0.012,0.009,0.024,0.011,0.035c0.064,0.221,0.291,1.473-2.26,2.306
				c-0.111,0.037-0.215,0.082-0.316,0.133l-0.003-0.002c0,0-0.036,0.021-0.101,0.06c-0.03,0.016-0.061,0.035-0.091,0.053
				c-0.637,0.387-2.715,1.798-3.947,4.396c-1.467,3.101,0.391,4.551,2.249,4.004c1.857-0.545,2.876-0.022,4.376,0.7
				c0.002,0,0.004,0,0.004,0.002c2.838,1.855,5.774,1.523,6.411,0.416c0.697-1.212,1.439,0.571,2.719,0
				c1.282-0.571,1.934,0.024,1.597,1.327c-0.286,1.1,1.092,1.444,2.322,2.444c2.222-3.653,3.646-7.345,4.138-10.842
				C79.91,41.594,79.723,39.031,78.976,36.745z"/>
			<path fill="#2F1811" d="M63.452,28.579c0.074-0.169,0.08-0.584-0.044-0.725c-0.119-0.137-0.542-0.198-0.73-0.19
				c-0.249,0.011-0.755,0.171-0.937,0.331c-0.247,0.215-0.51,0.842-0.561,1.154c-0.025,0.173-0.046,0.586,0.103,0.691
				c0.169,0.118,0.646-0.023,0.837-0.105C62.531,29.552,63.281,28.969,63.452,28.579z"/>
			<path fill="#2F1811" d="M63.237,26.074c-0.094,0.122-0.181,0.328-0.198,0.442c-0.022,0.133-0.007,0.421,0.078,0.527
				c0.1,0.129,0.463,0.217,0.618,0.288c0.218,0.095,0.722,0.196,0.878,0.368c0.097,0.103,0.223,0.407,0.154,0.529
				c-0.104,0.183-0.718,0.104-0.842,0.276c-0.177,0.24-0.19,0.975,0.052,1.162c0.2,0.156,0.786-0.088,1.043-0.134
				c0.346-0.061,1.084-0.108,1.368-0.299c0.231-0.152,0.706-0.64,0.601-0.881c-0.079-0.177-0.62-0.089-0.803-0.177
				c-0.141-0.068-0.371-0.286-0.481-0.39c-0.209-0.2-0.62-0.617-0.767-0.859c-0.109-0.18-0.146-0.556-0.23-0.859
				C64.207,26.041,63.717,26.044,63.237,26.074z"/>
			<path fill="#2F1811" d="M70.618,27.726c-0.328-0.005-0.807-0.05-1.063-0.016c-0.162,0.022-0.405,0.063-0.647,0.123
				c0,0-0.004,0.002-0.011,0.004c-0.261,0.063-0.518,0.147-0.653,0.254c-0.435,0.336-0.609,1.53-1.045,1.863
				c-0.08,0.06-0.196,0.101-0.332,0.133c-0.007,0-1.306,0.082-1.86,0.295c-0.553,0.213-0.779,1.051-0.134,1.634
				c0.617,0.557,0.091,0.832-0.617,0.885c-0.034,0-0.066,0.002-0.097,0.006c-0.753,0.033-1.425-0.108-1.987,0.83
				c-0.563,0.938-0.149,2.722,1.741,2.74c0.123,0.008,0.282,0,0.455-0.02c0.002,0,0.002,0,0.004,0
				c0.415-0.047,0.913-0.152,1.202-0.201c0.933-0.272,1.243-0.901,1.332-1.11c0.267-0.626,0.802-2.021,1.443-2.34
				c0.261-0.131,0.915,0.182,1.188,0.074c0.354-0.142,0.613-1.155,0.997-1.1c0.209,0.03,0.179,0.577,0.326,0.719
				c0.582,0.577,2.803,0.641,3.06,1.396c0.048,0.127-0.153,0.397-0.276,0.469c-0.27,0.162-1.158-0.178-1.273,0.099
				c-0.077,0.182,0.389,0.489,0.579,0.575c0.183,0.082,0.606,0.101,0.803,0.06c0.243-0.051,0.753-0.262,0.858-0.467
				c0.119-0.231-0.276-0.778-0.166-1.014c0.043-0.099,0.371-0.135,0.377-0.242c0.005-0.111-0.271-0.221-0.373-0.277
				c-0.468-0.25-1.613-0.393-2.015-0.727c-0.274-0.229-0.853-0.916-0.683-1.221c0.182-0.324,1.174-0.291,1.559-0.199
				c0.168,0.041,0.414,0.301,0.561,0.393c0.365,0.236,1.249,0.553,1.498,0.897c0.038,0.066,0.127,0.707-0.108,1.485
				s0.438,1.396,1.146,1.503c0.708,0.106,1.109-0.417,1.021-1.003c0,0,0,0,0-0.002c0.005-0.237-0.032-0.523-0.052-0.787
				c-0.846-1.273-1.915-2.422-3.208-3.429C72.991,29.091,71.804,28.329,70.618,27.726z"/>
			<path fill="#2F1811" d="M68.902,26.969c0.055,0.036,0.112,0.058,0.174,0.065C69.019,27.012,68.961,26.991,68.902,26.969z"/>
		</g>
	</g>
</g>
<g>
	<g>
		<path fill="#7F3220" d="M50.365,68.985c-1.185-3.045-4.909-4.226-7.719-2.633c-2.498,1.416-4.243,5.029-3.16,7.803
			c0.871,2.23,3.449,3.397,5.784,3.137c0.677,0.009,1.341-0.097,1.939-0.33C49.95,75.891,51.387,71.613,50.365,68.985z"/>
		<path fill="#A74131" d="M47.75,71.505c-1.668-0.979-5.919,0.79-5.029,3.084c0.16,0.413,0.46,0.705,0.827,0.9
			c0.476,0.594,1.32,0.881,2.102,0.74c1.012-0.183,2.238-0.846,2.765-1.763C48.977,73.492,48.759,72.098,47.75,71.505z"/>
		<path fill="#A74131" d="M48.388,68.27c-0.101-0.297-0.242-0.539-0.458-0.768c-0.338-0.354-0.877-0.596-1.372-0.56
			c-0.321,0.023-0.615,0.118-0.849,0.352c-0.208,0.208-0.365,0.55-0.352,0.849c0.002,0.041,0.005,0.082,0.011,0.123
			c-0.001,0.013-0.003,0.025-0.003,0.038c-0.013,0.481,0.209,1.003,0.578,1.315c0.474,0.402,1.026,0.553,1.638,0.422
			c0.251-0.054,0.473-0.234,0.624-0.43c0.176-0.229,0.222-0.44,0.258-0.728C48.487,68.684,48.453,68.46,48.388,68.27z"/>
		<path fill="#A74131" d="M42.405,67.876c-1.013,0.725-1.757,1.723-2.031,2.953c-0.129,0.579,0.141,1.187,0.685,1.421
			c0.363,0.266,0.851,0.344,1.272,0.057c1.152-0.785,1.844-1.992,1.88-3.395C44.232,68.059,43.152,67.342,42.405,67.876z"/>
		<path fill="#EB779E" d="M48.475,71.159c-0.232-0.626-0.686-1.152-1.25-1.505c-1.077-0.674-2.475-0.632-3.446,0.207
			c-0.886,0.764-1.296,2.317-0.285,3.157c0.956,0.793,2.616,0.56,3.044-0.705c0.218-0.645-0.125-1.447-0.826-1.595
			c-0.667-0.141-1.311,0.516-1.119,1.177c0.107,0.37,0.687,0.213,0.579-0.159c-0.053-0.182,0.073-0.364,0.25-0.421
			c0.224-0.072,0.437,0.109,0.528,0.302c0.201,0.43-0.129,0.902-0.497,1.112c-0.61,0.349-1.578,0.116-1.868-0.556
			c-0.404-0.934,0.444-1.979,1.289-2.276c0.952-0.335,2.041,0.056,2.668,0.82c0.351,0.428,0.546,0.979,0.458,1.533
			c-0.078,0.497-0.319,0.977-0.639,1.361c-0.604,0.729-1.52,1.208-2.473,1.224c-1.99,0.033-3.588-1.815-3.248-3.776
			c0.208-1.199,1-2.021,2.031-2.603c1.068-0.602,2.348-0.926,3.538-0.504c0.365,0.129,0.521-0.45,0.159-0.578
			c-1.335-0.474-2.801-0.111-4,0.564c-1.166,0.657-2.091,1.639-2.313,2.997c-0.205,1.249,0.175,2.521,1.098,3.4
			c0.882,0.84,2.12,1.249,3.325,1.04c1.198-0.207,2.308-1.036,2.826-2.139C48.612,72.585,48.732,71.851,48.475,71.159z"/>
	</g>
	<g>
		<path fill="#7F3220" d="M73.562,35.361c-2.381-1.481-5.595-0.161-6.941,2.101c-1.228,2.06-0.566,4.63,1.317,5.847
			c2.027,1.457,4.983,1.466,6.695-0.534C76.489,40.605,76.027,36.895,73.562,35.361z"/>
		<path fill="#A74131" d="M74.026,38.651c-0.19-1.479-1.613-2.444-3.055-2.333c-1.448,0.11-3.047,1.259-3.449,2.694
			c-0.385,1.375,0.462,2.798,1.7,3.394c1.278,0.614,2.921,0.302,3.84-0.792c0.168-0.201,0.302-0.422,0.402-0.657
			C73.901,40.264,74.127,39.436,74.026,38.651z"/>
		<path fill="#C55445" d="M69.267,38.376c-0.047-0.144-0.127-0.269-0.24-0.374c-0.024-0.022-0.05-0.043-0.075-0.064
			c-0.148-0.167-0.336-0.301-0.557-0.352c-0.29-0.066-0.639-0.06-0.893,0.117c-0.207,0.144-0.263,0.191-0.397,0.366
			c-0.128,0.165-0.184,0.26-0.254,0.481c-0.041,0.129-0.056,0.27-0.059,0.405c-0.002,0.111,0.023,0.238,0.043,0.348
			c0.005,0.026,0.011,0.051,0.021,0.076c0.055,0.196,0.154,0.367,0.298,0.512c0.145,0.144,0.315,0.243,0.512,0.298
			c0.389,0.107,0.848,0.001,1.128-0.298c0.078-0.083,0.155-0.167,0.233-0.25c0.208-0.221,0.34-0.512,0.34-0.82
			C69.372,38.663,69.339,38.514,69.267,38.376z"/>
		<path fill="#C55445" d="M74.708,38.603c-0.026-0.199-0.066-0.361-0.184-0.54c-0.049-0.075-0.13-0.184-0.191-0.248
			c-0.008-0.008-0.016-0.016-0.024-0.023c-0.043-0.034-0.087-0.067-0.13-0.101c-0.039-0.035-0.081-0.067-0.125-0.095
			c-0.013-0.007-0.023-0.014-0.037-0.019c-0.133-0.084-0.277-0.13-0.431-0.138c-0.085-0.019-0.169-0.024-0.254-0.018
			c-0.051-0.007-0.103-0.011-0.155-0.009c-0.3,0.014-0.611,0.112-0.82,0.339c-0.06,0.079-0.12,0.157-0.181,0.235
			c-0.105,0.181-0.158,0.376-0.158,0.585c-0.019,0.213,0.038,0.395,0.117,0.582c0.028,0.068,0.054,0.145,0.096,0.208
			c0.063,0.096,0.139,0.198,0.219,0.28c0.083,0.084,0.19,0.159,0.288,0.226c0.059,0.041,0.137,0.065,0.199,0.092
			c0.074,0.031,0.137,0.064,0.213,0.079c0.098,0.018,0.229,0.041,0.328,0.043c0.017,0,0.032,0,0.049-0.001
			c0.055-0.007,0.109-0.014,0.164-0.022c0.104,0,0.202-0.027,0.293-0.079c0.098-0.027,0.183-0.077,0.255-0.149
			c0.088-0.052,0.157-0.121,0.208-0.208c0.121-0.156,0.164-0.219,0.231-0.439c0.003-0.011,0.007-0.021,0.009-0.032
			c0.021-0.088,0.039-0.234,0.044-0.325C74.734,38.75,74.719,38.678,74.708,38.603z"/>
		<path fill="#C55445" d="M73.46,41.237c-0.034-0.104-0.092-0.195-0.175-0.271c-0.076-0.083-0.166-0.141-0.271-0.175
			c-0.101-0.053-0.209-0.077-0.325-0.072c-0.075,0.01-0.149,0.02-0.225,0.03c-0.143,0.041-0.267,0.113-0.372,0.217
			c-0.044,0.057-0.088,0.113-0.132,0.17c-0.076,0.131-0.114,0.273-0.115,0.425v0.125c-0.004,0.116,0.021,0.224,0.073,0.325
			c0.034,0.104,0.092,0.195,0.174,0.271c0.077,0.083,0.167,0.141,0.271,0.175c0.101,0.053,0.209,0.077,0.325,0.072
			c0.074-0.01,0.149-0.02,0.224-0.03c0.144-0.041,0.268-0.113,0.372-0.217c0.044-0.057,0.088-0.113,0.132-0.17
			c0.076-0.131,0.115-0.273,0.115-0.425v-0.125C73.537,41.446,73.513,41.337,73.46,41.237z"/>
		<g>
			<path fill="#FDBF73" d="M68.38,41.106c-0.012-0.038-0.027-0.076-0.047-0.11c-0.003-0.005-0.006-0.011-0.01-0.016
				c-0.019-0.027-0.039-0.053-0.06-0.078c-0.009-0.01-0.019-0.019-0.028-0.027c-0.028-0.022-0.062-0.052-0.096-0.07
				c-0.029-0.015-0.061-0.026-0.09-0.038c-0.007-0.003-0.013-0.005-0.02-0.007c-0.038-0.012-0.083-0.015-0.119-0.019
				c-0.014-0.001-0.027-0.001-0.041,0c-0.032,0.003-0.066,0.007-0.1,0.014c-0.007,0.001-0.014,0.004-0.021,0.006
				c-0.041,0.01-0.077,0.029-0.107,0.057c-0.035,0.022-0.062,0.052-0.082,0.089c-0.022,0.036-0.035,0.075-0.037,0.118
				c-0.01,0.042-0.008,0.084,0.006,0.126c0.011,0.025,0.021,0.05,0.031,0.076c0.028,0.047,0.066,0.085,0.113,0.113l0.076,0.032
				c0.025,0.007,0.05,0.009,0.075,0.01c0.001,0,0.001,0.001,0.001,0.001c0.022,0.035,0.052,0.062,0.089,0.082
				c0.036,0.023,0.075,0.036,0.117,0.038c0.042,0.009,0.084,0.007,0.126-0.006c0.025-0.011,0.051-0.021,0.076-0.032
				c0.047-0.028,0.085-0.066,0.113-0.113c0.011-0.025,0.021-0.05,0.032-0.076C68.395,41.218,68.395,41.162,68.38,41.106z"/>
			<path fill="#FDBF73" d="M68.884,38.593c-0.016-0.074-0.047-0.147-0.081-0.214c-0.069-0.132-0.186-0.25-0.315-0.321
				c-0.073-0.04-0.162-0.054-0.244-0.032c-0.073,0.02-0.152,0.077-0.188,0.146c-0.039,0.073-0.059,0.162-0.032,0.244
				c0.025,0.077,0.072,0.148,0.146,0.189c0.008,0.004,0.016,0.01,0.023,0.015c0.012,0.011,0.023,0.023,0.035,0.035
				c0.01,0.016,0.019,0.031,0.027,0.047c0.006,0.017,0.011,0.035,0.015,0.052c0.001,0.023,0.003,0.046,0.001,0.069
				c-0.002,0.043,0.007,0.084,0.027,0.122c0.013,0.039,0.034,0.073,0.065,0.102c0.055,0.055,0.145,0.096,0.223,0.093
				c0.082-0.004,0.167-0.031,0.224-0.093l0.05-0.064c0.028-0.049,0.043-0.103,0.043-0.16C68.909,38.747,68.898,38.667,68.884,38.593
				z"/>
			<path fill="#FDBF73" d="M71.045,36.606c-0.055-0.055-0.145-0.096-0.224-0.093c-0.171,0.008-0.316,0.139-0.316,0.316v0.747
				c0,0.081,0.036,0.166,0.093,0.224c0.055,0.055,0.146,0.096,0.224,0.093c0.172-0.008,0.316-0.139,0.316-0.316V36.83
				C71.138,36.749,71.103,36.664,71.045,36.606z"/>
			<path fill="#FDBF73" d="M70.796,39.47c-0.055-0.055-0.145-0.096-0.224-0.092c-0.081,0.003-0.166,0.03-0.224,0.092
				c-0.057,0.062-0.093,0.138-0.093,0.224v0.498c0,0.081,0.036,0.167,0.093,0.224c0.055,0.055,0.146,0.096,0.224,0.093
				c0.082-0.004,0.167-0.031,0.224-0.093s0.093-0.138,0.093-0.224v-0.498C70.889,39.613,70.854,39.528,70.796,39.47z"/>
			<path fill="#FDBF73" d="M70.259,42.218c-0.01-0.025-0.021-0.05-0.031-0.076c-0.028-0.047-0.066-0.085-0.113-0.113
				c-0.125-0.083-0.25-0.165-0.375-0.247c-0.036-0.023-0.076-0.036-0.118-0.038c-0.042-0.009-0.084-0.007-0.126,0.005
				c-0.041,0.01-0.077,0.029-0.107,0.057c-0.034,0.022-0.062,0.052-0.081,0.089c-0.039,0.073-0.059,0.162-0.032,0.244l0.032,0.076
				c0.028,0.047,0.065,0.085,0.113,0.113c0.125,0.083,0.25,0.165,0.375,0.247c0.036,0.023,0.075,0.036,0.117,0.038
				c0.042,0.009,0.084,0.007,0.126-0.006c0.041-0.01,0.077-0.028,0.107-0.056c0.035-0.022,0.062-0.052,0.082-0.089
				C70.266,42.389,70.285,42.299,70.259,42.218z"/>
			<path fill="#FDBF73" d="M72.87,41.851c-0.042-0.166-0.083-0.332-0.125-0.498c-0.019-0.076-0.078-0.149-0.146-0.189
				s-0.167-0.056-0.243-0.032c-0.077,0.025-0.15,0.072-0.189,0.146c-0.04,0.076-0.053,0.159-0.031,0.244
				c0.041,0.166,0.083,0.332,0.124,0.498c0.02,0.076,0.078,0.149,0.146,0.189s0.168,0.056,0.243,0.032
				c0.077-0.025,0.15-0.072,0.189-0.146C72.878,42.019,72.891,41.936,72.87,41.851z"/>
			<path fill="#FDBF73" d="M73.834,39.285c-0.083-0.166-0.166-0.332-0.249-0.498c-0.034-0.068-0.117-0.125-0.189-0.145
				c-0.075-0.021-0.176-0.011-0.243,0.032c-0.067,0.043-0.127,0.108-0.146,0.189c-0.004,0.028-0.008,0.056-0.011,0.084
				c0,0.057,0.015,0.11,0.043,0.16c0.083,0.166,0.166,0.332,0.249,0.498c0.034,0.068,0.117,0.125,0.188,0.146
				c0.076,0.021,0.177,0.011,0.244-0.032s0.127-0.108,0.146-0.188c0.003-0.028,0.007-0.056,0.011-0.084
				C73.877,39.388,73.862,39.335,73.834,39.285z"/>
			<path fill="#FDBF73" d="M73.162,36.731c-0.125-0.125-0.249-0.249-0.374-0.374c-0.057-0.057-0.143-0.093-0.224-0.093
				c-0.043-0.001-0.084,0.008-0.121,0.027c-0.04,0.013-0.073,0.035-0.103,0.065c-0.055,0.061-0.096,0.14-0.092,0.224
				c0.003,0.084,0.031,0.163,0.092,0.224l0.374,0.374c0.058,0.057,0.143,0.092,0.224,0.092c0.043,0.002,0.084-0.007,0.122-0.027
				c0.039-0.013,0.073-0.035,0.102-0.065c0.055-0.06,0.097-0.139,0.093-0.224C73.251,36.871,73.223,36.792,73.162,36.731z"/>
			<path fill="#FDBF73" d="M74.905,40.218c-0.055-0.055-0.145-0.097-0.224-0.093c-0.082,0.003-0.167,0.03-0.224,0.093
				c-0.057,0.062-0.093,0.138-0.093,0.223v0.499c0,0.081,0.035,0.166,0.093,0.223c0.055,0.055,0.145,0.096,0.224,0.093
				c0.082-0.003,0.167-0.031,0.224-0.093c0.057-0.062,0.093-0.138,0.093-0.223v-0.499C74.998,40.36,74.963,40.275,74.905,40.218z"/>
			<path fill="#FDBF73" d="M71.792,43.331c-0.062-0.057-0.138-0.093-0.224-0.093h-0.373c-0.081,0-0.166,0.036-0.224,0.093
				c-0.031,0.029-0.053,0.063-0.065,0.102c-0.02,0.038-0.029,0.079-0.027,0.122c0.004,0.082,0.03,0.167,0.093,0.223
				c0.062,0.057,0.138,0.093,0.224,0.093h0.373c0.081,0,0.167-0.035,0.224-0.093c0.031-0.028,0.053-0.063,0.065-0.102
				c0.02-0.038,0.029-0.078,0.027-0.122C71.881,43.472,71.854,43.388,71.792,43.331z"/>
			<path fill="#FDBF73" d="M69.377,43.233c-0.011-0.025-0.021-0.05-0.032-0.076c-0.027-0.047-0.065-0.085-0.113-0.113
				c-0.083-0.042-0.166-0.083-0.249-0.125c-0.036-0.023-0.075-0.036-0.117-0.038c-0.042-0.009-0.084-0.008-0.126,0.006
				c-0.041,0.01-0.077,0.028-0.107,0.057c-0.034,0.022-0.062,0.052-0.082,0.088c-0.01,0.025-0.021,0.05-0.031,0.076
				c-0.016,0.056-0.016,0.112,0,0.168c0.011,0.025,0.021,0.05,0.031,0.076c0.028,0.047,0.066,0.085,0.114,0.113
				c0.083,0.042,0.165,0.083,0.248,0.125c0.037,0.023,0.076,0.036,0.118,0.038c0.042,0.009,0.084,0.007,0.126-0.006
				c0.041-0.01,0.077-0.028,0.107-0.057c0.034-0.022,0.062-0.052,0.081-0.088l0.032-0.076
				C69.392,43.345,69.392,43.289,69.377,43.233z"/>
			<path fill="#FDBF73" d="M69.259,36.871c-0.016-0.054-0.042-0.1-0.081-0.14c-0.083-0.083-0.166-0.166-0.249-0.249
				c-0.029-0.031-0.063-0.053-0.103-0.065c-0.037-0.02-0.078-0.029-0.121-0.027c-0.044-0.002-0.085,0.007-0.122,0.027
				c-0.039,0.013-0.073,0.035-0.102,0.065l-0.05,0.064c-0.028,0.049-0.043,0.103-0.043,0.16c0.004,0.028,0.008,0.056,0.011,0.084
				c0.016,0.054,0.043,0.1,0.082,0.14c0.083,0.083,0.166,0.166,0.249,0.249c0.028,0.031,0.063,0.053,0.102,0.065
				c0.038,0.02,0.078,0.029,0.122,0.027c0.043,0.002,0.084-0.007,0.121-0.027c0.04-0.013,0.073-0.035,0.103-0.065l0.049-0.064
				c0.028-0.049,0.043-0.103,0.043-0.16C69.267,36.927,69.263,36.898,69.259,36.871z"/>
		</g>
	</g>
	<g>
		<g>
			<path fill="#732D20" d="M66.882,31.644c-0.319-1.94-1.907-2.256-3.59-1.935c-0.075,0.003-0.153,0.014-0.238,0.045
				c-0.008,0.003-0.015,0.006-0.022,0.008c-1.376,0.313-2.773,1.015-3.558,1.572c-0.245,0.174-0.499,0.358-0.753,0.552
				c-0.187,0.122-0.371,0.247-0.554,0.375c-1.159,0.821-2.315,1.85-2.563,3.32c-0.211,1.247,0.291,2.572,1.476,3.125
				c1.39,0.649,3.253,0.081,4.583-0.47C64.089,37.232,67.375,34.648,66.882,31.644z"/>
			<path fill="#91382B" d="M64.788,31.522c-0.823-0.929-2.476-0.333-3.44,0.043c-1.245,0.485-2.387,1.217-3.324,2.173
				c-0.712,0.725-1.841,1.925-1.314,3.03c0.471,0.989,1.815,0.924,2.727,0.8c1.286-0.175,2.497-0.719,3.496-1.547
				c0.683-0.566,1.515-1.458,1.865-2.388C65.153,32.925,65.325,32.128,64.788,31.522z"/>
			<path fill="#C55445" d="M58.372,34.794c-0.023-0.1-0.069-0.187-0.137-0.261c-0.099-0.127-0.239-0.239-0.399-0.275
				c-0.136-0.031-0.273-0.031-0.409,0c-0.086,0.02-0.161,0.061-0.229,0.112c-0.072,0.019-0.143,0.047-0.21,0.082
				c-0.191,0.101-0.319,0.299-0.381,0.5c-0.023,0.075-0.029,0.16-0.031,0.24c0,0.038,0.013,0.103,0.016,0.122
				c0.003,0.022,0.008,0.085,0.018,0.122c0.03,0.112,0.088,0.227,0.162,0.321c0.064,0.096,0.147,0.181,0.242,0.231
				c0.179,0.094,0.395,0.142,0.592,0.078c0.007-0.003,0.013-0.005,0.02-0.008c0.091-0.02,0.18-0.052,0.257-0.097
				c0.071-0.042,0.141-0.091,0.197-0.151c0.128-0.136,0.202-0.271,0.261-0.448c0.039-0.116,0.047-0.242,0.062-0.362
				C58.391,34.931,58.382,34.862,58.372,34.794z"/>
			<path fill="#C55445" d="M65.349,34.188c-0.109-0.358-0.354-0.598-0.705-0.719c-0.198-0.069-0.422-0.023-0.604,0.089
				c-0.21,0.037-0.403,0.156-0.523,0.358c-0.126,0.21-0.252,0.421-0.378,0.631c-0.31,0.519,0.095,1.132,0.664,1.157
				c0.552,0.024,1.162-0.119,1.442-0.648C65.381,34.798,65.436,34.471,65.349,34.188z"/>
			<path fill="#C55445" d="M64.959,31.589c-0.989,0-0.991,1.538,0,1.538C65.947,33.127,65.949,31.589,64.959,31.589z"/>
		</g>
		<path fill="#FDBF73" d="M64.831,32.231c-0.182-0.259-0.473-0.462-0.603-0.754c-0.034-0.079-0.087-0.208-0.016-0.28
			c0.02-0.02,0.049-0.026,0.074-0.034c0.003-0.001,0.004-0.001,0.007-0.002c0.212,0.354,0.771,0.026,0.563-0.341
			c-0.231-0.41-0.794-0.397-1.109-0.089c-0.433,0.422-0.164,1.048,0.164,1.438c0.156,0.187,0.472,0.417,0.495,0.68
			c0.006,0.062-0.023,0.222-0.104,0.232c-0.029,0.004-0.168-0.165-0.213-0.21c-0.424-0.425-0.924-0.785-1.474-1.027
			c-0.53-0.233-1.104-0.372-1.686-0.345c-0.466,0.021-1.203,0.195-1.048,0.832c0.12,0.488,0.712,0.828,1.106,1.08
			c0.426,0.272,0.884,0.513,1.255,0.861c0.162,0.152,0.33,0.333,0.419,0.542c0.056,0.13,0.129,0.43,0.005,0.546
			c-0.177,0.165-0.49-0.155-0.625-0.266c-0.239-0.197-0.477-0.397-0.717-0.592c-0.464-0.376-0.942-0.744-1.475-1.018
			c-0.455-0.235-1.021-0.481-1.544-0.434c-0.51,0.045-0.936,0.456-0.709,0.988c0.194,0.458,0.734,0.79,1.125,1.068
			c0.399,0.283,0.817,0.55,1.153,0.91c0.142,0.151,0.265,0.323,0.349,0.513c0.025,0.058,0.105,0.207,0.063,0.241
			c-0.098,0.077-0.319-0.153-0.37-0.2c-0.519-0.472-1.057-0.909-1.659-1.271c-0.481-0.29-1.39-0.832-1.661,0.014
			c-0.374,1.169,1.648,1.561,1.852,2.575c0.083,0.416,0.718,0.24,0.635-0.175c-0.091-0.457-0.387-0.815-0.736-1.107
			c-0.174-0.146-0.357-0.278-0.538-0.416c-0.183-0.139-0.44-0.304-0.549-0.512c-0.181-0.348,0.305-0.017,0.416,0.045
			c0.279,0.156,0.551,0.328,0.813,0.513c0.239,0.169,0.468,0.352,0.687,0.545c0.219,0.193,0.421,0.43,0.687,0.559
			c0.441,0.213,1.07,0.019,1.096-0.535c0.021-0.458-0.317-0.936-0.615-1.254c-0.321-0.344-0.717-0.613-1.101-0.882
			c-0.183-0.128-0.368-0.255-0.543-0.395c-0.099-0.079-0.532-0.379-0.514-0.512c0.014-0.103,0.378-0.047,0.444-0.033
			c0.281,0.059,0.555,0.159,0.813,0.286c0.499,0.247,0.951,0.577,1.383,0.926c0.423,0.341,0.848,0.813,1.349,1.034
			c0.468,0.205,0.99,0.02,1.155-0.478c0.319-0.964-0.608-1.758-1.317-2.221c-0.396-0.259-0.821-0.482-1.188-0.784
			c-0.091-0.074-0.171-0.157-0.256-0.237c-0.124-0.116-0.027-0.03-0.012-0.041c0.04-0.026,0.112-0.031,0.159-0.038
			c0.265-0.042,0.553-0.029,0.816,0.016c0.623,0.107,1.208,0.398,1.7,0.791c0.392,0.313,0.821,0.998,1.404,0.667
			C65.163,33.351,65.142,32.675,64.831,32.231z"/>
	</g>
	<g>
		<path fill="#7F3220" d="M36.178,27.772c-0.097-0.816-0.462-1.552-1.125-2.052c-0.629-0.476-1.436-0.723-2.225-0.658
			c-1.672,0.137-2.891,1.584-3.129,3.177c-0.038,0.049-0.059,0.114-0.047,0.199c0.001,0.005,0.001,0.01,0.002,0.015
			c-0.042-0.036-0.086-0.054-0.132-0.059c-1.309-0.938-3.196-1.072-4.459,0.032c-0.596,0.521-0.98,1.272-1.078,2.055
			c-0.102,0.824,0.17,1.599,0.689,2.237c0.558,0.686,1.346,1.158,2.104,1.591c0.865,0.494,1.766,0.933,2.706,1.264
			c0.931,0.328,1.91,0.556,2.898,0.581c1.149,0.029,2.105-2.095,2.495-2.941c0.417-0.906,0.729-1.857,0.977-2.822
			C36.071,29.545,36.281,28.65,36.178,27.772z"/>
		<path fill="#A74131" d="M34.759,27.735c-0.194-0.813-0.909-1.562-1.787-1.398c-0.544-0.011-1.081,0.233-1.452,0.667
			c-0.252,0.294-0.431,0.644-0.538,1.015c-0.112,0.391-0.119,0.859-0.367,1.196c-0.21,0.286-0.576,0.416-0.891,0.548
			c-0.332,0.139-0.66,0.285-0.926,0.534c-0.563,0.526-0.746,1.372-0.579,2.107c0.337,1.488,2.233,2.91,3.728,2.138
			c0.709-0.366,1.27-1.094,1.698-1.749c0.456-0.698,0.795-1.482,0.995-2.291C34.857,29.625,34.971,28.623,34.759,27.735z"/>
		<path fill="#A74131" d="M28.146,29.193c-0.115-0.319-0.395-0.564-0.729-0.632c-0.342-0.069-0.714,0.031-0.885,0.358
			c-0.017,0.031-0.025,0.065-0.031,0.1c-0.516,0.25-0.929,0.687-1.131,1.232c-0.208,0.561-0.104,1.305,0.422,1.655
			c0.294,0.196,0.683,0.21,1.008,0.09c0.354-0.131,0.624-0.383,0.829-0.695c0.195-0.297,0.336-0.644,0.453-0.979
			C28.208,29.965,28.278,29.559,28.146,29.193z"/>
		<path fill="#C55445" d="M29.203,29.515c-0.048-0.23-0.275-0.46-0.507-0.506c-0.273-0.055-0.541-0.032-0.785,0.114
			c-0.222,0.133-0.406,0.37-0.461,0.625c-0.018,0.081-0.02,0.164-0.012,0.247c-0.062,0.251-0.02,0.509,0.1,0.754
			c0.073,0.149,0.273,0.297,0.433,0.333c0.201,0.046,0.373,0.013,0.559-0.073C29.09,30.75,29.322,30.088,29.203,29.515z"/>
		<path fill="#C55445" d="M33.134,33.636c-0.021-0.152-0.049-0.217-0.114-0.372c-0.066-0.155-0.279-0.291-0.434-0.333
			c-0.173-0.048-0.404-0.026-0.559,0.073c-0.096,0.062-0.182,0.145-0.246,0.241c-0.092,0.059-0.176,0.137-0.245,0.237
			c-0.072,0.105-0.144,0.211-0.216,0.316c-0.259,0.378-0.001,0.966,0.433,1.065c0.394,0.09,0.823-0.022,1.09-0.336
			c0.126-0.149,0.233-0.317,0.274-0.512C33.146,33.882,33.152,33.769,33.134,33.636z"/>
		<path fill="#C55445" d="M34.713,27.399c-0.11-0.769-1.055-1.295-1.771-1.03c-0.312,0.115-0.564,0.411-0.536,0.749
			c-0.002,0.07,0.004,0.141,0.027,0.212c0.238,0.727,1.02,1.195,1.773,0.961C34.616,28.164,34.771,27.799,34.713,27.399z"/>
		<path fill="#EB779E" d="M33.226,31.773c-0.595,0.211-1.068,0.656-1.511,1.09c-0.456,0.447-0.913,0.911-1.528,1.127
			c-0.298,0.105-0.628,0.156-0.936,0.06c-0.31-0.096-0.653-0.369-0.52-0.732c0.204-0.554,1.039-0.789,1.524-0.995
			c0.591-0.251,1.185-0.5,1.753-0.8c0.535-0.282,1.048-0.613,1.494-1.024c0.411-0.379,0.925-0.914,0.944-1.509
			c0.021-0.648-0.546-1.015-1.132-0.792c-0.563,0.213-1.047,0.626-1.468,1.046c-0.899,0.898-1.637,1.934-2.87,2.403
			c-0.621,0.236-1.289,0.334-1.952,0.286c-0.32-0.023-0.664-0.073-0.965-0.189c-0.128-0.049-0.269-0.118-0.311-0.261
			c-0.058-0.194,0.095-0.417,0.218-0.551c0.532-0.581,1.428-0.543,2.145-0.588c0.74-0.046,1.43-0.227,2.019-0.695
			c0.6-0.478,0.925-1.166,1.315-1.807c0.378-0.621,0.933-1.283,1.726-1.268c0.267,0.005,0.267-0.409,0-0.415
			c-1.416-0.027-2,1.434-2.649,2.426c-0.387,0.591-0.923,1.043-1.614,1.229c-0.715,0.193-1.473,0.075-2.191,0.256
			c-0.515,0.13-1.041,0.415-1.284,0.91c-0.293,0.597,0.086,1.041,0.653,1.205c1.228,0.356,2.612,0.159,3.715-0.474
			c1.081-0.62,1.755-1.686,2.676-2.493c0.237-0.207,0.492-0.392,0.771-0.537c0.143-0.074,0.35-0.19,0.521-0.144
			c0.19,0.051,0.273,0.272,0.264,0.451c-0.018,0.324-0.266,0.62-0.469,0.854c-0.227,0.26-0.484,0.495-0.761,0.701
			c-1.005,0.749-2.207,1.17-3.342,1.674c-0.476,0.211-1.059,0.553-1.159,1.114c-0.108,0.603,0.447,1.05,0.985,1.152
			c1.518,0.29,2.414-1.234,3.47-1.991c0.256-0.184,0.675-0.469,1.011-0.374c0.452,0.127-0.035,0.76-0.197,0.951
			c-0.473,0.558-1.154,0.927-1.882,1.01c-0.262,0.03-0.265,0.445,0,0.415c0.614-0.07,1.189-0.291,1.681-0.668
			c0.421-0.322,0.973-0.874,0.995-1.444C34.389,31.743,33.719,31.598,33.226,31.773z"/>
	</g>
	<g>
		<path fill="#732D20" d="M47.394,40.318c-0.23-0.515-0.498-1.122-1.06-1.348c-0.347-0.14-0.725-0.123-1.023,0.053
			c-0.024,0.002-0.049,0.006-0.073,0.012c-1.207,0.306-2.396,0.673-3.564,1.106c-0.59,0.219-1.175,0.454-1.752,0.704
			c-0.45,0.195-0.944,0.38-1.326,0.698c-0.387,0.322-0.613,0.747-0.589,1.259c0.026,0.554,0.246,1.129,0.417,1.652
			c0.374,1.143,0.862,2.246,1.445,3.297c0.456,0.821,1.03,1.797,2.09,1.812c0.563,0.007,1.116-0.25,1.634-0.44
			c0.58-0.212,1.159-0.428,1.735-0.649c0.591-0.226,1.18-0.457,1.767-0.691c0.54-0.216,1.122-0.4,1.63-0.685
			c0.497-0.278,0.565-0.779,0.496-1.297c-0.079-0.592-0.209-1.178-0.373-1.752C48.483,42.764,47.939,41.537,47.394,40.318z"/>
		<path fill="#91382B" d="M46.473,40.291c-0.344-0.345-0.81-0.499-1.282-0.412c-0.264-0.038-0.543,0.045-0.762,0.218
			c-0.326,0.256-0.52,0.635-0.591,1.039c-0.077,0.435-0.021,0.873,0.093,1.296c0.131,0.489,0.351,0.961,0.413,1.466
			c0.046,0.377-0.017,0.795-0.286,1.083c-0.264,0.282-0.617,0.199-0.944,0.085c-0.401-0.139-0.798-0.275-1.229-0.195
			c-0.43,0.081-0.83,0.304-1.105,0.647c-0.569,0.711-0.449,1.77,0.21,2.382c0.69,0.642,1.779,0.542,2.636,0.415
			c1.058-0.157,2.137-0.479,3.065-1.018c0.789-0.458,1.013-1.308,0.965-2.168c-0.027-0.497-0.129-0.988-0.211-1.478
			c-0.102-0.603-0.197-1.207-0.305-1.809C47.04,41.279,46.891,40.708,46.473,40.291z"/>
		<path fill="#91382B" d="M42.639,41.894c-0.627-0.51-1.527-0.471-2.245-0.198c-0.109,0.042-0.188,0.134-0.22,0.24
			c-0.46,0.248-0.834,0.657-0.719,1.228c0.155,0.764,1.054,1.066,1.726,1.186c0.716,0.127,1.639,0.037,1.939-0.748
			C43.349,43.008,43.128,42.291,42.639,41.894z"/>
		<g>
			<path fill="#C55445" d="M41.25,41.402c-0.072-0.079-0.138-0.137-0.23-0.19c-0.037-0.021-0.077-0.038-0.118-0.053
				c-0.147-0.094-0.329-0.086-0.496-0.046c-0.299,0.072-0.667,0.245-0.7,0.593c-0.037,0.391,0.314,0.662,0.678,0.674
				c0.188,0.006,0.38-0.089,0.518-0.213c0.157-0.142,0.271-0.313,0.372-0.499C41.314,41.595,41.31,41.466,41.25,41.402z
				 M40.284,41.726c0.007-0.005,0.015-0.009,0.022-0.014c-0.003,0.001-0.005,0.002-0.009,0.003c0.003-0.001,0.007-0.003,0.011-0.004
				c0.002-0.001,0.005-0.003,0.007-0.004c0.014-0.008,0.024-0.009,0.02-0.006c0.013-0.005,0.027-0.01,0.04-0.016
				c0.04,0.006,0.081,0.003,0.121-0.014c0.022-0.009,0.044-0.016,0.066-0.023c0.006-0.001,0.012-0.001,0.018-0.002
				c-0.001,0.001-0.001,0.002-0.001,0.003c-0.004,0.005-0.009,0.01-0.014,0.015c-0.001,0.001-0.002,0.002-0.004,0.003
				c-0.003,0.002-0.016,0.012-0.026,0.02c-0.007,0.003-0.014,0.006-0.021,0.009c-0.017,0.007-0.034,0.013-0.052,0.019
				c-0.014,0.004-0.027,0.007-0.041,0.011c-0.005,0.001-0.011,0.002-0.017,0.003c-0.048,0.008-0.096,0.013-0.145,0.016
				c-0.009,0.011-0.015,0.018-0.017,0.018c-0.002,0.004-0.003,0.01-0.005,0.013c0,0,0,0.001,0.001,0.001c0,0,0-0.001-0.001-0.001
				c0,0,0,0,0,0c0-0.001,0-0.002-0.001-0.003c0,0,0,0,0,0c0,0,0,0,0-0.001s0-0.001,0-0.001c0,0,0,0.001,0.001,0.002
				c0.001-0.003,0.003-0.005,0.005-0.009c0,0,0-0.001,0-0.001s0,0,0,0c0,0,0,0,0,0c0-0.001,0-0.001,0.002-0.004
				c0,0.001,0,0.002-0.001,0.003c0.004-0.004,0.008-0.009,0.013-0.014c0.001-0.001,0.002-0.002,0.003-0.002c0,0-0.001,0-0.001,0
				c0.004-0.004,0.008-0.008,0.012-0.013c-0.004,0.006-0.007,0.008-0.01,0.012C40.268,41.737,40.276,41.731,40.284,41.726z"/>
			<rect x="40.241" y="41.761" fill="#C55445" width="0.001" height="0.001"/>
			<polygon fill="#C55445" points="40.259,41.744 40.259,41.743 40.259,41.744 			"/>
			<rect x="40.235" y="41.773" fill="#C55445" width="0.003" height="0"/>
			<polygon fill="#C55445" points="40.593,41.585 40.593,41.586 40.593,41.585 40.593,41.584 40.592,41.583 			"/>
			<path fill="#C55445" d="M40.308,41.711c0,0-0.001,0.001-0.001,0.001c0.017-0.006,0.026-0.01,0.029-0.012
				C40.326,41.704,40.317,41.708,40.308,41.711z"/>
		</g>
		<path fill="#C55445" d="M41.393,45.166c-0.231-0.187-0.542-0.196-0.79-0.038c-0.217,0.138-0.365,0.414-0.327,0.672
			c0.022,0.152,0.098,0.286,0.206,0.387c0.014,0.05,0.032,0.099,0.058,0.147c0.066,0.123,0.18,0.228,0.307,0.285
			c0.167,0.075,0.345,0.069,0.504-0.02c0.258-0.145,0.351-0.492,0.344-0.769C41.688,45.585,41.587,45.322,41.393,45.166z"/>
		<path fill="#C55445" d="M42.779,45.407c-0.027-0.038-0.062-0.067-0.104-0.087c-0.022-0.007-0.043-0.014-0.065-0.021
			c-0.047-0.009-0.094-0.005-0.139,0.011l-0.099,0.036c-0.035,0.011-0.065,0.03-0.089,0.056c-0.027,0.021-0.048,0.048-0.062,0.081
			c-0.016,0.032-0.024,0.064-0.023,0.1c-0.005,0.035,0,0.07,0.013,0.104c0.011,0.021,0.022,0.042,0.033,0.063
			c0.027,0.038,0.062,0.067,0.104,0.087c0.021,0.007,0.043,0.014,0.065,0.021c0.047,0.009,0.094,0.005,0.139-0.011l0.099-0.035
			c0.035-0.011,0.064-0.03,0.089-0.056c0.027-0.021,0.048-0.049,0.063-0.081c0.016-0.032,0.024-0.065,0.022-0.1
			c0.005-0.036,0.001-0.07-0.013-0.104C42.801,45.45,42.791,45.429,42.779,45.407z"/>
		<path fill="#C55445" d="M47.665,44.82c-0.274-0.14-0.605-0.054-0.785,0.194c-0.152,0.209-0.258,0.486-0.276,0.744
			c-0.011,0.166,0.009,0.327,0.098,0.47c0.032,0.052,0.075,0.095,0.122,0.133c0.014,0.042,0.032,0.082,0.058,0.121
			c0.089,0.138,0.248,0.219,0.41,0.215c0.264-0.006,0.474-0.222,0.601-0.434c0.064-0.108,0.105-0.229,0.143-0.349
			c0.042-0.134,0.065-0.274,0.059-0.415C48.083,45.212,47.922,44.951,47.665,44.82z"/>
		<path fill="#FDBF73" d="M42.831,46.821c-0.271-0.238-0.618-0.296-0.962-0.344c-0.296-0.041-0.641-0.095-0.735-0.429
			c-0.093-0.331,0.047-0.708,0.2-1c0.156-0.298,0.319-0.606,0.194-0.949c-0.215-0.588-0.922-0.536-1.363-0.834
			c-0.447-0.301-0.513-1.081-0.095-1.434c0.26-0.22-0.044-0.659-0.307-0.437c-0.476,0.402-0.62,1.069-0.403,1.649
			c0.103,0.275,0.285,0.518,0.534,0.676c0.274,0.175,0.602,0.226,0.894,0.362c0.097,0.045,0.21,0.103,0.245,0.212
			c0.053,0.167-0.09,0.357-0.164,0.496c-0.18,0.34-0.309,0.728-0.291,1.116c0.017,0.376,0.203,0.717,0.533,0.907
			c0.323,0.185,0.694,0.159,1.044,0.248c0.155,0.04,0.417,0.145,0.437,0.333c0.019,0.181-0.194,0.372-0.275,0.518
			c-0.175,0.316-0.157,0.835,0.243,0.969c0.322,0.108,0.553-0.374,0.228-0.482c-0.045-0.016-0.057-0.009-0.048-0.083
			c0.008-0.066,0.027-0.116,0.06-0.174c0.084-0.149,0.203-0.276,0.267-0.438C43.191,47.381,43.09,47.048,42.831,46.821z"/>
		<path fill="#FDBF73" d="M44.291,45.698c-0.224-0.176-0.468-0.237-0.744-0.288c-0.137-0.025-0.265-0.048-0.302-0.201
			c-0.039-0.163,0.044-0.352,0.101-0.5c0.114-0.298,0.213-0.608,0.109-0.925c-0.175-0.531-0.765-0.707-1.205-0.952
			c-0.284-0.158-0.488-0.375-0.503-0.715c-0.018-0.398,0.173-0.787,0.379-1.116c0.182-0.291-0.302-0.515-0.482-0.228
			c-0.332,0.53-0.596,1.255-0.314,1.863c0.251,0.543,0.812,0.706,1.291,0.985c0.207,0.121,0.377,0.277,0.342,0.536
			c-0.044,0.333-0.249,0.612-0.254,0.958c-0.005,0.316,0.147,0.608,0.445,0.738c0.245,0.106,0.53,0.074,0.756,0.226
			c0.421,0.282,0.559,0.95,0.232,1.348c-0.218,0.265,0.19,0.609,0.409,0.343c0.333-0.406,0.387-0.972,0.191-1.453
			C44.645,46.079,44.493,45.857,44.291,45.698z"/>
		<path fill="#FDBF73" d="M46.538,45.695c-0.148-0.216-0.361-0.34-0.608-0.411c-0.313-0.09-0.565-0.126-0.571-0.518
			c-0.004-0.309,0.138-0.603,0.175-0.907c0.038-0.315-0.022-0.619-0.192-0.889c-0.164-0.26-0.418-0.43-0.701-0.538
			c-0.253-0.096-0.527-0.16-0.702-0.382c-0.288-0.366-0.275-0.991,0.097-1.295c0.264-0.216-0.041-0.654-0.307-0.437
			c-0.801,0.655-0.648,2.034,0.312,2.457c0.277,0.122,0.606,0.17,0.807,0.418c0.213,0.262,0.176,0.572,0.1,0.878
			c-0.145,0.582-0.241,1.352,0.456,1.616c0.253,0.096,0.573,0.087,0.721,0.35c0.124,0.22,0.102,0.492-0.071,0.676
			c-0.235,0.25,0.174,0.593,0.409,0.343C46.806,46.691,46.816,46.103,46.538,45.695z"/>
		<path fill="#FDBF73" d="M47.956,44.673c-0.152-0.233-0.394-0.368-0.634-0.493c-0.19-0.099-0.404-0.201-0.446-0.433
			c-0.075-0.415,0.187-0.852,0.197-1.269c0.014-0.555-0.375-0.831-0.862-0.979c-0.271-0.082-0.511-0.189-0.525-0.507
			c-0.014-0.313,0.139-0.625,0.326-0.867c0.21-0.271-0.198-0.615-0.409-0.343c-0.329,0.425-0.584,1.039-0.382,1.573
			c0.095,0.253,0.295,0.444,0.542,0.55c0.213,0.092,0.526,0.107,0.69,0.283c0.126,0.136,0.093,0.337,0.061,0.502
			c-0.044,0.23-0.121,0.453-0.156,0.685c-0.081,0.529,0.111,0.934,0.578,1.201c0.259,0.148,0.584,0.25,0.655,0.581
			c0.074,0.344-0.07,0.722-0.195,1.037c-0.126,0.318,0.355,0.547,0.482,0.228C48.092,45.884,48.303,45.206,47.956,44.673z"/>
	</g>
	<g>
		<path fill="#7F3220" d="M41.155,51.506c-0.12-0.849-0.52-1.605-1.223-2.111c-0.667-0.479-1.514-0.718-2.335-0.631
			c-1.739,0.184-2.973,1.723-3.183,3.388c-0.038,0.052-0.058,0.121-0.044,0.209c0,0.005,0.001,0.01,0.002,0.016
			c-0.044-0.037-0.092-0.055-0.139-0.059c-1.387-0.945-3.356-1.039-4.646,0.144c-0.608,0.558-0.99,1.35-1.072,2.168
			c-0.086,0.861,0.216,1.662,0.773,2.314c0.598,0.7,1.432,1.174,2.232,1.606c0.914,0.493,1.863,0.928,2.851,1.251
			c0.978,0.318,2.003,0.532,3.034,0.533c1.198,0.002,2.142-2.235,2.527-3.127c0.412-0.954,0.714-1.953,0.949-2.965
			C41.087,53.356,41.284,52.418,41.155,51.506z"/>
		<path fill="#A74131" d="M39.235,52.844c-0.952-0.452-1.951-0.008-2.686,0.632c-0.825,0.718-1.609,1.906-2.848,1.786
			c-0.046-0.005-0.086,0-0.12,0.013c-0.135-0.127-0.245-0.243-0.291-0.291c-0.38-0.393-0.618-0.909-1.013-1.283
			c-0.673-0.638-1.797-0.595-2.399,0.116c-0.656,0.774-0.435,1.773,0.186,2.486c0.663,0.762,1.664,1.267,2.576,1.663
			c0.984,0.429,2.021,0.73,3.084,0.878c0.523,0.072,1.076,0.139,1.59-0.021c0.494-0.153,0.875-0.523,1.207-0.905
			c0.653-0.752,1.132-1.652,1.387-2.615C40.143,54.417,40.202,53.304,39.235,52.844z"/>
		<path fill="#A74131" d="M38.202,49.597c-0.562-0.011-1.131,0.222-1.521,0.626c-0.313,0.191-0.643,0.416-0.812,0.752
			c-0.179,0.355-0.141,0.778,0.101,1.096c0.25,0.327,0.621,0.521,1.028,0.558c0.464,0.042,0.919-0.114,1.341-0.29
			c0.624-0.26,1.433-0.695,1.435-1.475C39.777,50.063,38.903,49.61,38.202,49.597z"/>
		<path fill="#C55445" d="M38.614,50.017c-0.074-0.268-0.313-0.448-0.569-0.521c-0.067-0.02-0.139-0.024-0.208-0.03
			c-0.033-0.003-0.065-0.004-0.099,0c-0.136,0.015-0.243,0.041-0.365,0.096c-0.184,0.083-0.334,0.206-0.457,0.36
			c-0.001,0.001-0.003,0.002-0.005,0.004c-0.035,0.031-0.06,0.066-0.088,0.104c-0.031,0.042-0.059,0.078-0.079,0.125
			c-0.048,0.113-0.065,0.183-0.076,0.306c-0.001,0.011,0.001,0.022,0.001,0.033c-0.009,0.07-0.014,0.141-0.009,0.208
			c0.009,0.127,0.056,0.249,0.15,0.339c0.074,0.07,0.188,0.122,0.296,0.13c0.009,0.005,0.017,0.011,0.025,0.015
			c0.222,0.098,0.477,0.134,0.71,0.046c0.208-0.078,0.395-0.208,0.528-0.387c0.066-0.088,0.137-0.178,0.182-0.28
			C38.632,50.387,38.667,50.208,38.614,50.017z"/>
		<path fill="#C55445" d="M40.123,53.418c-0.005-0.052-0.014-0.104-0.024-0.155c-0.001-0.005-0.003-0.01-0.004-0.015
			c0.008-0.035,0.012-0.07,0.01-0.107c-0.007-0.043-0.014-0.086-0.021-0.128c-0.025-0.082-0.068-0.152-0.129-0.211
			c-0.034-0.024-0.067-0.049-0.1-0.074c-0.077-0.042-0.159-0.062-0.246-0.06c-0.051,0.002-0.104,0.013-0.154,0.022
			c-0.01,0.002-0.021,0.005-0.031,0.008c-0.047,0.017-0.094,0.039-0.138,0.062c-0.009,0.005-0.018,0.01-0.026,0.016
			c-0.041,0.029-0.081,0.062-0.117,0.096c-0.008,0.007-0.015,0.015-0.021,0.022c-0.032,0.038-0.061,0.079-0.089,0.12
			c-0.006,0.009-0.012,0.019-0.017,0.027c-0.005,0.01-0.009,0.019-0.013,0.028c-0.02,0.047-0.041,0.095-0.056,0.144
			c-0.018,0.06-0.021,0.126-0.026,0.187c-0.002,0.021-0.002,0.042,0,0.063c0.005,0.052,0.014,0.104,0.024,0.155
			c0.002,0.011,0.005,0.021,0.008,0.031c0.039,0.111,0.1,0.225,0.192,0.302c0.038,0.032,0.079,0.063,0.121,0.088
			c0.038,0.023,0.101,0.047,0.127,0.053c0.01,0.002,0.123,0.015,0.132,0.014c0.003,0,0.005,0,0.008-0.001
			c0.043-0.004,0.096-0.012,0.139-0.021c0.004-0.001,0.008-0.002,0.012-0.004c0.023-0.007,0.05-0.021,0.068-0.029
			c0.018-0.009,0.046-0.02,0.067-0.031c0.004-0.002,0.007-0.005,0.011-0.007c0.034-0.023,0.073-0.057,0.104-0.084
			c0.007-0.006,0.013-0.013,0.019-0.02c0.025-0.031,0.056-0.072,0.078-0.106c0.002-0.003,0.005-0.007,0.007-0.011
			c0.015-0.025,0.024-0.057,0.034-0.082c0.015-0.037,0.03-0.07,0.036-0.11c0.007-0.05,0.015-0.101,0.016-0.151
			C40.124,53.438,40.124,53.428,40.123,53.418z"/>
		<path fill="#C55445" d="M35.023,53.579c-0.003-0.016-0.007-0.03-0.012-0.045c-0.023-0.063-0.049-0.131-0.09-0.187
			c-0.031-0.042-0.064-0.084-0.101-0.122c-0.037-0.039-0.092-0.073-0.13-0.101c-0.011-0.008-0.022-0.016-0.034-0.021
			c-0.049-0.023-0.1-0.045-0.152-0.059c-0.006-0.002-0.013-0.003-0.02-0.004c-0.046-0.008-0.096-0.013-0.143-0.016
			c-0.053-0.004-0.133,0.015-0.17,0.022c-0.065,0.012-0.128,0.042-0.183,0.078c-0.104,0.07-0.149,0.125-0.219,0.226
			c-0.007,0.011-0.015,0.021-0.02,0.032c-0.025,0.048-0.043,0.101-0.061,0.151c-0.023,0.066-0.027,0.144-0.03,0.212
			c0,0.017,0,0.032,0.002,0.048c0.006,0.048,0.013,0.099,0.023,0.146c0.001,0.007,0.003,0.014,0.005,0.021s0.004,0.014,0.007,0.021
			c0.017,0.044,0.038,0.089,0.059,0.131c0.006,0.014,0.015,0.025,0.023,0.037c0.069,0.089,0.136,0.169,0.242,0.219
			c0.056,0.034,0.117,0.052,0.181,0.053c0.027,0.006,0.053,0.006,0.08,0.006c0.098,0.016,0.208,0.009,0.297-0.021
			c0.044-0.016,0.088-0.038,0.13-0.059c0.009-0.004,0.018-0.008,0.025-0.013c0.047-0.03,0.092-0.065,0.13-0.106
			c0.005-0.005,0.01-0.011,0.015-0.018c0.027-0.035,0.058-0.072,0.081-0.11c0.028-0.047,0.046-0.103,0.063-0.153
			c0.004-0.013,0.007-0.025,0.009-0.039c0.007-0.052,0.019-0.112,0.016-0.167S35.034,53.632,35.023,53.579z"/>
		<g>
			<path fill="#FDBF73" d="M32.163,56.315c-0.033-0.093-0.093-0.182-0.184-0.228c-0.091-0.045-0.178-0.051-0.276-0.035
				c-0.124,0.019-0.249,0.021-0.374,0.011c-0.124-0.019-0.246-0.048-0.364-0.094c-0.087-0.034-0.222-0.001-0.297,0.046
				c-0.08,0.049-0.154,0.143-0.173,0.235c-0.021,0.1-0.013,0.211,0.046,0.298c0.021,0.026,0.042,0.052,0.063,0.077
				c0.05,0.047,0.107,0.079,0.173,0.096c0.359,0.141,0.751,0.151,1.126,0.077c0.09-0.018,0.185-0.106,0.227-0.184
				C32.177,56.531,32.195,56.408,32.163,56.315z"/>
			<path fill="#FDBF73" d="M32.433,53.221c-0.027-0.09-0.099-0.186-0.184-0.228c-0.091-0.046-0.201-0.066-0.3-0.032
				c-0.095,0.033-0.179,0.094-0.228,0.184c-0.146,0.271-0.292,0.542-0.438,0.813c-0.048,0.089-0.062,0.202-0.032,0.3
				c0.027,0.089,0.099,0.185,0.184,0.228c0.091,0.045,0.201,0.066,0.299,0.031c0.095-0.033,0.179-0.093,0.228-0.184L32.4,53.52
				C32.448,53.431,32.462,53.317,32.433,53.221z"/>
			<path fill="#FDBF73" d="M35.622,56.323c-0.014-0.03-0.027-0.062-0.041-0.092c-0.036-0.058-0.083-0.103-0.143-0.136
				c-0.241-0.175-0.482-0.349-0.724-0.523c-0.045-0.027-0.094-0.041-0.146-0.042c-0.052-0.011-0.103-0.007-0.154,0.01
				c-0.089,0.027-0.185,0.099-0.228,0.184c-0.045,0.092-0.066,0.201-0.032,0.3c0.014,0.03,0.027,0.062,0.041,0.092
				c0.036,0.058,0.083,0.103,0.143,0.136c0.241,0.175,0.482,0.349,0.724,0.523c0.045,0.027,0.093,0.041,0.145,0.043
				c0.052,0.01,0.103,0.007,0.154-0.011c0.089-0.027,0.185-0.099,0.228-0.184C35.636,56.531,35.657,56.422,35.622,56.323z"/>
			<path fill="#FDBF73" d="M37.346,52.194c-0.027-0.09-0.099-0.186-0.184-0.228c-0.091-0.046-0.201-0.067-0.299-0.032
				c-0.089,0.031-0.19,0.093-0.228,0.184c-0.109,0.27-0.219,0.539-0.328,0.808c-0.027,0.046-0.041,0.094-0.042,0.146
				c-0.01,0.052-0.007,0.104,0.011,0.154c0.027,0.09,0.099,0.186,0.184,0.228c0.091,0.045,0.201,0.066,0.299,0.032
				c0.089-0.031,0.19-0.093,0.228-0.184c0.109-0.27,0.219-0.539,0.328-0.809c0.027-0.045,0.041-0.093,0.042-0.145
				C37.367,52.297,37.364,52.245,37.346,52.194z"/>
			<path fill="#FDBF73" d="M35.094,58.638C35.06,58.539,35,58.464,34.91,58.41c-0.234-0.144-0.47-0.287-0.704-0.431
				c-0.084-0.052-0.208-0.06-0.3-0.032c-0.089,0.026-0.185,0.099-0.228,0.184c-0.045,0.091-0.066,0.2-0.032,0.3
				c0.034,0.098,0.094,0.173,0.184,0.228c0.235,0.144,0.469,0.287,0.705,0.431c0.083,0.051,0.207,0.06,0.299,0.031
				c0.089-0.026,0.185-0.099,0.228-0.184C35.107,58.846,35.128,58.736,35.094,58.638z"/>
			<path fill="#FDBF73" d="M38.742,55.498c-0.049-0.079-0.143-0.153-0.236-0.172c-0.1-0.021-0.211-0.014-0.297,0.046
				c-0.08,0.054-0.157,0.137-0.173,0.235c-0.024,0.152-0.065,0.3-0.118,0.444c-0.042,0.098-0.089,0.193-0.144,0.284
				c-0.051,0.085-0.06,0.207-0.032,0.3c0.027,0.089,0.099,0.186,0.184,0.228c0.193,0.097,0.415,0.034,0.527-0.151
				c0.167-0.278,0.285-0.595,0.336-0.916C38.805,55.691,38.799,55.592,38.742,55.498z"/>
			<path fill="#FDBF73" d="M37.446,58.752c-0.056-0.083-0.136-0.148-0.235-0.173l-0.459-0.11c-0.052-0.015-0.104-0.017-0.155-0.004
				c-0.051,0.004-0.099,0.021-0.143,0.05c-0.044,0.025-0.08,0.06-0.106,0.103c-0.033,0.038-0.055,0.083-0.066,0.134
				c-0.02,0.1-0.013,0.211,0.046,0.297c0.057,0.084,0.136,0.148,0.236,0.173c0.153,0.037,0.306,0.074,0.459,0.111
				c0.052,0.015,0.104,0.016,0.154,0.003c0.052-0.003,0.1-0.02,0.144-0.049c0.044-0.025,0.08-0.06,0.106-0.103
				c0.034-0.038,0.056-0.083,0.066-0.134C37.513,58.95,37.505,58.839,37.446,58.752z"/>
			<path fill="#FDBF73" d="M40.188,51.777c-0.027-0.089-0.099-0.185-0.184-0.227c-0.091-0.046-0.201-0.067-0.3-0.032
				c-0.088,0.03-0.191,0.092-0.228,0.184l-0.324,0.81c-0.027,0.045-0.042,0.093-0.043,0.145c-0.01,0.052-0.007,0.104,0.011,0.154
				c0.027,0.09,0.099,0.186,0.184,0.228c0.091,0.046,0.201,0.066,0.3,0.032c0.088-0.031,0.19-0.093,0.227-0.184l0.325-0.81
				c0.027-0.045,0.042-0.094,0.043-0.145C40.208,51.881,40.205,51.829,40.188,51.777z"/>
			<path fill="#FDBF73" d="M38.403,50.213c-0.021-0.025-0.042-0.051-0.063-0.077c-0.049-0.047-0.107-0.079-0.173-0.096
				c-0.195-0.064-0.39-0.129-0.585-0.193c-0.052-0.015-0.103-0.016-0.154-0.003c-0.052,0.003-0.1,0.02-0.143,0.049
				c-0.08,0.049-0.154,0.143-0.173,0.236c-0.02,0.1-0.013,0.211,0.046,0.298c0.021,0.025,0.042,0.051,0.063,0.077
				c0.049,0.047,0.107,0.079,0.173,0.096c0.195,0.064,0.39,0.129,0.585,0.193c0.052,0.015,0.104,0.016,0.155,0.003
				c0.052-0.003,0.099-0.02,0.143-0.049c0.079-0.049,0.154-0.143,0.172-0.236C38.47,50.412,38.462,50.3,38.403,50.213z"/>
			<path fill="#FDBF73" d="M34.929,53.874c-0.021-0.025-0.042-0.052-0.063-0.077c-0.045-0.044-0.099-0.072-0.159-0.09
				c-0.049-0.021-0.095-0.047-0.14-0.076c-0.039-0.032-0.076-0.067-0.109-0.105c-0.024-0.039-0.055-0.071-0.094-0.095
				c-0.039-0.034-0.083-0.056-0.133-0.066c-0.052-0.016-0.104-0.017-0.155-0.004c-0.052,0.004-0.099,0.021-0.143,0.05
				c-0.082,0.056-0.152,0.137-0.173,0.235c-0.02,0.099-0.015,0.214,0.046,0.298c0.047,0.065,0.098,0.13,0.155,0.187
				c0.058,0.059,0.123,0.105,0.188,0.153c0.107,0.077,0.229,0.13,0.354,0.17c0.052,0.016,0.104,0.017,0.155,0.004
				c0.052-0.004,0.099-0.021,0.143-0.05c0.044-0.025,0.08-0.06,0.106-0.103c0.033-0.038,0.056-0.082,0.066-0.133
				C34.996,54.072,34.988,53.961,34.929,53.874z"/>
			<path fill="#FDBF73" d="M32.391,57.52c-0.499,0.012-0.481,0.786,0.018,0.774C32.908,58.282,32.89,57.507,32.391,57.52z"/>
			<path fill="#FDBF73" d="M30.135,54.136c-0.499,0.013-0.481,0.787,0.018,0.775C30.651,54.899,30.634,54.124,30.135,54.136z"/>
			<path fill="#FDBF73" d="M36.226,55.023c-0.499,0.012-0.481,0.787,0.018,0.774C36.743,55.786,36.726,55.012,36.226,55.023z"/>
			<path fill="#FDBF73" d="M36.392,57.195c-0.499,0.012-0.481,0.787,0.019,0.775C36.909,57.959,36.892,57.184,36.392,57.195z"/>
			<path fill="#FDBF73" d="M38.448,52.107c-0.499,0.012-0.481,0.787,0.019,0.775C38.965,52.871,38.947,52.096,38.448,52.107z"/>
			<path fill="#FDBF73" d="M39.423,54.604c-0.499,0.012-0.481,0.786,0.019,0.774C39.94,55.367,39.923,54.593,39.423,54.604z"/>
			<path fill="#FDBF73" d="M37.581,54.189c-0.499,0.012-0.481,0.787,0.019,0.775C38.098,54.953,38.08,54.178,37.581,54.189z"/>
			<path fill="#FDBF73" d="M33.519,55.486c-0.021-0.065-0.055-0.121-0.104-0.169c-0.027-0.02-0.053-0.039-0.08-0.059
				c-0.062-0.033-0.127-0.05-0.197-0.048l-0.114,0.003c-0.054-0.001-0.103,0.011-0.148,0.036c-0.048,0.017-0.089,0.045-0.123,0.083
				c-0.037,0.036-0.063,0.078-0.077,0.127c-0.023,0.047-0.033,0.097-0.03,0.15c0.005,0.034,0.011,0.068,0.016,0.103
				c0.02,0.065,0.055,0.121,0.104,0.169c0.027,0.02,0.054,0.039,0.08,0.059c0.062,0.033,0.127,0.05,0.197,0.048l0.115-0.003
				c0.053,0.001,0.103-0.011,0.148-0.036c0.048-0.017,0.089-0.045,0.123-0.083c0.037-0.036,0.063-0.078,0.077-0.127
				c0.023-0.047,0.033-0.097,0.03-0.15C33.529,55.555,33.523,55.521,33.519,55.486z"/>
			<path fill="#FDBF73" d="M33.628,56.573c-0.499,0.012-0.481,0.787,0.019,0.775C34.146,57.337,34.128,56.562,33.628,56.573z"/>
			<path fill="#FDBF73" d="M38.352,57.722c-0.499,0.012-0.481,0.787,0.018,0.775C38.868,58.485,38.851,57.71,38.352,57.722z"/>
			<path fill="#FDBF73" d="M35.583,52.061c-0.499,0.012-0.481,0.787,0.019,0.775C36.101,52.824,36.083,52.049,35.583,52.061z"/>
		</g>
	</g>
	<g>
		<path fill="#732D20" d="M70.889,47.849c-0.255-0.57-0.551-1.242-1.173-1.492c-0.384-0.154-0.803-0.136-1.132,0.059
			c-0.027,0.002-0.055,0.007-0.082,0.014c-1.335,0.338-2.651,0.745-3.943,1.224c-0.653,0.242-1.3,0.502-1.938,0.779
			c-0.498,0.216-1.045,0.421-1.467,0.772c-0.428,0.356-0.679,0.827-0.652,1.394c0.029,0.613,0.273,1.25,0.462,1.828
			c0.414,1.265,0.954,2.485,1.6,3.648c0.504,0.908,1.14,1.989,2.313,2.005c0.623,0.008,1.235-0.277,1.809-0.487
			c0.642-0.234,1.282-0.474,1.92-0.718c0.653-0.25,1.306-0.505,1.955-0.766c0.597-0.238,1.241-0.442,1.804-0.758
			c0.55-0.308,0.625-0.861,0.549-1.435c-0.088-0.655-0.231-1.304-0.412-1.938C72.094,50.555,71.492,49.197,70.889,47.849z"/>
		<path fill="#91382B" d="M69.87,47.818c-0.382-0.381-0.896-0.551-1.419-0.455c-0.292-0.042-0.601,0.05-0.844,0.241
			c-0.36,0.283-0.575,0.702-0.653,1.149c-0.085,0.482-0.022,0.966,0.103,1.434c0.145,0.541,0.388,1.064,0.456,1.623
			c0.052,0.418-0.018,0.88-0.316,1.198c-0.292,0.313-0.683,0.22-1.044,0.095c-0.444-0.154-0.884-0.305-1.359-0.216
			c-0.476,0.088-0.919,0.335-1.223,0.716c-0.63,0.787-0.497,1.959,0.231,2.637c0.764,0.71,1.97,0.599,2.917,0.458
			c1.17-0.173,2.364-0.529,3.393-1.126c0.873-0.507,1.12-1.446,1.068-2.399c-0.03-0.55-0.143-1.094-0.234-1.635
			c-0.111-0.667-0.217-1.336-0.337-2.001C70.496,48.912,70.331,48.281,69.87,47.818z"/>
		<path fill="#91382B" d="M65.627,49.592c-0.693-0.564-1.689-0.522-2.483-0.219c-0.121,0.046-0.209,0.147-0.243,0.266
			c-0.51,0.274-0.924,0.727-0.796,1.359c0.172,0.845,1.167,1.18,1.91,1.312c0.793,0.14,1.814,0.04,2.146-0.828
			C66.412,50.825,66.168,50.032,65.627,49.592z"/>
		<path fill="#C55445" d="M70.155,48.487c-0.256-0.207-0.6-0.216-0.874-0.042c-0.24,0.152-0.404,0.458-0.362,0.744
			c0.024,0.168,0.108,0.316,0.228,0.428c0.016,0.055,0.035,0.109,0.064,0.163c0.073,0.136,0.199,0.252,0.34,0.315
			c0.185,0.083,0.382,0.077,0.558-0.021c0.285-0.16,0.389-0.545,0.38-0.852C70.481,48.951,70.37,48.66,70.155,48.487z"/>
		<path fill="#C55445" d="M68.34,48.621c-0.03-0.042-0.068-0.075-0.115-0.097c-0.024-0.008-0.048-0.016-0.072-0.023
			c-0.052-0.01-0.104-0.006-0.153,0.012l-0.109,0.039c-0.039,0.012-0.071,0.033-0.099,0.063c-0.03,0.023-0.054,0.053-0.068,0.089
			c-0.019,0.035-0.026,0.072-0.025,0.11c-0.006,0.04-0.001,0.078,0.014,0.116c0.013,0.023,0.024,0.047,0.037,0.07
			c0.03,0.042,0.068,0.075,0.115,0.097c0.023,0.007,0.048,0.015,0.071,0.023c0.053,0.01,0.104,0.006,0.154-0.012l0.109-0.039
			c0.039-0.012,0.071-0.033,0.099-0.063c0.03-0.023,0.053-0.053,0.068-0.089c0.019-0.035,0.026-0.072,0.025-0.11
			c0.006-0.039,0.001-0.078-0.015-0.115C68.364,48.668,68.353,48.645,68.34,48.621z"/>
		<path fill="#C55445" d="M65.608,54.831c-0.304-0.154-0.67-0.06-0.869,0.215c-0.167,0.231-0.285,0.538-0.305,0.823
			c-0.013,0.183,0.01,0.361,0.107,0.52c0.036,0.058,0.083,0.105,0.136,0.147c0.015,0.046,0.036,0.091,0.063,0.134
			c0.099,0.153,0.273,0.242,0.454,0.238c0.292-0.008,0.524-0.246,0.664-0.48c0.072-0.119,0.117-0.254,0.158-0.386
			c0.048-0.148,0.072-0.303,0.065-0.459C66.07,55.266,65.893,54.977,65.608,54.831z"/>
		<path fill="#FDBF73" d="M70.864,54.141c-1.381,0.419-2.757,0.89-4.153,1.252c-0.507,0.132-1.137,0.256-1.61-0.043
			c-0.09-0.057-0.23-0.145-0.218-0.269c0.012-0.123,0.2-0.244,0.289-0.311c0.24-0.18,0.503-0.332,0.772-0.464
			c1.052-0.518,2.228-0.714,3.332-1.087c0.518-0.175,1.261-0.373,1.562-0.874c0.297-0.494,0.047-1.09-0.526-1.176
			c-1.249-0.187-2.568,0.229-3.752,0.579c-0.623,0.185-1.245,0.372-1.882,0.501c-0.282,0.057-0.597,0.137-0.887,0.118
			c-0.043-0.002-0.175-0.005-0.204-0.048c-0.051-0.075,0.154-0.356,0.197-0.419c0.719-1.042,2.199-1.09,3.309-1.374
			c0.619-0.158,1.222-0.397,1.781-0.707c0.409-0.226,1.158-0.571,0.975-1.16c-0.184-0.59-0.985-0.588-1.476-0.577
			c-0.726,0.017-1.452,0.099-2.165,0.24c-1.43,0.282-2.806,0.818-4.055,1.566c-0.331,0.198-0.029,0.718,0.303,0.519
			c1.12-0.672,2.336-1.159,3.611-1.443c0.644-0.144,1.297-0.234,1.956-0.268c0.278-0.015,0.568-0.039,0.847-0.013
			c0.1,0.009,0.205,0.034,0.295,0.08c0.11,0.058,0.138,0.056,0.057,0.132c-0.199,0.188-0.487,0.32-0.728,0.449
			c-0.312,0.167-0.636,0.311-0.97,0.427c-0.63,0.219-1.286,0.318-1.934,0.469c-0.571,0.134-1.146,0.322-1.628,0.665
			c-0.419,0.297-0.883,0.761-0.966,1.293c-0.091,0.584,0.498,0.805,0.979,0.764c0.641-0.054,1.274-0.215,1.892-0.386
			c1.235-0.345,2.471-0.81,3.767-0.837c0.158-0.004,0.699-0.075,0.732,0.143c0.041,0.266-0.396,0.425-0.577,0.504
			c-0.55,0.242-1.133,0.406-1.71,0.568c-1.122,0.313-2.292,0.614-3.242,1.322c-0.246,0.184-0.492,0.4-0.546,0.718
			c-0.055,0.325,0.134,0.601,0.384,0.788c0.522,0.392,1.196,0.39,1.812,0.275c0.737-0.136,1.458-0.405,2.175-0.622l2.362-0.716
			C71.392,54.607,71.235,54.028,70.864,54.141z"/>
	</g>
	<g>
		<path fill="#7F3220" d="M31.586,39.568c-1.938-1.904-5.406-1.79-7.295,0.063c-0.086,0.085-0.168,0.173-0.248,0.262
			c-2.003,1.459-2.792,5.23-0.838,7.03c1.966,1.812,5.739,1.93,7.674,0.05C32.772,45.135,33.66,41.606,31.586,39.568z"/>
		<path fill="#A74131" d="M30.858,42.903c-0.759-1.063-2.159-0.92-3.198-0.417c-0.005,0.002-0.011,0.005-0.017,0.008
			c-0.624,0.128-1.23,0.315-1.777,0.671c-0.826,0.537-1.711,1.59-1.457,2.653c0.277,1.157,1.66,1.743,2.745,1.697
			c1.198-0.05,2.313-0.725,3.157-1.542C31.133,45.178,31.583,43.917,30.858,42.903z"/>
		<path fill="#A74131" d="M28.671,39.909c-0.412-0.704-1.41-0.676-2.088-0.443c-0.003,0.001-0.006,0.003-0.01,0.004
			c-0.016,0.003-0.032,0.006-0.049,0.01c-0.526,0.137-0.979,0.463-1.272,0.903c-0.085,0.102-0.167,0.208-0.242,0.322
			c-0.162,0.248-0.17,0.557-0.069,0.826c0.09,0.431,0.47,0.729,0.955,0.781c0.628,0.067,1.298-0.093,1.838-0.42
			C28.377,41.503,29.139,40.709,28.671,39.909z"/>
		<path fill="#FDBF73" d="M29.671,41.016c-0.745-0.949-2.029-1.38-3.197-1.059c-0.287,0.079-0.56,0.206-0.805,0.372
			c-0.259,0.175-0.015,0.6,0.247,0.422c0.791-0.536,1.854-0.538,2.672-0.053c0.801,0.474,1.286,1.394,1.341,2.31
			c0.116,1.947-1.656,3.766-3.606,3.706c-0.948-0.03-1.794-0.603-2.151-1.486c-0.35-0.867-0.126-1.872,0.529-2.532
			c0.374-0.377,0.864-0.588,1.375-0.705c0.52-0.119,1.067-0.112,1.529,0.179c0.396,0.249,0.672,0.671,0.699,1.144
			c0.03,0.534-0.228,0.941-0.62,1.278c-0.423,0.364-0.972,0.728-1.555,0.676c-0.466-0.041-0.855-0.363-0.827-0.854
			c0.027-0.452,0.37-0.886,0.822-0.974c0.236-0.046,0.56,0.031,0.604,0.313c0.026,0.169-0.155,0.315-0.304,0.215
			c-0.262-0.176-0.508,0.248-0.247,0.422c0.462,0.311,1.082-0.12,1.041-0.647c-0.052-0.666-0.788-0.929-1.352-0.739
			c-1.044,0.352-1.499,1.901-0.453,2.538c0.539,0.329,1.2,0.251,1.748-0.01c0.548-0.262,1.156-0.721,1.435-1.274
			c0.585-1.164-0.201-2.556-1.451-2.786c-1.281-0.236-2.74,0.452-3.321,1.622c-0.538,1.082-0.338,2.375,0.5,3.248
			c0.879,0.917,2.244,1.059,3.396,0.623c1.153-0.438,2.084-1.387,2.496-2.55C30.618,43.272,30.419,41.968,29.671,41.016z"/>
	</g>
	<g>
		<path fill="#732D20" d="M59.076,54.324c-0.24-0.698-0.771-1.25-1.409-1.605c-1.236-0.688-2.756-0.565-4.145-0.274
			c-1.282,0.18-2.55,0.474-3.776,0.888c-1.439,0.486-2.881,1.118-4.153,1.955c-1.138,0.748-2.881,2.29-2.113,3.819
			c0.342,0.681,1.014,1.209,1.663,1.58c0.636,0.363,1.36,0.601,2.082,0.718c1.606,0.262,3.24-0.016,4.806-0.388
			c1.425-0.339,2.827-0.825,4.091-1.576c1.205-0.716,2.38-1.722,2.873-3.073C59.233,55.71,59.307,54.996,59.076,54.324z"/>
		<path fill="#91382B" d="M56.908,55.09c-0.407-0.399-1.001-0.536-1.553-0.552c-1.248-0.036-2.404,0.74-3.439,1.342
			c-1.139,0.663-2.299,1.163-3.646,0.934c-1.09-0.186-2.601-0.767-3.289,0.507c-0.329,0.608-0.223,1.382,0.173,1.933
			c0.398,0.556,1.012,0.923,1.646,1.152c1.515,0.548,3.228,0.387,4.753-0.041c0.397-0.112,0.787-0.25,1.168-0.409
			c0.478-0.148,0.945-0.33,1.396-0.545c0.616-0.294,1.214-0.628,1.783-1.006c0.567-0.378,1.137-0.876,1.382-1.53
			C57.516,56.249,57.39,55.563,56.908,55.09z"/>
		<path fill="#91382B" d="M51.499,54.106c-1.117-0.46-2.446-0.195-3.27,0.704c-0.012,0.013-0.021,0.027-0.031,0.042
			c-0.02,0.02-0.041,0.036-0.06,0.057c-0.214,0.229-0.177,0.726,0.156,0.844c0.611,0.217,1.228,0.252,1.859,0.099
			c0.572-0.14,1.106-0.465,1.501-0.901C51.874,54.709,51.826,54.241,51.499,54.106z"/>
		<path fill="#C55445" d="M56.766,53.603c-0.176-0.17-0.43-0.272-0.667-0.313c-0.258-0.045-0.524-0.044-0.776,0.033
			c-0.173,0.054-0.318,0.149-0.451,0.271c-0.032,0.028-0.059,0.061-0.084,0.096c-0.049,0.068-0.1,0.136-0.132,0.215
			c-0.063,0.156-0.104,0.316-0.091,0.488c0.012,0.16,0.065,0.339,0.169,0.465c0.014,0.016,0.027,0.03,0.041,0.045
			c0.047,0.061,0.104,0.112,0.175,0.148c0.026,0.014,0.054,0.026,0.08,0.038c0.223,0.104,0.462,0.206,0.708,0.229
			c0.189,0.018,0.35,0.015,0.534-0.034c0.112-0.029,0.223-0.085,0.317-0.151c0.226-0.158,0.406-0.393,0.46-0.667
			C57.112,54.144,56.998,53.827,56.766,53.603z"/>
		<path fill="#C55445" d="M52.716,54.384c-0.008-0.07-0.032-0.135-0.074-0.193c-0.037-0.062-0.087-0.11-0.147-0.145
			c-0.057-0.047-0.121-0.076-0.195-0.088c-0.048-0.004-0.096-0.007-0.145-0.011c-0.095,0.007-0.182,0.036-0.262,0.088
			c-0.035,0.03-0.07,0.061-0.105,0.09c-0.064,0.073-0.107,0.157-0.127,0.253l-0.026,0.125c-0.018,0.072-0.017,0.144,0.004,0.214
			c0.008,0.069,0.032,0.134,0.074,0.192c0.037,0.062,0.086,0.11,0.147,0.146c0.057,0.046,0.121,0.075,0.194,0.088
			c0.049,0.003,0.097,0.007,0.146,0.01c0.095-0.007,0.182-0.036,0.262-0.088c0.035-0.03,0.069-0.06,0.104-0.09
			c0.065-0.073,0.107-0.157,0.128-0.253l0.026-0.125C52.737,54.524,52.736,54.453,52.716,54.384z"/>
		<path fill="#C55445" d="M46.894,59.142c0.025-0.359-0.119-0.67-0.278-0.981c-0.053-0.079-0.121-0.141-0.206-0.185
			c-0.088-0.045-0.183-0.064-0.282-0.059c-0.162,0-0.314,0.06-0.453,0.138c-0.062,0.034-0.117,0.085-0.168,0.133
			c-0.101,0.052-0.192,0.128-0.239,0.233c-0.206,0.46-0.302,1.067,0.108,1.451c0.113,0.104,0.276,0.188,0.429,0.208
			c0.221,0.029,0.42-0.015,0.612-0.128c0.148-0.087,0.256-0.22,0.346-0.363C46.849,59.454,46.883,59.298,46.894,59.142z"/>
		<path fill="#EB779E" d="M56.477,55.369c-0.343-0.649-0.718-1.282-1.077-1.923c-0.137-0.243-0.497-0.004-0.361,0.238
			c0.308,0.548,0.617,1.096,0.925,1.645c0.258,0.462,0.562,0.996,0.496,1.546c-0.06,0.504-0.428,0.944-0.971,0.838
			c-0.52-0.103-0.972-0.539-1.275-0.949c-0.315-0.426-0.523-0.9-0.721-1.387c-0.178-0.439-0.397-0.893-0.839-1.12
			c-0.383-0.198-0.867-0.176-1.165,0.161c-0.284,0.322-0.268,0.792-0.182,1.186c0.117,0.537,0.389,1.041,0.605,1.542
			c0.117,0.272,0.235,0.544,0.354,0.816c0.124,0.288,0.288,0.595,0.306,0.914c0.038,0.706-0.788,0.654-1.199,0.38
			c-0.47-0.314-0.836-0.809-1.143-1.275c-0.315-0.479-0.578-0.99-0.834-1.503c-0.204-0.408-0.452-0.852-0.944-0.938
			c-0.431-0.075-0.783,0.198-0.858,0.621c-0.076,0.429,0.058,0.899,0.204,1.3c0.178,0.49,0.424,0.955,0.568,1.457
			c0.069,0.242,0.11,0.496,0.089,0.748c-0.014,0.167-0.038,0.346-0.24,0.305c-0.119-0.024-0.233-0.106-0.332-0.171
			c-1.009-0.662-1.8-1.647-2.265-2.757c-0.107-0.255-0.519-0.119-0.41,0.139c0.425,1.015,1.088,1.922,1.945,2.616
			c0.325,0.262,0.82,0.713,1.279,0.603c0.469-0.112,0.488-0.708,0.448-1.099c-0.101-0.987-0.802-1.811-0.868-2.802
			c-0.017-0.25,0.025-0.577,0.352-0.536c0.303,0.038,0.469,0.356,0.593,0.599c0.275,0.533,0.536,1.072,0.86,1.578
			c0.503,0.783,1.418,2.044,2.512,1.7c1.343-0.422,0.287-2.153-0.049-2.93c-0.223-0.514-0.53-1.052-0.589-1.617
			c-0.023-0.221-0.015-0.481,0.17-0.636c0.235-0.195,0.567-0.074,0.771,0.106c0.416,0.366,0.539,1.028,0.78,1.511
			c0.239,0.479,0.547,0.936,0.951,1.293c0.419,0.37,1.009,0.709,1.586,0.563c0.492-0.124,0.816-0.584,0.915-1.063
			C56.989,56.473,56.75,55.888,56.477,55.369z"/>
	</g>
	<g>
		<path fill="#A74131" d="M41.193,37.856h-0.157c-2.169,0-3.928-1.759-3.928-3.928l0,0c0-2.17,1.759-3.928,3.928-3.928h0.157
			c2.17,0,3.929,1.758,3.929,3.928l0,0C45.122,36.097,43.363,37.856,41.193,37.856z"/>
		<path fill="#7F3220" d="M43.953,31.132c0.096,0.34,0.148,0.697,0.148,1.067l0,0c0,2.169-1.759,3.928-3.928,3.928h-0.157
			c-1.076,0-2.05-0.433-2.759-1.133c0.465,1.651,1.981,2.861,3.781,2.861h0.157c2.17,0,3.929-1.759,3.929-3.928
			C45.122,32.833,44.674,31.844,43.953,31.132z"/>
		<path fill="#C55445" d="M40.846,32.121c-0.98-1.062-2.521-0.091-2.882,1.036c-0.072,0.225-0.111,0.482-0.099,0.734
			c-0.058,0.307-0.021,0.624,0.159,0.927c0.398,0.671,1.171,0.681,1.788,0.327C40.758,34.601,41.78,33.133,40.846,32.121z"/>
		<path fill="#C55445" d="M43.22,31.987c-0.038-0.136-0.106-0.253-0.205-0.353c-0.054-0.042-0.108-0.083-0.162-0.125
			c-0.125-0.072-0.259-0.109-0.403-0.109h-0.079c-0.11-0.004-0.212,0.019-0.308,0.068c-0.099,0.032-0.185,0.087-0.257,0.165
			c-0.078,0.072-0.133,0.158-0.165,0.257c-0.05,0.095-0.073,0.198-0.068,0.308l0.028,0.212c0.038,0.135,0.106,0.253,0.205,0.353
			c0.054,0.042,0.108,0.083,0.162,0.125c0.125,0.072,0.259,0.108,0.403,0.109h0.079c0.11,0.004,0.212-0.019,0.308-0.068
			c0.099-0.032,0.184-0.087,0.257-0.165c0.078-0.072,0.133-0.158,0.165-0.257c0.05-0.095,0.073-0.198,0.069-0.308
			C43.239,32.128,43.229,32.058,43.22,31.987z"/>
		<g>
			<path fill="#FDBF73" d="M45.079,33.346c-0.009-0.059-0.019-0.117-0.03-0.176c-0.577,0.233-1.116,0.562-1.589,0.969
				c-0.789,0.679-1.445,1.611-1.67,2.64c-0.075,0.342-0.095,0.696-0.042,1.038c0.057-0.008,0.114-0.018,0.17-0.028
				c-0.126-0.797,0.203-1.659,0.625-2.324c0.524-0.825,1.278-1.497,2.148-1.94C44.817,33.459,44.947,33.4,45.079,33.346z"/>
			<path fill="#FDBF73" d="M37.198,34.762c0.033,0.153,0.076,0.303,0.126,0.45c0.062-0.747,0.258-1.482,0.583-2.159
				c0.542-1.128,1.436-2.06,2.527-2.67c0.265-0.148,0.541-0.275,0.824-0.382C41.237,30,41.215,30,41.193,30h-0.157
				c-0.082,0-0.164,0.003-0.244,0.008c-0.659,0.303-1.268,0.715-1.789,1.222c-0.945,0.919-1.571,2.134-1.791,3.433
				C37.207,34.695,37.203,34.729,37.198,34.762z"/>
			<path fill="#FDBF73" d="M39.368,35.719c-0.157,0.526-0.25,1.07-0.281,1.618c0.105,0.06,0.213,0.116,0.324,0.166
				c0.356-0.968,0.948-1.839,1.697-2.55c0.872-0.827,1.951-1.438,3.115-1.741c0.264-0.069,0.532-0.119,0.801-0.154
				c-0.013-0.058-0.027-0.115-0.042-0.171c-0.802,0.108-1.583,0.359-2.303,0.733c-1.093,0.567-2.046,1.41-2.73,2.436
				c-0.278,0.416-0.508,0.864-0.685,1.332c0.057-1.123,0.388-2.227,0.967-3.193c0.65-1.085,1.607-1.965,2.732-2.542
				c0.344-0.176,0.703-0.32,1.071-0.436c-0.098-0.103-0.202-0.201-0.311-0.292c-0.981,0.117-1.954,0.327-2.852,0.744
				c-0.62,0.288-1.191,0.682-1.661,1.18c-0.481,0.511-0.853,1.116-1.149,1.75c-0.183,0.392-0.337,0.795-0.479,1.203
				c0.037,0.067,0.076,0.133,0.116,0.198c0.34-1.014,0.765-2.009,1.459-2.827c0.892-1.049,2.163-1.611,3.487-1.894
				c0.403-0.086,0.811-0.147,1.221-0.193c-0.866,0.29-1.676,0.745-2.371,1.34C40.484,33.29,39.748,34.446,39.368,35.719z"/>
		</g>
	</g>
	<g>
		<path fill="#732D20" d="M62.621,45.445c0.194-0.526,0.28-1.092,0.242-1.655c-0.102-1.469-1.188-2.398-2.532-2.824
			c-0.974-0.308-2.048-0.351-3.025-0.041c-0.016-0.04-0.033-0.079-0.054-0.117c-0.072-0.138-0.151-0.271-0.237-0.401
			c-0.172-0.258-0.377-0.493-0.603-0.706c-0.443-0.419-0.991-0.735-1.581-0.894c-1.128-0.305-2.393-0.031-3.271,0.752
			c-0.468,0.417-0.799,0.958-0.964,1.563c-0.182,0.664-0.187,1.36-0.101,2.041c0.086,0.679,0.261,1.345,0.458,2
			c0.193,0.643,0.419,1.276,0.678,1.895c0.26,0.619,0.551,1.225,0.874,1.813c0.308,0.561,0.649,1.465,1.284,1.715
			c0.832,0.329,1.719-0.419,2.452-0.714c1.143-0.459,2.274-0.956,3.344-1.57C60.811,47.598,62.114,46.823,62.621,45.445z"/>
		<path fill="#91382B" d="M59.772,42.424c-1.102,0.102-2.104,0.927-2.425,1.983c-0.141,0.463-0.113,0.935,0.056,1.334
			c0.171,1.129,1.384,1.438,2.341,1.09c1.074-0.391,1.908-1.464,2.044-2.594C61.929,43.061,60.875,42.323,59.772,42.424z"/>
		<path fill="#91382B" d="M56.432,46.552c-0.134-1.013-0.379-2.046-0.62-3.039c-0.064-0.266-0.146-0.544-0.261-0.807
			c-0.238-0.902-0.86-1.637-1.968-1.506c-1.643,0.194-2.086,2.012-1.785,3.383c0.192,0.879,0.58,1.764,0.936,2.588
			c0.296,0.684,0.667,1.342,1.384,1.647C55.684,49.484,56.614,47.94,56.432,46.552z"/>
		<path fill="#C55445" d="M55.905,41.176c-0.181-0.306-0.502-0.435-0.841-0.435c-0.339-0.087-0.718-0.063-1.011,0.085
			c-0.391,0.2-0.574,0.644-0.438,1.058c0.007,0.188,0.115,0.361,0.277,0.483c0.101,0.076,0.211,0.142,0.326,0.195
			c0.102,0.053,0.209,0.093,0.319,0.117c0.427,0.091,0.929,0.022,1.23-0.321C56.054,42.035,56.131,41.555,55.905,41.176z"/>
		<path fill="#C55445" d="M60.276,45.56c-0.46-0.113-0.947,0.04-1.292,0.345c-0.276,0.165-0.511,0.391-0.585,0.721
			c-0.098,0.439,0.129,0.922,0.58,1.047c0.822,0.229,1.504-0.742,1.692-1.417C60.752,45.968,60.573,45.633,60.276,45.56z"/>
		<path fill="#C55445" d="M61.89,43.764c-0.108-0.118-0.258-0.206-0.413-0.246c-0.109-0.027-0.214-0.031-0.323-0.017
			c-0.121,0.016-0.186,0.042-0.305,0.093c-0.121,0.051-0.228,0.219-0.261,0.339c-0.011,0.039-0.016,0.081-0.018,0.125
			c-0.015,0.026-0.028,0.052-0.039,0.079c-0.066,0.156-0.08,0.329-0.027,0.493c0.068,0.21,0.242,0.401,0.465,0.45
			c0.211,0.046,0.436-0.017,0.61-0.142C61.938,44.68,62.255,44.161,61.89,43.764z"/>
		<path fill="#EB779E" d="M60.587,42.791c-0.377-0.3-0.893-0.373-1.361-0.34c-1.005,0.069-1.971,0.452-2.789,1.033
			c-0.137-0.513-0.331-1.022-0.728-1.384c-0.447-0.408-1.097-0.606-1.662-0.324c-1.049,0.523-0.862,2.002-0.595,2.919
			c0.197,0.677,0.486,1.332,0.854,1.934c0.176,0.288,0.371,0.563,0.581,0.828c0.223,0.279,0.466,0.51,0.852,0.426
			c0.343-0.074,0.689-0.26,1.006-0.407c0.329-0.153,0.656-0.319,0.966-0.508c0.5-0.304,1.043-0.774,1.047-1.409
			c0.003-0.678-0.612-1.12-1.238-1.174c-0.619-0.054-1.157,0.286-1.63,0.659l-0.458-0.701c-0.21-0.322-0.729-0.022-0.518,0.303
			l0.646,0.991c0.113,0.173,0.319,0.188,0.472,0.061c0.366-0.306,0.794-0.678,1.292-0.717c0.325-0.026,0.78,0.138,0.831,0.508
			c0.061,0.455-0.479,0.804-0.81,0.999c-0.482,0.283-0.991,0.531-1.513,0.731c-0.123,0.047-0.232,0.124-0.341,0.028
			c-0.09-0.079-0.164-0.192-0.237-0.288c-0.172-0.226-0.329-0.462-0.475-0.706c-0.262-0.441-0.48-0.907-0.646-1.393
			c-0.229-0.673-0.554-1.738-0.037-2.37c0.317-0.389,0.854-0.265,1.188,0.034c0.432,0.388,0.556,1.015,0.68,1.555
			c0.054,0.236,0.339,0.269,0.501,0.132c0.681-0.572,1.505-0.954,2.379-1.111c0.352-0.063,0.729-0.095,1.076,0.011
			c0.395,0.121,0.534,0.418,0.543,0.815c0.036,1.756-1.331,3.155-2.771,3.947c-0.798,0.439-1.657,0.748-2.52,1.035
			c-0.157,0.052-0.364,0.189-0.474,0.039c-0.146-0.201-0.255-0.45-0.377-0.667c-0.232-0.415-0.46-0.831-0.677-1.254
			c-0.438-0.858-0.838-1.748-1.086-2.682c-0.233-0.877-0.336-1.875,0.054-2.726c0.33-0.721,1.024-1.396,1.868-1.365
			c0.769,0.029,1.504,0.695,1.421,1.49c-0.04,0.383,0.561,0.381,0.601,0c0.093-0.886-0.563-1.652-1.354-1.955
			c-0.865-0.331-1.807-0.002-2.437,0.637c-1.636,1.658-0.839,4.194-0.004,6.035c0.24,0.53,0.507,1.047,0.785,1.558
			c0.139,0.256,0.28,0.51,0.424,0.764c0.12,0.215,0.228,0.478,0.4,0.657c0.38,0.395,1.002,0.055,1.425-0.091
			c0.515-0.177,1.024-0.37,1.521-0.594c1.831-0.824,3.581-2.315,3.784-4.439C61.101,43.766,61.048,43.157,60.587,42.791z"/>
	</g>
</g>
<g>
	<path fill="#FFFFFF" d="M25.251,76.915l-0.282,0.95c-0.074,0.248-0.428,0.239-0.489-0.013l-0.232-0.963
		c-0.069-0.284-0.284-0.511-0.563-0.594l-0.95-0.282c-0.248-0.074-0.239-0.428,0.012-0.488l0.964-0.233
		c0.284-0.068,0.51-0.283,0.593-0.563l0.282-0.95c0.074-0.248,0.428-0.238,0.488,0.013l0.233,0.964
		c0.068,0.284,0.283,0.51,0.563,0.593l0.951,0.282c0.248,0.074,0.238,0.428-0.013,0.489l-0.964,0.232
		C25.561,76.42,25.335,76.635,25.251,76.915z"/>
	<path fill="#FFFFFF" d="M81.334,22.88l-0.295,0.878c-0.076,0.229-0.406,0.209-0.455-0.027l-0.187-0.907
		c-0.055-0.268-0.248-0.485-0.507-0.572l-0.879-0.294c-0.229-0.077-0.209-0.407,0.028-0.456l0.906-0.187
		c0.268-0.055,0.485-0.248,0.572-0.507l0.294-0.878c0.077-0.229,0.407-0.209,0.456,0.027l0.187,0.907
		c0.055,0.267,0.248,0.485,0.507,0.572l0.879,0.294c0.229,0.077,0.209,0.407-0.028,0.456l-0.907,0.187
		C81.639,22.429,81.42,22.622,81.334,22.88z"/>
	<path fill="#FFFFFF" d="M30.593,79.988l-0.202,0.728c-0.053,0.189-0.323,0.188-0.372-0.003l-0.191-0.73
		c-0.056-0.216-0.223-0.385-0.437-0.444l-0.728-0.202c-0.19-0.053-0.188-0.322,0.003-0.372l0.73-0.19
		c0.215-0.057,0.384-0.223,0.444-0.438l0.202-0.728c0.052-0.189,0.322-0.188,0.372,0.003l0.19,0.73
		c0.056,0.216,0.223,0.385,0.438,0.444l0.727,0.202c0.19,0.053,0.188,0.322-0.002,0.372l-0.731,0.19
		C30.821,79.606,30.652,79.773,30.593,79.988z"/>
	<path fill="#FFFFFF" d="M72.87,76.834l-0.229,0.897c-0.061,0.233-0.391,0.238-0.457,0.006l-0.253-0.892
		c-0.074-0.263-0.282-0.466-0.547-0.533l-0.897-0.229c-0.234-0.06-0.238-0.391-0.006-0.456l0.891-0.253
		c0.263-0.074,0.466-0.283,0.533-0.548l0.229-0.897c0.061-0.233,0.391-0.238,0.457-0.006l0.252,0.891
		c0.075,0.263,0.283,0.466,0.548,0.533l0.897,0.229c0.234,0.06,0.238,0.391,0.006,0.456l-0.891,0.253
		C73.141,76.36,72.938,76.569,72.87,76.834z"/>
	<path fill="#FFFFFF" d="M18.719,18.73l-0.229,0.897c-0.06,0.234-0.391,0.238-0.456,0.006l-0.253-0.891
		c-0.074-0.263-0.283-0.466-0.547-0.533l-0.897-0.229c-0.234-0.06-0.239-0.391-0.006-0.456l0.891-0.253
		c0.263-0.074,0.466-0.283,0.533-0.547l0.229-0.897c0.06-0.234,0.391-0.239,0.457-0.006l0.252,0.891
		c0.075,0.263,0.283,0.466,0.548,0.533l0.897,0.229c0.234,0.06,0.238,0.391,0.006,0.457l-0.891,0.252
		C18.99,18.257,18.787,18.466,18.719,18.73z"/>
	<path fill="#FFFFFF" d="M88.24,50.085l-0.229,0.897c-0.061,0.234-0.391,0.238-0.457,0.006l-0.253-0.891
		c-0.074-0.263-0.282-0.466-0.547-0.533l-0.897-0.229c-0.234-0.06-0.238-0.391-0.007-0.457l0.892-0.252
		c0.263-0.075,0.466-0.283,0.533-0.547l0.229-0.897c0.06-0.234,0.391-0.239,0.457-0.006l0.252,0.891
		c0.075,0.263,0.283,0.466,0.548,0.533l0.897,0.229c0.234,0.06,0.238,0.391,0.006,0.457l-0.891,0.252
		C88.511,49.612,88.308,49.821,88.24,50.085z"/>
	<path fill="#FFFFFF" d="M77.545,74.677l-0.284,1.17c-0.074,0.306-0.504,0.316-0.593,0.015l-0.342-1.154
		c-0.102-0.34-0.375-0.602-0.721-0.685l-1.17-0.284c-0.305-0.074-0.315-0.505-0.015-0.594l1.154-0.342
		c0.341-0.101,0.602-0.375,0.686-0.72l0.284-1.171c0.074-0.305,0.504-0.315,0.594-0.015l0.342,1.155
		c0.101,0.34,0.375,0.602,0.72,0.685l1.17,0.284c0.306,0.074,0.316,0.505,0.015,0.594l-1.154,0.342
		C77.89,74.058,77.629,74.332,77.545,74.677z"/>
</g>
<g>
	<path fill="#EF4874" d="M94.015,40.123c-1.477-1.151-2.626-0.04-2.913,0.286c-0.191-0.39-1.008-1.764-2.735-1.042
		c-2.001,0.837-1.589,4.315,1.939,6.989v0l0,0l0,0l0,0C94.413,44.704,95.725,41.457,94.015,40.123z"/>
	<path fill="#EF4874" d="M58.926,8.756c-1.477-1.151-2.626-0.04-2.913,0.285C55.821,8.651,55.005,7.278,53.277,8
		c-2.001,0.837-1.589,4.314,1.939,6.989v0c0,0,0,0,0,0v0v0C59.324,13.336,60.636,10.089,58.926,8.756z"/>
	<path fill="#EF4874" d="M10.729,36.471C9.686,36.066,9.22,36.9,9.111,37.136c-0.176-0.19-0.88-0.835-1.744-0.125
		c-1,0.823-0.166,2.742,2.313,3.664v0c0,0,0,0,0,0v0v0C11.746,39.022,11.937,36.939,10.729,36.471z"/>
	<path fill="#EF4874" d="M49.577,91.434c-1.043-0.404-1.509,0.429-1.617,0.664c-0.177-0.189-0.88-0.835-1.744-0.124
		c-1,0.823-0.166,2.742,2.313,3.664l0,0c0,0,0,0,0,0l0,0l0,0C50.594,93.985,50.785,91.901,49.577,91.434z"/>
	<path fill="#BC234F" d="M10.162,41.915c-1.798,0.521-1.572,2.104-1.477,2.527c-0.428-0.074-2.02-0.217-2.447,1.605
		c-0.496,2.111,2.563,3.817,6.798,2.528l0,0c0,0,0,0,0,0h0h0C14.106,44.278,12.245,41.312,10.162,41.915z"/>
	<path fill="#BC234F" d="M38.605,87.371c-1.798,0.521-1.572,2.104-1.477,2.527c-0.428-0.074-2.02-0.218-2.447,1.604
		c-0.496,2.111,2.563,3.817,6.798,2.527v0.001c0-0.001,0-0.001,0-0.001s0,0,0,0h0C42.55,89.734,40.688,86.768,38.605,87.371z"/>
</g>
<g>
	<path fill="#FDBF73" d="M52.813,35.985c-0.018-0.201-0.228-0.363-0.422-0.242c-0.241,0.15-0.354,0.429-0.477,0.674
		c-0.087,0.174-0.046,0.391,0.13,0.494c0.16,0.093,0.407,0.046,0.494-0.13C52.657,36.541,52.837,36.263,52.813,35.985z"/>
	<path fill="#FDBF73" d="M35.952,40.742c-0.17-0.169-0.443-0.351-0.692-0.273c-0.045,0.015-0.089,0.051-0.099,0.099
		c-0.052,0.25,0.123,0.499,0.311,0.654c0.136,0.114,0.348,0.144,0.48,0C36.076,41.087,36.086,40.876,35.952,40.742z"/>
	<g>
		<path fill="#FDBF73" d="M76.156,46.556c-0.019-0.081-0.086-0.127-0.16-0.139c-0.074-0.021-0.155,0.007-0.225,0.032
			c-0.022,0.008-0.044,0.018-0.065,0.027c0.011-0.004-0.08,0.037-0.045,0.02c-0.005,0.002-0.01,0.004-0.017,0.007
			c-0.024,0.007-0.046,0.02-0.064,0.038c-0.021,0.016-0.038,0.032-0.058,0.049c-0.156,0.134-0.067,0.405,0.12,0.453
			c0.151,0.04,0.308-0.004,0.416-0.121c0.045-0.049,0.081-0.112,0.102-0.175c0.011-0.032,0.015-0.069,0.015-0.103
			C76.175,46.625,76.135,46.463,76.156,46.556z"/>
		<path fill="#FDBF73" d="M75.665,46.494c-0.002,0.001-0.003,0.001-0.004,0.002C75.686,46.486,75.687,46.485,75.665,46.494z"/>
	</g>
	<path fill="#FDBF73" d="M28.171,36.807c-0.183-0.16-0.386-0.202-0.619-0.235c-0.04-0.005-0.115-0.019-0.171-0.039
		c0.001,0-0.16-0.044-0.135-0.04c0.02-0.005,0.014-0.009-0.015-0.01c-0.017-0.028-0.054-0.04-0.083-0.012
		c-0.068,0.068-0.147,0.067-0.178,0.179c-0.023,0.084-0.01,0.187,0.028,0.263c0.078,0.158,0.214,0.263,0.378,0.318
		c0.062,0.021,0.125,0.034,0.188,0.049c0.034,0.008,0.07,0.016,0.103,0.028c0.013,0.005,0.019,0.007,0.02,0.007
		c0.117,0.065,0.203,0.117,0.345,0.075c0.123-0.036,0.182-0.129,0.229-0.241C28.307,37.044,28.255,36.88,28.171,36.807z"/>
	<path fill="#FDBF73" d="M37.086,26.51c-0.018-0.12-0.05-0.155-0.131-0.243c-0.043-0.047-0.116-0.05-0.17-0.022
		c-0.035,0.019-0.074,0.02-0.108,0.046c0,0-0.057,0.06-0.045,0.049c-0.062,0.056-0.113,0.115-0.164,0.174
		c-0.125,0.145-0.301,0.313-0.215,0.525c0.001-0.001,0.002-0.003,0.003-0.004c0.035,0.098,0.118,0.185,0.216,0.223
		c0.289,0.113,0.499-0.199,0.582-0.426C37.094,26.723,37.103,26.625,37.086,26.51z"/>
	<path fill="#FDBF73" d="M48.694,35.958c-0.027-0.069-0.051-0.12-0.105-0.169c-0.03-0.028-0.053-0.054-0.098-0.046
		c-0.037,0.007-0.075,0.051-0.1,0.077c-0.048,0.048-0.082,0.152-0.087,0.217c-0.009,0.121,0.07,0.346,0.232,0.306
		C48.694,36.303,48.747,36.093,48.694,35.958z"/>
	<path fill="#FDBF73" d="M50.973,37.397c-0.37-0.049-0.447,0.534-0.216,0.729c0.073,0.061,0.156,0.073,0.241,0.031
		C51.27,38.026,51.341,37.446,50.973,37.397z"/>
	<path fill="#FDBF73" d="M37.504,71.859c-0.098-0.133-0.227-0.217-0.354-0.318c-0.101-0.08-0.305-0.197-0.41-0.055
		c-0.097,0.132-0.028,0.302,0.048,0.425c0.082,0.131,0.184,0.271,0.328,0.337c0.117,0.053,0.249,0.051,0.344-0.045
		C37.542,72.121,37.578,71.959,37.504,71.859z"/>
	<path fill="#FDBF73" d="M34.992,38.541c-0.073-0.166-0.231-0.228-0.405-0.199c-0.182,0.031-0.373,0.118-0.54,0.194
		c-0.168,0.076-0.32,0.174-0.431,0.324c-0.091,0.124,0.006,0.31,0.14,0.345c0.182,0.048,0.379,0.013,0.558-0.035
		c0.179-0.048,0.376-0.109,0.538-0.2C34.999,38.886,35.06,38.693,34.992,38.541z"/>
	<path fill="#FDBF73" d="M32.762,48.71c-0.014-0.033-0.028-0.066-0.042-0.1c-0.055-0.064-0.065-0.08-0.03-0.045
		c-0.084-0.116-0.216-0.169-0.35-0.102c-0.025,0.012-0.047,0.028-0.066,0.048c-0.048,0.058-0.057,0.071-0.027,0.038
		c-0.033,0.044-0.052,0.068-0.077,0.112c-0.036,0.063-0.073,0.127-0.108,0.191c-0.061,0.113-0.109,0.228-0.069,0.358
		c0.052,0.169,0.235,0.264,0.405,0.217c0.236-0.065,0.387-0.335,0.38-0.571C32.777,48.813,32.772,48.749,32.762,48.71z"/>
	<path fill="#FDBF73" d="M71.715,32.075c-0.041-0.029-0.089-0.05-0.146-0.066c-0.086-0.023-0.18-0.027-0.266-0.003
		c-0.142,0.038-0.186,0.19-0.127,0.312c0.117,0.245,0.497,0.384,0.664,0.117C71.922,32.304,71.849,32.128,71.715,32.075z"/>
	<path fill="#FDBF73" d="M26.135,49.049c-0.063-0.149-0.247-0.261-0.412-0.202c-0.008,0.003-0.023,0.007-0.034,0.01
		c-0.003-0.001-0.008-0.003-0.016-0.005c-0.018-0.005-0.037-0.006-0.055-0.011c-0.176-0.048-0.36,0.088-0.358,0.273
		c0.001,0.162,0.087,0.31,0.232,0.385c0.165,0.085,0.339,0.07,0.5-0.014C26.146,49.404,26.2,49.202,26.135,49.049z"/>
	<path fill="#FDBF73" d="M45,46.798c-0.03-0.039-0.06-0.073-0.104-0.096c-0.03-0.016-0.062-0.023-0.093-0.035
		c0.008,0.003,0.017,0.007,0.024,0.01c-0.038-0.015-0.075-0.023-0.119-0.017c-0.046,0.006-0.094,0.025-0.127,0.061
		c-0.065,0.071-0.088,0.182-0.034,0.268c0.029,0.047,0.064,0.087,0.113,0.115c0.073,0.041,0.189,0.051,0.26-0.001
		c0.046-0.034,0.088-0.074,0.102-0.133C45.035,46.915,45.035,46.845,45,46.798z"/>
	<path fill="#FDBF73" d="M51.468,35.793c-0.024-0.069-0.071-0.129-0.141-0.168c-0.376-0.208-0.765,0.143-0.785,0.52
		c-0.013,0.25,0.265,0.356,0.46,0.265c0.051-0.024,0.092-0.058,0.132-0.096c0.015-0.015,0.028-0.03,0.043-0.044
		c0.004-0.003,0.018-0.014,0.029-0.023c0.003,0,0.007-0.001,0.011-0.002c0.007,0,0.015-0.001,0.018-0.002
		c0.028-0.007,0.057-0.018,0.084-0.033C51.471,36.14,51.566,35.947,51.468,35.793z"/>
	<path fill="#FDBF73" d="M52.239,73.097c-0.068-0.011-0.136-0.014-0.203-0.02c0.011,0-0.021-0.006-0.042-0.01
		c-0.027-0.005-0.054-0.011-0.08-0.018c-0.021-0.006-0.041-0.011-0.063-0.016c-0.086-0.019-0.11-0.021-0.074-0.007
		c0.021,0.009,0.013,0.008-0.027-0.001c-0.101-0.003-0.221,0.023-0.274,0.124c-0.024,0.047-0.043,0.098-0.043,0.152
		c-0.002,0.038,0.006,0.074,0.023,0.107c0.018,0.04,0.02,0.045,0.006,0.014c0.048,0.113,0.118,0.188,0.223,0.254
		c0.158,0.101,0.373,0.14,0.555,0.093c0.143-0.037,0.263-0.187,0.257-0.337C52.489,73.292,52.394,73.12,52.239,73.097z"/>
	<path fill="#FDBF73" d="M46.365,50.895c-0.055-0.048-0.128-0.066-0.213-0.051c-0.037,0.006-0.075,0.014-0.108,0.033
		c-0.03,0.018-0.055,0.042-0.073,0.073c-0.01,0.014-0.008,0.011,0.004-0.006c-0.06,0.049-0.06,0.168,0,0.218
		c-0.012-0.019-0.014-0.021-0.004-0.007c0.018,0.03,0.042,0.055,0.073,0.073c0.033,0.019,0.071,0.026,0.108,0.032
		c0.085,0.016,0.158-0.003,0.213-0.052C46.482,51.148,46.482,50.956,46.365,50.895z"/>
	<path fill="#FDBF73" d="M65.387,44.013c-0.177-0.168-0.573-0.412-0.811-0.247c-0.085,0.06-0.138,0.159-0.107,0.265
		c0.038,0.134,0.163,0.285,0.268,0.376c0.166,0.145,0.391,0.2,0.588,0.088C65.493,44.399,65.528,44.149,65.387,44.013z"/>
	<path fill="#FDBF73" d="M50.823,51.371c-0.021-0.063-0.08-0.12-0.151-0.115c-0.053,0.003-0.104,0.017-0.15,0.044
		c-0.084,0.049-0.113,0.126-0.122,0.218c-0.007,0.069,0.043,0.142,0.1,0.175c0.064,0.038,0.141,0.035,0.205,0
		C50.816,51.632,50.866,51.49,50.823,51.371z"/>
	<path fill="#FDBF73" d="M61.015,56.536c-0.021-0.062-0.079-0.119-0.151-0.115c-0.053,0.004-0.104,0.018-0.149,0.045
		c-0.084,0.049-0.113,0.126-0.122,0.218c-0.008,0.069,0.043,0.142,0.1,0.175c0.064,0.037,0.141,0.035,0.205,0
		C61.007,56.798,61.058,56.656,61.015,56.536z"/>
	<path fill="#FDBF73" d="M64.441,38.46c0.028-0.187-0.109-0.364-0.313-0.312c0.087-0.022-0.079,0.016-0.101,0.022
		c-0.051,0.017-0.106,0.045-0.154,0.071c-0.105,0.055-0.181,0.12-0.249,0.218c-0.106,0.152-0.002,0.409,0.181,0.443
		c0.091,0.018,0.176,0.028,0.263-0.009c0.076-0.032,0.137-0.063,0.199-0.119c0.045-0.04,0.087-0.089,0.119-0.14
		c0.019-0.029,0.033-0.066,0.044-0.098C64.436,38.522,64.451,38.394,64.441,38.46z"/>
	<path fill="#FDBF73" d="M43.195,55.014c-0.055-0.048-0.121-0.067-0.194-0.049c-0.036,0.009-0.068,0.027-0.088,0.059
		c0.002-0.003,0.004-0.006,0.006-0.01c-0.01,0.013-0.021,0.026-0.031,0.039c-0.016,0.028-0.024,0.058-0.026,0.089l0,0
		c-0.005,0.021-0.007,0.043-0.008,0.064c0,0.03,0.007,0.059,0.012,0.089c0.007,0.048,0.059,0.107,0.1,0.13
		c0.044,0.022,0.089,0.032,0.138,0.025c0.109-0.015,0.184-0.104,0.188-0.213C43.296,55.151,43.26,55.069,43.195,55.014z"/>
	<path fill="#FDBF73" d="M42.115,28.647c-0.003-0.025-0.007-0.05-0.01-0.076c-0.023-0.072-0.032-0.092-0.028-0.059
		c-0.018-0.078-0.1-0.137-0.179-0.136c0.021-0.006,0.011-0.009-0.029-0.008c-0.038-0.008-0.075-0.006-0.113,0.005
		c-0.07,0.034-0.089,0.041-0.055,0.021c0.037-0.021,0.016-0.014-0.062,0.023c-0.078,0.051-0.137,0.115-0.179,0.198
		c-0.071,0.141-0.047,0.306,0.081,0.405c0.13,0.1,0.291,0.078,0.412-0.025c0.066-0.056,0.128-0.136,0.148-0.223
		c0.004-0.028,0.007-0.056,0.011-0.084C42.1,28.748,42.101,28.733,42.115,28.647z"/>
	<path fill="#FDBF73" d="M45.065,53.701c-0.026-0.047-0.065-0.091-0.112-0.118c-0.026-0.015-0.054-0.025-0.082-0.033
		c-0.021-0.007-0.016-0.004,0.013,0.009c-0.028-0.009-0.085-0.032-0.119-0.048c0.059,0.026-0.012-0.013-0.019-0.017
		c-0.006-0.004-0.036-0.025-0.04-0.026c-0.009-0.007-0.017-0.014-0.026-0.021c0.006,0.004,0.002-0.001-0.012-0.016
		c-0.03-0.034-0.08-0.063-0.129-0.077c-0.033-0.023-0.078-0.017-0.112,0c-0.022,0.012-0.003,0.004,0.009-0.002
		c-0.035,0.018-0.062,0.027-0.088,0.056c-0.044,0.044-0.068,0.096-0.075,0.157c-0.004,0.041,0.002,0.077,0.007,0.117
		c-0.008-0.058,0.005,0.041,0.007,0.049c0.013,0.047,0.039,0.098,0.066,0.139c0.136,0.204,0.464,0.371,0.669,0.162
		C45.109,53.944,45.125,53.808,45.065,53.701z"/>
	<path fill="#FDBF73" d="M42.348,55.828c-0.049-0.084-0.15-0.15-0.25-0.144c-0.046,0.003-0.084,0.009-0.126,0.026
		c0.002-0.001-0.001,0.001-0.007,0.003c0.001-0.002-0.005-0.001-0.014,0.001c-0.009-0.003-0.018-0.005-0.026-0.007
		c-0.082-0.032-0.17,0.01-0.221,0.079c-0.016,0.022,0.011-0.016,0.014-0.018c-0.027,0.021-0.05,0.067-0.059,0.1
		c-0.006,0.021-0.008,0.049-0.008,0.071c0,0.016,0.017,0.065,0.009,0.075l-0.008-0.036c0.003,0.024,0.006,0.048,0.009,0.071
		c0.006,0.023,0.02,0.055,0.031,0.075c0.028,0.047,0.078,0.093,0.125,0.119c0.09,0.053,0.188,0.068,0.29,0.046
		c0.092-0.02,0.202-0.082,0.24-0.172C42.39,56.021,42.405,55.926,42.348,55.828z"/>
	<path fill="#FDBF73" d="M54.19,72.481c-0.049-0.083-0.149-0.149-0.249-0.143c-0.046,0.003-0.085,0.009-0.126,0.026
		c0.002-0.001-0.002,0-0.007,0.003c0.001-0.002-0.006-0.001-0.014,0.001c-0.009-0.003-0.018-0.005-0.026-0.007
		c-0.082-0.032-0.17,0.009-0.221,0.079c-0.017,0.022,0.01-0.016,0.013-0.018c-0.026,0.021-0.049,0.067-0.058,0.1
		c-0.006,0.021-0.009,0.049-0.009,0.071c0,0.016,0.017,0.065,0.01,0.075l-0.009-0.036c0.003,0.023,0.007,0.048,0.01,0.071
		c0.006,0.023,0.019,0.055,0.031,0.075c0.027,0.047,0.078,0.093,0.124,0.119c0.091,0.053,0.188,0.067,0.29,0.046
		c0.093-0.021,0.202-0.082,0.24-0.172C54.232,72.675,54.248,72.58,54.19,72.481z"/>
	<path fill="#FDBF73" d="M60.306,57.245c-0.146-0.021-0.374-0.069-0.503,0.026c-0.075,0.058-0.1,0.121-0.086,0.214
		c0.024,0.178,0.262,0.293,0.417,0.328c0.186,0.043,0.441,0.027,0.517-0.182C60.735,57.397,60.499,57.272,60.306,57.245z"/>
</g>
<g>
	<g>
		<path fill="#481B11" d="M59.428,77.662l-0.073-0.185c-1.003-2.558,0.258-5.443,2.815-6.446l0,0
			c2.558-1.003,5.443,0.258,6.446,2.815l0.072,0.186c1.003,2.557-0.258,5.443-2.815,6.445l0,0
			C63.316,81.48,60.43,80.22,59.428,77.662z"/>
		<path fill="#2F1811" d="M68.629,77.808c-0.356,0.27-0.754,0.496-1.189,0.668l0,0c-2.558,1.002-5.444-0.258-6.446-2.815
			l-0.073-0.186c-0.497-1.268-0.438-2.616,0.061-3.776c-1.731,1.312-2.457,3.658-1.626,5.779l0.073,0.185
			c1.002,2.558,3.889,3.818,6.445,2.815C67.163,79.973,68.122,78.987,68.629,77.808z"/>
		<path fill="#732D20" d="M66.027,74.603c0.799-1.646-1.058-3.015-2.554-2.92c-0.298,0.02-0.619,0.093-0.911,0.223
			c-0.388,0.074-0.744,0.264-1.019,0.616c-0.606,0.78-0.262,1.695,0.441,2.259C63.063,75.645,65.267,76.171,66.027,74.603z"/>
		<path fill="#732D20" d="M67.282,77.339c0.142-0.106,0.249-0.241,0.32-0.404c0.024-0.083,0.048-0.165,0.072-0.248
			c0.027-0.18,0.009-0.355-0.058-0.525l-0.036-0.093c-0.046-0.131-0.12-0.241-0.224-0.33c-0.083-0.102-0.188-0.178-0.313-0.227
			c-0.121-0.059-0.248-0.084-0.379-0.076c-0.136-0.015-0.267,0.006-0.395,0.062l-0.237,0.132c-0.142,0.106-0.248,0.242-0.32,0.404
			c-0.023,0.083-0.048,0.165-0.072,0.248c-0.027,0.18-0.008,0.355,0.058,0.525l0.036,0.093c0.047,0.131,0.121,0.241,0.224,0.33
			c0.084,0.102,0.188,0.178,0.313,0.227c0.121,0.059,0.247,0.084,0.379,0.076c0.135,0.015,0.267-0.006,0.394-0.062
			C67.124,77.427,67.203,77.383,67.282,77.339z"/>
		<path fill="#EB779E" d="M65.602,72.974c-0.554-0.148-1.148-0.112-1.666,0.142c-0.563,0.276-0.996,0.824-1.319,1.348
			c-0.302,0.49-0.538,1.088-0.431,1.671c0.109,0.595,0.591,1,1.159,1.138c0.617,0.15,1.4,0.108,1.903-0.315
			c0.515-0.435,0.734-1.229,0.419-1.842c-0.272-0.533-0.989-0.817-1.526-0.497c-0.502,0.299-0.607,1.068-0.167,1.465
			c0.286,0.257,0.712-0.166,0.424-0.425c-0.261-0.234-0.007-0.612,0.31-0.572c0.481,0.062,0.59,0.628,0.438,1.013
			c-0.188,0.479-0.634,0.632-1.111,0.644c-0.384,0.01-0.858-0.055-1.11-0.381c-0.566-0.731,0.331-1.904,0.85-2.398
			c0.662-0.63,1.666-0.606,2.381-0.065c1.364,1.033,1.284,3.632-0.19,4.537c-0.874,0.536-1.992,0.273-2.896-0.042
			c-0.896-0.313-1.685-0.867-1.906-1.838c-0.232-1.019,0.214-2.031,0.948-2.729c0.77-0.732,1.934-1.278,2.999-0.953
			c0.37,0.113,0.528-0.466,0.159-0.578c-1.25-0.382-2.604,0.209-3.526,1.055c-0.894,0.819-1.397,2.004-1.188,3.217
			c0.225,1.303,1.286,2.053,2.469,2.444c1.207,0.399,2.625,0.563,3.641-0.356C68.367,77.11,67.987,73.615,65.602,72.974z"/>
	</g>
	<g>
		<path fill="#732D20" d="M59.105,84.703h-0.198c-2.747,0-4.975-2.227-4.975-4.974l0,0c0-2.747,2.228-4.975,4.975-4.975h0.198
			c2.747,0,4.975,2.228,4.975,4.975l0,0C64.08,82.477,61.853,84.703,59.105,84.703z"/>
		<path fill="#5E1A11" d="M62.6,76.189c0.121,0.43,0.187,0.883,0.187,1.351l0,0c0,2.747-2.227,4.975-4.974,4.975h-0.199
			c-1.361,0-2.595-0.548-3.493-1.435c0.589,2.09,2.508,3.623,4.787,3.623h0.198c2.747,0,4.975-2.227,4.975-4.974
			C64.08,78.344,63.513,77.091,62.6,76.189z"/>
		<path fill="#A74131" d="M58.665,77.441c-1.24-1.345-3.192-0.115-3.649,1.312c-0.091,0.285-0.14,0.61-0.125,0.93
			c-0.073,0.388-0.026,0.789,0.202,1.174c0.504,0.85,1.482,0.861,2.263,0.413C58.554,80.582,59.848,78.723,58.665,77.441z"/>
		<path fill="#A74131" d="M61.672,77.271c-0.048-0.171-0.135-0.319-0.26-0.445c-0.068-0.053-0.137-0.105-0.205-0.158
			c-0.157-0.092-0.327-0.138-0.51-0.138h-0.1c-0.139-0.006-0.269,0.023-0.389,0.087c-0.126,0.041-0.234,0.11-0.325,0.209
			c-0.099,0.092-0.169,0.2-0.209,0.325c-0.063,0.12-0.093,0.25-0.087,0.389l0.036,0.27c0.048,0.171,0.134,0.319,0.26,0.445
			c0.067,0.053,0.136,0.105,0.204,0.158c0.157,0.091,0.327,0.138,0.51,0.138h0.1c0.14,0.005,0.269-0.023,0.39-0.087
			c0.125-0.041,0.233-0.11,0.325-0.209c0.099-0.092,0.168-0.2,0.209-0.325c0.063-0.12,0.092-0.25,0.087-0.39
			C61.695,77.451,61.684,77.361,61.672,77.271z"/>
		<g>
			<path fill="#FDBF73" d="M64.025,78.992c-0.012-0.074-0.024-0.148-0.039-0.223c-0.73,0.296-1.413,0.711-2.012,1.227
				c-0.998,0.859-1.83,2.041-2.114,3.342c-0.095,0.434-0.12,0.882-0.054,1.314c0.072-0.01,0.145-0.021,0.216-0.035
				c-0.16-1.009,0.257-2.101,0.791-2.942c0.663-1.045,1.617-1.896,2.719-2.457C63.693,79.136,63.858,79.062,64.025,78.992z"/>
			<path fill="#FDBF73" d="M54.046,80.785c0.043,0.194,0.096,0.385,0.16,0.57c0.079-0.946,0.326-1.878,0.738-2.733
				c0.687-1.429,1.818-2.608,3.199-3.381c0.336-0.188,0.686-0.349,1.044-0.484c-0.027,0-0.055-0.002-0.082-0.002h-0.198
				c-0.104,0-0.207,0.005-0.31,0.011c-0.834,0.384-1.605,0.905-2.265,1.547c-1.196,1.164-1.989,2.702-2.268,4.347
				C54.058,80.701,54.053,80.743,54.046,80.785z"/>
			<path fill="#FDBF73" d="M56.794,81.998c-0.198,0.666-0.317,1.354-0.356,2.048c0.133,0.076,0.27,0.146,0.41,0.211
				c0.452-1.226,1.201-2.329,2.149-3.229c1.104-1.047,2.471-1.82,3.943-2.205c0.335-0.087,0.674-0.15,1.016-0.195
				c-0.017-0.072-0.035-0.145-0.055-0.217c-1.015,0.138-2.005,0.455-2.916,0.929c-1.384,0.718-2.591,1.785-3.457,3.083
				c-0.352,0.527-0.643,1.095-0.866,1.688c0.071-1.422,0.491-2.82,1.225-4.044c0.822-1.374,2.035-2.488,3.459-3.219
				c0.436-0.224,0.89-0.405,1.356-0.552c-0.125-0.131-0.256-0.254-0.394-0.37c-1.243,0.148-2.475,0.414-3.611,0.942
				c-0.785,0.364-1.509,0.862-2.104,1.494c-0.609,0.647-1.079,1.412-1.454,2.216c-0.232,0.495-0.428,1.006-0.606,1.522
				c0.046,0.085,0.096,0.168,0.146,0.25c0.432-1.283,0.969-2.544,1.849-3.578c1.129-1.329,2.738-2.041,4.415-2.398
				c0.511-0.108,1.026-0.186,1.545-0.244c-1.097,0.366-2.122,0.943-3.001,1.696C58.208,78.921,57.274,80.386,56.794,81.998z"/>
		</g>
	</g>
</g>
<path fill="#2DB562" d="M50,0C22.386,0,0,22.386,0,50c0,27.613,22.386,50,50,50s50-22.387,50-50C100,22.386,77.614,0,50,0z
	 M50,96.667C24.228,96.667,3.333,75.771,3.333,50C3.333,24.228,24.228,3.333,50,3.333c25.772,0,46.667,20.895,46.667,46.667
	C96.667,75.771,75.772,96.667,50,96.667z"/>
</svg>
