<?xml version="1.0" encoding="utf-8"?>
<!-- Generator: Adobe Illustrator 16.0.0, SVG Export Plug-In . SVG Version: 6.00 Build 0)  -->
<!DOCTYPE svg PUBLIC "-//W3C//DTD SVG 1.1//EN" "http://www.w3.org/Graphics/SVG/1.1/DTD/svg11.dtd">
<svg version="1.1" id="Layer_1" xmlns="http://www.w3.org/2000/svg" xmlns:xlink="http://www.w3.org/1999/xlink" x="0px" y="0px"
	 width="609px" height="421px" viewBox="0 0 609 421" enable-background="new 0 0 609 421" xml:space="preserve">
<linearGradient id="SVGID_1_" gradientUnits="userSpaceOnUse" x1="328.1455" y1="420.1543" x2="328.1455" y2="42.1543" gradientTransform="matrix(1 0 0 -1 0.04 420.1543)">
	<stop  offset="0" style="stop-color:#E1EFFE"/>
	<stop  offset="1" style="stop-color:#E1EFFE;stop-opacity:0"/>
</linearGradient>
<path fill="url(#SVGID_1_)" d="M517.186,189c0,104.382-84.618,189-189,189c-104.381,0-189-84.618-189-189s84.618-189,189-189
	C432.567,0,517.186,84.618,517.186,189z"/>
<g>
	<path id="Shadow_35_" fill="#E1E1E1" d="M237.037,282.777c-49.983,28.858-49.983,75.646,0.001,104.504
		c49.984,28.858,131.023,28.859,181.006,0.001c49.984-28.858,49.983-75.646,0-104.505
		C368.061,253.92,287.021,253.92,237.037,282.777z"/>
	<path id="Shadow_3_" fill="#E1E1E1" d="M143.25,317.613c-24.339,14.053-24.339,36.835,0,50.888
		c24.339,14.053,63.801,14.053,88.14,0c24.34-14.053,24.34-36.835,0-50.888C207.05,303.562,167.588,303.562,143.25,317.613z"/>
	<g id="Balloons">
		<g>
			<path fill="#F0F0F0" d="M223.313,273.142c1.85-13.885,7.895-26.601,12.065-39.845c1.141-3.622,2.146-7.316,2.657-11.086
				c0.252-1.866,0.392-3.75,0.352-5.634c-0.039-1.862-0.328-3.677-0.591-5.516c-0.096-0.669,0.538-1.194,0.776-0.445
				c2.044,6.452,0.795,13.868-0.987,20.229c-1.878,6.707-4.463,13.201-6.796,19.757c-4.63,13.009-8.674,26.848-5.747,40.714
				c1.532,7.249,4.89,15.031,3.62,22.567c-0.023,0.138-0.191,1.864-0.586,4.175c-0.02,0.12-0.148-4.18-0.125-4.401
				c0.452-4.187-0.244-6.997-1.102-10.426c-0.82-3.276-1.814-6.505-2.611-9.786C222.611,286.756,222.404,279.957,223.313,273.142z"
				/>
			<path fill="#F0F0F0" d="M178.485,189.816c7.837,11.468,12.075,25.428,14.456,39.047c1.909,13.658,1.589,27.813,7.396,40.638
				c3.354,8.272,7.965,16.003,13.375,23.092c5.449,7.527,14.511,14.144,14.237,24.216c-0.019,0.29-0.406,0.464-0.487,0.11
				c-1.777-8.941-8.126-15.636-13.729-22.43c-5.481-6.911-10.183-14.464-13.742-22.541c-8.342-16.813-5.67-35.986-10.727-53.631
				c-2.545-9.771-6.86-18.924-11.71-27.734C177.303,190.066,178.078,189.264,178.485,189.816z"/>
			<path fill="#F0F0F0" d="M209.888,265.351c-0.17-12.902,3.979-25.354,3.393-38.288c-0.478-12.977-3.135-25.999-0.803-38.96
				c4.301-18.889,5.967-38.289,2.877-57.519c-0.032-1.877-1.335-5.353,0.021-4.824c3.411,12.382,3.291,25.648,2.343,38.396
				c-0.89,12.807-5.664,25.162-4.824,38.098c0.657,12.816,3.309,25.625,1.175,38.447c-2.122,12.777-4.645,26.175-0.642,38.9
				c2.667,11.461,12.353,18.15,14.437,31.2c0.236,1.472-0.006,4.535-0.187,6.013c-0.032,0.261-0.151-1.416-0.142-1.655
				C226.255,297.976,209.183,288.429,209.888,265.351z"/>
			<path fill="#F0F0F0" d="M221.711,325.625c-0.037,0.3,0.066,0.832,0.457,0.796c0.029-0.001,0.045-0.05,0.045-0.073
				c-0.004-0.348-0.023-0.713,0.278-0.952c0.228-0.181,0.54-0.239,0.813-0.312c0.531-0.142,1.074-0.265,1.531-0.584
				c0.468-0.327,0.814-0.836,0.964-1.383c0.162-0.595,0.017-1.145-0.085-1.734c-0.038-0.222-0.111-0.544,0-0.756
				c0.087-0.164,0.292-0.224,0.447-0.316c0.444-0.266,0.817-0.645,1.113-1.067c0.209-0.3,0.367-0.635,0.502-0.977
				c0.042,0.086,0.09,0.17,0.131,0.257c0.188,0.411,0.376,0.839,0.716,1.151c0.409,0.375,0.958,0.463,1.491,0.354
				c0.669-0.136,1.182-0.601,1.815-0.813c1.41-0.473,1.802,1.314,2.862,1.797c0.911,0.412,1.945,0.166,2.552-0.61
				c0.041-0.051-0.011-0.2-0.085-0.15c-0.397,0.269-1.001,0.375-1.475,0.296c-0.597-0.099-0.956-0.445-1.261-0.945
				c-0.581-0.951-1.322-1.714-2.535-1.386c-0.945,0.256-2.145,1.444-2.876,0.233c-0.218-0.36-0.388-0.885-0.649-1.29
				c1.125-0.177,2.256-0.532,3.217-1.12c0.897-0.549,1.913-1.514,1.885-2.648c-0.029-1.207-1.247-1.763-2.31-1.645
				c-1.129,0.127-2.122,0.839-2.779,1.735c-0.567,0.776-0.823,1.688-0.924,2.624c-0.013,0.005-0.028,0.013-0.041,0.02
				c-0.079-0.207-0.154-0.413-0.266-0.604c-0.167-0.286-0.358-0.563-0.575-0.813c-0.416-0.479-0.903-0.862-1.489-1.113
				c-1.141-0.489-2.486-0.317-3.433,0.497c-0.807,0.693-1.281,1.966-0.701,2.95c0.552,0.936,1.939,1.164,2.936,1.181
				c1.027,0.016,2.024-0.22,2.94-0.672c-0.232,0.63-0.411,1.292-0.985,1.731c-0.442,0.34-0.909,0.487-1.18,1.02
				c-0.252,0.496-0.244,1.053-0.144,1.586c0.113,0.596,0.317,1.283-0.228,1.735c-0.474,0.394-1.193,0.409-1.726,0.716
				C222.181,324.616,221.781,325.056,221.711,325.625z M226.843,316.499c-0.153,0.084-0.305,0.169-0.468,0.236
				c-0.979,0.402-2.063,0.485-3.093,0.254c-0.451-0.101-1.03-0.261-1.256-0.705c-0.204-0.399-0.148-0.878,0.12-1.235
				c0.611-0.811,1.796-0.748,2.628-0.378c0.488,0.217,0.945,0.552,1.317,0.934c0.229,0.234,0.421,0.497,0.631,0.747
				C226.762,316.401,226.802,316.45,226.843,316.499z M228.024,316.211c-0.018-0.029-0.041-0.055-0.067-0.075
				c0.227-0.868,0.628-1.694,1.262-2.333c0.538-0.542,1.292-1.016,2.081-1.006c0.683,0.008,1.497,0.57,1.098,1.319
				c-0.374,0.704-1.185,1.159-1.896,1.448c-0.44,0.18-0.898,0.306-1.361,0.409c-0.245,0.055-0.492,0.103-0.739,0.148
				C228.275,316.147,228.148,316.175,228.024,316.211z"/>
		</g>
		<g id="Balloon_2_">
			<path fill="#D268CC" d="M216.694,122.552l4.478,6.778c0,0,0.164,3.622-6.011,4.269c-5.276,0.553-6.417-2.376-6.417-2.376
				l2.184-7.65L216.694,122.552z"/>
			<path opacity="0.2" fill="#FFFFFF" d="M216.694,122.552l4.478,6.778c0,0,0.164,3.622-6.011,4.269
				c-5.276,0.553-6.417-2.376-6.417-2.376l2.184-7.65L216.694,122.552z"/>
			<g id="Heart_1_">
				<g>
					<path fill="#D268CC" d="M201.13,53.168c9.918-13.8,28.342-18.022,42.149-5.037c14.292,13.44,13.034,42.573-22.651,71.595
						c-4.663,3.793-11.061,4.254-16.495,1.686c-21.686-10.25-36.881-27.093-38.142-45.314
						C164.531,55.015,187.908,43.098,201.13,53.168z"/>
					<path opacity="0.3" fill="#FFFFFF" d="M201.13,53.168c9.918-13.8,28.342-18.022,42.149-5.037
						c14.292,13.44,13.034,42.573-22.651,71.595c-4.663,3.793-11.061,4.254-16.495,1.686c-21.686-10.25-36.881-27.093-38.142-45.314
						C164.531,55.015,187.908,43.098,201.13,53.168z"/>
					<path opacity="0.6" fill="#D268CC" d="M180.773,51.552c6.766-2.985,14.543-2.812,20.357,1.617
						c-1.43,1.776-3.095,5.167-3.436,8.085C195.556,57.286,190.531,49.185,180.773,51.552z"/>
					<path opacity="0.6" fill="#D268CC" d="M246.847,67.263c-0.899-14.806-13.301-26.382-21.171-26.92
						c6.05,0.255,12.182,2.69,17.604,7.789c14.292,13.44,13.034,42.573-22.651,71.595c-0.647,0.527-1.333,0.987-2.044,1.392
						C242.511,100.995,247.658,80.609,246.847,67.263z"/>
				</g>
			</g>
			<g>
				<path fill="#2B454E" d="M211.134,124.519c2.542,0,5.914-0.729,7.574-1.78c0.351-0.222,0.457-0.688,0.233-1.039
					c-0.222-0.352-0.687-0.457-1.039-0.234c-1.84,1.166-6.494,1.922-8.436,1.374c-0.403-0.116-0.816,0.121-0.929,0.52
					c-0.113,0.4,0.12,0.816,0.52,0.929C209.614,124.446,210.333,124.519,211.134,124.519z"/>
			</g>
		</g>
		<g id="Balloon_1_">
			<path fill="#D268CC" d="M178.715,197.589l-0.551,8.104c0,0,1.643,3.232,7.334,0.75c4.862-2.122,4.41-5.233,4.41-5.233
				l-5.674-5.578L178.715,197.589z"/>
			<path opacity="0.6" fill="#FFFFFF" d="M178.715,197.589l-0.551,8.104c0,0,1.643,3.232,7.334,0.75
				c4.862-2.122,4.41-5.233,4.41-5.233l-5.674-5.578L178.715,197.589z"/>
			<g id="Heart_2_">
				<g>
					<path fill="#D268CC" d="M158.027,129.557c-15.434-7.112-33.542-1.696-39.148,16.41c-5.801,18.74,9.664,43.462,55.021,51.105
						c5.928,0.999,11.721-1.756,15.181-6.671c13.809-19.613,18.717-41.76,10.826-58.232
						C190.774,113.109,164.561,114.275,158.027,129.557z"/>
					<path opacity="0.6" fill="#FFFFFF" d="M158.027,129.557c-15.434-7.112-33.542-1.696-39.148,16.41
						c-5.801,18.74,9.664,43.462,55.021,51.105c5.928,0.999,11.721-1.756,15.181-6.671c13.809-19.613,18.717-41.76,10.826-58.232
						C190.774,113.109,164.561,114.275,158.027,129.557z"/>
					<path opacity="0.3" fill="#D268CC" d="M174.938,118.108c-7.358,0.742-14.038,4.729-16.911,11.449
						c2.12,0.84,5.242,2.967,6.978,5.338C164.907,130.389,165.282,120.863,174.938,118.108z"/>
					<path opacity="0.3" fill="#D268CC" d="M125.212,164.369c-6.521-13.323-1.443-29.51,5.138-33.86
						c-5.137,3.206-9.27,8.35-11.47,15.459c-5.802,18.74,9.663,43.462,55.02,51.105c0.824,0.138,1.647,0.2,2.466,0.201
						C145.625,191.572,131.09,176.379,125.212,164.369z"/>
				</g>
			</g>
			<g>
				<path fill="#2B454E" d="M177.317,198.751c2.635,0,7.254-1.755,8.899-3.419c0.292-0.296,0.29-0.773-0.006-1.064
					c-0.297-0.293-0.773-0.29-1.065,0.006c-1.42,1.438-5.845,3.084-8.016,2.967c-0.381-0.003-0.768,0.3-0.788,0.716
					c-0.021,0.416,0.3,0.768,0.716,0.788C177.141,198.75,177.229,198.751,177.317,198.751z"/>
			</g>
		</g>
		<g id="Balloon">
			<path fill="#D268CC" d="M241.77,211.229l1.887,7.9c0,0-1.085,3.459-7.108,1.955c-5.147-1.286-5.216-4.43-5.216-4.43l4.67-6.442
				L241.77,211.229z"/>
			<path opacity="0.7" fill="#FFFFFF" d="M241.77,211.229l1.887,7.9c0,0-1.085,3.459-7.108,1.955
				c-5.147-1.286-5.216-4.43-5.216-4.43l4.67-6.442L241.77,211.229z"/>
			<g id="Heart_3_">
				<g>
					<path fill="#D268CC" d="M250.892,140.708c14.041-9.573,32.797-7.234,41.327,9.692c8.829,17.519-2.323,44.462-45.786,59.52
						c-5.679,1.967-11.849,0.212-16.076-4.062c-16.869-17.052-25.382-38.079-20.331-55.632
						C215.871,129.917,241.914,126.721,250.892,140.708z"/>
					<path opacity="0.8" fill="#FFFFFF" d="M250.892,140.708c14.041-9.573,32.797-7.234,41.327,9.692
						c8.829,17.519-2.323,44.462-45.786,59.52c-5.679,1.967-11.849,0.212-16.076-4.062c-16.869-17.052-25.382-38.079-20.331-55.632
						C215.871,129.917,241.914,126.721,250.892,140.708z"/>
					<path opacity="0.3" fill="#D268CC" d="M232.317,132.221c7.379-0.489,14.627,2.335,18.575,8.486
						c-1.951,1.18-4.678,3.795-5.996,6.421C244.245,142.668,242.295,133.337,232.317,132.221z"/>
					<path opacity="0.3" fill="#D268CC" d="M289.024,169.597c4.221-14.22-3.47-29.341-10.682-32.54
						c5.598,2.31,10.526,6.697,13.875,13.343c8.829,17.519-2.323,44.462-45.786,59.52c-0.789,0.274-1.592,0.471-2.397,0.608
						C273.405,199.808,285.218,182.415,289.024,169.597z"/>
				</g>
			</g>
			<g>
				<path fill="#2B454E" d="M241.889,212.248c0.639,0,1.221-0.049,1.709-0.156c0.406-0.088,0.664-0.49,0.574-0.896
					c-0.088-0.406-0.483-0.665-0.896-0.574c-2.13,0.466-6.758-0.416-8.397-1.598c-0.337-0.244-0.809-0.166-1.05,0.171
					c-0.243,0.337-0.167,0.808,0.17,1.051C235.583,211.388,239.219,212.248,241.889,212.248z"/>
			</g>
		</g>
	</g>
	<g id="Teddy_Bear_1_">
		<g id="Arm_6_">
			<path fill="#B0494C" d="M320.593,182.431c-20.219,8.122-47.034,33.821-49.138,58.293c-2.103,24.471,19.567,28.743,33.998,16.188
				c14.43-12.556,32.037-51.32,30.865-62.537C335.178,183.468,327.003,179.856,320.593,182.431z"/>
			<path fill="#B0494C" d="M272.222,225.553c-31.809-1.687-38.131,48.397-12.406,49.365
				C285.148,275.871,297.251,226.879,272.222,225.553z"/>
		</g>
		<g id="Paw_1_">
			<g id="XMLID_875_">
				<path id="XMLID_876_" fill="#B0494C" d="M316.769,318.361c-4.332,9.278-37.929,31.526-46.82,35.966
					c-4.733,2.363-14.19,5.989-20.521,5.934c-16.055-0.141-25.144-8.698-32.465-27.742c-4.834-12.576-8.629-44.036,10.037-51.185
					c20.974-7.938,36.138,12.945,36.138,12.945s22.142-8.925,37.3-6.471C315.543,290.266,321.043,309.033,316.769,318.361z"/>
			</g>
			<path fill="#C76668" d="M252.006,307.912c-5.505-11.207-13.113-17.464-20.276-19.777c-6.903-2.231-15.826,2.666-17.493,9.726
				c-2.831,11.983-0.254,26.903,2.726,34.658c6.81,17.716,15.16,26.348,29.215,27.579
				C264.495,357.992,260.504,325.213,252.006,307.912z"/>
			<g>
				<path fill="#FF9090" d="M248.581,340.372c0,9.069-5.515,13.239-12.319,9.312c-6.802-3.928-12.318-14.466-12.318-23.536
					c0-9.071,5.516-13.24,12.318-9.313C243.066,320.763,248.581,331.301,248.581,340.372z"/>
				<path fill="#FF9090" d="M235.088,306.541c0,3.437-2.088,5.015-4.665,3.526c-2.576-1.486-4.665-5.477-4.665-8.911
					s2.089-5.014,4.665-3.527C233,299.116,235.088,303.107,235.088,306.541z"/>
				<path fill="#FF9090" d="M249.742,316.559c0,3.435-2.088,5.014-4.665,3.526s-4.665-5.478-4.665-8.913
					c0-3.434,2.088-5.013,4.665-3.525C247.654,309.135,249.742,313.123,249.742,316.559z"/>
				<path fill="#FF9090" d="M224.233,312.919c0,3.435-2.089,5.014-4.665,3.525c-2.575-1.487-4.664-5.476-4.664-8.912
					c0-3.435,2.088-5.014,4.664-3.525C222.144,305.493,224.233,309.484,224.233,312.919z"/>
			</g>
			<path opacity="0.1" d="M273.424,313.865c0,0,1.607-11.109-4.001-21.803c-3.827,1.229-6.286,2.217-6.286,2.217
				C269.964,303.351,273.424,313.865,273.424,313.865z"/>
		</g>
		<g id="Body">
			<g id="XMLID_869_">
				<path id="XMLID_873_" fill="#C76668" d="M436.023,293.463c-5.206,35.607-29.617,48.767-51.962,52.911
					c-11.265,2.11-22.047,1.922-29.592,1.148c-21.173-2.104-61.836-7.204-76.405-54.098c-13.924-44.822,30.075-72.193,30.075-72.193
					c8.99-37.513,40.817-40.708,58.513-38.823C406.286,186.599,443.858,239.988,436.023,293.463z"/>
			</g>
			<path fill="#B0494C" d="M309.209,295.353c0.749-4.116,1.952-8.096,3.358-12.03c2.717-7.606,5.765-15.061,5.822-23.263
				c0.03-4.292-0.453-8.565-0.522-12.854c-0.058-3.577,0.169-7.151,0.64-10.697c1.056-7.957,3.402-15.722,6.888-22.937
				c-0.766-0.558-1.492-1.159-2.15-1.848c-0.399-0.418-0.771-0.863-1.13-1.313c-0.333-0.417-0.841-0.967-0.899-1.525
				c-0.059-0.552,0.7-1.197,1.234-0.869c0.63,0.386,1.099,0.985,1.619,1.504c0.447,0.444,0.899,0.879,1.374,1.294
				c0.31,0.271,0.626,0.53,0.949,0.779c2.589-4.984,5.724-9.685,9.371-13.972c4.814-5.656,10.566-10.66,17.048-14.318
				c0.755-0.426,1.524-0.824,2.302-1.208c1.909-0.102,3.766-0.122,5.542-0.078c-0.132,0.051-0.266,0.097-0.397,0.15
				c-6.921,2.773-13.089,7.349-18.305,12.629c-5.307,5.371-9.736,11.545-13.171,18.233c1.545,0.699,3.221,1.085,4.916,1.122
				c0.725,0.018,1.584-0.039,2.239,0.308c0.173,0.091,0.335,0.204,0.407,0.386c0.027,0.065,0.028,0.139,0.023,0.207
				c-0.242,0.347-0.485,0.692-0.728,1.039c-0.102,0.044-0.203,0.087-0.305,0.131c-0.989,0.345-2.21,0.212-3.23,0.077
				c-1.492-0.197-2.944-0.646-4.304-1.288c-2.508,5.264-4.413,10.818-5.63,16.544c-1.552,7.308-1.69,14.586-1.25,22.016
				c0.249,4.195,0.427,8.391-0.197,12.563c-0.575,3.844-1.7,7.563-2.985,11.223c-1.298,3.691-2.742,7.332-3.916,11.066
				c-1.229,3.909-2.074,7.92-2.566,11.988c-0.968,7.99-1.235,16.415,0.315,24.349c0.993,5.077,2.894,9.895,5.718,14.165
				c-1.443-0.641-2.882-1.332-4.313-2.077c-0.838-1.551-1.575-3.157-2.191-4.813c-2.835-7.618-3.251-15.928-2.918-23.976
				C308.043,303.802,308.445,299.548,309.209,295.353z"/>
			<path opacity="0.1" d="M284.135,308.105c13.645,25.538,55.256,31.255,92.179,22.523c0.778-0.185,1.542-0.378,2.288-0.579
				c22.541-6.083,41.479-19.152,39.686-54.425c-1.795-35.273-21.297-52.87-21.297-52.87s-13.867,11.198-27.356,6.916
				c-8.993-2.854-3.939-12.913-3.939-12.913s-32.681,0.148-45.659-19.353c13.597-15.052,33.808-16.361,46.617-14.996
				c39.634,4.19,77.206,57.58,69.371,111.054c-5.205,35.607-29.616,48.767-51.962,52.911c-11.265,2.11-22.047,1.922-29.592,1.148
				C335.756,345.664,301.825,341.439,284.135,308.105z"/>
			<path id="XMLID_3548_" fill="#FF9090" d="M342.049,244.486c-37.678-16.813-60.875,7.744-57.914,39.279
				c2.522,26.855,37.299,46.622,70.454,34.155C387.744,305.452,373.889,258.695,342.049,244.486z"/>
		</g>
		<g id="Head">
			<g>
				<path id="XMLID_888_" fill="#B0494C" d="M346.202,88.326c2.113-9.028-19.432-32.358-40.336-14.562
					c-19.082,16.244-2.048,42.817,13.625,42.328C335.163,115.601,346.202,88.326,346.202,88.326z"/>
				<path id="XMLID_882_" fill="#FF9090" d="M319.2,110.069c-8.036-0.175-19.938-9.685-13.427-21.45
					c5.357-9.68,16.604-9.219,21.754-3.844c5.152,5.375,4.665,14.199,4.665,14.199L319.2,110.069z"/>
			</g>
			<g>
				<path id="XMLID_881_" fill="#C76668" d="M310.369,171.595c-6.42-15.893-8.404-41.113,5.639-63.031
					c13.39-20.899,43.197-32.515,72.412-27.415c29.684,5.182,50.384,25.499,53.988,55.397c4.567,37.89-19.739,63.912-57.63,68.48
					c-14.354,1.729-32.279,0.899-45.726-4.418C326.776,195.752,318.083,190.69,310.369,171.595z"/>
				<path fill="#B0494C" d="M341.819,132.011c-0.579-0.009-1.145,0.062-1.67-0.223c-0.455-0.246-0.024-0.928,0.282-1.083
					c0.938-0.476,2.159-0.309,3.173-0.226c0.485,0.04,0.968,0.105,1.447,0.182c1.627-6.59,3.885-13.042,6.813-19.166
					c0.182-0.38,0.374-0.756,0.563-1.134c-0.394-0.043-0.788-0.083-1.183-0.107c-0.479-0.029-0.958-0.042-1.437-0.037
					c-0.579,0.005-1.143,0.089-1.675-0.183c-0.46-0.234-0.047-0.927,0.256-1.089c0.926-0.499,2.15-0.362,3.167-0.304
					c0.556,0.032,1.109,0.09,1.66,0.17c3.05-5.814,6.831-11.264,11.406-15.908c-0.055-0.007-0.11-0.017-0.164-0.024
					c-0.446-0.059-0.893-0.106-1.34-0.143c-0.863-0.072-1.919,0.057-2.762-0.283c-0.704-0.283,0.076-1.154,0.439-1.311
					c0.462-0.199,1.011-0.137,1.503-0.124c0.528,0.014,1.054,0.046,1.579,0.099c0.746,0.074,1.485,0.193,2.22,0.336
					c3.455-3.252,7.329-6.056,11.658-8.227c2.11-1.059,4.339-1.959,6.633-2.662c1.884,0.242,3.853,0.567,5.777,0.909
					c-3.076,0.588-6.084,1.423-9.027,2.748c-4.448,2.002-8.49,4.746-12.081,8.014c0.361,0.122,0.724,0.243,1.079,0.381
					c0.794,0.308,1.998,0.665,2.513,1.381c0.12,0.168,0.061,0.665-0.213,0.668c-0.927,0.013-1.921-0.475-2.807-0.735
					c-0.619-0.183-1.246-0.334-1.875-0.475c-0.6,0.586-1.188,1.184-1.761,1.799c-3.945,4.239-7.248,9.047-10,14.175
					c0.602,0.174,1.196,0.368,1.764,0.615c0.81,0.352,1.88,0.803,2.249,1.664c0.054,0.125,0.035,0.344-0.124,0.375
					c-0.849,0.167-2.007-0.43-2.805-0.684c-0.608-0.194-1.219-0.367-1.833-0.525c-3.263,6.388-5.705,13.227-7.465,20.071
					c-0.028,0.111-0.052,0.224-0.081,0.335c0.707,0.21,1.409,0.445,2.07,0.752c0.801,0.372,1.861,0.849,2.208,1.719
					c0.051,0.125,0.026,0.345-0.133,0.372c-0.853,0.146-1.996-0.479-2.788-0.753c-0.574-0.199-1.15-0.38-1.73-0.547
					c-0.755,3.185-1.366,6.403-1.814,9.645c-0.564,4.09-0.729,8.195-1.057,12.305c-0.085,1.069-2.262,1.273-2.33,0.125
					c-0.446-7.496,0.856-15.366,2.539-22.653c-0.469-0.069-0.939-0.123-1.411-0.163
					C342.776,132.042,342.298,132.019,341.819,132.011z"/>
				<path opacity="0.1" d="M378.969,205.463c1.938-0.069,3.877-0.204,5.81-0.436c37.89-4.568,62.198-30.59,57.63-68.481
					c-1.356-11.254-5.521-21.776-11.769-30.8c1.33,1.986-2.796,9.102-2.796,9.102c4.879,9.488,9.352,22.828,5.993,36.309
					C428.687,171.833,413.846,193.975,378.969,205.463z"/>
			</g>
			<g>
				<path id="XMLID_880_" fill="#FF9090" d="M356.567,149.874c-24.13-6.405-37.591-0.392-43.583,15.561
					c-5.707,15.191,6.05,37.863,34.006,41.483c14.222,1.842,31.143,1.336,37.838-12.504
					C392.794,177.95,378.255,155.631,356.567,149.874z"/>
				<g>
					<g>
						<path fill="#2B454E" d="M337.157,187.355c0.039,0,0.077-0.004,0.118-0.013c0.293-0.064,0.478-0.355,0.412-0.648
							c-0.017-0.08-1.729-8.062,0.895-15.922c0.095-0.285-0.059-0.593-0.344-0.688c-0.281-0.094-0.593,0.059-0.688,0.344
							c-2.723,8.155-0.998,16.165-0.924,16.502C336.684,187.182,336.908,187.355,337.157,187.355z"/>
					</g>
					<g>
						<path fill="#2B454E" d="M343.314,188.039c5.196,0,10.336-1.425,12.641-4.759c0.17-0.247,0.107-0.586-0.139-0.756
							c-0.247-0.172-0.586-0.109-0.756,0.138c-2.984,4.319-11.389,5.088-17.782,3.622c-3.279-0.753-11.156-3.257-13.478-10.226
							c-0.095-0.285-0.403-0.438-0.688-0.344c-0.284,0.095-0.438,0.403-0.344,0.688c2.496,7.492,10.809,10.147,14.267,10.941
							C339.007,187.795,341.166,188.039,343.314,188.039z"/>
					</g>
				</g>
				<g>
					<path id="XMLID_889_" fill="#B0494C" d="M329.339,156.519c4.258-2.539,8.069,0.302,9.234,4.236
						c4.056-4.423,11.274-5.627,14.356,0.764c2.93,6.075-5.144,12.571-16.04,13.497
						C328.458,171.126,322.749,160.448,329.339,156.519z"/>
					<path opacity="0.1" d="M331.075,155.772c3.525-0.974,6.495,1.594,7.498,4.983c-1.225,1.226-1.254,2.269-1.254,2.269
						S337.064,155.375,331.075,155.772z"/>
					<path fill="#C76668" d="M330.412,157.207c1.053-0.257,1.938-0.27,2.506,0.471c0.514,0.672-0.311,1.433-0.78,1.987
						c-0.808,0.957-1.249,1.595-1.309,2.863c-0.03,0.631-0.069,1.678-0.904,2.04c-2.642,1.143-2.717-2.198-1.989-4.663
						C328.241,158.867,329.265,157.488,330.412,157.207z"/>
					<path opacity="0.1" d="M332.069,171.826c0.112,0.086,2.189,1.673,4.503,2.134c2.379,0.474,6.866-1.801,10.956-5.589
						c4.062-3.761,3.186-10.147,0.066-11.16c2.135,0.378,4.08,1.705,5.335,4.308c2.93,6.075-5.144,12.571-16.04,13.497
						C335.135,174.207,333.501,173.101,332.069,171.826z"/>
				</g>
			</g>
			<g>
				<path id="XMLID_877_" fill="#B0494C" d="M416.771,106.94c-0.887-3.114-0.632-6.447,0.805-9.349
					c3.41-6.895,13.913-19.72,30.073-14.51c23.582,7.602,24.227,46.449-9.422,47.853c-2.778,0.116-5.516-0.704-7.73-2.388
					C422.205,122.24,418.391,112.631,416.771,106.94z"/>
				<path fill="#FF9090" d="M418.287,111.448c1.588,4.096,4.08,8.927,7.907,13.133c19.044,4.011,24.761-11.681,21.051-20.094
					C443.205,95.323,424.141,91.26,418.287,111.448z"/>
			</g>
			<g>
				<g>
					<circle fill="#1A2E35" cx="323.249" cy="136.537" r="6.807"/>
					<circle fill="#375A64" cx="325.092" cy="134.584" r="2.792"/>
					<circle fill="#FAFAFA" cx="326.175" cy="137.376" r="1.557"/>
				</g>
				<g>
					<circle fill="#1A2E35" cx="378.8" cy="143.344" r="7.563"/>
					<circle fill="#375A64" cx="380.547" cy="141.417" r="3.207"/>
					<circle fill="#FAFAFA" cx="382.531" cy="144.337" r="1.812"/>
				</g>
			</g>
		</g>
		<g id="Heart">
			<g>
				<path fill="#D268CC" d="M334.37,231.761c25.898-13.479,57.42-5.681,68.534,24.927c12.259,33.761-16.368,81.172-106.098,95.204
					c-27.326-29.969-48.179-78.732-34.083-112.192C276.818,206.239,321.896,206.076,334.37,231.761z"/>
				<path opacity="0.2" fill="#FFFFFF" d="M334.37,231.761c25.898-13.479,57.42-5.681,68.534,24.927
					c12.259,33.761-16.368,81.172-106.098,95.204c-27.326-29.969-48.179-78.732-34.083-112.192
					C276.818,206.239,321.896,206.076,334.37,231.761z"/>
				<path opacity="0.6" fill="#D268CC" d="M304.406,213.511c12.688,0.665,24.478,6.955,29.964,18.25
					c-5.229,2.633-10.537,9.489-11.167,12.063C322.998,236.082,321.203,217.44,304.406,213.511z"/>
				<path opacity="0.1" d="M304.406,213.511c12.688,0.665,24.478,6.955,29.964,18.25c-5.229,2.633-10.537,9.489-11.167,12.063
					C322.998,236.082,321.203,217.44,304.406,213.511z"/>
				<path opacity="0.6" fill="#D268CC" d="M393.556,288.787c10.09-23.4,0.04-50.76-11.612-57.68
					c9.081,5.078,16.598,13.563,20.961,25.58c12.259,33.761-16.368,81.172-106.098,95.204
					C357.309,341.101,383.808,311.396,393.556,288.787z"/>
				<path opacity="0.1" d="M393.556,288.787c10.09-23.4,0.04-50.76-11.612-57.68c9.081,5.078,16.598,13.563,20.961,25.58
					c12.259,33.761-16.368,81.172-106.098,95.204C357.309,341.101,383.808,311.396,393.556,288.787z"/>
			</g>
			<g>
				<path fill="#FAFAFA" d="M282.858,260.878c0.755-0.375,1.751,0.163,2.063,1.074c0,0,8.303,24.4,8.505,24.98
					c0.203,0.582,0.352,0.686,0.607,0.606c0.544-0.17,0.791-0.507,0.979-0.504c0.496,0.008-0.189,2.256-1.937,2.51
					c-1.98,0.287-2.492-1.258-2.688-1.828l-7.959-23.386C281.859,262.661,281.35,261.628,282.858,260.878z"/>
				<path fill="#FAFAFA" d="M311.111,274.349c0.255-0.079,0.7,0.188,1.244,1.752c1.278,3.673,0.416,7.389-2.381,8.321
					c-3.497,1.167-5.983-0.761-7.404-4.865c-1.876-5.417-2.813-8.125-4.689-13.542c-2.033-5.87-2.281-9.381,0.675-10.573
					c2.052-0.828,3.641,0.412,4.793,3.746c1.939,5.604,0.278,9.064-0.896,10.692c1.347,3.888,2.02,5.831,3.365,9.717
					c0.98,2.827,2.489,3.8,4.045,3.281c1.24-0.412,2.793-2.557,0.845-8.162C310.708,274.716,310.697,274.477,311.111,274.349z
					 M302.009,259.701c-0.86-2.484-1.841-3.281-2.714-2.937c-0.935,0.367-0.885,1.438,2.631,11.593
					C302.746,266.938,303.588,264.27,302.009,259.701z"/>
				<path fill="#FAFAFA" d="M320.048,281.195c-3.53,1.01-7.527-0.911-9.426-6.371c-1.835-5.278-0.261-9.079,3.513-10.03
					c3.578-0.902,7.425,1.302,9.289,6.586C324.937,275.67,324.024,280.057,320.048,281.195z M319.555,279.791
					c1.701-0.48,2.243-1.646,1.831-3.92c-3.108,0.07-6.482-1.715-8.406-4.002c0.183,0.628,0.423,1.317,0.677,2.045
					C315.378,278.854,317.082,280.491,319.555,279.791z M313.133,268.672c1.104,3.165,4.75,5.64,7.968,5.79
					c-0.206-0.688-0.452-1.482-0.754-2.343c-1.699-4.836-3.075-6.581-5.75-5.899C313.501,266.498,312.689,267.398,313.133,268.672z"
					/>
				<path fill="#FAFAFA" d="M337.052,272.521c1.406,0.782,3.467,1.09,4.43,0.689c2.201-0.917,1.57-2.466,0.17-6.838
					c0,0-0.024-0.193,0.453-0.272c0.375-0.063,0.777,0.422,1.069,1.344c0.985,3.103,2.147,5.69-1.476,7.022
					c-1.349,0.496-3.414,0.063-4.738-0.465c-2.891-1.177-4.836-3.654-5.635-5.92c-1.5-4.255-0.654-6.578,1.682-7.124
					c2.41-0.563,4.494,1.106,5.254,3.407c1.344,4.075,1.304,7.638,0.126,10.042c-0.327,0.702-0.512,0.908-0.855,1.288
					c-0.749,0.81-1.661,1.386-2.823,1.656c-4.156,0.968-7.568-1.305-9.436-6.584c-0.797-2.252-1.195-3.381-1.994-5.65
					c-0.537-1.523,0.055-2.322,0.942-2.482c0.921-0.166,1.424,0.271,1.424,0.271c1.051,2.98,1.574,4.457,2.62,7.401
					c1.825,5.137,4.115,6.289,6.481,5.76c0.526-0.117,1.118-0.396,1.462-0.785c0.345-0.39,0.533-0.684,0.706-1.473
					c0.333-1.519,0.418-4.315-0.977-8.456c-0.517-1.536-1.593-2.797-2.89-2.48c-1.182,0.288-0.936,2.097-0.158,4.341
					C333.751,269.693,335.531,271.588,337.052,272.521"/>
				<path fill="#FAFAFA" d="M355.72,263.884c0.396-0.089,0.751,0.215,0.92,0.732c0.744,2.29,0.189,6.078-4.527,7.648
					c-4.852,1.613-9.277-0.189-10.908-5.29c-1.78-5.563,0.855-8.941,4.888-9.246c3.307-0.249,4.875,1.686,5.396,3.311
					c1.004,3.123-1.202,6.044-5.997,7.018c1.42,2.902,3.792,3.743,6.251,2.989c2.625-0.807,4.758-3.232,3.576-6.891
					C355.317,264.155,355.297,263.979,355.72,263.884z M344.981,266.813c2.394-0.774,5.057-2.335,4.125-5.268
					c-0.539-1.694-1.671-2.565-3.168-2.424c-2.264,0.215-2.655,2.299-1.055,7.382C344.923,266.626,344.942,266.688,344.981,266.813z
					"/>
				<path fill="#FAFAFA" d="M311.986,292.542c-0.41-1.508,0.198-2.33,1.04-2.545c0.872-0.223,1.316,0.188,1.316,0.188
					c1.947,7.171,2.922,10.757,4.869,17.929c0.367-0.115,0.744-0.2,1.152-0.293c0.721-0.164,0.992,0.338,1.06,0.587
					c0.077,0.283-0.045,0.575-0.045,0.575c-0.597,0.135-1.193,0.27-1.813,0.438c0.191,0.706,0.287,1.059,0.479,1.765
					c1.332,4.906-0.024,8.255-3.307,8.755c-1.627,0.248-3.991-0.403-4.806-3.396c-1.002-3.682,1.282-6.008,4.547-7.462
					c-0.595-2.186-0.892-3.278-1.485-5.466c-0.373,1.932-1.498,3.186-3.522,3.557c-2.656,0.487-4.869-1.074-5.845-4.654
					c-0.873-3.205-1.31-4.807-2.183-8.012c-0.4-1.467,0.212-2.265,1.055-2.462c0.874-0.204,1.317,0.205,1.317,0.205
					c1.077,3.956,1.615,5.934,2.692,9.89c0.825,3.033,1.875,3.964,3.014,3.75c1.959-0.37,3.377-2.624,1.511-9.493
					C312.615,294.855,312.405,294.084,311.986,292.542z M313.588,316.407c0.461,1.695,1.699,2.345,2.719,2.186
					c1.624-0.254,2.307-1.66,0.536-8.178C314.453,311.539,312.731,313.26,313.588,316.407z"/>
				<path fill="#FAFAFA" d="M327.359,303.587c-3.428,0.865-7.136-1.248-8.586-6.575c-1.4-5.148,0.365-8.677,4.011-9.531
					c3.457-0.811,6.945,1.273,8.388,6.49C332.343,298.207,331.224,302.61,327.359,303.587z M326.98,302.197
					c1.651-0.416,2.237-1.558,1.987-3.803c-2.954,0.025-6.058-1.834-7.744-4.111c0.134,0.612,0.318,1.287,0.512,1.997
					C323.055,301.114,324.579,302.801,326.98,302.197z M321.58,291.204c0.844,3.088,4.161,5.614,7.204,5.801
					c-0.152-0.68-0.336-1.464-0.569-2.311c-1.31-4.762-2.499-6.437-5.084-5.826C322.072,289.119,321.241,289.962,321.58,291.204z"/>
				<path fill="#FAFAFA" d="M350.534,288.57c0.248-0.075,0.629,0.137,0.946,1.48c0.817,3.467-0.055,6.517-2.809,7.444
					c-2.226,0.749-3.999,0.017-5.242-1.797c-0.268,2.288-1.427,3.91-3.614,4.539c-2.465,0.707-4.734-0.529-5.662-3.875
					c-0.961-3.472-1.44-5.198-2.4-8.65c-0.414-1.489,0.191-2.281,1.034-2.461c0.874-0.188,1.319,0.227,1.319,0.227
					c1.1,3.93,1.648,5.894,2.75,9.852c0.844,3.033,1.885,3.909,2.993,3.596c1.635-0.462,3.102-3.287,1.802-7.992
					c-0.564-2.042-0.847-3.06-1.41-5.092c-0.396-1.428,0.508-2.234,1.453-2.421c0.979-0.193,1.441,0.191,1.475,0.185
					c0.986,3.718,1.477,5.576,2.462,9.353c0.669,2.565,1.853,3.536,3.093,3.127c1.087-0.359,2.631-2.043,1.392-7.188
					C350.115,288.896,350.102,288.701,350.534,288.57z"/>
			</g>
		</g>
		<g id="Paw">
			<path fill="#B0494C" d="M337.238,375.796c-5.102-12.877-4.642-40.245,1.551-54.053s21.149-19.183,32.684-14.657
				c7.621,2.99,10.246,7.886,10.246,7.886s10.957-6.978,21.222,6.771c7.747,10.376,4.722,19.144,0.533,31.614
				c-5.895,17.546-20.021,44.492-43.774,42.299L337.238,375.796z"/>
			<path opacity="0.1" d="M381.719,314.972c6.947,6.947,11.361,17.331,11.442,24.691c2.219-8.311,0.11-21.482-5.722-26.412
				C385.433,313.393,383.537,314.016,381.719,314.972z"/>
			<path fill="#C76668" d="M359.059,315.287c-7.175,0.368-12.772,2.639-18.854,13.106c-4.427,7.616-7.14,24.416-4.133,42.603
				c1.867,11.298,10.322,24.701,25.007,24.701s20.906-12.29,24.109-23.66c2.995-10.632,3.898-30.274-3.903-43.494
				C376.1,319.76,367.118,314.872,359.059,315.287z"/>
			<g>
				<path fill="#FF9090" d="M371.193,373.827c-2.914,9.936-10.769,14.349-17.544,9.857c-6.774-4.492-9.903-16.188-6.99-26.122
					c2.916-9.936,10.771-14.348,17.545-9.857C370.979,352.197,374.109,363.893,371.193,373.827z"/>
				<path fill="#FF9090" d="M364.349,332.294c-1.1,3.764-4.072,5.438-6.641,3.741c-2.566-1.697-3.758-6.124-2.658-9.889
					c1.099-3.764,4.07-5.438,6.638-3.74C364.255,324.104,365.446,328.531,364.349,332.294z"/>
				<path fill="#FF9090" d="M348.012,343.464c-0.938,3.807-3.836,5.607-6.475,4.021c-2.637-1.587-4.015-5.96-3.076-9.767
					c0.938-3.807,3.836-5.606,6.473-4.019C347.571,335.285,348.95,339.657,348.012,343.464z"/>
				<path fill="#FF9090" d="M370.926,346.352c0.756,3.848,3.565,5.783,6.275,4.324s4.294-5.762,3.539-9.608
					c-0.756-3.847-3.564-5.783-6.273-4.323C371.757,338.203,370.171,342.506,370.926,346.352z"/>
			</g>
		</g>
		<path id="Arm_1_" fill="#B0494C" d="M406.477,204.072c11.999-2.808,27.45,3.048,38.921,24.595
			c7.808,14.665,12.764,35.968,6.071,50.867c-9.589,21.351-22.373,32.898-44.642,33.039c-12.586,0.079-23.647-5.922-28.039-16.574
			c-5.511-13.366-2.034-21.275,9.086-27.186c10.917-5.801,19.158-4.863,21.746-12.026
			C414.305,243.823,388.7,211.757,406.477,204.072z"/>
		<g id="Ribbon">
			<g id="XMLID_907_">
				<g id="XMLID_1155_">
					<g id="XMLID_1736_">
						<path id="XMLID_1813_" opacity="0.2" d="M408.141,199.954c0,0,8.156,1.672,8.994-0.747
							C417.974,196.788,408.141,199.954,408.141,199.954z"/>
						<path id="XMLID_1812_" opacity="0.2" d="M406.827,199.908c0,0,9.756-14.338,11.655-11.112
							C420.383,192.021,406.827,199.908,406.827,199.908z"/>
					</g>
					<g id="XMLID_1404_">
						<path id="XMLID_1489_" opacity="0.2" d="M397.581,201.837c0,0-7.125,4.398-8.716,2.41
							C387.274,202.26,397.581,201.837,397.581,201.837z"/>
						<path id="XMLID_1487_" opacity="0.2" d="M398.801,201.338c0,0-13.938-10.128-14.657-6.432
							C383.426,198.603,398.801,201.338,398.801,201.338z"/>
					</g>
					<g id="XMLID_1247_">
						<path id="XMLID_1399_" fill="#D268CC" d="M400.511,199.969c0.556,3.255,0.833,4.884,1.39,8.14
							c-4.115,6.075-9.53,11.682-16.231,15.213c-6.448,3.4-12.711,3.283-15.423,0.844c-1.226-1.103-1.813-2.666-1.568-5.059
							c0.668-6.533-0.081-10.223-2.878-15.116c-1.169-2.046-0.912-4.46,0.482-6.997c1.951-3.552,6.271-7.326,12.935-7.161
							C387.391,190.039,394.981,194.999,400.511,199.969z"/>
						<path id="XMLID_844_" opacity="0.3" fill="#FFFFFF" d="M400.511,199.969c0.556,3.255,0.833,4.884,1.39,8.14
							c-4.115,6.075-9.53,11.682-16.231,15.213c-6.448,3.4-12.711,3.283-15.423,0.844c-1.226-1.103-1.813-2.666-1.568-5.059
							c0.668-6.533-0.081-10.223-2.878-15.116c-1.169-2.046-0.912-4.46,0.482-6.997c1.951-3.552,6.271-7.326,12.935-7.161
							C387.391,190.039,394.981,194.999,400.511,199.969z"/>
						<path id="XMLID_1398_" opacity="0.5" fill="#D268CC" d="M399.536,202.706c0,0-8.316-7.693-10.171-5.205
							C387.511,199.99,399.536,202.706,399.536,202.706z"/>
						<path id="XMLID_1393_" opacity="0.5" fill="#D268CC" d="M399.998,205.404c0,0-5.214,10.484-7.744,9.018
							C389.724,212.956,399.998,205.404,399.998,205.404z"/>
						<path id="XMLID_1256_" opacity="0.5" fill="#D268CC" d="M400.988,203.908c0,0-18.565-2.771-17.737,2.079
							S400.988,203.908,400.988,203.908z"/>
						<path id="XMLID_1249_" opacity="0.5" fill="#D268CC" d="M373.103,214.992c-2.514,3.271-4.433,7.114-2.856,9.174
							c-1.233-1.103-1.813-2.666-1.568-5.059c0.668-6.533-0.081-10.223-2.878-15.116c-1.169-2.046-0.914-4.459,0.482-6.997
							c-1.154,3.316,1.125,6.281,4.843,7.675C374.843,206.063,375.96,211.275,373.103,214.992z"/>
					</g>
					<g id="XMLID_1227_">
						<path id="XMLID_1246_" fill="#D268CC" d="M404.703,199.221c0.556,3.256,0.834,4.883,1.39,8.138
							c5.882,4.288,12.833,7.684,20.306,8.679c7.189,0.959,13.032-1.326,14.773-4.556c0.787-1.46,0.822-3.131-0.2-5.293
							c-2.788-5.901-3.305-9.628-2.296-15.185c0.421-2.324-0.619-4.502-2.769-6.406c-3.01-2.665-8.615-4.827-14.53-2.271
							C413.865,185.571,408.454,192.292,404.703,199.221z"/>
						<path id="XMLID_857_" opacity="0.3" fill="#FFFFFF" d="M404.703,199.221c0.556,3.256,0.834,4.883,1.39,8.138
							c5.882,4.288,12.833,7.684,20.306,8.679c7.189,0.959,13.032-1.326,14.773-4.556c0.787-1.46,0.822-3.131-0.2-5.293
							c-2.788-5.901-3.305-9.628-2.296-15.185c0.421-2.324-0.619-4.502-2.769-6.406c-3.01-2.665-8.615-4.827-14.53-2.271
							C413.865,185.571,408.454,192.292,404.703,199.221z"/>
						<path id="XMLID_1245_" opacity="0.5" fill="#D268CC" d="M406.525,201.458c0,0,5.275-10.114,7.845-8.416
							C416.939,194.741,406.525,201.458,406.525,201.458z"/>
						<path id="XMLID_1244_" opacity="0.5" fill="#D268CC" d="M406.987,204.156c0,0,8.376,8.054,10.271,5.799
							C419.15,207.7,406.987,204.156,406.987,204.156z"/>
						<path id="XMLID_1240_" opacity="0.5" fill="#D268CC" d="M405.558,203.092c0,0,16.546-9.033,17.374-4.187
							C423.759,203.752,405.558,203.092,405.558,203.092z"/>
						<path id="XMLID_1237_" opacity="0.5" fill="#D268CC" d="M435.452,203.858c3.444,2.201,6.519,5.146,5.72,7.625
							c0.793-1.462,0.822-3.131-0.2-5.293c-2.788-5.901-3.305-9.628-2.296-15.185c0.421-2.324-0.616-4.502-2.769-6.406
							c2.183,2.719,1.022,6.287-2.011,8.879C430.862,196.069,431.536,201.354,435.452,203.858z"/>
					</g>
					<g id="XMLID_1211_">
						<path id="XMLID_1225_" fill="#D268CC" d="M397.793,204.664c0.26,1.518,0.981,2.796,1.938,3.638
							c0.955,0.841,2.156,1.257,3.368,1.039c0.84-0.153,1.261-0.228,2.104-0.376c2.413-0.426,3.959-3.204,3.44-6.241
							c-0.103-0.601-0.284-1.177-0.523-1.698c-0.359-0.78-0.849-1.468-1.422-1.989c-0.953-0.866-2.177-1.311-3.378-1.104
							c-0.843,0.146-1.264,0.221-2.104,0.377c-1.93,0.357-3.278,2.282-3.491,4.574C397.671,203.457,397.69,204.062,397.793,204.664z
							"/>
						<path id="XMLID_1224_" opacity="0.2" d="M397.793,204.664c0.26,1.518,0.981,2.796,1.938,3.638
							c0.955,0.841,2.156,1.257,3.368,1.039c0.84-0.153,1.261-0.228,2.104-0.376c2.413-0.426,3.959-3.204,3.44-6.241
							c-0.103-0.601-0.284-1.177-0.523-1.698c-0.359-0.78-0.849-1.468-1.422-1.989c-0.953-0.866-2.177-1.311-3.378-1.104
							c-0.843,0.146-1.264,0.221-2.104,0.377c-1.93,0.357-3.278,2.282-3.491,4.574C397.671,203.457,397.69,204.062,397.793,204.664z
							"/>
						<path id="XMLID_1223_" fill="#D268CC" d="M397.724,202.884c0.355,0.773,0.844,1.431,1.411,1.929
							c0.955,0.837,2.154,1.249,3.365,1.028c0.842-0.154,1.263-0.229,2.104-0.376c1.922-0.337,3.302-2.171,3.515-4.44
							c-0.357-0.784-0.849-1.468-1.422-1.989c-0.953-0.866-2.177-1.311-3.378-1.104c-0.843,0.146-1.264,0.221-2.104,0.377
							C399.285,198.667,397.931,200.587,397.724,202.884z"/>
					</g>
				</g>
			</g>
		</g>
	</g>
	<g id="Flowers">
		<g>
			<g>
				<path fill="#2B454E" d="M144.987,341.333c2.221-16.881-8.349-23.374-31.492-24.853c0,0-1.578,12.632,4.455,19.953
					C125.479,345.571,139.677,346.436,144.987,341.333z"/>
				<path fill="#1A2E35" d="M117.813,319.59c6.41,3.749,22.476,12.352,27.174,21.743l0.387-3.757
					C145.374,337.576,142.21,329.105,117.813,319.59z"/>
			</g>
			<g>
				<path fill="#375A64" d="M143.88,342.481c-14.087-9.563-24.633-3.032-36.345,16.983c0,0,10.58,7.08,19.829,4.978
					C138.909,361.817,146.057,349.519,143.88,342.481z"/>
				<path fill="#2B454E" d="M112.252,357.002c6.228-4.046,21.127-14.538,31.628-14.521l-3.183-2.03
					C140.697,340.451,131.709,339.475,112.252,357.002z"/>
			</g>
		</g>
		<g>
			<g>
				<path fill="#2B454E" d="M191.879,325.347c-11.826-12.249-7.192-23.755,10.532-38.71c0,0,8.783,9.216,8.288,18.689
					C210.083,317.149,199.185,326.29,191.879,325.347z"/>
				<path fill="#1A2E35" d="M200.791,291.705c-2.924,6.827-10.72,23.299-8.911,33.642l-2.544-2.789
					C189.335,322.558,186.84,313.868,200.791,291.705z"/>
			</g>
			<g>
				<path fill="#375A64" d="M185.797,309.097c11.24-12.789,6.073-24.065-12.332-38.176c0,0-8.341,9.617-7.404,19.057
					C167.23,301.759,178.544,310.381,185.797,309.097z"/>
				<path fill="#2B454E" d="M175.322,275.908c3.24,6.683,11.799,22.771,10.475,33.188l2.411-2.906
					C188.208,306.19,190.294,297.394,175.322,275.908z"/>
			</g>
		</g>
		<g id="XMLID_2085_">
			<path id="XMLID_2457_" fill="#D268CC" d="M167.454,347.521l2.93-3.627c0,0,5.492,1.159,10.66-0.027
				c5.169-1.188,12.763-9.954,10.551-14.486c-2.213-4.532-4.925-10.046-4.925-10.046s4.757-1.695,4.836-4.152
				c0.08-2.458-9.183-12.104-12.366-12.96c-2.44-0.656-3.507-0.202-3.507-0.202s-0.177-0.735-3.201-0.534
				c-3.023,0.201-7.607-2.438-10.753-4.179c-3.146-1.741-8.501,0.726-10.677,4.754c-2.173,4.027-5.491,8.095-7.72,8.194
				c-2.227,0.1-9.475,5.148-8.872,8.751c0.605,3.603,1.582,8.108,4.596,8.469c3.013,0.36,7.619,3.686,7.619,3.686
				s-4.783,2.606-3.41,7.224c1.374,4.615,8.39,12.279,13.491,11.359C161.808,348.824,167.454,347.521,167.454,347.521z"/>
			<path id="XMLID_2442_" opacity="0.2" d="M167.454,347.521l2.93-3.627c0,0,5.492,1.159,10.66-0.027
				c5.169-1.188,12.763-9.954,10.551-14.486c-2.213-4.532-4.925-10.046-4.925-10.046s4.757-1.695,4.836-4.152
				c0.08-2.458-9.183-12.104-12.366-12.96c-2.44-0.656-3.507-0.202-3.507-0.202s-0.177-0.735-3.201-0.534
				c-3.023,0.201-7.607-2.438-10.753-4.179c-3.146-1.741-8.501,0.726-10.677,4.754c-2.173,4.027-5.491,8.095-7.72,8.194
				c-2.227,0.1-9.475,5.148-8.872,8.751c0.605,3.603,1.582,8.108,4.596,8.469c3.013,0.36,7.619,3.686,7.619,3.686
				s-4.783,2.606-3.41,7.224c1.374,4.615,8.39,12.279,13.491,11.359C161.808,348.824,167.454,347.521,167.454,347.521z"/>
			<g id="XMLID_2134_">
				<path id="XMLID_2441_" fill="#D268CC" d="M167.169,344.11c0,0,3.291,4.282,8.573,2.313c5.281-1.969,11.028-19.224-0.28-26.353
					c0,0,4.056,7.616-1.751,14.439C167.903,341.333,167.169,344.11,167.169,344.11z"/>
				<path id="XMLID_2437_" fill="#D268CC" d="M144.889,328.678c0,0-2.618,1.97-3.517,4.688c-0.899,2.719,9.998,11.812,9.998,11.812
					s-3.798-2.89-0.345-2.612c3.453,0.278,8.862,4.184,16.145,1.546l-13.118-10.852
					C154.052,333.259,148.825,326.328,144.889,328.678z"/>
				<path id="XMLID_2435_" fill="#D268CC" d="M144.458,329.558c0,0,0.202,0.417-2.855-0.299c-3.057-0.714-5.186-4.015-5.412-5.344
					c-0.227-1.328,4.123-2.408,5.388-5.449c1.265-3.041,4.147-9.868,1.112-11.303c0,0,5.654-0.321,6.33,5.118
					C149.696,317.721,143.789,326.654,144.458,329.558z"/>
				<path id="XMLID_2431_" fill="#D268CC" d="M148.48,310.34c0,0-2.484,2.385,3.977,1.171c6.461-1.214,8.776-1.765,8.776-1.765
					s-0.056-3.332,2.393-3.456c2.448-0.124,6.735-2.026,9.271-4.753c0,0-3.315,0.993-6.985-0.994
					c-3.669-1.988-6.04-2.523-8.868,2.385C155.033,306.415,152.673,308.672,148.48,310.34z"/>
				<path id="XMLID_2224_" fill="#D268CC" d="M175.633,302.021c0,0-1.518-3.065-7.56,2.942c-2.104,2.095,15.132,14.24,15.132,14.24
					S188.536,304.141,175.633,302.021z"/>
				<path id="XMLID_2145_" fill="#D268CC" d="M183.009,319.622c0,0,2.722-1.107,6.755,1.225c4.033,2.332,4.122,15.973-3.656,17.041
					c-0.615-11.256-7.722-15.367-7.722-15.367L183.009,319.622z"/>
				<path id="XMLID_2137_" fill="#D268CC" d="M167.457,333.785c0,0,4.256-1.063,3.097-6.561l-0.671-5.391
					c0,0-5.296-2.033-8.033-0.938c-2.737,1.098-0.922,1.954-0.922,1.954s4.368-1.3,4.736,3.072
					C166.032,330.296,162.396,334.382,167.457,333.785z"/>
				<path id="XMLID_2136_" fill="#D268CC" d="M165.563,310.874c0,0,3.976,0.426,7.773,5.035c3.797,4.608,2.549,9.736,2.549,9.736
					s-1.186-2.933-5.593-4.68c-4.408-1.746-12.393-3.811-12.393-3.811S156.529,310.62,165.563,310.874z"/>
				<path id="XMLID_2135_" fill="#D268CC" d="M158.297,314.778c0,0-5.256,1.278-5.819,6.089c-0.564,4.812,2.822,9.567,1.574,12.392
					c0,0,3.713,2.082,4.529-0.642c0.814-2.724,2.175-9.762,6.211-9.818C164.792,322.799,164.416,315.102,158.297,314.778z"/>
			</g>
			<path id="XMLID_2133_" fill="#D268CC" d="M162.108,338.146c1.544-0.107,3.152-0.101,4.698-0.392
				c3.177-0.599,5.374-3.555,6.661-6.306c1.174-2.51,2.297-5.069,3.663-7.475c1.022-1.801,0.989-1.031,2.516-1.283
				c1.214-0.201,1.363-0.998,0.913-2.132c-0.458-1.155-1.432-2.145-2.121-3.166c-1.442-2.138-2.161-4.639-3.908-6.596
				c-2.932-3.284-9.566-6.896-12.995-2.287c-1.017,1.365-1.187,2.127-2.944,2.467c-3.438,0.665-5.997,1.56-8.405,4.322
				c-2.695,3.091-4.035,7.156-3.343,11.233c0.332,1.951,1.099,3.815,2.178,5.468c1.406,2.155,3.563,3.076,5.657,4.373
				C156.928,337.768,159.437,338.33,162.108,338.146z"/>
			<path id="XMLID_2132_" opacity="0.2" d="M162.108,338.146c1.544-0.107,3.152-0.101,4.698-0.392
				c3.177-0.599,5.374-3.555,6.661-6.306c1.174-2.51,2.297-5.069,3.663-7.475c1.022-1.801,0.989-1.031,2.516-1.283
				c1.214-0.201,1.363-0.998,0.913-2.132c-0.458-1.155-1.432-2.145-2.121-3.166c-1.442-2.138-2.161-4.639-3.908-6.596
				c-2.932-3.284-9.566-6.896-12.995-2.287c-1.017,1.365-1.187,2.127-2.944,2.467c-3.438,0.665-5.997,1.56-8.405,4.322
				c-2.695,3.091-4.035,7.156-3.343,11.233c0.332,1.951,1.099,3.815,2.178,5.468c1.406,2.155,3.563,3.076,5.657,4.373
				C156.928,337.768,159.437,338.33,162.108,338.146z"/>
			<g id="XMLID_2086_">
				<path id="XMLID_2131_" fill="#D268CC" d="M154.052,333.259c0.75,1.122,8.358,5.957,14.5,1.45
					c6.142-4.506,6.911-14.639,6.911-14.639s5.632,6.876,3.073,13.928c-2.561,7.05-9.79,11.317-14.338,9.938
					C159.646,342.557,153.023,338.149,154.052,333.259z"/>
				<path id="XMLID_2650_" opacity="0.4" fill="#FFFFFF" d="M154.052,333.259c0.75,1.122,8.358,5.957,14.5,1.45
					c6.142-4.506,6.911-14.639,6.911-14.639s5.632,6.876,3.073,13.928c-2.561,7.05-9.79,11.317-14.338,9.938
					C159.646,342.557,153.023,338.149,154.052,333.259z"/>
				<path id="XMLID_2130_" fill="#D268CC" d="M170.554,327.225c0,0,0.023-5.11-5.908-4.837c-5.932,0.271-10.379,3.549-10.144-0.564
					c0.234-4.114,2.417-8.374,7.566-8.076C167.218,314.046,173.262,319.269,170.554,327.225z"/>
				<path id="XMLID_2743_" opacity="0.4" fill="#FFFFFF" d="M170.554,327.225c0,0,0.023-5.11-5.908-4.837
					c-5.932,0.271-10.379,3.549-10.144-0.564c0.234-4.114,2.417-8.374,7.566-8.076C167.218,314.046,173.262,319.269,170.554,327.225
					z"/>
				<path id="XMLID_2104_" fill="#D268CC" d="M167.457,333.785c0,0-5.49,2.357-9.12-1.404c-3.631-3.762-1.056-8.057,4.15-8.793
					c0,0-2.586,2.342-0.116,6.53C164.039,332.947,167.457,333.785,167.457,333.785z"/>
				<path id="XMLID_2742_" opacity="0.4" fill="#FFFFFF" d="M167.457,333.785c0,0-5.49,2.357-9.12-1.404
					c-3.631-3.762-1.056-8.057,4.15-8.793c0,0-2.586,2.342-0.116,6.53C164.039,332.947,167.457,333.785,167.457,333.785z"/>
				<path id="XMLID_2103_" fill="#D268CC" d="M146.209,331.435c3.366,2.863,5.438,1.03,4.754-4.157
					c-0.684-5.187-0.786-9.672,2.888-12.032c3.675-2.361,11.711-4.371,11.711-4.371s-3.745-0.572-6.889-2.229
					c-3.144-1.654-11.018,1.285-14.129,7.154C141.432,321.67,141.704,327.601,146.209,331.435z"/>
				<path id="XMLID_2639_" opacity="0.4" fill="#FFFFFF" d="M146.209,331.435c3.366,2.863,5.438,1.03,4.754-4.157
					c-0.684-5.187-0.786-9.672,2.888-12.032c3.675-2.361,11.711-4.371,11.711-4.371s-3.745-0.572-6.889-2.229
					c-3.144-1.654-11.018,1.285-14.129,7.154C141.432,321.67,141.704,327.601,146.209,331.435z"/>
				<path id="XMLID_2092_" fill="#D268CC" d="M160.692,309.703c0,0,4.051-1.946,10.414,1.91c6.363,3.857,5.952,10.147,10.083,11.16
					c4.131,1.011,5.565-2.751,2.599-8.758c-2.967-6.009-7.712-8.248-13.813-9.422C163.871,303.42,160.311,307.443,160.692,309.703z"
					/>
				<path id="XMLID_2648_" opacity="0.4" fill="#FFFFFF" d="M160.692,309.703c0,0,4.051-1.946,10.414,1.91
					c6.363,3.857,5.952,10.147,10.083,11.16c4.131,1.011,5.565-2.751,2.599-8.758c-2.967-6.009-7.712-8.248-13.813-9.422
					C163.871,303.42,160.311,307.443,160.692,309.703z"/>
				<path id="XMLID_2091_" fill="#D268CC" d="M143.792,329.662c-1.718,1.768-5.15,6.733-2.354,12.49
					c2.797,5.757,1.432,7.331,8.269,8.512c6.837,1.179,8.462,3.142,17.748-3.143c0,0-0.121-0.1-4.524,0.553
					c-4.404,0.651-8.959-3.701-14.076-5.919C142.186,339.263,143.792,329.662,143.792,329.662z"/>
				<path id="XMLID_2649_" opacity="0.4" fill="#FFFFFF" d="M143.792,329.662c-1.718,1.768-5.15,6.733-2.354,12.49
					c2.797,5.757,1.432,7.331,8.269,8.512c6.837,1.179,8.462,3.142,17.748-3.143c0,0-0.121-0.1-4.524,0.553
					c-4.404,0.651-8.959-3.701-14.076-5.919C142.186,339.263,143.792,329.662,143.792,329.662z"/>
				<path id="XMLID_2090_" fill="#D268CC" d="M172.444,347.062c-2.204-0.938,1.605-0.163,5.831-2.605
					c4.225-2.444,9.491-7.229,10.123-12.904c0.631-5.675-1.327-9.965-2.894-12.156c0.866-0.201,3.655,0.221,6.711,3.207
					c4.035,3.943,4.761,12.999-0.412,19.262C186.628,348.125,179.207,349.939,172.444,347.062z"/>
				<path id="XMLID_2775_" opacity="0.4" fill="#FFFFFF" d="M172.444,347.062c-2.204-0.938,1.605-0.163,5.831-2.605
					c4.225-2.444,9.491-7.229,10.123-12.904c0.631-5.675-1.327-9.965-2.894-12.156c0.866-0.201,3.655,0.221,6.711,3.207
					c4.035,3.943,4.761,12.999-0.412,19.262C186.628,348.125,179.207,349.939,172.444,347.062z"/>
				<path id="XMLID_2089_" fill="#D268CC" d="M175.633,302.021c0,0,6.178,0.534,9.827,6.182c3.649,5.648-2.234,10.82,0.467,11.243
					c2.702,0.421,5.511-0.671,5.664-5.694c0.152-5.024-2.166-9.873-6.616-11.291C180.524,301.041,177.877,299.527,175.633,302.021z"
					/>
				<path id="XMLID_2776_" opacity="0.4" fill="#FFFFFF" d="M175.633,302.021c0,0,6.178,0.534,9.827,6.182
					c3.649,5.648-2.234,10.82,0.467,11.243c2.702,0.421,5.511-0.671,5.664-5.694c0.152-5.024-2.166-9.873-6.616-11.291
					C180.524,301.041,177.877,299.527,175.633,302.021z"/>
				<path id="XMLID_2088_" fill="#D268CC" d="M147.224,310.068c3.199,1.11,3.447-1.104,5.843-5.093
					c2.396-3.989,4.202-5.015,9.907-3.856c5.705,1.155,9.923,0.418,9.923,0.418s-3.134-0.115-5.956-2.813
					c-2.823-2.698-11.014-7.759-16.921-0.307C144.112,305.868,145.78,309.565,147.224,310.068z"/>
				<path id="XMLID_2638_" opacity="0.4" fill="#FFFFFF" d="M147.224,310.068c3.199,1.11,3.447-1.104,5.843-5.093
					c2.396-3.989,4.202-5.015,9.907-3.856c5.705,1.155,9.923,0.418,9.923,0.418s-3.134-0.115-5.956-2.813
					c-2.823-2.698-11.014-7.759-16.921-0.307C144.112,305.868,145.78,309.565,147.224,310.068z"/>
				<path id="XMLID_2087_" fill="#D268CC" d="M141.603,329.259c0,0-7.446-0.132-8.674-8.375c-1.228-8.245,8.027-14.649,10.525-13.62
					c2.498,1.03,1.652,5.901-0.6,7.057s-7.303,3.176-6.437,8.21C137.284,327.563,141.603,329.259,141.603,329.259z"/>
				<path id="XMLID_2647_" opacity="0.4" fill="#FFFFFF" d="M141.603,329.259c0,0-7.446-0.132-8.674-8.375
					c-1.228-8.245,8.027-14.649,10.525-13.62c2.498,1.03,1.652,5.901-0.6,7.057s-7.303,3.176-6.437,8.21
					C137.284,327.563,141.603,329.259,141.603,329.259z"/>
			</g>
		</g>
		<g id="XMLID_1844_">
			<path id="XMLID_2084_" fill="#D268CC" d="M207.83,336.112l2.984-1.146c0,0,2.861,2.575,6.335,3.646
				c3.474,1.07,10.993-1.523,11.236-4.973c0.242-3.45,0.527-7.653,0.527-7.653s3.406,0.628,4.296-0.803
				c0.891-1.431-1.292-10.336-2.887-11.938c-1.223-1.228-2.012-1.323-2.012-1.323s0.147-0.499-1.715-1.417
				c-1.863-0.919-3.678-4.059-4.947-6.172c-1.268-2.115-5.293-2.489-7.967-0.846s-6.039,2.917-7.395,2.211
				c-1.357-0.705-7.392-0.198-8.271,2.146c-0.879,2.345-1.846,5.355-0.181,6.604c1.664,1.249,3.255,4.804,3.255,4.804
				s-3.733-0.095-4.504,3.115c-0.771,3.211,0.762,10.169,4.104,11.374C204.032,334.947,207.83,336.112,207.83,336.112z"/>
			<path id="XMLID_2081_" opacity="0.5" d="M207.83,336.112l2.984-1.146c0,0,2.861,2.575,6.335,3.646
				c3.474,1.07,10.993-1.523,11.236-4.973c0.242-3.45,0.527-7.653,0.527-7.653s3.406,0.628,4.296-0.803
				c0.891-1.431-1.292-10.336-2.887-11.938c-1.223-1.228-2.012-1.323-2.012-1.323s0.147-0.499-1.715-1.417
				c-1.863-0.919-3.678-4.059-4.947-6.172c-1.268-2.115-5.293-2.489-7.967-0.846s-6.039,2.917-7.395,2.211
				c-1.357-0.705-7.392-0.198-8.271,2.146c-0.879,2.345-1.846,5.355-0.181,6.604c1.664,1.249,3.255,4.804,3.255,4.804
				s-3.733-0.095-4.504,3.115c-0.771,3.211,0.762,10.169,4.104,11.374C204.032,334.947,207.83,336.112,207.83,336.112z"/>
			<g id="XMLID_1922_">
				<path id="XMLID_2077_" fill="#D268CC" d="M208.832,333.991c0,0,0.483,3.671,4.293,4.315c3.81,0.646,13.146-7.619,8.885-15.733
					c0,0-0.209,5.912-5.998,7.967C210.222,332.596,208.832,333.991,208.832,333.991z"/>
				<path id="XMLID_2046_" opacity="0.2" d="M208.832,333.991c0,0,0.483,3.671,4.293,4.315c3.81,0.646,13.146-7.619,8.885-15.733
					c0,0-0.209,5.912-5.998,7.967C210.222,332.596,208.832,333.991,208.832,333.991z"/>
				<path id="XMLID_2045_" fill="#D268CC" d="M200.911,317.181c0,0-2.23,0.271-3.697,1.574c-1.468,1.305,1.876,10.443,1.876,10.443
					s-1.261-3.019,0.692-1.669s3.822,5.526,9.049,6.462l-4.057-10.944C204.775,323.047,204.054,317.14,200.911,317.181z"/>
				<path id="XMLID_2044_" opacity="0.2" d="M200.911,317.181c0,0-2.23,0.271-3.697,1.574c-1.468,1.305,1.876,10.443,1.876,10.443
					s-1.261-3.019,0.692-1.669s3.822,5.526,9.049,6.462l-4.057-10.944C204.775,323.047,204.054,317.14,200.911,317.181z"/>
				<path id="XMLID_2040_" fill="#D268CC" d="M200.354,317.556c0,0-0.023,0.316-1.593-1.157c-1.567-1.474-1.697-4.164-1.376-5.031
					c0.322-0.865,3.274-0.013,5.07-1.383s5.85-4.431,4.542-6.325c0,0,3.465,1.751,1.998,5.212
					C207.527,312.33,200.953,315.604,200.354,317.556z"/>
				<path id="XMLID_2039_" opacity="0.2" d="M200.354,317.556c0,0-0.023,0.316-1.593-1.157c-1.567-1.474-1.697-4.164-1.376-5.031
					c0.322-0.865,3.274-0.013,5.07-1.383s5.85-4.431,4.542-6.325c0,0,3.465,1.751,1.998,5.212
					C207.527,312.33,200.953,315.604,200.354,317.556z"/>
				<path id="XMLID_2038_" fill="#D268CC" d="M209.339,307.532c0,0-2.292,0.563,1.958,2.061c4.251,1.499,5.814,1.967,5.814,1.967
					s1.112-1.996,2.606-1.229c1.496,0.768,4.692,1.11,7.134,0.364c0,0-2.308-0.549-3.804-2.988c-1.495-2.44-2.717-3.572-6.081-1.631
					C214.576,307.455,212.401,307.983,209.339,307.532z"/>
				<path id="XMLID_2031_" opacity="0.2" d="M209.339,307.532c0,0-2.292,0.563,1.958,2.061c4.251,1.499,5.814,1.967,5.814,1.967
					s1.112-1.996,2.606-1.229c1.496,0.768,4.692,1.11,7.134,0.364c0,0-2.308-0.549-3.804-2.988c-1.495-2.44-2.717-3.572-6.081-1.631
					C214.576,307.455,212.401,307.983,209.339,307.532z"/>
				<path id="XMLID_2030_" fill="#D268CC" d="M228.31,311.922c0,0,0.152-2.341-5.497-0.851c-1.967,0.519,4.09,13.646,4.09,13.646
					S235.238,317.61,228.31,311.922z"/>
				<path id="XMLID_1990_" opacity="0.2" d="M228.31,311.922c0,0,0.152-2.341-5.497-0.851c-1.967,0.519,4.09,13.646,4.09,13.646
					S235.238,317.61,228.31,311.922z"/>
				<path id="XMLID_1989_" fill="#D268CC" d="M226.642,324.898c0,0,1.995,0.278,3.588,3.047c1.591,2.77-3.04,10.895-8.022,8.856
					c3.501-6.89,0.694-11.77,0.694-11.77L226.642,324.898z"/>
				<path id="XMLID_1988_" opacity="0.2" d="M226.642,324.898c0,0,1.995,0.278,3.588,3.047c1.591,2.77-3.04,10.895-8.022,8.856
					c3.501-6.89,0.694-11.77,0.694-11.77L226.642,324.898z"/>
				<path id="XMLID_1981_" fill="#D268CC" d="M212.55,327.962c0,0,2.891,0.831,4.09-2.829l1.453-3.429c0,0-2.444-3.026-4.445-3.315
					c-2.001-0.287-1.218,0.843-1.218,0.843s3.038,0.729,1.756,3.449C212.901,325.402,209.341,326.579,212.55,327.962z"/>
				<path id="XMLID_1979_" fill="#D268CC" d="M219.293,313.716c0,0,2.213,1.618,2.884,5.658c0.67,4.038-1.831,6.653-1.831,6.653
					s0.304-2.148-1.712-4.698c-2.015-2.55-6.045-6.518-6.045-6.518S214.02,310.463,219.293,313.716z"/>
				<path id="XMLID_1943_" fill="#D268CC" d="M213.641,313.537c0,0-3.557-1.045-5.544,1.616c-1.987,2.66-1.611,6.646-3.321,7.894
					c0,0,1.489,2.511,2.908,1.174c1.419-1.336,4.644-5.045,7.059-3.692C214.741,320.528,217.161,315.831,213.641,313.537z"/>
			</g>
			<path id="XMLID_1915_" fill="#D268CC" d="M207.878,328.714c0.953,0.466,1.905,1.022,2.923,1.381
				c2.09,0.735,4.409-0.265,6.117-1.455c1.559-1.087,3.104-2.22,4.74-3.178c1.226-0.718,0.941-0.271,1.935,0.103
				c0.789,0.298,1.151-0.123,1.274-0.951c0.125-0.843-0.114-1.765-0.172-2.607c-0.12-1.764,0.311-3.494-0.054-5.256
				c-0.611-2.955-3.308-7.377-6.925-5.82c-1.072,0.462-1.435,0.854-2.594,0.453c-2.27-0.787-4.095-1.134-6.473-0.322
				c-2.661,0.91-4.853,2.861-5.842,5.52c-0.473,1.271-0.659,2.641-0.585,3.992c0.095,1.762,1.058,3.048,1.854,4.537
				C204.934,326.71,206.229,327.906,207.878,328.714z"/>
			<path id="XMLID_1914_" opacity="0.5" d="M207.878,328.714c0.953,0.466,1.905,1.022,2.923,1.381
				c2.09,0.735,4.409-0.265,6.117-1.455c1.559-1.087,3.104-2.22,4.74-3.178c1.226-0.718,0.941-0.271,1.935,0.103
				c0.789,0.298,1.151-0.123,1.274-0.951c0.125-0.843-0.114-1.765-0.172-2.607c-0.12-1.764,0.311-3.494-0.054-5.256
				c-0.611-2.955-3.308-7.377-6.925-5.82c-1.072,0.462-1.435,0.854-2.594,0.453c-2.27-0.787-4.095-1.134-6.473-0.322
				c-2.661,0.91-4.853,2.861-5.842,5.52c-0.473,1.271-0.659,2.641-0.585,3.992c0.095,1.762,1.058,3.048,1.854,4.537
				C204.934,326.71,206.229,327.906,207.878,328.714z"/>
			<g id="XMLID_1845_">
				<path id="XMLID_1912_" fill="#D268CC" d="M204.775,323.047c0.061,0.923,2.915,6.406,8.107,5.84
					c5.192-0.564,9.128-6.313,9.128-6.313s0.981,6.015-2.959,9.32c-3.94,3.305-9.696,3.354-11.922,0.974
					C204.903,330.485,202.485,325.596,204.775,323.047z"/>
				<path id="XMLID_2461_" opacity="0.2" fill="#FFFFFF" d="M204.775,323.047c0.061,0.923,2.915,6.406,8.107,5.84
					c5.192-0.564,9.128-6.313,9.128-6.313s0.981,6.015-2.959,9.32c-3.94,3.305-9.696,3.354-11.922,0.974
					C204.903,330.485,202.485,325.596,204.775,323.047z"/>
				<path id="XMLID_1910_" fill="#D268CC" d="M216.64,325.133c0,0,1.769-3.024-1.846-4.899c-3.613-1.875-7.377-1.459-5.826-3.819
					c1.552-2.36,4.31-4.139,7.264-2.193S220.979,321.342,216.64,325.133z"/>
				<path id="XMLID_2462_" opacity="0.2" fill="#FFFFFF" d="M216.64,325.133c0,0,1.769-3.024-1.846-4.899
					c-3.613-1.875-7.377-1.459-5.826-3.819c1.552-2.36,4.31-4.139,7.264-2.193S220.979,321.342,216.64,325.133z"/>
				<path id="XMLID_1909_" fill="#D268CC" d="M212.55,327.962c0,0-4.067-0.485-4.93-3.964c-0.863-3.48,2.14-5.145,5.482-3.793
					c0,0-2.338,0.5-2.311,3.835C210.809,326.291,212.55,327.962,212.55,327.962z"/>
				<path id="XMLID_2521_" opacity="0.2" fill="#FFFFFF" d="M212.55,327.962c0,0-4.067-0.485-4.93-3.964
					c-0.863-3.48,2.14-5.145,5.482-3.793c0,0-2.338,0.5-2.311,3.835C210.809,326.291,212.55,327.962,212.55,327.962z"/>
				<path id="XMLID_1907_" fill="#D268CC" d="M200.748,319.271c1.014,2.855,2.874,2.479,4.249-0.834
					c1.375-3.313,2.855-6.01,5.847-6.149c2.991-0.138,8.45,1.429,8.45,1.429s-2.025-1.626-3.323-3.688
					c-1.297-2.063-6.979-3.021-10.841-0.606C201.267,311.836,199.391,315.448,200.748,319.271z"/>
				<path id="XMLID_2459_" opacity="0.2" fill="#FFFFFF" d="M200.748,319.271c1.014,2.855,2.874,2.479,4.249-0.834
					c1.375-3.313,2.855-6.01,5.847-6.149c2.991-0.138,8.45,1.429,8.45,1.429s-2.025-1.626-3.323-3.688
					c-1.297-2.063-6.979-3.021-10.841-0.606C201.267,311.836,199.391,315.448,200.748,319.271z"/>
				<path id="XMLID_1906_" fill="#D268CC" d="M216.804,311.349c0,0,3.073,0.236,5.524,4.71c2.452,4.474,0.047,8.066,2.151,10.085
					c2.104,2.02,4.246,0.279,4.55-4.305c0.302-4.584-1.744-7.542-4.961-10.335C220.849,308.712,217.356,309.877,216.804,311.349z"/>
				<path id="XMLID_2460_" opacity="0.2" fill="#FFFFFF" d="M216.804,311.349c0,0,3.073,0.236,5.524,4.71
					c2.452,4.474,0.047,8.066,2.151,10.085c2.104,2.02,4.246,0.279,4.55-4.305c0.302-4.584-1.744-7.542-4.961-10.335
					C220.849,308.712,217.356,309.877,216.804,311.349z"/>
				<path id="XMLID_1902_" fill="#D268CC" d="M199.922,317.389c-1.627,0.46-5.369,2.227-5.687,6.604
					c-0.318,4.377-1.668,4.843,1.984,7.891c3.651,3.047,3.942,4.771,11.61,4.229c0,0-0.037-0.1-2.874-1.225
					c-2.837-1.126-4.046-5.273-6.32-8.347C195.671,322.534,199.922,317.389,199.922,317.389z"/>
				<path id="XMLID_2637_" opacity="0.2" fill="#FFFFFF" d="M199.922,317.389c-1.627,0.46-5.369,2.227-5.687,6.604
					c-0.318,4.377-1.668,4.843,1.984,7.891c3.651,3.047,3.942,4.771,11.61,4.229c0,0-0.037-0.1-2.874-1.225
					c-2.837-1.126-4.046-5.273-6.32-8.347C195.671,322.534,199.922,317.389,199.922,317.389z"/>
				<path id="XMLID_1901_" fill="#D268CC" d="M210.949,337.554c-0.985-1.313,1.009,0.455,4.354,0.455
					c3.347,0.002,8.115-1.029,10.439-4.181c2.323-3.15,2.635-6.368,2.458-8.207c0.583,0.178,2.093,1.387,2.881,4.207
					c1.04,3.727-1.639,9.351-6.859,11.29C219.001,343.057,213.974,341.584,210.949,337.554z"/>
				<path id="XMLID_2636_" opacity="0.2" fill="#FFFFFF" d="M210.949,337.554c-0.985-1.313,1.009,0.455,4.354,0.455
					c3.347,0.002,8.115-1.029,10.439-4.181c2.323-3.15,2.635-6.368,2.458-8.207c0.583,0.178,2.093,1.387,2.881,4.207
					c1.04,3.727-1.639,9.351-6.859,11.29C219.001,343.057,213.974,341.584,210.949,337.554z"/>
				<path id="XMLID_1878_" fill="#D268CC" d="M228.31,311.922c0,0,3.482,2.437,3.709,7.042c0.225,4.604-5.042,5.653-3.584,6.832
					c1.458,1.178,3.5,1.494,5.316-1.434c1.816-2.929,2.106-6.604-0.048-8.973C231.549,313.019,230.497,311.213,228.31,311.922z"/>
				<path id="XMLID_2635_" opacity="0.2" fill="#FFFFFF" d="M228.31,311.922c0,0,3.482,2.437,3.709,7.042
					c0.225,4.604-5.042,5.653-3.584,6.832c1.458,1.178,3.5,1.494,5.316-1.434c1.816-2.929,2.106-6.604-0.048-8.973
					C231.549,313.019,230.497,311.213,228.31,311.922z"/>
				<path id="XMLID_1877_" fill="#D268CC" d="M208.688,306.939c1.517,1.759,2.424,0.529,5.216-1.016
					c2.792-1.544,4.216-1.531,7.204,1.113c2.988,2.646,5.745,3.657,5.745,3.657s-1.82-1.144-2.568-3.714s-3.871-8.388-9.936-5.994
					C208.284,303.379,208.003,306.146,208.688,306.939z"/>
				<path id="XMLID_2634_" opacity="0.2" fill="#FFFFFF" d="M208.688,306.939c1.517,1.759,2.424,0.529,5.216-1.016
					c2.792-1.544,4.216-1.531,7.204,1.113c2.988,2.646,5.745,3.657,5.745,3.657s-1.82-1.144-2.568-3.714s-3.871-8.388-9.936-5.994
					C208.284,303.379,208.003,306.146,208.688,306.939z"/>
				<path id="XMLID_1874_" fill="#D268CC" d="M198.76,316.398c0,0-4.372-2.636-2.27-7.949c2.103-5.314,9.794-5.938,10.923-4.468
					c1.128,1.469-1.045,4.068-2.779,3.98s-5.425-0.622-6.639,2.662C196.781,313.909,198.76,316.398,198.76,316.398z"/>
				<path id="XMLID_2562_" opacity="0.2" fill="#FFFFFF" d="M198.76,316.398c0,0-4.372-2.636-2.27-7.949
					c2.103-5.314,9.794-5.938,10.923-4.468c1.128,1.469-1.045,4.068-2.779,3.98s-5.425-0.622-6.639,2.662
					C196.781,313.909,198.76,316.398,198.76,316.398z"/>
			</g>
		</g>
		<g id="XMLID_674_">
			<path id="XMLID_1843_" fill="#D268CC" d="M192.593,363.147l2.687-1.733c0,0,3.327,1.936,6.947,2.272
				c3.619,0.338,10.449-3.739,9.981-7.166c-0.467-3.425-1.048-7.598-1.048-7.598s3.462-0.083,4.042-1.665
				c0.579-1.582-3.379-9.854-5.269-11.095c-1.448-0.952-2.24-0.885-2.24-0.885s0.043-0.517-1.969-1.035
				c-2.012-0.52-4.43-3.223-6.104-5.031c-1.674-1.81-5.691-1.354-7.972,0.802c-2.28,2.156-5.313,4.091-6.787,3.677
				c-1.472-0.413-7.276,1.318-7.656,3.793c-0.38,2.474-0.712,5.618,1.173,6.501c1.884,0.881,4.168,4.035,4.168,4.035
				s-3.674,0.671-3.771,3.972c-0.098,3.3,2.824,9.797,6.342,10.294C188.637,362.782,192.593,363.147,192.593,363.147z"/>
			<path id="XMLID_1811_" opacity="0.5" d="M192.593,363.147l2.687-1.733c0,0,3.327,1.936,6.947,2.272
				c3.619,0.338,10.449-3.739,9.981-7.166c-0.467-3.425-1.048-7.598-1.048-7.598s3.462-0.083,4.042-1.665
				c0.579-1.582-3.379-9.854-5.269-11.095c-1.448-0.952-2.24-0.885-2.24-0.885s0.043-0.517-1.969-1.035
				c-2.012-0.52-4.43-3.223-6.104-5.031c-1.674-1.81-5.691-1.354-7.972,0.802c-2.28,2.156-5.313,4.091-6.787,3.677
				c-1.472-0.413-7.276,1.318-7.656,3.793c-0.38,2.474-0.712,5.618,1.173,6.501c1.884,0.881,4.168,4.035,4.168,4.035
				s-3.674,0.671-3.771,3.972c-0.098,3.3,2.824,9.797,6.342,10.294C188.637,362.782,192.593,363.147,192.593,363.147z"/>
			<g id="XMLID_839_">
				<path id="XMLID_1694_" fill="#D268CC" d="M193.14,360.865c0,0,1.223,3.493,5.084,3.347c3.861-0.147,11.311-10.147,5.48-17.218
					c0,0,1.003,5.829-4.244,9.024C194.215,359.215,193.14,360.865,193.14,360.865z"/>
				<path id="XMLID_1693_" opacity="0.3" d="M193.14,360.865c0,0,1.223,3.493,5.084,3.347c3.861-0.147,11.311-10.147,5.48-17.218
					c0,0,1.003,5.829-4.244,9.024C194.215,359.215,193.14,360.865,193.14,360.865z"/>
				<path id="XMLID_1578_" fill="#D268CC" d="M181.948,346.03c0,0-2.127,0.72-3.297,2.296c-1.169,1.578,3.972,9.84,3.972,9.84
					s-1.853-2.697,0.336-1.775c2.188,0.923,4.872,4.628,10.18,4.475l-6.21-9.884C186.93,350.981,185.016,345.347,181.948,346.03z"/>
				<path id="XMLID_1412_" opacity="0.3" d="M181.948,346.03c0,0-2.127,0.72-3.297,2.296c-1.169,1.578,3.972,9.84,3.972,9.84
					s-1.853-2.697,0.336-1.775c2.188,0.923,4.872,4.628,10.18,4.475l-6.21-9.884C186.93,350.981,185.016,345.347,181.948,346.03z"/>
				<path id="XMLID_906_" fill="#D268CC" d="M181.479,346.51c0,0,0.041,0.316-1.795-0.807c-1.837-1.122-2.514-3.729-2.376-4.642
					c0.138-0.914,3.202-0.683,4.679-2.391c1.477-1.71,4.82-5.534,3.152-7.121c0,0,3.751,1.006,3.021,4.692
					C187.432,339.929,181.667,344.477,181.479,346.51z"/>
				<path id="XMLID_891_" opacity="0.3" d="M181.479,346.51c0,0,0.041,0.316-1.795-0.807c-1.837-1.122-2.514-3.729-2.376-4.642
					c0.138-0.914,3.202-0.683,4.679-2.391c1.477-1.71,4.82-5.534,3.152-7.121c0,0,3.751,1.006,3.021,4.692
					C187.432,339.929,181.667,344.477,181.479,346.51z"/>
				<path id="XMLID_890_" fill="#D268CC" d="M188.226,334.862c0,0-2.13,1.019,2.338,1.616c4.467,0.598,6.093,0.737,6.093,0.737
					s0.68-2.183,2.3-1.736c1.621,0.443,4.821,0.127,7.058-1.104c0,0-2.371-0.065-4.334-2.148c-1.962-2.082-3.391-2.939-6.287-0.353
					C193.336,333.714,191.314,334.678,188.226,334.862z"/>
				<path id="XMLID_879_" opacity="0.3" d="M188.226,334.862c0,0-2.13,1.019,2.338,1.616c4.467,0.598,6.093,0.737,6.093,0.737
					s0.68-2.183,2.3-1.736c1.621,0.443,4.821,0.127,7.058-1.104c0,0-2.371-0.065-4.334-2.148c-1.962-2.082-3.391-2.939-6.287-0.353
					C193.336,333.714,191.314,334.678,188.226,334.862z"/>
				<path id="XMLID_874_" fill="#D268CC" d="M207.693,335.278c0,0-0.33-2.322-5.555,0.292c-1.82,0.911,6.794,12.521,6.794,12.521
					S215.638,339.431,207.693,335.278z"/>
				<path id="XMLID_862_" opacity="0.3" d="M207.693,335.278c0,0-0.33-2.322-5.555,0.292c-1.82,0.911,6.794,12.521,6.794,12.521
					S215.638,339.431,207.693,335.278z"/>
				<path id="XMLID_861_" fill="#D268CC" d="M208.713,348.323c0,0,2.01-0.137,4.136,2.248c2.125,2.384-0.748,11.286-6.041,10.31
					c2.018-7.461-1.727-11.663-1.727-11.663L208.713,348.323z"/>
				<path id="XMLID_860_" opacity="0.3" d="M208.713,348.323c0,0,2.01-0.137,4.136,2.248c2.125,2.384-0.748,11.286-6.041,10.31
					c2.018-7.461-1.727-11.663-1.727-11.663L208.713,348.323z"/>
				<path id="XMLID_859_" fill="#D268CC" d="M195.545,354.203c0,0,3,0.222,3.425-3.605l0.721-3.654c0,0-3.012-2.462-5.029-2.336
					c-2.017,0.127-1.02,1.074-1.02,1.074s3.123,0.092,2.424,3.018C195.367,351.626,192.123,353.506,195.545,354.203z"/>
				<path id="XMLID_858_" fill="#D268CC" d="M199.233,338.879c0,0,2.498,1.132,3.98,4.948c1.482,3.816-0.432,6.888-0.432,6.888
					s-0.141-2.165-2.636-4.25c-2.494-2.083-7.251-5.143-7.251-5.143S193.406,336.772,199.233,338.879z"/>
				<path id="XMLID_845_" fill="#D268CC" d="M193.664,339.86c0,0-3.696-0.296-5.098,2.715c-1.4,3.011-0.217,6.836-1.636,8.406
					c0,0,1.971,2.153,3.086,0.555c1.116-1.598,3.513-5.89,6.154-5.059C196.171,346.478,197.579,341.386,193.664,339.86z"/>
			</g>
			<path id="XMLID_830_" fill="#D268CC" d="M191.126,355.894c1.028,0.262,2.074,0.611,3.143,0.755
				c2.197,0.291,4.263-1.161,5.691-2.675c1.304-1.383,2.584-2.808,3.99-4.081c1.054-0.952,0.866-0.459,1.915-0.295
				c0.834,0.131,1.102-0.356,1.052-1.191c-0.05-0.852-0.471-1.704-0.7-2.517c-0.48-1.701-0.411-3.485-1.127-5.134
				c-1.204-2.769-4.748-6.545-7.97-4.281c-0.956,0.67-1.23,1.13-2.447,0.974c-2.382-0.306-4.239-0.272-6.401,1.009
				c-2.419,1.434-4.166,3.793-4.59,6.597c-0.203,1.342-0.104,2.719,0.243,4.027c0.455,1.706,1.66,2.769,2.745,4.063
				C187.835,354.534,189.347,355.44,191.126,355.894z"/>
			<path id="XMLID_828_" opacity="0.5" d="M191.126,355.894c1.028,0.262,2.074,0.611,3.143,0.755
				c2.197,0.291,4.263-1.161,5.691-2.675c1.304-1.383,2.584-2.808,3.99-4.081c1.054-0.952,0.866-0.459,1.915-0.295
				c0.834,0.131,1.102-0.356,1.052-1.191c-0.05-0.852-0.471-1.704-0.7-2.517c-0.48-1.701-0.411-3.485-1.127-5.134
				c-1.204-2.769-4.748-6.545-7.97-4.281c-0.956,0.67-1.23,1.13-2.447,0.974c-2.382-0.306-4.239-0.272-6.401,1.009
				c-2.419,1.434-4.166,3.793-4.59,6.597c-0.203,1.342-0.104,2.719,0.243,4.027c0.455,1.706,1.66,2.769,2.745,4.063
				C187.835,354.534,189.347,355.44,191.126,355.894z"/>
			<g id="XMLID_776_">
				<path id="XMLID_819_" fill="#D268CC" d="M186.93,350.981c0.248,0.892,4.163,5.674,9.13,4.06
					c4.967-1.615,7.644-8.047,7.644-8.047s2.189,5.687-0.991,9.728c-3.182,4.04-8.805,5.267-11.471,3.391
					C188.577,358.236,185.21,353.945,186.93,350.981z"/>
				<path id="XMLID_814_" fill="#D268CC" d="M198.971,350.598c0,0,1.113-3.322-2.808-4.419c-3.919-1.097-7.52,0.081-6.483-2.547
					c1.037-2.629,3.373-4.933,6.662-3.632C199.631,341.3,202.444,345.999,198.971,350.598z"/>
				<path id="XMLID_812_" fill="#D268CC" d="M195.545,354.203c0,0-4.08,0.355-5.637-2.874c-1.556-3.229,1.043-5.472,4.591-4.832
					c0,0-2.187,0.969-1.479,4.226C193.5,352.924,195.545,354.203,195.545,354.203z"/>
				<path id="XMLID_799_" fill="#D268CC" d="M182.216,348.108c1.576,2.588,3.319,1.839,3.987-1.686
					c0.668-3.523,1.566-6.466,4.466-7.214c2.899-0.748,8.563-0.33,8.563-0.33s-2.315-1.178-4.007-2.93
					c-1.691-1.754-7.449-1.531-10.736,1.623C181.203,340.726,180.106,344.645,182.216,348.108z"/>
				<path id="XMLID_795_" fill="#D268CC" d="M196.313,337.07c0,0,3.056-0.397,6.371,3.48c3.315,3.878,1.696,7.887,4.168,9.432
					c2.472,1.547,4.214-0.594,3.573-5.144c-0.641-4.549-3.25-7.027-6.97-9.103C199.734,333.662,196.552,335.518,196.313,337.07z"/>
				<path id="XMLID_792_" fill="#D268CC" d="M181.023,346.435c-1.498,0.783-4.8,3.278-4.216,7.628
					c0.583,4.349-0.643,5.082,3.556,7.318c4.198,2.236,4.834,3.862,12.23,1.767c0,0-0.057-0.092-3.063-0.613
					c-3.008-0.521-5.039-4.333-7.894-6.877C177.915,352.342,181.023,346.435,181.023,346.435z"/>
				<path id="XMLID_788_" fill="#D268CC" d="M195.941,363.919c-1.234-1.085,1.081,0.238,4.356-0.444s7.732-2.666,9.362-6.227
					c1.63-3.559,1.277-6.773,0.727-8.538c0.608,0.056,2.333,0.93,3.682,3.53c1.779,3.436,0.308,9.487-4.407,12.453
					C204.947,367.659,199.726,367.245,195.941,363.919z"/>
				<path id="XMLID_785_" fill="#D268CC" d="M207.693,335.278c0,0,3.907,1.675,5.07,6.136s-3.779,6.564-2.111,7.42
					c1.668,0.854,3.732,0.749,4.911-2.49c1.179-3.238,0.711-6.894-1.882-8.772C211.088,335.691,209.689,334.137,207.693,335.278z"/>
				<path id="XMLID_778_" fill="#D268CC" d="M187.466,334.415c1.844,1.411,2.482,0.021,4.898-2.061
					c2.417-2.083,3.813-2.362,7.279-0.384c3.466,1.979,6.371,2.405,6.371,2.405s-2.015-0.749-3.273-3.11
					c-1.259-2.363-5.505-7.419-10.952-3.836S186.634,333.778,187.466,334.415z"/>
				<path id="XMLID_777_" fill="#D268CC" d="M179.684,345.703c0,0-4.82-1.685-3.849-7.317c0.971-5.632,8.374-7.813,9.778-6.606
					c1.405,1.207-0.191,4.196-1.906,4.466c-1.714,0.269-5.438,0.5-5.954,3.963C177.237,343.671,179.684,345.703,179.684,345.703z"/>
			</g>
		</g>
	</g>
</g>
</svg>
