<?xml version="1.0" encoding="utf-8"?>
<!-- Generator: Adobe Illustrator 16.0.0, SVG Export Plug-In . SVG Version: 6.00 Build 0)  -->
<!DOCTYPE svg PUBLIC "-//W3C//DTD SVG 1.1//EN" "http://www.w3.org/Graphics/SVG/1.1/DTD/svg11.dtd">
<svg version="1.1" id="Layer_1" xmlns="http://www.w3.org/2000/svg" xmlns:xlink="http://www.w3.org/1999/xlink" x="0px" y="0px"
	 width="100px" height="100px" viewBox="0 0 100 100" enable-background="new 0 0 100 100" xml:space="preserve">
<g>
	<g>
		<path fill="#F285B6" d="M18.318,43.935c-0.026,0.787-0.05,1.574-0.073,2.362c-0.162,0.336-0.404,0.615-0.794,0.443
			c-0.316-0.138-0.576-0.434-0.751-0.723c-0.249-0.418-0.222-0.966-0.343-1.427c-0.148-0.552-0.468-1.003-0.933-1.343
			c-0.45-0.326-0.979-0.531-1.507-0.7c-0.659-0.208-1.333-0.366-2.016-0.474c-0.575-0.091-1.269-0.239-1.82,0.013
			c-0.505,0.229-0.717,0.754-0.845,1.259c-0.549,2.133-0.249,4.441,0.717,6.41c0.478,0.979,1.131,1.881,1.921,2.631
			c0.953,0.898,2.09,1.567,3.133,2.352c0.989,0.744,1.928,1.602,2.483,2.729c0.266,0.535,0.438,1.13,0.454,1.729
			c0.017,0.531-0.061,1.144-0.414,1.567c-0.147,0.186-0.354,0.347-0.605,0.326c-0.242-0.02-0.424-0.195-0.545-0.396
			c-0.303-0.502-0.229-1.114-0.316-1.673c-0.095-0.619-0.431-1.063-0.864-1.494c-0.411-0.403-0.861-0.76-1.326-1.1
			c-0.949-0.693-1.965-1.289-2.88-2.029c-0.942-0.76-1.676-1.672-2.211-2.759c-0.549-1.12-0.885-2.335-1.204-3.54
			c-0.354-1.322-0.69-2.701-0.583-4.081c0.091-1.174,0.542-2.349,1.434-3.143c0.78-0.693,1.82-1.01,2.851-1.046
			c2.398-0.085,4.404,1.359,5.995,3.015C17.626,43.208,17.966,43.574,18.318,43.935z"/>
		<path fill="#EF4578" d="M53.779,36.044c0,0.849-6.191,2.073-17.379,2.073c-11.19,0-17.379-1.225-17.379-2.073
			c0-0.845,6.188-2.069,17.379-2.069C47.588,33.975,53.779,35.199,53.779,36.044z"/>
		<path fill="#F285B6" d="M53.456,42.747c0.041-1.117,0.088-2.231,0.142-3.349c0.051-0.969,0.081-1.931,0.229-2.887
			c-1.618,1.266-9.737,1.941-17.426,1.941c-7.759,0-15.962-0.689-17.47-1.979c0.062,1.138-0.023,2.278-0.063,3.416
			c-0.047,1.258-0.091,2.513-0.131,3.768c-0.027,0.893-0.054,1.783-0.074,2.676c0.026,0.054,0.03,0.121-0.003,0.191v0.003
			c-0.091,3.54-0.139,7.08-0.142,10.619c-0.004,2.265,0.014,4.525,0.047,6.787c0.017,1.12,0.037,2.237,0.063,3.354
			c0.014,0.572,0.027,1.144,0.041,1.716c0.014,0.559,0.061,1.117-0.021,1.672c0,0.004,0,0.004-0.003,0.007
			c0.191,0.845,6.379,2.029,17.429,2.029c10.854,0,17.019-1.145,17.409-1.985c-0.007-0.014-0.014-0.026-0.017-0.044
			c-0.132-0.612-0.108-1.252-0.125-1.877c-0.021-0.643-0.037-1.285-0.051-1.929c-0.026-1.255-0.05-2.513-0.066-3.768
			c-0.061-4.526-0.051-9.052,0.037-13.577C53.305,47.272,53.372,45.008,53.456,42.747z M45.809,51.818
			c-0.041,0.643-0.107,1.285-0.246,1.914c-0.259,1.178-0.787,2.278-1.416,3.301c-0.619,1.013-1.319,2.002-2.056,2.934
			c-0.693,0.875-1.548,1.555-2.511,2.113c-0.925,0.539-1.9,0.973-2.833,1.494c-0.464,0.259-0.908,0.545-1.339,0.861
			c-0.151,0.114-0.394,0.179-0.538,0.061c-0.037,0.007-0.078-0.003-0.115-0.037c-0.982-0.895-1.914-1.851-2.839-2.803
			c-0.865-0.892-1.706-1.807-2.483-2.775c-1.332-1.669-2.486-3.53-3.093-5.596c-0.508-1.729-0.79-3.91,0.418-5.424
			c1.174-1.478,3.354-1.608,5.067-1.255c0.531,0.11,1.069,0.272,1.54,0.552c0.428,0.252,0.788,0.592,1.124,0.948
			c0.367,0.388,0.73,0.777,1.057,1.198c0.037,0.05,0.078,0.101,0.114,0.154c0.239-0.801,0.805-1.493,1.491-1.979
			c1.063-0.753,2.405-0.969,3.674-1.11c0.605-0.063,1.242-0.171,1.848-0.05c0.545,0.104,1.033,0.403,1.46,0.747
			c0.434,0.35,0.848,0.753,1.171,1.207c0.347,0.492,0.505,1.054,0.545,1.652C45.889,50.553,45.849,51.192,45.809,51.818z"/>
		<polygon fill="#F5A0C5" points="23.937,37.915 23.937,72.287 29.029,72.532 29.214,38.254 		"/>
		<path fill="#EB7AAD" d="M50.135,37.604c0,1.736-0.661,34.091-0.661,34.091s-8.098,1.18-12.771,1.18l0.361-34.76
			C42.363,38.617,50.135,37.604,50.135,37.604z"/>
		<g>
			<g>
				<g>
					<path fill="#76183C" d="M53.961,39.891c-0.047,1.258-0.091,2.513-0.131,3.768c-0.139,4.496-0.216,8.994-0.223,13.489
						c0,2.265,0.014,4.525,0.051,6.787c0.017,1.12,0.037,2.237,0.063,3.354c0.014,0.572,0.024,1.144,0.041,1.716
						c0.01,0.464,0.044,0.929,0.007,1.393c-0.004,0.095-0.014,0.186-0.027,0.279c-0.017,0.122-0.195,0.139-0.259,0.051
						c-0.007-0.014-0.014-0.026-0.017-0.044c-0.132-0.612-0.108-1.252-0.125-1.877c-0.021-0.643-0.037-1.285-0.051-1.929
						c-0.026-1.255-0.05-2.513-0.066-3.768c-0.061-4.526-0.051-9.052,0.037-13.577c0.043-2.261,0.11-4.525,0.194-6.786
						c0.041-1.117,0.088-2.231,0.142-3.349c0.051-0.969,0.081-1.931,0.229-2.887c0.023-0.158,0.051-0.319,0.081-0.478
						c0.007-0.047,0.077-0.034,0.081,0.01c0.01,0.095,0.017,0.192,0.023,0.286C54.089,37.515,54.005,38.702,53.961,39.891z"/>
				</g>
			</g>
			<g>
				<g>
					<path fill="#76183C" d="M18.867,39.891c-0.047,1.258-0.091,2.513-0.131,3.768c-0.027,0.893-0.054,1.783-0.074,2.676
						c-0.003,0.063-0.003,0.127-0.003,0.191v0.003c-0.091,3.54-0.139,7.08-0.142,10.619c-0.004,2.265,0.014,4.525,0.047,6.787
						c0.017,1.12,0.037,2.237,0.063,3.354c0.014,0.572,0.027,1.144,0.041,1.716c0.014,0.559,0.061,1.117-0.021,1.672
						c0,0.004,0,0.004-0.003,0.007c-0.023,0.132-0.246,0.132-0.273,0c-0.013-0.067-0.026-0.135-0.036-0.201v-0.004
						c-0.088-0.549-0.071-1.117-0.088-1.672c-0.017-0.643-0.037-1.285-0.051-1.929c-0.026-1.255-0.05-2.513-0.067-3.768
						c-0.01-0.791-0.017-1.585-0.023-2.376c-0.006-0.992-0.014-1.988-0.014-2.981c-0.003-2.742,0.024-5.48,0.074-8.22
						c0.018-0.811,0.034-1.625,0.058-2.436c0.007-0.266,0.014-0.532,0.021-0.801c0.023-0.788,0.047-1.575,0.073-2.362
						c0.004-0.104,0.007-0.209,0.014-0.313c0.011-0.293,0.021-0.583,0.03-0.875c0.041-1.117,0.088-2.231,0.145-3.349
						c0.051-1.043,0.085-2.075,0.26-3.105c0.013-0.087,0.03-0.171,0.047-0.259c0.01-0.047,0.077-0.034,0.084,0.01
						c0.014,0.142,0.023,0.286,0.033,0.431C18.992,37.612,18.907,38.753,18.867,39.891z"/>
				</g>
			</g>
			<g>
				<path fill="#76183C" d="M36.4,33.639c-8.587,0-17.715,0.845-17.715,2.405c0,0.084,0.027,0.169,0.081,0.249
					c0.04,0.061,0.094,0.121,0.164,0.182c1.508,1.289,9.711,1.979,17.47,1.979c7.688,0,15.808-0.676,17.426-1.941
					c0.077-0.061,0.139-0.121,0.186-0.182c0.067-0.094,0.104-0.188,0.104-0.286C54.116,34.483,44.987,33.639,36.4,33.639z
					 M36.4,38.117c-11.19,0-17.379-1.225-17.379-2.073c0-0.845,6.188-2.069,17.379-2.069c11.188,0,17.379,1.225,17.379,2.069
					C53.779,36.893,47.588,38.117,36.4,38.117z"/>
			</g>
			<g>
				<path fill="#76183C" d="M53.84,70.644c0,1.564-9.155,2.406-17.766,2.406c-8.613,0-17.769-0.842-17.769-2.406
					c0-0.058,0.01-0.111,0.03-0.161v-0.004c0.007-0.017,0.013-0.03,0.023-0.047l0.296,0.158c-0.01,0.017-0.014,0.033-0.014,0.054
					c0,0.014,0,0.027,0.004,0.04c0.191,0.845,6.379,2.029,17.429,2.029c10.854,0,17.019-1.145,17.409-1.985
					c0.014-0.026,0.021-0.057,0.021-0.084c0-0.03-0.014-0.064-0.041-0.101l0.27-0.202c0.014,0.02,0.026,0.037,0.037,0.057
					C53.816,70.479,53.84,70.56,53.84,70.644z"/>
			</g>
			<g>
				<g>
					<path fill="#76183C" d="M18.659,46.525v0.003c-0.104,0.216-0.246,0.428-0.435,0.569c-0.148,0.114-0.323,0.182-0.531,0.178
						c-0.693-0.017-1.387-0.78-1.541-1.427c-0.146-0.615-0.139-1.285-0.528-1.813c-0.344-0.464-0.898-0.743-1.427-0.938
						c-0.663-0.242-1.353-0.421-2.046-0.549c-0.354-0.067-0.71-0.121-1.066-0.154c-0.296-0.027-0.633-0.044-0.902,0.104
						c-0.491,0.269-0.592,1.003-0.683,1.5c-0.104,0.565-0.148,1.138-0.138,1.71c0.04,2.287,0.962,4.569,2.591,6.188
						c0.955,0.952,2.136,1.625,3.22,2.423c1.022,0.753,2.009,1.625,2.618,2.759c0.114,0.212,0.219,0.44,0.302,0.676
						c0.341,0.898,0.455,1.918,0.095,2.807c-0.023,0.057-0.05,0.114-0.081,0.175c-0.201,0.397-0.548,0.754-1.009,0.811
						c-0.535,0.067-0.969-0.303-1.188-0.764c-0.273-0.572-0.186-1.194-0.311-1.797c-0.127-0.622-0.622-1.063-1.079-1.467
						c-0.909-0.801-1.952-1.423-2.938-2.116c-0.993-0.7-1.915-1.477-2.591-2.493c-0.703-1.053-1.147-2.261-1.504-3.469
						C6.768,47,5.896,44.032,7.303,41.663c1.144-1.935,3.58-2.496,5.656-1.995c1.161,0.279,2.218,0.898,3.143,1.643
						c0.834,0.669,1.595,1.449,2.23,2.312c0.098,0.134,0.192,0.269,0.286,0.406c0.051,0.074-0.054,0.155-0.114,0.095
						c-0.063-0.064-0.124-0.125-0.186-0.188c-0.353-0.36-0.692-0.727-1.043-1.09c-1.591-1.655-3.597-3.1-5.995-3.015
						c-1.03,0.036-2.07,0.353-2.851,1.046c-0.892,0.794-1.343,1.969-1.434,3.143c-0.107,1.38,0.229,2.759,0.583,4.081
						c0.319,1.205,0.655,2.42,1.204,3.54c0.535,1.087,1.269,1.999,2.211,2.759c0.915,0.74,1.931,1.336,2.88,2.029
						c0.465,0.34,0.915,0.696,1.326,1.1c0.434,0.431,0.77,0.875,0.864,1.494c0.088,0.559,0.014,1.171,0.316,1.673
						c0.121,0.201,0.303,0.377,0.545,0.396c0.252,0.021,0.458-0.141,0.605-0.326c0.354-0.424,0.431-1.036,0.414-1.567
						c-0.017-0.6-0.188-1.194-0.454-1.729c-0.556-1.128-1.494-1.985-2.483-2.729c-1.043-0.784-2.18-1.453-3.133-2.352
						c-0.79-0.75-1.443-1.652-1.921-2.631c-0.966-1.969-1.266-4.277-0.717-6.41c0.128-0.505,0.34-1.029,0.845-1.259
						c0.552-0.252,1.245-0.104,1.82-0.013c0.683,0.107,1.356,0.266,2.016,0.474c0.528,0.169,1.057,0.374,1.507,0.7
						c0.465,0.34,0.784,0.791,0.933,1.343c0.121,0.461,0.094,1.009,0.343,1.427c0.175,0.289,0.435,0.585,0.751,0.723
						c0.39,0.172,0.632-0.107,0.794-0.443c0.098-0.206,0.35-0.132,0.417,0.037C18.688,46.388,18.692,46.455,18.659,46.525z"/>
				</g>
			</g>
			<g>
				<g>
					<path fill="#76183C" d="M45.849,49.927c-0.04-0.599-0.198-1.16-0.545-1.652c-0.323-0.454-0.737-0.857-1.171-1.207
						c-0.427-0.344-0.915-0.643-1.46-0.747c-0.605-0.121-1.242-0.014-1.848,0.05c-1.269,0.142-2.61,0.357-3.674,1.11
						c-0.687,0.485-1.252,1.178-1.491,1.979c-0.036-0.054-0.077-0.104-0.114-0.154c-0.326-0.421-0.689-0.811-1.057-1.198
						c-0.336-0.356-0.696-0.696-1.124-0.948c-0.471-0.279-1.009-0.441-1.54-0.552c-1.713-0.354-3.894-0.223-5.067,1.255
						c-1.208,1.514-0.926,3.694-0.418,5.424c0.606,2.065,1.761,3.927,3.093,5.596c0.777,0.969,1.618,1.884,2.483,2.775
						c0.925,0.952,1.856,1.908,2.839,2.803c0.037,0.034,0.078,0.044,0.115,0.037c0.145,0.118,0.387,0.054,0.538-0.061
						c0.431-0.316,0.875-0.603,1.339-0.861c0.933-0.521,1.908-0.955,2.833-1.494c0.963-0.559,1.817-1.238,2.511-2.113
						c0.736-0.932,1.437-1.921,2.056-2.934c0.629-1.022,1.157-2.123,1.416-3.301c0.139-0.629,0.205-1.271,0.246-1.914
						C45.849,51.192,45.889,50.553,45.849,49.927z M45.297,50.862c-0.017,0.596-0.04,1.191-0.114,1.783
						c-0.131,1.091-0.447,2.12-0.945,3.099c-0.472,0.929-1.061,1.794-1.666,2.639c-0.612,0.861-1.222,1.739-2.056,2.402
						c-0.827,0.663-1.783,1.144-2.729,1.618c-0.475,0.242-0.952,0.484-1.417,0.747c-0.232,0.131-0.461,0.27-0.683,0.414
						c-0.111,0.07-0.219,0.145-0.33,0.222c-0.044,0.034-0.087,0.064-0.135,0.098c-0.023,0.017-0.047,0.037-0.07,0.058
						c-0.142-0.041-0.279,0.04-0.347,0.158c-1.416-1.534-2.938-2.965-4.307-4.546c-1.339-1.545-2.561-3.24-3.345-5.142
						c-0.38-0.912-0.656-1.871-0.773-2.854c-0.104-0.848-0.091-1.736,0.212-2.547c0.659-1.746,2.58-2.211,4.272-2.056
						c1.08,0.101,2.127,0.41,2.925,1.174c0.396,0.381,0.767,0.798,1.116,1.222c0.172,0.205,0.337,0.424,0.479,0.652
						c0.037,0.058,0.067,0.135,0.111,0.186c0.01,0.021,0.023,0.044,0.033,0.064c0.007,0.043,0.007,0.087,0.014,0.131
						c0.03,0.343,0.552,0.34,0.538-0.014c-0.03-0.905,0.475-1.716,1.161-2.274c0.784-0.643,1.803-0.919,2.789-1.07
						c0.528-0.08,1.063-0.135,1.595-0.182c0.549-0.047,1.057-0.02,1.551,0.242c0.441,0.232,0.818,0.572,1.168,0.922
						c0.36,0.36,0.689,0.761,0.838,1.255C45.337,49.782,45.313,50.331,45.297,50.862z"/>
				</g>
			</g>
		</g>
		<path fill="#EC2250" d="M45.297,50.862c-0.017,0.596-0.04,1.191-0.114,1.783c-0.131,1.091-0.447,2.12-0.945,3.099
			c-0.472,0.929-1.061,1.794-1.666,2.639c-0.612,0.861-1.222,1.739-2.056,2.402c-0.827,0.663-1.783,1.144-2.729,1.618
			c-0.475,0.242-0.952,0.484-1.417,0.747c-0.232,0.131-0.461,0.27-0.683,0.414c-0.111,0.07-0.219,0.145-0.33,0.222
			c-0.044,0.034-0.087,0.064-0.135,0.098c-0.023,0.017-0.047,0.037-0.07,0.058c-0.142-0.041-0.279,0.04-0.347,0.158
			c-1.416-1.534-2.938-2.965-4.307-4.546c-1.339-1.545-2.561-3.24-3.345-5.142c-0.38-0.912-0.656-1.871-0.773-2.854
			c-0.104-0.848-0.091-1.736,0.212-2.547c0.659-1.746,2.58-2.211,4.272-2.056c1.08,0.101,2.127,0.41,2.925,1.174
			c0.396,0.381,0.767,0.798,1.116,1.222c0.172,0.205,0.337,0.424,0.479,0.652c0.037,0.058,0.067,0.135,0.111,0.186
			c0.01,0.021,0.023,0.044,0.033,0.064c0.007,0.043,0.007,0.087,0.014,0.131c0.03,0.343,0.552,0.34,0.538-0.014
			c-0.03-0.905,0.475-1.716,1.161-2.274c0.784-0.643,1.803-0.919,2.789-1.07c0.528-0.08,1.063-0.135,1.595-0.182
			c0.549-0.047,1.057-0.02,1.551,0.242c0.441,0.232,0.818,0.572,1.168,0.922c0.36,0.36,0.689,0.761,0.838,1.255
			C45.337,49.782,45.313,50.331,45.297,50.862z"/>
	</g>
	<g>
		<path fill="#FEF3F8" d="M81.325,51.063c0.027,0.787,0.051,1.574,0.074,2.361c0.161,0.337,0.404,0.616,0.794,0.444
			c0.316-0.138,0.575-0.435,0.75-0.724c0.249-0.417,0.223-0.966,0.344-1.427c0.147-0.552,0.468-1.002,0.932-1.342
			c0.451-0.326,0.979-0.532,1.508-0.7c0.659-0.209,1.332-0.366,2.016-0.475c0.575-0.091,1.269-0.239,1.82,0.014
			c0.505,0.229,0.717,0.754,0.845,1.258c0.548,2.134,0.248,4.442-0.718,6.41c-0.478,0.979-1.13,1.881-1.921,2.632
			c-0.952,0.897-2.089,1.567-3.132,2.352c-0.989,0.743-1.929,1.602-2.483,2.729c-0.267,0.535-0.438,1.131-0.454,1.729
			c-0.018,0.531,0.061,1.145,0.413,1.568c0.148,0.185,0.354,0.346,0.606,0.326c0.242-0.021,0.424-0.195,0.545-0.397
			c0.303-0.501,0.229-1.113,0.316-1.672c0.094-0.619,0.431-1.063,0.864-1.494c0.411-0.403,0.861-0.761,1.326-1.1
			c0.948-0.693,1.965-1.289,2.88-2.029c0.942-0.761,1.676-1.673,2.211-2.759c0.548-1.121,0.885-2.336,1.204-3.54
			c0.354-1.322,0.689-2.702,0.582-4.081c-0.091-1.175-0.542-2.349-1.434-3.143c-0.78-0.693-1.82-1.01-2.85-1.047
			c-2.399-0.084-4.404,1.359-5.996,3.015C82.019,50.336,81.679,50.703,81.325,51.063z"/>
		<path fill="#F4CBDC" d="M45.865,43.173c0,0.848,6.19,2.072,17.378,2.072c11.191,0,17.379-1.225,17.379-2.072
			c0-0.845-6.188-2.069-17.379-2.069C52.056,41.104,45.865,42.328,45.865,43.173z"/>
		<path fill="#FDEBF3" d="M46.383,56.662c0.088,4.525,0.098,9.051,0.037,13.576c-0.017,1.255-0.04,2.514-0.067,3.769
			c-0.014,0.643-0.03,1.285-0.051,1.928c-0.017,0.626,0.008,1.266-0.124,1.878c-0.003,0.017-0.01,0.03-0.017,0.044
			c0.391,0.841,6.555,1.984,17.409,1.984c11.049,0,17.236-1.184,17.429-2.028c-0.003-0.004-0.003-0.004-0.003-0.007
			c-0.081-0.556-0.034-1.114-0.021-1.673c0.014-0.571,0.027-1.144,0.04-1.716c0.027-1.117,0.047-2.233,0.064-3.354
			c0.033-2.261,0.05-4.521,0.047-6.786c-0.004-3.54-0.051-7.08-0.142-10.619v-0.003c-0.033-0.071-0.03-0.139-0.003-0.192
			c-0.021-0.892-0.048-1.783-0.074-2.675c-0.04-1.255-0.084-2.51-0.131-3.769c-0.041-1.137-0.125-2.277-0.064-3.415
			c-1.508,1.289-9.71,1.979-17.47,1.979c-7.688,0-15.807-0.677-17.426-1.941c0.148,0.955,0.179,1.918,0.229,2.887
			c0.054,1.117,0.101,2.23,0.141,3.348C46.272,52.137,46.339,54.4,46.383,56.662z M53.796,57.056
			c0.04-0.599,0.198-1.161,0.545-1.652c0.322-0.454,0.736-0.857,1.171-1.208c0.427-0.343,0.915-0.643,1.46-0.747
			c0.605-0.121,1.241-0.014,1.848,0.051c1.269,0.142,2.61,0.356,3.674,1.11c0.687,0.484,1.252,1.178,1.49,1.979
			c0.037-0.054,0.078-0.104,0.114-0.155c0.327-0.42,0.69-0.811,1.057-1.197c0.337-0.356,0.697-0.696,1.124-0.949
			c0.471-0.279,1.01-0.44,1.541-0.552c1.713-0.354,3.894-0.222,5.067,1.255c1.208,1.515,0.926,3.694,0.417,5.424
			c-0.605,2.066-1.76,3.927-3.092,5.596c-0.777,0.97-1.618,1.885-2.483,2.776c-0.925,0.952-1.857,1.907-2.84,2.803
			c-0.037,0.033-0.077,0.044-0.114,0.037c-0.145,0.117-0.387,0.054-0.538-0.061c-0.431-0.316-0.875-0.603-1.34-0.861
			c-0.932-0.521-1.907-0.956-2.833-1.494c-0.962-0.559-1.816-1.238-2.51-2.113c-0.736-0.932-1.437-1.921-2.056-2.934
			c-0.629-1.023-1.157-2.124-1.417-3.301c-0.138-0.63-0.205-1.272-0.245-1.915C53.796,58.32,53.755,57.682,53.796,57.056z"/>
		<path fill="#FCDEEA" d="M79.18,43.942l-0.866,34.883c0,0-9.191,0.989-12.729,1.003V45.245
			C65.585,45.245,75.774,45.251,79.18,43.942z"/>
		<g>
			<g>
				<g>
					<path fill="#76183C" d="M45.684,47.019c0.047,1.259,0.091,2.514,0.131,3.769c0.138,4.495,0.216,8.994,0.222,13.489
						c0,2.265-0.014,4.525-0.05,6.786c-0.017,1.121-0.037,2.237-0.064,3.354c-0.014,0.572-0.023,1.145-0.04,1.716
						c-0.011,0.465-0.044,0.93-0.007,1.394c0.004,0.094,0.014,0.186,0.027,0.279c0.017,0.121,0.194,0.138,0.259,0.051
						c0.007-0.014,0.014-0.027,0.017-0.044c0.132-0.612,0.107-1.252,0.124-1.878c0.021-0.643,0.037-1.285,0.051-1.928
						c0.027-1.255,0.051-2.514,0.067-3.769c0.061-4.525,0.051-9.051-0.037-13.576c-0.044-2.262-0.11-4.525-0.195-6.787
						c-0.04-1.117-0.087-2.23-0.141-3.348c-0.051-0.969-0.081-1.932-0.229-2.887c-0.023-0.158-0.05-0.319-0.08-0.478
						c-0.007-0.048-0.077-0.034-0.081,0.01c-0.01,0.095-0.017,0.191-0.023,0.286C45.556,44.644,45.64,45.831,45.684,47.019z"/>
				</g>
			</g>
			<g>
				<g>
					<path fill="#76183C" d="M80.777,47.019c0.047,1.259,0.091,2.514,0.131,3.769c0.026,0.892,0.054,1.783,0.074,2.675
						c0.003,0.063,0.003,0.128,0.003,0.192v0.003c0.091,3.539,0.138,7.079,0.142,10.619c0.003,2.265-0.014,4.525-0.047,6.786
						c-0.018,1.121-0.037,2.237-0.064,3.354c-0.013,0.572-0.026,1.145-0.04,1.716c-0.014,0.559-0.061,1.117,0.021,1.673
						c0,0.003,0,0.003,0.003,0.007c0.023,0.131,0.246,0.131,0.272,0c0.014-0.067,0.027-0.135,0.037-0.202v-0.003
						c0.088-0.549,0.07-1.117,0.088-1.673c0.017-0.643,0.037-1.285,0.05-1.928c0.027-1.255,0.051-2.514,0.067-3.769
						c0.011-0.791,0.017-1.585,0.023-2.375c0.007-0.993,0.014-1.989,0.014-2.981c0.003-2.742-0.023-5.481-0.074-8.22
						c-0.017-0.812-0.033-1.625-0.057-2.437c-0.007-0.266-0.014-0.531-0.021-0.801c-0.023-0.787-0.047-1.574-0.074-2.361
						c-0.003-0.104-0.007-0.209-0.014-0.313c-0.01-0.293-0.02-0.582-0.029-0.875c-0.041-1.117-0.088-2.23-0.146-3.348
						c-0.051-1.043-0.084-2.076-0.259-3.105c-0.014-0.088-0.03-0.172-0.047-0.259c-0.011-0.048-0.078-0.034-0.084,0.01
						c-0.014,0.142-0.023,0.286-0.034,0.431C80.652,44.741,80.736,45.882,80.777,47.019z"/>
				</g>
			</g>
			<g>
				<path fill="#76183C" d="M45.528,43.173c0,0.098,0.037,0.191,0.104,0.286c0.047,0.061,0.107,0.121,0.185,0.182
					c1.619,1.265,9.737,1.941,17.426,1.941c7.76,0,15.962-0.689,17.47-1.979c0.07-0.061,0.125-0.121,0.165-0.182
					c0.054-0.081,0.081-0.165,0.081-0.249c0-1.562-9.129-2.406-17.716-2.406C54.657,40.767,45.528,41.611,45.528,43.173z
					 M45.865,43.173c0-0.845,6.19-2.069,17.378-2.069c11.191,0,17.379,1.225,17.379,2.069c0,0.848-6.188,2.072-17.379,2.072
					C52.056,45.245,45.865,44.021,45.865,43.173z"/>
			</g>
			<g>
				<path fill="#76183C" d="M45.805,77.771c0,1.565,9.155,2.406,17.766,2.406c8.613,0,17.769-0.841,17.769-2.406
					c0-0.057-0.01-0.11-0.03-0.161v-0.003c-0.007-0.018-0.014-0.03-0.023-0.047l-0.296,0.157c0.01,0.018,0.014,0.034,0.014,0.054
					c0,0.014,0,0.027-0.004,0.041c-0.192,0.845-6.38,2.028-17.429,2.028c-10.854,0-17.019-1.144-17.409-1.984
					c-0.014-0.027-0.021-0.058-0.021-0.085c0-0.029,0.014-0.063,0.041-0.101l-0.27-0.202c-0.014,0.021-0.027,0.037-0.037,0.058
					C45.828,77.607,45.805,77.688,45.805,77.771z"/>
			</g>
			<g>
				<g>
					<path fill="#76183C" d="M80.985,53.654v0.003c0.104,0.216,0.246,0.427,0.435,0.568c0.147,0.114,0.322,0.182,0.531,0.179
						c0.693-0.017,1.387-0.781,1.541-1.427c0.145-0.615,0.138-1.285,0.528-1.813c0.343-0.465,0.898-0.744,1.427-0.938
						c0.663-0.242,1.353-0.421,2.046-0.549c0.353-0.067,0.71-0.121,1.066-0.155c0.296-0.026,0.633-0.043,0.901,0.104
						c0.491,0.27,0.593,1.003,0.684,1.501c0.104,0.565,0.147,1.138,0.138,1.709c-0.04,2.288-0.962,4.569-2.591,6.188
						c-0.955,0.953-2.137,1.626-3.22,2.423c-1.023,0.754-2.009,1.625-2.618,2.76c-0.114,0.212-0.219,0.44-0.303,0.676
						c-0.34,0.898-0.454,1.918-0.094,2.807c0.023,0.057,0.05,0.114,0.08,0.175c0.202,0.396,0.549,0.754,1.01,0.811
						c0.535,0.067,0.969-0.303,1.188-0.764c0.272-0.572,0.186-1.194,0.31-1.797c0.128-0.622,0.623-1.063,1.08-1.467
						c0.908-0.801,1.952-1.424,2.938-2.116c0.992-0.7,1.915-1.478,2.591-2.493c0.703-1.054,1.147-2.262,1.504-3.47
						c0.72-2.439,1.592-5.407,0.186-7.775c-1.145-1.935-3.58-2.497-5.656-1.995c-1.161,0.279-2.218,0.898-3.143,1.642
						c-0.835,0.67-1.595,1.45-2.231,2.312c-0.098,0.135-0.191,0.27-0.285,0.407c-0.051,0.074,0.054,0.154,0.114,0.094
						c0.063-0.063,0.124-0.124,0.185-0.188c0.354-0.36,0.693-0.728,1.043-1.091c1.592-1.655,3.597-3.099,5.996-3.015
						c1.029,0.037,2.069,0.354,2.85,1.047c0.892,0.794,1.343,1.968,1.434,3.143c0.107,1.379-0.229,2.759-0.582,4.081
						c-0.319,1.204-0.656,2.419-1.204,3.54c-0.535,1.086-1.269,1.998-2.211,2.759c-0.915,0.74-1.932,1.336-2.88,2.029
						c-0.465,0.339-0.915,0.696-1.326,1.1c-0.434,0.431-0.771,0.875-0.864,1.494c-0.088,0.559-0.014,1.171-0.316,1.672
						c-0.121,0.202-0.303,0.377-0.545,0.397c-0.253,0.02-0.458-0.142-0.606-0.326c-0.353-0.424-0.431-1.037-0.413-1.568
						c0.017-0.599,0.188-1.194,0.454-1.729c0.555-1.127,1.494-1.985,2.483-2.729c1.043-0.784,2.18-1.454,3.132-2.352
						c0.791-0.751,1.443-1.652,1.921-2.632c0.966-1.968,1.266-4.276,0.718-6.41c-0.128-0.504-0.34-1.029-0.845-1.258
						c-0.552-0.253-1.245-0.104-1.82-0.014c-0.684,0.108-1.356,0.266-2.016,0.475c-0.528,0.168-1.057,0.374-1.508,0.7
						c-0.464,0.34-0.784,0.79-0.932,1.342c-0.121,0.461-0.095,1.01-0.344,1.427c-0.175,0.289-0.434,0.586-0.75,0.724
						c-0.39,0.172-0.633-0.107-0.794-0.444c-0.098-0.205-0.35-0.131-0.417,0.037C80.955,53.516,80.952,53.583,80.985,53.654z"/>
				</g>
			</g>
			<g>
				<g>
					<path fill="#76183C" d="M53.836,58.946c0.04,0.643,0.107,1.285,0.245,1.915c0.26,1.177,0.788,2.277,1.417,3.301
						c0.619,1.013,1.319,2.002,2.056,2.934c0.693,0.875,1.548,1.555,2.51,2.113c0.926,0.538,1.901,0.973,2.833,1.494
						c0.465,0.259,0.909,0.545,1.34,0.861c0.151,0.114,0.394,0.178,0.538,0.061c0.037,0.007,0.077-0.004,0.114-0.037
						c0.982-0.896,1.915-1.851,2.84-2.803c0.865-0.892,1.706-1.807,2.483-2.776c1.332-1.669,2.486-3.529,3.092-5.596
						c0.509-1.729,0.791-3.909-0.417-5.424c-1.174-1.477-3.354-1.608-5.067-1.255c-0.531,0.111-1.07,0.272-1.541,0.552
						c-0.427,0.253-0.787,0.593-1.124,0.949c-0.366,0.387-0.729,0.777-1.057,1.197c-0.036,0.051-0.077,0.102-0.114,0.155
						c-0.238-0.801-0.804-1.494-1.49-1.979c-1.063-0.754-2.405-0.969-3.674-1.11c-0.606-0.064-1.242-0.172-1.848-0.051
						c-0.545,0.104-1.033,0.404-1.46,0.747c-0.435,0.351-0.849,0.754-1.171,1.208c-0.347,0.491-0.505,1.054-0.545,1.652
						C53.755,57.682,53.796,58.32,53.836,58.946z M54.462,56.393c0.147-0.494,0.478-0.895,0.838-1.255
						c0.35-0.35,0.727-0.689,1.167-0.922c0.495-0.263,1.003-0.289,1.552-0.242c0.531,0.047,1.066,0.101,1.595,0.182
						c0.985,0.151,2.005,0.427,2.789,1.07c0.687,0.558,1.191,1.369,1.161,2.274c-0.014,0.354,0.508,0.356,0.538,0.013
						c0.007-0.043,0.007-0.087,0.014-0.131c0.01-0.021,0.023-0.044,0.033-0.063c0.044-0.051,0.074-0.128,0.111-0.186
						c0.141-0.229,0.306-0.447,0.478-0.652c0.35-0.424,0.72-0.842,1.117-1.222c0.798-0.764,1.844-1.073,2.924-1.175
						c1.692-0.154,3.613,0.311,4.273,2.057c0.303,0.811,0.316,1.699,0.212,2.547c-0.118,0.982-0.394,1.941-0.773,2.854
						c-0.784,1.9-2.006,3.597-3.345,5.141c-1.37,1.582-2.891,3.012-4.307,4.546c-0.067-0.117-0.206-0.198-0.347-0.158
						c-0.023-0.021-0.047-0.04-0.071-0.057c-0.047-0.034-0.091-0.064-0.135-0.098c-0.11-0.077-0.219-0.151-0.329-0.223
						c-0.223-0.145-0.451-0.282-0.684-0.413c-0.464-0.263-0.941-0.505-1.416-0.747c-0.945-0.475-1.901-0.956-2.729-1.619
						c-0.835-0.663-1.443-1.541-2.056-2.402c-0.606-0.845-1.195-1.709-1.666-2.638c-0.498-0.979-0.814-2.009-0.945-3.099
						c-0.074-0.593-0.098-1.188-0.115-1.783C54.33,57.459,54.307,56.911,54.462,56.393z"/>
				</g>
			</g>
		</g>
		<path fill="#EF4578" d="M54.347,57.991c0.018,0.596,0.041,1.19,0.115,1.783c0.131,1.09,0.447,2.12,0.945,3.099
			c0.471,0.929,1.06,1.793,1.666,2.638c0.612,0.861,1.221,1.739,2.056,2.402c0.827,0.663,1.783,1.145,2.729,1.619
			c0.475,0.242,0.952,0.484,1.416,0.747c0.232,0.131,0.461,0.269,0.684,0.413c0.11,0.071,0.219,0.146,0.329,0.223
			c0.044,0.033,0.088,0.063,0.135,0.098c0.024,0.017,0.048,0.036,0.071,0.057c0.141-0.04,0.279,0.041,0.347,0.158
			c1.416-1.534,2.937-2.964,4.307-4.546c1.339-1.544,2.561-3.24,3.345-5.141c0.38-0.912,0.655-1.871,0.773-2.854
			c0.104-0.848,0.091-1.736-0.212-2.547c-0.66-1.746-2.581-2.211-4.273-2.057c-1.08,0.102-2.126,0.411-2.924,1.175
			c-0.397,0.38-0.768,0.798-1.117,1.222c-0.172,0.205-0.337,0.424-0.478,0.652c-0.037,0.058-0.067,0.135-0.111,0.186
			c-0.01,0.02-0.023,0.043-0.033,0.063c-0.007,0.044-0.007,0.088-0.014,0.131c-0.03,0.344-0.552,0.341-0.538-0.013
			c0.03-0.905-0.475-1.717-1.161-2.274c-0.784-0.644-1.804-0.919-2.789-1.07c-0.528-0.081-1.063-0.135-1.595-0.182
			c-0.549-0.047-1.057-0.021-1.552,0.242c-0.44,0.232-0.817,0.572-1.167,0.922c-0.36,0.36-0.69,0.761-0.838,1.255
			C54.307,56.911,54.33,57.459,54.347,57.991z"/>
	</g>
	<g>
		<path fill="#76183C" d="M79.526,59.67c0.006,0.01,0.012,0.021,0.018,0.03c0.003,0.006,0.006,0.011,0.009,0.017
			c0.006,0.01,0.012,0.019,0.021,0.026c0.007,0.006,0.016,0.013,0.023,0.017c0.016,0.009,0.034,0.013,0.052,0.013
			c0.009,0.001,0.019-0.001,0.026-0.004c0,0,0-0.001,0.001-0.001c0.006-0.002,0.02-0.008,0.025-0.012
			c0.013-0.007,0.021-0.016,0.029-0.028c0.003-0.003,0.006-0.008,0.009-0.012c0.001-0.002,0.001-0.003,0.002-0.004
			c0.003-0.006,0.006-0.011,0.009-0.017c0.006-0.01,0.013-0.021,0.019-0.032c0.025-0.043,0.022-0.1-0.003-0.142
			c-0.026-0.043-0.074-0.068-0.123-0.067c-0.05,0.002-0.096,0.03-0.12,0.073c-0.012,0.022-0.018,0.046-0.018,0.071
			C79.506,59.624,79.513,59.647,79.526,59.67L79.526,59.67z"/>
	</g>
	<g>
		<g>
			<path fill="#76183C" d="M78.835,79.013c1.689,0.104,3.391,0.089,5.083,0.096c1.693,0.007,3.388,0.004,5.082-0.008
				c0.956-0.007,1.913-0.017,2.869-0.065c0.036-0.002,0.035-0.055-0.001-0.056c-1.693-0.041-3.389-0.001-5.083,0.003
				s-3.388-0.005-5.082-0.012c-0.956-0.004-1.913-0.022-2.869,0.009C78.812,78.979,78.813,79.012,78.835,79.013L78.835,79.013z"/>
		</g>
		<g>
			<path fill="#76183C" d="M80.672,78.187c0.381,0.057,0.779,0.042,1.164,0.047c0.386,0.005,0.772,0.006,1.158,0.005
				c0.784-0.002,1.569-0.009,2.354-0.013c1.582-0.009,3.164-0.029,4.744-0.096c0.055-0.002,0.053-0.083-0.002-0.085
				c-1.582-0.04-3.164-0.034-4.747-0.017c-0.784,0.009-1.569,0.015-2.354,0.025c-0.386,0.006-0.771,0.014-1.157,0.025
				c-0.384,0.011-0.781,0.003-1.161,0.065C80.649,78.147,80.65,78.184,80.672,78.187L80.672,78.187z"/>
		</g>
		<g>
			<path fill="#76183C" d="M62.231,81.181c0.649,0.229,1.334,0.276,2.019,0.267c0.736-0.009,1.473-0.06,2.209-0.092
				c1.521-0.067,3.044-0.128,4.565-0.176c3.059-0.096,6.117-0.141,9.177-0.135c1.717,0.003,3.434,0.022,5.149,0.034
				c0.046,0.001,0.044-0.068-0.002-0.07c-3.031-0.101-6.067-0.095-9.1-0.058c-3.033,0.038-6.067,0.116-9.097,0.265
				c-0.824,0.041-1.648,0.093-2.473,0.13c-0.819,0.037-1.645,0.022-2.444-0.182C62.225,81.161,62.221,81.177,62.231,81.181
				L62.231,81.181z"/>
		</g>
		<g>
			<path fill="#76183C" d="M38.152,78.285c1.448,0.125,2.898,0.196,4.352,0.194c0.719-0.001,1.438-0.021,2.156-0.053
				c0.359-0.017,0.718-0.036,1.077-0.059c0.342-0.022,0.713-0.015,1.048-0.091c0.05-0.011,0.032-0.08-0.013-0.083
				c-0.353-0.021-0.724,0.044-1.076,0.066c-0.359,0.022-0.718,0.041-1.077,0.057c-0.719,0.031-1.438,0.047-2.157,0.054
				c-1.437,0.013-2.875-0.015-4.31-0.099C38.145,78.272,38.146,78.284,38.152,78.285L38.152,78.285z"/>
		</g>
		<g>
			<path fill="#76183C" d="M42.627,79.53c2.631,0.07,5.266,0.081,7.896,0.005c0.748-0.022,1.499-0.027,2.242-0.116
				c0.055-0.007,0.054-0.083-0.002-0.085c-0.658-0.032-1.315,0-1.974,0.017s-1.315,0.035-1.974,0.05
				c-1.315,0.031-2.63,0.06-3.946,0.077c-0.748,0.01-1.495,0.036-2.243,0.048C42.624,79.525,42.624,79.53,42.627,79.53L42.627,79.53
				z"/>
		</g>
		<g>
			<path fill="#76183C" d="M35.188,80.504c3.883-0.078,7.771-0.069,11.653,0.013c1.097,0.022,2.193,0.06,3.29,0.069
				c0.028,0,0.026-0.042-0.001-0.044c-1.933-0.111-3.872-0.128-5.807-0.148c-1.949-0.021-3.897-0.01-5.847,0.021
				c-1.097,0.018-2.193,0.043-3.29,0.074C35.179,80.489,35.179,80.504,35.188,80.504L35.188,80.504z"/>
		</g>
		<g>
			<path fill="#76183C" d="M8.372,71.495c2.727-0.009,5.452-0.07,8.178-0.116c0.767-0.014,1.55,0.018,2.314-0.051
				c0.074-0.007,0.071-0.112-0.003-0.116c-0.677-0.034-1.367,0.019-2.045,0.033c-0.681,0.016-1.362,0.03-2.044,0.045
				c-1.362,0.03-2.726,0.05-4.088,0.092c-0.771,0.024-1.543,0.045-2.313,0.072C8.344,71.455,8.346,71.495,8.372,71.495L8.372,71.495
				z"/>
		</g>
		<g>
			<path fill="#76183C" d="M18.687,72.939c3.207,0.091,6.413,0.099,9.62,0.043c0.901-0.016,1.821,0.02,2.713-0.115
				c0.068-0.011,0.066-0.1-0.002-0.107c-0.797-0.083-1.605-0.025-2.406-0.011c-0.801,0.014-1.603,0.024-2.404,0.037
				c-1.603,0.025-3.205,0.059-4.808,0.083c-0.904,0.015-1.809,0.039-2.713,0.059C18.678,72.928,18.679,72.939,18.687,72.939
				L18.687,72.939z"/>
		</g>
		<g>
			<path fill="#76183C" d="M81.354,70.954c0.366,0.057,0.756,0.014,1.125,0.009c0.388-0.005,0.774-0.011,1.161-0.016
				c0.787-0.012,1.574-0.021,2.361-0.034c1.573-0.024,3.146-0.076,4.72-0.121c0.9-0.024,1.813-0.027,2.707-0.135
				c0.08-0.01,0.078-0.121-0.003-0.126c-0.783-0.048-1.578-0.012-2.361,0.012c-0.787,0.023-1.573,0.047-2.36,0.07
				c-1.573,0.048-3.146,0.112-4.719,0.182c-0.451,0.021-0.902,0.04-1.354,0.06c-0.418,0.019-0.867-0.007-1.278,0.081
				C81.345,70.938,81.345,70.953,81.354,70.954L81.354,70.954z"/>
		</g>
		<g>
			<path fill="#76183C" d="M86.71,71.825c-0.957-0.013-1.912-0.024-2.869-0.027c-0.467-0.001-0.935-0.014-1.4-0.004
				c-0.224,0.006-0.447,0.02-0.669,0.052c-0.11,0.017-0.221,0.044-0.331,0.051c-0.124,0.008-0.235-0.025-0.355-0.045
				c-0.053-0.009-0.108,0.063-0.056,0.103c0.142,0.111,0.31,0.086,0.479,0.061c0.238-0.035,0.471-0.083,0.711-0.102
				c0.489-0.036,0.981-0.021,1.472-0.019c1.007,0.005,2.014,0.003,3.021-0.002C86.755,71.893,86.753,71.826,86.71,71.825
				L86.71,71.825z"/>
		</g>
		<g>
			<path fill="#76183C" d="M46.249,74.594c-1.38-0.064-2.763-0.016-4.143,0.047c-1.367,0.063-2.733,0.118-4.101,0.17
				c-0.787,0.029-1.573,0.071-2.359,0.117c-0.03,0.002-0.03,0.049,0.001,0.049c1.382-0.011,2.762-0.051,4.142-0.091
				c1.367-0.04,2.734-0.063,4.102-0.109c0.791-0.027,1.572-0.081,2.358-0.17C46.257,74.605,46.257,74.595,46.249,74.594
				L46.249,74.594z"/>
		</g>
		<g>
			<path fill="#76183C" d="M37.063,74.24c-1.438-0.099-2.903-0.184-4.345-0.121c-0.048,0.002-0.044,0.068,0.002,0.073
				c1.436,0.13,2.903,0.115,4.344,0.084C37.088,74.275,37.087,74.242,37.063,74.24L37.063,74.24z"/>
		</g>
		<g>
			<path fill="#76183C" d="M79.608,60.997c-0.003,0.256-0.047,0.512-0.054,0.769c-0.007,0.256,0.004,0.512,0.012,0.768
				c0.015,0.498,0.024,0.997,0.029,1.496c0.01,1.006-0.021,2.026,0.064,3.029c0.004,0.042,0.072,0.056,0.079,0.009
				c0.132-0.988,0.115-2.011,0.101-3.006c-0.007-0.499-0.02-0.997-0.037-1.496c-0.009-0.256-0.017-0.512-0.042-0.767
				c-0.027-0.271-0.099-0.534-0.128-0.803C79.631,60.98,79.608,60.981,79.608,60.997L79.608,60.997z"/>
		</g>
	</g>
	<g>
		<g>
			<path fill="#EF4578" d="M62.27,40.94c-0.284-0.473-0.791-0.823-1.341-0.85c-0.551-0.027-1.119,0.307-1.302,0.826
				c-0.217,0.619,0.123,1.295,0.539,1.804c0.65,0.794,1.515,1.412,2.478,1.771c0.614-0.434,1.179-0.938,1.678-1.5
				c0.388-0.438,0.745-0.928,0.876-1.498c0.131-0.569-0.012-1.234-0.475-1.591c-0.399-0.307-0.972-0.33-1.435-0.13
				c-0.462,0.199-0.819,0.594-1.057,1.038L62.27,40.94z"/>
			<g>
				<path fill="#76183C" d="M62.323,40.924c-0.39-1.132-2.062-1.318-2.713-0.327c-0.749,1.142,0.549,2.507,1.391,3.157
					c0.243,0.188,0.499,0.358,0.768,0.508c0.138,0.076,0.278,0.146,0.421,0.211c0.126,0.058,0.299,0.163,0.438,0.173
					c0.13,0.01,0.277-0.149,0.375-0.223c0.137-0.105,0.271-0.213,0.404-0.324c0.27-0.228,0.527-0.47,0.772-0.725
					c0.785-0.821,1.686-2.088,0.965-3.234c-0.355-0.565-1.057-0.774-1.688-0.62c-0.322,0.078-0.615,0.257-0.857,0.48
					c-0.204,0.188-0.579,0.555-0.514,0.855c0.017,0.078,0.118,0.13,0.192,0.103c0.219-0.081,0.327-0.387,0.48-0.556
					c0.17-0.188,0.375-0.354,0.608-0.458c0.472-0.214,1.083-0.174,1.43,0.245c0.766,0.922-0.052,2.118-0.7,2.822
					c-0.462,0.502-0.977,0.952-1.533,1.346c0.04-0.006,0.08-0.012,0.12-0.019c-0.621-0.236-1.2-0.582-1.704-1.016
					c-0.493-0.425-1.004-0.96-1.196-1.6c-0.196-0.655,0.139-1.276,0.81-1.446c0.658-0.168,1.204,0.267,1.641,0.703
					C62.27,41.02,62.341,40.977,62.323,40.924z"/>
			</g>
		</g>
		<g>
			<path fill="#EF4578" d="M61.761,14.787c-0.344-0.709-1.02-1.272-1.799-1.383c-0.779-0.109-1.632,0.292-1.959,1.009
				c-0.39,0.854,0.008,1.859,0.534,2.636c0.822,1.216,1.974,2.207,3.297,2.841c0.931-0.537,1.799-1.183,2.582-1.918
				c0.608-0.572,1.181-1.225,1.44-2.019s0.144-1.759-0.471-2.325c-0.528-0.489-1.34-0.596-2.024-0.372
				c-0.684,0.225-1.243,0.741-1.638,1.343L61.761,14.787z"/>
			<g>
				<path fill="#76183C" d="M61.814,14.771c-0.242-0.771-0.967-1.362-1.759-1.504c-0.756-0.135-1.578,0.165-2.029,0.795
					c-0.543,0.757-0.346,1.734,0.044,2.511c0.41,0.814,1.043,1.546,1.723,2.148c0.339,0.301,0.703,0.574,1.086,0.818
					c0.177,0.112,0.357,0.219,0.543,0.317c0.101,0.054,0.202,0.113,0.308,0.156c0.131,0.054,0.189,0.01,0.308-0.061
					c0.865-0.513,1.676-1.118,2.413-1.803c0.665-0.616,1.303-1.328,1.572-2.213c0.229-0.753,0.141-1.646-0.377-2.262
					c-0.615-0.734-1.709-0.875-2.563-0.517c-0.456,0.191-0.853,0.499-1.178,0.87c-0.124,0.142-0.369,0.372-0.336,0.573
					c0.012,0.072,0.04,0.101,0.096,0.143c0.023,0.017,0.083,0.058,0.08,0.048c0.005,0.02,0.034,0.011,0.031-0.01
					c0.002,0.013,0.005,0.002,0.024-0.026c0.02-0.027,0.038-0.056,0.058-0.083c-0.03,0.024-0.061,0.049-0.091,0.073
					c0.163-0.047,0.247-0.224,0.349-0.35c0.127-0.156,0.266-0.303,0.416-0.435c0.278-0.246,0.61-0.445,0.968-0.552
					c0.71-0.212,1.566-0.049,2.004,0.591c0.404,0.592,0.407,1.383,0.161,2.036c-0.296,0.787-0.904,1.415-1.516,1.971
					c-0.733,0.668-1.539,1.252-2.397,1.748c0.053-0.001,0.105-0.002,0.158-0.004c-1.362-0.661-2.585-1.705-3.378-3.004
					c-0.396-0.649-0.729-1.515-0.391-2.259c0.278-0.609,0.955-0.96,1.61-0.949c0.847,0.015,1.497,0.627,1.961,1.276
					C61.749,14.866,61.834,14.834,61.814,14.771z"/>
			</g>
		</g>
		<g>
			<path fill="#F285B6" d="M37.078,32.848c-0.284-0.472-0.791-0.822-1.341-0.85c-0.551-0.027-1.119,0.307-1.302,0.827
				c-0.217,0.619,0.124,1.295,0.539,1.803c0.65,0.795,1.516,1.413,2.478,1.771c0.614-0.434,1.179-0.938,1.678-1.5
				c0.388-0.438,0.745-0.929,0.876-1.498c0.131-0.57-0.011-1.234-0.475-1.591c-0.399-0.307-0.972-0.33-1.435-0.131
				c-0.462,0.2-0.819,0.595-1.057,1.039L37.078,32.848z"/>
			<g>
				<path fill="#76183C" d="M37.132,32.832c-0.39-1.132-2.062-1.318-2.713-0.327c-0.749,1.142,0.55,2.507,1.391,3.157
					c0.242,0.188,0.499,0.358,0.768,0.507c0.138,0.077,0.278,0.147,0.422,0.212c0.125,0.057,0.298,0.163,0.437,0.173
					c0.13,0.009,0.277-0.149,0.374-0.224c0.138-0.104,0.272-0.213,0.405-0.323c0.271-0.228,0.528-0.47,0.771-0.725
					c0.786-0.821,1.687-2.088,0.966-3.235c-0.355-0.564-1.057-0.773-1.688-0.619c-0.322,0.078-0.615,0.256-0.857,0.48
					c-0.204,0.188-0.579,0.555-0.514,0.855c0.017,0.078,0.119,0.13,0.192,0.103c0.219-0.081,0.327-0.387,0.48-0.556
					c0.171-0.188,0.375-0.354,0.608-0.459c0.472-0.213,1.083-0.173,1.431,0.245c0.765,0.922-0.052,2.118-0.701,2.822
					c-0.462,0.503-0.977,0.953-1.533,1.347c0.04-0.006,0.08-0.013,0.12-0.019c-0.621-0.236-1.2-0.582-1.704-1.016
					c-0.493-0.425-1.004-0.961-1.195-1.6c-0.197-0.655,0.138-1.276,0.809-1.446c0.658-0.168,1.204,0.267,1.641,0.703
					C37.079,32.928,37.15,32.885,37.132,32.832z"/>
			</g>
		</g>
		<g>
			<path fill="#F285B6" d="M30.518,28.143c-0.441-0.329-1.043-0.462-1.563-0.279s-0.92,0.707-0.893,1.258
				c0.033,0.655,0.604,1.152,1.181,1.465c0.902,0.49,1.937,0.735,2.963,0.703c0.405-0.633,0.737-1.313,0.986-2.022
				c0.194-0.552,0.34-1.142,0.245-1.718c-0.094-0.577-0.478-1.139-1.041-1.294c-0.485-0.133-1.024,0.062-1.377,0.422
				c-0.353,0.359-0.534,0.86-0.586,1.361L30.518,28.143z"/>
			<g>
				<path fill="#76183C" d="M30.557,28.103c-0.782-0.891-2.426-0.437-2.632,0.735c-0.222,1.265,1.276,2.003,2.254,2.321
					c0.616,0.201,1.346,0.351,1.997,0.288c0.16-0.016,0.201-0.133,0.279-0.262c0.098-0.16,0.19-0.324,0.279-0.49
					c0.165-0.311,0.313-0.631,0.444-0.958c0.432-1.077,0.82-2.633-0.319-3.433c-0.527-0.37-1.25-0.311-1.762,0.062
					c-0.267,0.193-0.479,0.457-0.619,0.756c-0.116,0.249-0.341,0.74-0.176,0.997c0.055,0.085,0.171,0.095,0.242,0.025
					c0.115-0.112,0.11-0.282,0.146-0.432c0.04-0.168,0.097-0.331,0.175-0.484c0.153-0.3,0.371-0.549,0.671-0.708
					c0.602-0.319,1.24-0.062,1.562,0.512c0.37,0.66,0.201,1.451-0.03,2.128c-0.248,0.722-0.588,1.41-0.998,2.053
					c0.044-0.026,0.089-0.054,0.133-0.08c-0.719,0.017-1.431-0.098-2.108-0.339c-0.587-0.21-1.235-0.517-1.619-1.029
					c-0.373-0.5-0.312-1.137,0.167-1.545c0.548-0.468,1.253-0.279,1.85-0.027C30.55,28.217,30.6,28.151,30.557,28.103z"/>
			</g>
		</g>
		<g>
			<path fill="#EF4578" d="M44.934,25.438c-0.028-0.699-0.379-1.399-0.976-1.766s-1.435-0.341-1.955,0.127
				c-0.62,0.558-0.653,1.519-0.5,2.338c0.239,1.283,0.825,2.499,1.68,3.486c0.948-0.107,1.885-0.325,2.785-0.647
				c0.699-0.25,1.396-0.579,1.891-1.134c0.493-0.555,0.74-1.382,0.441-2.063c-0.257-0.586-0.881-0.961-1.518-1.021
				c-0.638-0.06-1.276,0.162-1.813,0.513L44.934,25.438z"/>
			<g>
				<path fill="#76183C" d="M44.987,25.452c0.087-0.699-0.266-1.409-0.828-1.824c-0.549-0.403-1.31-0.483-1.922-0.177
					c-1.418,0.71-0.99,2.752-0.559,3.927c0.283,0.769,0.689,1.489,1.202,2.128c0.115,0.143,0.184,0.284,0.378,0.266
					c0.233-0.021,0.466-0.063,0.695-0.103c0.459-0.08,0.912-0.187,1.359-0.317c1.399-0.41,3.203-1.162,3.271-2.871
					c0.032-0.816-0.514-1.506-1.262-1.785c-0.399-0.149-0.836-0.17-1.253-0.093c-0.239,0.045-0.47,0.121-0.692,0.221
					c-0.18,0.08-0.464,0.179-0.542,0.373c-0.028,0.07-0.021,0.13,0.029,0.187c0.02,0.022,0.039,0.045,0.059,0.067
					c0.005,0.006,0.013,0.005,0.02,0.002c0.105-0.048,0.089-0.014,0.185-0.053c0.178-0.071,0.338-0.188,0.518-0.26
					c0.342-0.137,0.707-0.215,1.076-0.196c0.625,0.032,1.275,0.402,1.481,1.019c0.212,0.635-0.06,1.35-0.498,1.822
					c-0.494,0.531-1.178,0.833-1.851,1.069c-0.866,0.304-1.764,0.509-2.675,0.613c0.037,0.015,0.074,0.029,0.111,0.043
					c-0.895-1.047-1.557-2.412-1.687-3.795c-0.056-0.586-0.003-1.256,0.417-1.709c0.423-0.457,1.138-0.538,1.693-0.29
					c0.696,0.313,1.002,1.04,1.166,1.739C44.893,25.506,44.98,25.507,44.987,25.452z"/>
			</g>
		</g>
		<g>
			<path fill="#EC2250" d="M36.317,15.215c-0.54-0.773-1.445-1.313-2.389-1.295s-1.875,0.655-2.126,1.564
				c-0.299,1.083,0.361,2.197,1.131,3.016c1.203,1.282,2.752,2.236,4.438,2.735c0.999-0.812,1.903-1.738,2.69-2.757
				c0.611-0.793,1.164-1.672,1.321-2.66c0.157-0.989-0.163-2.107-0.997-2.661c-0.717-0.479-1.698-0.451-2.464-0.057
				c-0.767,0.396-1.331,1.111-1.685,1.897L36.317,15.215z"/>
			<g>
				<path fill="#76183C" d="M36.365,15.186c-0.449-0.848-1.396-1.394-2.352-1.416c-0.917-0.022-1.856,0.511-2.245,1.354
					c-0.448,0.973-0.056,2.047,0.533,2.863c0.628,0.869,1.481,1.595,2.375,2.178c0.458,0.299,0.94,0.559,1.441,0.778
					c0.238,0.104,0.48,0.2,0.726,0.287c0.201,0.07,0.48,0.236,0.667,0.093c0.921-0.71,1.745-1.589,2.47-2.494
					c0.686-0.854,1.345-1.808,1.54-2.907c0.161-0.904-0.038-1.92-0.689-2.596c-0.692-0.719-1.807-0.859-2.716-0.514
					c-0.471,0.179-0.89,0.477-1.233,0.843c-0.169,0.182-0.321,0.379-0.457,0.586c-0.125,0.189-0.323,0.452-0.35,0.683
					c-0.01,0.088,0.023,0.16,0.091,0.212c0.025,0.021,0.128,0.06,0.137,0.084c0.007,0.02,0.037,0.011,0.03-0.009
					c-0.011-0.03,0.044-0.141,0.055-0.174c-0.023,0.031-0.046,0.063-0.069,0.094c0.172-0.094,0.247-0.353,0.344-0.518
					c0.124-0.211,0.265-0.411,0.426-0.596c0.289-0.333,0.639-0.623,1.04-0.809c0.831-0.385,1.883-0.316,2.524,0.383
					c0.595,0.647,0.722,1.62,0.53,2.451c-0.226,0.979-0.825,1.83-1.447,2.601c-0.736,0.912-1.568,1.745-2.478,2.485
					c0.05-0.016,0.101-0.03,0.151-0.045c-1.761-0.529-3.441-1.564-4.622-2.987c-0.578-0.697-1.09-1.643-0.831-2.573
					c0.219-0.785,0.99-1.346,1.782-1.438c1.003-0.115,1.886,0.468,2.541,1.17C36.325,15.304,36.394,15.239,36.365,15.186z"/>
			</g>
		</g>
		<g>
			<path fill="#F285B6" d="M55.16,24.877c-0.284-0.472-0.791-0.822-1.341-0.85C53.269,24,52.7,24.335,52.518,24.854
				c-0.218,0.619,0.123,1.295,0.539,1.803c0.65,0.795,1.515,1.413,2.477,1.771c0.615-0.434,1.18-0.938,1.678-1.5
				c0.389-0.438,0.746-0.929,0.877-1.498c0.131-0.57-0.012-1.234-0.475-1.591c-0.399-0.307-0.973-0.33-1.435-0.131
				c-0.462,0.2-0.819,0.595-1.058,1.039L55.16,24.877z"/>
			<g>
				<path fill="#76183C" d="M55.213,24.861c-0.389-1.132-2.062-1.319-2.712-0.327c-0.75,1.142,0.549,2.507,1.39,3.157
					c0.243,0.188,0.5,0.358,0.769,0.507c0.137,0.076,0.277,0.147,0.421,0.212c0.126,0.057,0.299,0.163,0.437,0.173
					c0.13,0.009,0.278-0.149,0.375-0.224c0.138-0.104,0.272-0.213,0.404-0.323c0.271-0.228,0.528-0.47,0.772-0.725
					c0.786-0.821,1.687-2.088,0.965-3.235c-0.355-0.564-1.056-0.773-1.688-0.619c-0.323,0.078-0.616,0.256-0.858,0.48
					c-0.203,0.188-0.578,0.555-0.513,0.855c0.017,0.078,0.118,0.13,0.191,0.103c0.219-0.081,0.328-0.387,0.48-0.556
					c0.171-0.188,0.376-0.354,0.608-0.459c0.472-0.213,1.084-0.173,1.431,0.246c0.765,0.921-0.052,2.117-0.7,2.821
					c-0.463,0.502-0.977,0.953-1.534,1.347c0.04-0.006,0.08-0.013,0.12-0.019c-0.62-0.236-1.2-0.582-1.703-1.016
					c-0.494-0.425-1.004-0.961-1.196-1.6c-0.197-0.655,0.139-1.276,0.809-1.447c0.658-0.167,1.205,0.268,1.641,0.704
					C55.16,24.957,55.231,24.914,55.213,24.861z"/>
			</g>
		</g>
		<g>
			<path fill="#EF4578" d="M70.363,38.244c-0.045-0.631-0.38-1.252-0.928-1.566c-0.549-0.313-1.304-0.268-1.761,0.168
				c-0.544,0.521-0.548,1.388-0.387,2.123c0.251,1.15,0.813,2.231,1.61,3.099c0.854-0.123,1.692-0.346,2.495-0.66
				c0.624-0.245,1.244-0.562,1.674-1.075c0.431-0.515,0.631-1.268,0.342-1.873c-0.248-0.521-0.821-0.843-1.397-0.879
				c-0.576-0.037-1.146,0.182-1.62,0.512L70.363,38.244z"/>
			<g>
				<path fill="#76183C" d="M70.418,38.257c0.147-1.327-1.373-2.388-2.559-1.74c-1.277,0.697-0.807,2.573-0.368,3.631
					c0.278,0.669,0.658,1.29,1.129,1.841c0.128,0.149,0.185,0.251,0.39,0.22c0.202-0.032,0.405-0.067,0.606-0.109
					c0.41-0.086,0.815-0.194,1.214-0.325c1.256-0.412,2.895-1.162,2.87-2.727c-0.012-0.742-0.539-1.346-1.231-1.568
					c-0.377-0.121-0.787-0.118-1.171-0.024c-0.211,0.051-0.414,0.132-0.609,0.229c-0.177,0.087-0.378,0.177-0.446,0.372
					c-0.017,0.046,0.004,0.118,0.043,0.148c0.083,0.064,0.137,0.062,0.24,0.026c0.149-0.051,0.289-0.17,0.433-0.237
					c0.165-0.077,0.341-0.137,0.519-0.176c0.607-0.136,1.332,0.019,1.7,0.559c0.372,0.543,0.212,1.273-0.159,1.772
					c-0.4,0.539-1.03,0.858-1.64,1.1c-0.798,0.316-1.634,0.539-2.482,0.663c0.037,0.015,0.074,0.029,0.111,0.043
					c-0.821-0.904-1.438-2.08-1.615-3.298c-0.078-0.534-0.063-1.165,0.303-1.599c0.364-0.431,1.006-0.528,1.517-0.319
					c0.635,0.26,0.92,0.906,1.099,1.522C70.324,38.309,70.411,38.314,70.418,38.257z"/>
			</g>
		</g>
		<g>
			<path fill="#EC2250" d="M62.605,30.099c-0.53-0.563-1.329-0.894-2.092-0.768c-0.764,0.126-1.444,0.754-1.54,1.521
				c-0.114,0.914,0.554,1.74,1.274,2.313c1.129,0.897,2.498,1.488,3.925,1.693c0.714-0.776,1.338-1.636,1.855-2.556
				c0.402-0.715,0.747-1.494,0.757-2.314c0.011-0.82-0.382-1.689-1.123-2.041c-0.639-0.303-1.432-0.164-2.007,0.246
				c-0.574,0.411-0.947,1.06-1.141,1.739L62.605,30.099z"/>
			<g>
				<path fill="#76183C" d="M62.652,30.069c-0.468-0.675-1.355-1.016-2.163-0.887c-0.747,0.12-1.424,0.676-1.626,1.416
					c-0.226,0.826,0.212,1.633,0.767,2.219c0.611,0.645,1.409,1.145,2.212,1.514c0.409,0.188,0.834,0.345,1.268,0.465
					c0.21,0.059,0.423,0.108,0.638,0.149c0.205,0.04,0.428,0.134,0.586-0.031c0.679-0.702,1.255-1.541,1.743-2.384
					c0.465-0.803,0.891-1.706,0.862-2.655c-0.022-0.739-0.346-1.501-0.967-1.93c-0.778-0.535-1.848-0.371-2.56,0.197
					c-0.374,0.298-0.661,0.691-0.862,1.124c-0.08,0.173-0.249,0.468-0.203,0.664c0.032,0.136,0.141,0.154,0.255,0.184
					c0.009,0.002,0.017-0.004,0.019-0.012c0.015-0.044,0.029-0.089,0.044-0.133c-0.023,0.031-0.046,0.063-0.068,0.094
					c0.144-0.097,0.167-0.273,0.229-0.428c0.067-0.173,0.149-0.341,0.243-0.5c0.187-0.315,0.435-0.607,0.736-0.816
					c0.605-0.419,1.461-0.531,2.071-0.06c0.539,0.418,0.778,1.137,0.756,1.801c-0.029,0.846-0.424,1.634-0.843,2.351
					c-0.491,0.84-1.071,1.622-1.729,2.339c0.051-0.015,0.102-0.029,0.151-0.044c-1.484-0.222-2.965-0.849-4.089-1.856
					c-0.525-0.471-1.024-1.108-1-1.851c0.021-0.675,0.547-1.246,1.169-1.455c0.814-0.273,1.631,0.11,2.276,0.595
					C62.613,30.174,62.692,30.126,62.652,30.069z"/>
			</g>
		</g>
		<g>
			<path fill="#EF4578" d="M75.996,23.147c0.03-1.034-0.414-2.102-1.256-2.703c-0.841-0.602-2.079-0.65-2.895-0.015
				c-0.972,0.758-1.12,2.171-0.979,3.395c0.221,1.916,0.959,3.77,2.116,5.313c1.41-0.061,2.813-0.285,4.172-0.667
				c1.057-0.297,2.12-0.709,2.904-1.477c0.785-0.768,1.235-1.961,0.864-2.995c-0.318-0.89-1.2-1.508-2.133-1.662
				c-0.933-0.153-1.898,0.107-2.724,0.568L75.996,23.147z"/>
			<g>
				<path fill="#76183C" d="M76.051,23.161c0.144-1.021-0.302-2.113-1.112-2.756c-0.805-0.638-1.975-0.792-2.89-0.297
					c-0.905,0.489-1.285,1.509-1.367,2.483c-0.095,1.121,0.141,2.291,0.48,3.355c0.365,1.142,0.917,2.227,1.628,3.191
					c0.101,0.136,0.137,0.158,0.309,0.149c0.173-0.009,0.346-0.02,0.519-0.033c0.333-0.026,0.666-0.062,0.997-0.105
					c0.665-0.089,1.324-0.212,1.975-0.371c1.153-0.282,2.344-0.652,3.279-1.41c0.818-0.665,1.417-1.697,1.337-2.779
					c-0.077-1.053-0.835-1.903-1.798-2.275c-0.535-0.206-1.125-0.26-1.691-0.182c-0.297,0.041-0.589,0.109-0.872,0.207
					c-0.14,0.048-0.276,0.102-0.411,0.161c-0.135,0.061-0.314,0.124-0.426,0.225c-0.067,0.062-0.1,0.141-0.085,0.23
					c0.008,0.047,0.071,0.146,0.06,0.188c-0.006,0.02,0.024,0.027,0.03,0.008c0.013-0.043,0.13-0.108,0.167-0.141
					c-0.036,0.017-0.071,0.032-0.107,0.048c0.129,0.01,0.226-0.059,0.34-0.112c0.128-0.06,0.257-0.117,0.389-0.168
					c0.252-0.098,0.513-0.176,0.778-0.227c0.514-0.099,1.053-0.095,1.556,0.056c0.877,0.261,1.642,0.962,1.751,1.903
					c0.114,0.976-0.404,1.928-1.126,2.551c-0.787,0.679-1.803,1.031-2.791,1.3c-1.303,0.354-2.641,0.559-3.988,0.618
					c0.046,0.024,0.091,0.05,0.137,0.074c-1.244-1.673-2.102-3.8-2.135-5.904c-0.015-0.874,0.153-1.84,0.813-2.468
					c0.696-0.663,1.807-0.701,2.629-0.256c0.989,0.536,1.411,1.659,1.517,2.723C75.946,23.207,76.041,23.228,76.051,23.161z"/>
			</g>
		</g>
		<g>
			<path fill="#76183C" d="M79.311,47.309c-0.028,0.724-0.045,1.44-0.033,2.165c0.011,0.708,0.027,1.416,0.041,2.125
				c0.028,1.442,0.058,2.884,0.085,4.326c0.007,0.399,0.011,0.799,0.027,1.197c0.016,0.385,0.021,0.789,0.093,1.168
				c0.008,0.04,0.074,0.038,0.08-0.001c0.048-0.334,0.034-0.681,0.039-1.018c0.005-0.36-0.009-0.721-0.019-1.082
				c-0.019-0.707-0.037-1.416-0.055-2.124c-0.037-1.441-0.073-2.884-0.11-4.326c-0.021-0.813-0.069-1.619-0.139-2.431
				C79.32,47.302,79.311,47.302,79.311,47.309L79.311,47.309z"/>
		</g>
		<g>
			<path fill="#76183C" d="M26.912,28.147c-0.285,0.319-0.343,0.766-0.282,1.176c0.036,0.247,0.089,0.494,0.169,0.73
				c0.075,0.226,0.174,0.501,0.35,0.67c0.038,0.036,0.109,0.008,0.106-0.048c-0.014-0.214-0.105-0.433-0.168-0.637
				c-0.067-0.221-0.129-0.442-0.175-0.668c-0.078-0.385-0.175-0.831,0.062-1.179C26.999,28.156,26.94,28.114,26.912,28.147
				L26.912,28.147z"/>
		</g>
		<g>
			<path fill="#76183C" d="M34.02,26.471c0.082,0.172,0.134,0.356,0.199,0.535c0.066,0.183,0.115,0.365,0.146,0.557
				c0.028,0.177,0.03,0.354,0.023,0.533c-0.008,0.193-0.044,0.383,0.04,0.563c0.023,0.049,0.097,0.059,0.139,0.032
				c0.19-0.12,0.227-0.353,0.249-0.561c0.024-0.224-0.001-0.454-0.043-0.675c-0.039-0.205-0.12-0.417-0.22-0.601
				c-0.104-0.191-0.26-0.338-0.431-0.468C34.062,26.341,33.986,26.401,34.02,26.471L34.02,26.471z"/>
		</g>
		<g>
			<path fill="#76183C" d="M41.053,28.209c0.011,0.083,0.012,0.164,0.031,0.245c0.021,0.085,0.049,0.165,0.08,0.246
				c0.065,0.169,0.158,0.331,0.26,0.48s0.217,0.288,0.344,0.416c0.064,0.064,0.138,0.115,0.213,0.166
				c0.068,0.047,0.147,0.096,0.23,0.104c0.049,0.005,0.076-0.052,0.066-0.091c-0.019-0.071-0.077-0.14-0.121-0.198
				c-0.052-0.069-0.101-0.139-0.157-0.205c-0.104-0.123-0.205-0.247-0.302-0.376c-0.098-0.129-0.185-0.265-0.278-0.396
				c-0.048-0.067-0.092-0.138-0.14-0.205c-0.051-0.071-0.109-0.134-0.159-0.206C41.102,28.162,41.048,28.171,41.053,28.209
				L41.053,28.209z"/>
		</g>
		<g>
			<path fill="#76183C" d="M42.349,15.084c-0.017,0.052-0.039,0.093-0.05,0.146c-0.01,0.045-0.016,0.089-0.028,0.133
				c-0.024,0.094-0.031,0.192-0.048,0.288c-0.03,0.182-0.068,0.362-0.112,0.54c-0.044,0.181-0.093,0.357-0.145,0.535
				c-0.05,0.169-0.123,0.375-0.084,0.552c0.014,0.057,0.085,0.076,0.13,0.05c0.16-0.096,0.241-0.309,0.302-0.474
				c0.069-0.19,0.121-0.395,0.15-0.595c0.029-0.198,0.048-0.396,0.051-0.596c0.001-0.096,0.004-0.193-0.012-0.289
				c-0.01-0.053-0.017-0.111-0.029-0.164c-0.011-0.045-0.034-0.084-0.05-0.128C42.41,15.046,42.36,15.047,42.349,15.084
				L42.349,15.084z"/>
		</g>
		<g>
			<path fill="#76183C" d="M34.285,20.812c0.264,0.408,0.77,0.617,1.216,0.763c0.236,0.077,0.479,0.139,0.725,0.169
				c0.12,0.016,0.24,0.02,0.361,0.021c0.127,0.001,0.235-0.027,0.358-0.043c0.099-0.012,0.137-0.171,0.021-0.188
				c-0.117-0.019-0.229-0.058-0.346-0.077c-0.118-0.021-0.235-0.047-0.353-0.07c-0.222-0.044-0.441-0.093-0.657-0.159
				c-0.215-0.067-0.429-0.143-0.635-0.233c-0.218-0.097-0.422-0.184-0.656-0.229C34.294,20.758,34.269,20.787,34.285,20.812
				L34.285,20.812z"/>
		</g>
		<g>
			<path fill="#76183C" d="M51.476,24.798c-0.157,0.252-0.213,0.513-0.188,0.811c0.022,0.281,0.078,0.557,0.169,0.824
				c0.175,0.512,0.449,1.017,0.929,1.299c0.086,0.05,0.157-0.052,0.121-0.128c-0.204-0.435-0.474-0.841-0.636-1.296
				c-0.08-0.224-0.142-0.458-0.182-0.691c-0.044-0.258-0.095-0.531-0.104-0.792C51.582,24.765,51.506,24.749,51.476,24.798
				L51.476,24.798z"/>
		</g>
		<g>
			<path fill="#76183C" d="M70.003,24.825c-0.034,0.083-0.058,0.152-0.068,0.243c-0.012,0.103,0.004,0.206,0.019,0.309
				c0.032,0.216,0.078,0.433,0.126,0.646c0.045,0.202,0.09,0.404,0.152,0.603c0.03,0.099,0.067,0.196,0.107,0.292
				c0.038,0.09,0.07,0.192,0.142,0.262c0.057,0.056,0.137,0.019,0.161-0.047c0.033-0.088,0.019-0.194,0.015-0.288
				c-0.004-0.102-0.013-0.204-0.026-0.305c-0.029-0.21-0.072-0.418-0.117-0.625c-0.044-0.202-0.09-0.405-0.147-0.604
				c-0.058-0.198-0.128-0.357-0.28-0.498C70.063,24.792,70.017,24.793,70.003,24.825L70.003,24.825z"/>
		</g>
		<g>
			<path fill="#76183C" d="M80.086,28.374c0.688-0.482,1.359-0.999,1.846-1.695c0.465-0.666,0.863-1.526,0.783-2.36
				c-0.008-0.08-0.131-0.104-0.148-0.017c-0.082,0.404-0.16,0.797-0.312,1.184c-0.146,0.375-0.335,0.729-0.564,1.061
				c-0.461,0.666-1.015,1.271-1.632,1.795C80.039,28.356,80.065,28.389,80.086,28.374L80.086,28.374z"/>
		</g>
		<g>
			<path fill="#76183C" d="M66.765,27.796c0.604,0.441,0.774,1.354,0.814,2.051c0.021,0.366,0.035,0.735,0.019,1.102
				c-0.009,0.197-0.026,0.391-0.055,0.585c-0.027,0.186-0.086,0.365-0.11,0.55c-0.01,0.077,0.082,0.147,0.145,0.079
				c0.261-0.287,0.342-0.75,0.377-1.122c0.043-0.444,0.022-0.903-0.021-1.348c-0.04-0.414-0.114-0.842-0.32-1.21
				c-0.191-0.342-0.472-0.572-0.819-0.74C66.758,27.726,66.733,27.773,66.765,27.796L66.765,27.796z"/>
		</g>
		<g>
			<path fill="#76183C" d="M73.297,36.857c0.055-0.019,0.18,0.122,0.216,0.16c0.077,0.082,0.154,0.165,0.229,0.249
				c0.149,0.169,0.279,0.358,0.389,0.556c0.106,0.192,0.194,0.397,0.267,0.605c0.077,0.22,0.111,0.458,0.195,0.675
				c0.032,0.084,0.152,0.087,0.178-0.004c0.075-0.266,0.016-0.582-0.049-0.844c-0.068-0.28-0.195-0.547-0.348-0.792
				c-0.15-0.24-0.338-0.479-0.563-0.655c-0.103-0.081-0.211-0.151-0.347-0.144c-0.102,0.005-0.172,0.073-0.19,0.171
				C73.271,36.849,73.283,36.861,73.297,36.857L73.297,36.857z"/>
		</g>
		<g>
			<path fill="#76183C" d="M59.074,42.565c0.084,0.192,0.172,0.374,0.278,0.556c0.112,0.19,0.251,0.366,0.394,0.536
				c0.139,0.165,0.281,0.329,0.436,0.479c0.152,0.149,0.325,0.304,0.521,0.396c0.065,0.031,0.139-0.037,0.099-0.104
				c-0.105-0.175-0.255-0.331-0.394-0.479c-0.147-0.157-0.298-0.313-0.44-0.476c-0.138-0.157-0.27-0.32-0.414-0.472
				c-0.146-0.154-0.293-0.307-0.438-0.461C59.098,42.524,59.064,42.543,59.074,42.565L59.074,42.565z"/>
		</g>
	</g>
</g>
<path fill="#D64027" d="M50,0C22.386,0,0,22.386,0,50c0,27.613,22.386,50,50,50s50-22.387,50-50C100,22.386,77.614,0,50,0z
	 M50,96.667C24.228,96.667,3.333,75.771,3.333,50C3.333,24.228,24.228,3.333,50,3.333c25.772,0,46.667,20.895,46.667,46.667
	C96.667,75.771,75.772,96.667,50,96.667z"/>
</svg>
