<?xml version="1.0" encoding="utf-8"?>
<!-- Generator: Adobe Illustrator 16.0.0, SVG Export Plug-In . SVG Version: 6.00 Build 0)  -->
<!DOCTYPE svg PUBLIC "-//W3C//DTD SVG 1.1//EN" "http://www.w3.org/Graphics/SVG/1.1/DTD/svg11.dtd">
<svg version="1.1" id="Layer_1" xmlns="http://www.w3.org/2000/svg" xmlns:xlink="http://www.w3.org/1999/xlink" x="0px" y="0px"
	 width="100px" height="100px" viewBox="0 0 100 100" enable-background="new 0 0 100 100" xml:space="preserve">
<g>
	<g>
		<g>
			<path fill="#5BC4BE" d="M18.993,24.414c1.272-1.058,2.767-0.328,3.351,1.101c0.234,0.54,0.299,1.16,0.184,1.74
				c-0.06,0.261-0.155,0.561-0.313,0.783c-0.335,0.435-0.436,0.515-0.282,0.23c0.096-0.124,0.087-0.257-0.034-0.393
				c0.13-1.776,2.375-2.353,3.815-1.648c1.215,0.598,2.019,1.729,2.327,3.023c0.041,0.167,1.355-0.06,1.35-0.09
				c-0.603-2.516-2.806-3.647-5.245-3.469c-1.062,0.082-2.2,0.307-3.022,1.031c-0.782,0.688-0.787,1.845,0.403,1.908
				c0.728,0.027,1.596-0.033,2.047-0.682c0.715-1.057,0.329-2.651-0.52-3.507c-1.299-1.294-4.023-1.086-5.365,0.033
				C17.799,24.37,18.724,24.648,18.993,24.414L18.993,24.414z"/>
			<path fill="#5BC4BE" d="M14.497,41.128c0.737,1.948,2.85,2.446,4.728,2.075c0.985-0.187,2.042-0.866,2.317-1.881
				c0.277-1.065-0.457-1.412-1.335-1.447c-0.733-0.023-1.606,0.017-1.921,0.812c-0.418,1.062,0.549,2.248,1.325,2.842
				c1.43,1.088,3.58,1.193,5.269,0.745c-0.254,0.073-0.995-0.165-1.415-0.05c-1.186,0.317-2.552-0.601-3.222-1.522
				c-0.296-0.407-0.552-0.896-0.575-1.405c-0.016-0.303,0.052-0.569,0.198-0.829c0.166-0.277,0.062-0.188,0.143-0.095
				c0.762,0.864-0.767,2.229-1.395,2.523c-1.182,0.56-2.267-0.737-2.65-1.745C15.87,40.897,14.525,41.195,14.497,41.128
				L14.497,41.128z"/>
			<path fill="#5BC4BE" d="M73.717,51.024c0.2-1.201,1.491-2.901,2.938-2.598c1.308,0.271,2.003,2.475,1.212,3.486
				c-0.221,0.271-0.147,0.28-0.227-0.026c-0.091-0.366,0.07-0.74,0.31-1.016c0.622-0.736,1.505-0.647,2.177-0.06
				c1.117,0.966,1.627,2.418,1.404,3.871c-0.021,0.177,1.389,0.466,1.393,0.438c0.394-2.63-1.482-4.442-3.836-5.07
				c-0.957-0.258-2.438-0.374-2.819,0.852c-0.301,1.065,0.828,1.49,1.626,1.705c1.09,0.269,1.805-0.374,1.713-1.531
				c-0.092-1.16-1.001-2.076-2-2.525c-2.092-0.94-4.818-0.674-5.281,2.04C72.28,50.753,73.71,51.074,73.717,51.024L73.717,51.024z"
				/>
			<path fill="#FED307" d="M76.515,42.755c1.438,1.579,4.43,1.709,5.284-0.601c0.354-0.963-0.805-3.803-2.186-2.996
				c-1.46,0.845,0.644,3.221,1.561,3.552c2.356,0.84,4.503-1.245,4.243-3.58c-0.057-0.403-0.754-0.968-0.771-1.183
				c0.154,1.335-0.431,2.656-1.642,3.302c-0.587,0.308-1.265,0.438-1.919,0.369c-0.686-0.085-1.699-0.431-0.799-1.137
				c0.313-0.263,0.484-0.056,0.814-0.104c0.313,0.163,0.328,0.092,0.064-0.205c0.016,0.258-0.014,0.504-0.129,0.729
				c-0.201,0.591-0.662,1.063-1.187,1.374c-1.301,0.774-2.917,0.479-3.931-0.641c-0.188-0.216,0.049,0.248,0.06,0.273
				C76.087,42.197,76.316,42.528,76.515,42.755L76.515,42.755z"/>
			<path fill="#FED307" d="M26.279,57.817c-0.779-1.256-2.56-2.347-4.048-2.238c-0.949,0.075-2.367,0.841-1.986,1.99
				c0.186,0.584,0.979,1.097,1.517,1.303c1.054,0.43,1.652-0.586,1.392-1.558c-0.227-0.864-0.922-1.476-1.634-1.969
				c-1.759-1.222-3.972-1.472-5.294,0.579c-0.055,0.09,1.167,0.884,1.224,0.794c0.68-1.046,2.018-1.864,3.314-1.499
				c1.427,0.41,1.732,3.48-0.04,2.895c0.307,0.179,0.614,0.38,0.922,0.563c-0.849-0.646,0.321-1.802,0.865-2.057
				c0.859-0.405,2.027-0.414,2.563,0.452C25.292,57.419,26.172,57.639,26.279,57.817L26.279,57.817z"/>
			<path fill="#EF4137" d="M13.392,28.379c-0.311,1.452,0.921,2.901,2.014,3.73c0.823,0.621,1.828,0.846,2.817,1.067
				c1.38,0.31,3.375,0.652,3.03,2.493c-0.066,0.377,0.974,0.928,0.937,1.129c0.268-1.448-0.972-2.885-2.07-3.706
				c-1.57-1.167-6.377-0.839-5.797-3.585C14.4,29.148,13.351,28.576,13.392,28.379L13.392,28.379z"/>
			<path fill="#EF4137" d="M7.953,56.435c-0.137-0.706-0.033-1.432,0.394-2.04c0.591-0.825,1.607-1.05,2.547-1.261
				c1.602-0.398,3.21-0.75,4.814-1.113c0.412-0.094,0.938-0.744,1.166-0.8c-2.39,0.55-5.144,0.821-7.335,1.994
				c-1.517,0.794-3.195,2.086-2.816,4.01C6.706,57.151,8.004,56.702,7.953,56.435L7.953,56.435z"/>
			<path fill="#EF4137" d="M79.114,46.004c0.958,1.13,1.986,1.777,3.543,1.52c1.045-0.173,1.997-0.69,3.02-0.983
				c0.46-0.133,0.945-0.225,1.442-0.215c0.316,0.018,0.641,0.125,0.968,0.17c0.08,0.018,0.544,0.305,0.358,0.031
				c0.173,0.254,0.421,0.614,0.687,0.777c0.166,0.097,0.254,0.186,0.078-0.073c-0.852-1.229-1.918-2.122-3.515-1.988
				c-1.165,0.106-2.216,0.712-3.335,1.025c-0.508,0.139-1.023,0.243-1.545,0.213c-0.27-0.012-0.573-0.054-0.835-0.137
				c0.005,0.001-0.628-0.3-0.508-0.137C79.183,45.844,78.464,45.219,79.114,46.004L79.114,46.004z"/>
		</g>
		<g>
			<path fill="#B0D237" d="M21.756,19.589c0.43,0.214,0.854,0.429,1.283,0.644c0.159,0.079,0.561,0.035,0.713,0.024
				c0.392-0.007,0.786-0.033,1.175-0.082c0.302-0.032,0.612-0.066,0.907-0.149c0.059-0.013,0.284-0.056,0.141-0.131
				c-0.43-0.215-0.86-0.429-1.291-0.644c-0.151-0.08-0.562-0.037-0.707-0.035c-0.391,0.019-0.786,0.042-1.176,0.087
				c-0.301,0.038-0.611,0.071-0.907,0.154C21.835,19.471,21.607,19.514,21.756,19.589L21.756,19.589z"/>
			<path fill="#B0D237" d="M90.036,28.545c0.231-0.86,0.448-1.721,0.668-2.582c0.067-0.234-1.031-0.859-1.202-0.964
				c-0.089-0.066-1.331-0.802-1.366-0.717c-0.21,0.861-0.44,1.72-0.647,2.581c-0.066,0.238,1.03,0.859,1.202,0.964
				C88.778,27.894,90.02,28.631,90.036,28.545L90.036,28.545z"/>
			<path fill="#EC1175" d="M62.19,7.008c0,0.502,0,1.006,0,1.504c0,0.115,0.264,0.302,0.297,0.342
				c0.271,0.229,0.582,0.441,0.871,0.644c0.311,0.199,0.604,0.4,0.931,0.568c0.027,0.018,0.433,0.211,0.433,0.166
				c0-0.507,0-1.005,0-1.507c0-0.115-0.265-0.303-0.32-0.343c-0.271-0.228-0.563-0.441-0.871-0.644
				c-0.291-0.196-0.604-0.4-0.907-0.568C62.571,7.154,62.19,6.959,62.19,7.008L62.19,7.008z"/>
			<path fill="#B0D237" d="M81.951,61.79c0.351,0.287,0.702,0.572,1.052,0.879c0.083,0.073,0.416-0.047,0.451-0.054
				c0.354-0.085,0.706-0.192,1.037-0.306c0.342-0.132,0.685-0.248,1.016-0.409c0.032-0.014,0.428-0.207,0.383-0.253
				c-0.355-0.287-0.707-0.592-1.057-0.879c-0.083-0.073-0.395,0.027-0.452,0.037c-0.35,0.083-0.698,0.21-1.037,0.322
				c-0.341,0.133-0.685,0.248-1.015,0.409C82.3,61.551,81.91,61.746,81.951,61.79L81.951,61.79z"/>
			<path fill="#EC1175" d="M95.923,48.525c0.382-0.495,0.738-0.997,1.097-1.492c0.073-0.101-1.288-0.622-1.391-0.651
				c-0.343-0.121-0.688-0.243-1.037-0.324c-0.085-0.015-0.407-0.13-0.452-0.046c-0.381,0.502-0.74,0.998-1.096,1.5
				c-0.075,0.092,1.288,0.615,1.389,0.653c0.344,0.123,0.689,0.233,1.039,0.315C95.556,48.492,95.877,48.608,95.923,48.525
				L95.923,48.525z"/>
			<path fill="#FED307" d="M89.622,67.521c0.076,0.58,0.129,1.143,0.205,1.722c0.012,0.112,0.264,0.274,0.333,0.331
				c0.276,0.209,0.596,0.411,0.892,0.603c0.318,0.184,0.64,0.366,0.949,0.524c0.051,0.014,0.447,0.18,0.439,0.129
				c-0.055-0.562-0.133-1.141-0.207-1.725c-0.012-0.108-0.266-0.271-0.333-0.309c-0.278-0.228-0.598-0.42-0.894-0.604
				c-0.316-0.184-0.616-0.387-0.947-0.524C90.009,67.633,89.618,67.487,89.622,67.521L89.622,67.521z"/>
		</g>
	</g>
	<g>
		<path opacity="0.14" fill="#2D1C12" d="M65.041,92.933c0,1.516-6.844,2.734-15.296,2.734c-8.442,0-15.285-1.219-15.285-2.734
			c0-1.498,6.843-2.716,15.285-2.716C58.197,90.217,65.041,91.435,65.041,92.933z"/>
		<g>
			<polygon fill="#775F9D" points="51.559,49.348 75.275,53.439 78.339,71.164 55.365,64.14 			"/>
			<polygon fill="#615281" points="55.365,64.14 27.097,79.992 22.926,65.167 21.944,62.318 51.559,49.348 52.181,51.78 			"/>
			<polygon fill="#F89A50" points="54.698,64.939 27.097,79.992 22.926,65.167 52.181,51.78 			"/>
			<polygon fill="#E46F25" points="52.181,51.78 73.45,55.804 75.923,70.935 54.698,64.939 			"/>
			<polygon opacity="0.25" fill="#615281" points="29.953,65.532 53.896,59.921 73.9,61.896 43.289,77.343 			"/>
			<polygon fill="#775F9D" points="48.627,88.144 43.071,86.044 39.513,84.687 34.752,82.882 27.097,79.992 26.966,79.546 
				21.944,62.318 32.337,65.566 38.643,67.544 43.838,69.177 44.097,69.261 45.375,74.604 			"/>
			<polygon opacity="0.3" fill="#FFFFFF" points="43.838,69.177 39.513,84.687 43.071,86.044 45.375,74.604 			"/>
			<polygon fill="#857BBA" points="78.339,71.164 73.977,73.665 73.045,74.19 72.151,74.707 67.985,77.083 67.896,77.14 
				63.739,79.507 55.569,84.169 54.234,84.941 52.692,85.816 50.178,87.263 48.627,88.144 47.588,83.817 44.097,69.261 
				51.39,65.555 59.118,61.638 60.249,61.057 61.435,60.459 62.017,60.172 66.537,57.887 69.243,56.51 71.85,55.174 72.094,55.06 
				75.275,53.439 75.513,54.78 76.44,60.236 			"/>
			<polygon fill="#775F9D" points="51.39,65.555 47.588,83.817 44.097,69.261 			"/>
			<polygon opacity="0.3" fill="#FFFFFF" points="66.537,57.887 63.739,79.507 55.569,84.169 57.698,73.706 60.249,61.057 
				61.435,60.459 62.017,60.172 			"/>
			<polygon fill="#56447B" points="43.879,69.03 49,87.852 48.627,88.144 27.097,79.992 48.124,87.292 			"/>
			<polygon opacity="0.61" fill="#FFFFFF" points="62.017,60.172 59.639,73.348 57.698,73.706 56.321,73.966 59.118,61.638 
				60.249,61.057 61.435,60.459 			"/>
			<polygon opacity="0.61" fill="#FFFFFF" points="59.172,75.045 57.894,82.85 55.569,84.169 54.234,84.941 56.201,75.401 			"/>
			<polygon fill="#775F9D" points="56.163,65.982 52.692,85.816 50.178,87.263 			"/>
			<polygon fill="#775F9D" points="78.339,71.164 73.977,73.665 76.44,60.236 			"/>
			<polygon fill="#958EC5" points="75.513,54.78 72.151,74.707 67.985,77.083 67.896,77.14 71.85,55.174 72.094,55.06 
				75.275,53.439 			"/>
			<polygon fill="#857BBA" points="38.643,67.544 34.752,82.882 27.097,79.992 26.966,79.546 32.337,65.566 			"/>
		</g>
		<g>
			<path fill="#F1ECE0" d="M71.802,41.06c-0.869-0.812-2.039-1.335-3.17-1.69c0.698-0.868,1.305-1.815,1.554-2.929
				c0.273-1.264-0.021-2.631-0.99-3.514c-0.923-0.828-2.13-1.184-3.332-1.354c-1.476-0.213-3.027-0.187-4.447,0.286
				c-1.051,0.348-2.136,0.939-2.897,1.79c-0.664-2.132-2.482-3.817-4.632-4.439c-2.393-0.693-4.963,0.126-6.657,1.9
				c-0.332,0.345-0.622,0.721-0.879,1.12c-1.108-0.653-2.462-0.888-3.723-0.666c-1.452,0.252-2.755,1.124-3.546,2.363
				c-0.243,0.377-0.434,0.771-0.586,1.181c-1.827-1.14-4.29-0.955-6.027,0.281c-1.783,1.262-2.712,3.448-2.529,5.607
				c0.071,0.937,0.352,1.843,0.791,2.663c-1.985-0.365-4.121,0.979-4.584,2.965c-0.235,1.041-0.093,2.165,0.429,3.105
				c0.519,0.928,1.394,1.609,2.423,1.895c0.99,0.277,2.247,0.221,3.133-0.366c-0.923,1.827-0.418,4.202,0.979,5.678
				c1.746,1.836,4.454,2.331,6.873,1.85c1.412-0.272,2.79-0.849,4.026-1.597c0.108,2.213,1.949,4.033,4.082,4.459
				c2.393,0.485,4.857-0.715,6.235-2.678c0.589-0.816,1.023-1.805,1.212-2.798c2.602,0.849,5.447,1.425,8.077,0.419
				c1.115-0.43,2.138-1.132,2.846-2.107c0.665-0.881,1.005-1.968,0.948-3.074c-0.033-1.158-0.5-2.361-1.409-3.095l0,0
				c0.538,0.059,1.099-0.026,1.646-0.099c0.54-0.075,1.078-0.168,1.606-0.313c1.012-0.288,1.962-0.776,2.671-1.548
				c0.665-0.708,1.134-1.642,1.129-2.634C73.048,42.686,72.536,41.752,71.802,41.06z"/>
			<path fill="#FDF8F1" d="M28.038,48.23c1.267,2.707,7.462-0.362,7.462-0.362s-3.873,6.225-0.219,8.054
				c3.665,1.826,7.69,0.074,7.69,0.074s-3.588-2.207-3.664-4.175c3.217,2.786,7.689,3.871,10.612,2.862
				c-1.97,1.465-4.826,2.036-4.826,2.036s2.122,3.446,5.264,2.723c3.139-0.743,3.806-4.035,3.806-4.035h-2.34
				c0,0,4.758-1.753,5.863-3.064c0.076,1.16-1.029,2.626-1.029,2.626s4.683,0.953,6.74-0.723c2.033-1.695,1.465-4.913,1.234-5.722
				c-1.541,1.247-3.008,1.171-3.008,1.171s3.008-2.56,3.731-4.606c0.667-1.903,0.667-1.903,0.667-1.903s0.667,2.342,0.15,3.436
				c3.065,0.077,4.971-1.389,4.893-2.855c-0.071-1.454-3.502-3.95-4.604-3.874c1.389-1.903,2.417-4.902,0.36-6.442
				c-2.035-1.534-8.852,2.265-8.852,2.265s-2.854-5.121-6.301-4.683c-3.434,0.438-4.31,2.855-4.31,2.855s-3.37-1.75-5.492,0.075
				c-2.123,1.829-2.485,3.732-2.485,3.732s-2.561-3.95-5.786-1.531c-3.217,2.407-1.685,8.269-1.685,8.269
				S26.354,44.651,28.038,48.23z"/>
		</g>
		<g>
			<g>
				<g>
					<polygon fill="#857BBA" points="82.103,34.794 80.575,38.144 74.14,37.348 70.112,36.857 67.257,36.495 67.038,36.472 
						63.323,36.008 62.103,35.862 60.308,35.635 57.733,35.317 53.182,34.75 46.321,33.899 48.395,29.084 57.474,30.627 
						61.659,31.331 64.029,31.73 64.567,31.83 67.216,32.274 69.159,32.601 70.636,32.853 73.551,33.351 77.347,33.986 					"/>
					<polygon opacity="0.3" fill="#FFFFFF" points="64.567,31.83 60.308,35.635 53.182,34.75 57.474,30.627 					"/>
					<polygon fill="#775F9D" points="48.395,29.084 46.321,33.899 39.377,27.077 39.082,26.785 38.57,26.289 35.446,23.218 
						29.266,17.139 31.026,12.236 40.174,21.111 40.596,21.517 40.597,21.523 40.844,21.759 					"/>
					<polygon fill="#958EC5" points="82.103,34.794 77.347,33.986 70.636,32.853 67.216,32.274 57.474,30.627 48.395,29.084 
						40.597,21.523 31.026,12.236 47.56,15.708 51.634,16.565 55.813,17.442 65.859,19.554 70.837,24.22 74.42,27.592 					"/>
				</g>
				<polygon fill="#775F9D" points="70.636,32.853 67.038,36.472 70.112,36.857 73.551,33.351 				"/>
				<polygon opacity="0.61" fill="#FFFFFF" points="61.659,31.331 57.733,35.317 60.308,35.635 63.323,36.008 67.216,32.274 				"/>
				<polygon fill="#958EC5" points="82.103,34.794 80.575,38.144 74.14,37.348 77.347,33.986 				"/>
				<path fill="#857BBA" d="M77.347,33.986l-6.711-1.133l-3.42-0.578l-9.742-1.647c0,0-9.438-5.188-16.877-9.104l-9.571-9.287
					l10.753,2.258l5.781,1.214l4.074,0.857l4.18,0.876L77.347,33.986z"/>
				<polygon opacity="0.61" fill="#FFFFFF" points="70.636,32.853 67.216,32.274 47.56,15.708 51.634,16.565 70.636,32.853 				"/>
				<polygon fill="#775F9D" points="51.533,24.521 31.026,12.236 41.779,14.494 				"/>
			</g>
			<polygon fill="#DC7D33" points="53.843,17.035 55.737,22.665 54.163,21.925 50.595,16.347 			"/>
			<polygon fill="#FBB317" points="74.42,27.592 59.636,24.748 59.094,23.487 70.837,24.22 			"/>
			<g>
				<polygon fill="#DC7D33" points="40.597,21.523 39.082,26.785 35.446,23.218 36.917,17.994 40.596,21.517 				"/>
				<polygon fill="#FBB317" points="54.821,22.778 36.917,17.994 40.816,21.667 55.885,24.53 				"/>
				<path fill="#C96228" d="M55.223,24.443l-14.379-2.684l-0.109-0.005l-1.653,5.031l0,0l-0.512-0.496
					c0.402-1.385,1.469-4.748,1.604-5.177c0.007-0.03,0.011-0.045,0.011-0.045L55.223,24.443z"/>
			</g>
			<path fill="#FBB317" d="M56.556,23.712l-0.609-0.338c0,0-1.712,0.073-1.526,0.324c0.26,0.346,9.612,8.021,9.612,8.021l5.17,0.822
				L56.556,23.712z"/>
			<polygon fill="#DC7D33" points="69.202,32.542 69.159,32.601 67.257,36.495 67.038,36.472 63.323,36.008 62.103,35.862 
				64.029,31.73 64.032,31.72 			"/>
			<g>
				<path fill="#DC7D33" d="M55.99,23.913c0,0,1.601,1.896,3.885,2.842c2.304,0.949,3.351,1.367,4.416,1.244
					c1.064-0.123,1.577-1.169,1.636-1.901c0.038-0.731-1.313-2.574-1.313-2.574l-4.627-0.952l-3.464,0.609L55.99,23.913z"/>
				<path fill="#FBB317" d="M56.353,22.325c0.082-0.088,4.971-1.967,7.141-1.777c1.468,0.132,3.499,1.368,4.014,2.556
					c0.095,0.684-0.724,1.654-0.724,1.654s0.115,1.292-0.229,1.899c-0.343,0.608-0.95,1.046-2.263,1.341
					c0.757-0.616,0.847-1.404,0.796-2.18c-0.007-0.227-0.095-0.439-0.249-0.609c-0.868-1.009-1.942-1.143-3.403-1.23
					c-1.291-0.075-5.444-0.066-5.444-0.066S55.476,23.249,56.353,22.325z"/>
				<path fill="#DC7D33" d="M56.401,22.637c0.159-0.057,5.701-1.569,5.814-1.319c0.136,0.239-3.92,1.123-3.92,1.123
					s4.009-0.542,4.963-0.417c0.954,0.125,2.745,1.88,2.745,1.88s-2.064-1.076-2.653-1.169c-0.591-0.098-5.656,0.276-5.656,0.276
					s2.254,0.361,1.914,0.428c-0.342,0.059-3.662-0.064-3.662-0.064L56.401,22.637z"/>
				<path fill="#DC7D33" d="M44.942,18.332c0,0-0.298,0.622,0.514,1.634c0.812,1.006,4.299,2.89,8.004,3.436
					c0.777-1.094,0.551-1.687,0.551-1.687l-3.754-4.772l-2.796,0.087l-1.751,0.525L44.942,18.332z"/>
				<path fill="#FBB317" d="M53.699,23.038c0,0-1.814-2.268-3.292-3.829c-0.93-0.99-2.253-1.533-3.608-1.472
					c-0.711,0.036-1.359,0.236-1.856,0.594c0.107-0.545,0.936-1.771,1.842-2.306c0.342-0.204,1.521-0.127,1.753-0.075
					c0.679-1.051,1.463-1.412,2.054-1.38c0.884,0.042,2.385,1.434,2.687,2.158c0.282,0.722,1.337,4.383,1.299,5.246
					C54.226,22.826,53.699,23.038,53.699,23.038z"/>
				<path fill="#DC7D33" d="M53.919,22.145c0,0-2.458-3.808-2.818-4.154C50.725,17.643,48.44,17,48.44,17s2.458-0.233,3.112,0.333
					c0.631,0.568,1.569,2.728,1.556,2.638c-0.013-0.092-0.349-1.814-0.181-1.814s1.236,3.769,1.236,3.769L53.919,22.145z"/>
				<path fill="#C86328" d="M48.615,16.049c0.643,0.042,1.29,0.121,1.907,0.313c-0.599-0.255-1.243-0.405-1.879-0.51
					c-0.287-0.048-0.576-0.08-0.858-0.101c-0.15-0.007-0.292-0.011-0.436-0.007c-0.153,0.001-0.293,0.007-0.466,0.048
					c-0.313,0.093-0.57,0.271-0.808,0.464c-0.229,0.189-0.436,0.413-0.618,0.651c-0.354,0.475-0.651,1.038-0.711,1.679
					c-0.021,0.145-0.028,0.304-0.02,0.472c0.02,0.16,0.063,0.346,0.125,0.498c0.074,0.163,0.166,0.296,0.258,0.421
					c0.046,0.059,0.092,0.122,0.142,0.176c0.06,0.057,0.112,0.122,0.166,0.173c0.46,0.433,0.978,0.708,1.466,0.997
					c0.243,0.135,0.508,0.292,0.768,0.414c0.261,0.13,0.526,0.24,0.792,0.356c1.074,0.427,2.17,0.744,3.28,0.997
					c0.629,0.137,1.28,0.275,1.918,0.335c-0.629-0.122-1.243-0.33-1.876-0.537c-1.059-0.358-2.114-0.758-3.138-1.229
					c-0.244-0.123-0.499-0.245-0.746-0.377c-0.252-0.13-0.475-0.269-0.728-0.425c-0.484-0.288-0.97-0.575-1.346-0.93
					c-0.046-0.044-0.089-0.089-0.131-0.135c-0.042-0.056-0.085-0.109-0.126-0.158c-0.081-0.1-0.145-0.208-0.19-0.305
					c-0.092-0.195-0.107-0.429-0.081-0.699c0.035-0.508,0.261-1,0.562-1.453c0.148-0.22,0.321-0.428,0.519-0.611
					c0.188-0.18,0.403-0.347,0.625-0.432c0.108-0.034,0.246-0.055,0.38-0.065c0.134-0.021,0.282-0.028,0.417-0.032
					C48.055,16.034,48.339,16.039,48.615,16.049z"/>
				<path fill="#C86328" d="M57.333,24.973c-0.484-0.313-0.938-0.655-1.343-1.061c0.347,0.451,0.771,0.847,1.207,1.225
					c0.394,0.329,0.782,0.631,1.195,0.917c0.197,0.153,0.414,0.293,0.614,0.433c0.204,0.152,0.434,0.282,0.664,0.409
					c0.883,0.49,1.816,0.912,2.783,1.233c0.472,0.162,0.975,0.303,1.513,0.346c0.292,0.023,0.58-0.003,0.851-0.102
					c0.268-0.102,0.509-0.251,0.708-0.413c0.22-0.152,0.407-0.32,0.593-0.488c0.184-0.171,0.392-0.343,0.564-0.551
					c0.174-0.195,0.305-0.475,0.35-0.743c0.014-0.135,0.02-0.262,0.021-0.393c0-0.133-0.01-0.262-0.028-0.388
					c-0.11-0.575-0.259-1.124-0.42-1.668c0.092,0.563,0.188,1.132,0.206,1.687c0.003,0.118,0.003,0.241-0.007,0.359
					c-0.012,0.118-0.025,0.233-0.069,0.348c-0.042,0.222-0.172,0.396-0.34,0.562c-0.144,0.165-0.354,0.313-0.544,0.463
					c-0.189,0.151-0.383,0.297-0.596,0.433c-0.191,0.138-0.385,0.243-0.604,0.311c-0.194,0.058-0.418,0.067-0.631,0.049
					c-0.449-0.046-0.936-0.193-1.394-0.341c-0.936-0.312-1.866-0.696-2.747-1.126c-0.209-0.111-0.439-0.218-0.641-0.341
					c-0.224-0.127-0.428-0.253-0.654-0.381C58.155,25.504,57.728,25.252,57.333,24.973z"/>
				<path fill="#FBB317" d="M56.563,23.186c-0.252,0.668-0.617,1.307-0.936,1.306c-0.614-0.002-1.208-0.793-1.208-0.793
					s-0.595,0.14-0.779,0.008c-0.186-0.13-0.326-0.523-0.37-0.992c-0.055-0.345,0.344-0.902,0.881-1.27
					c0.191-0.135,0.418-0.249,0.627-0.321c0.842-0.26,0.531,0.647,0.524,0.675c0.04-0.005,1.036-0.375,1.437-0.13
					C56.931,21.793,56.816,22.503,56.563,23.186z"/>
				<path fill="#DC7D33" d="M56.563,23.186c-0.252,0.668-0.617,1.307-0.936,1.306c-0.614-0.002-1.208-0.793-1.208-0.793
					s-0.595,0.14-0.779,0.008c-0.186-0.13-0.326-0.523-0.37-0.992c-0.055-0.345,0.344-0.902,0.881-1.27
					c-0.112,0.246-0.331,0.777-0.35,0.996c-0.049,0.347,0.195,0.799,0.195,0.799l0.424,0.09c0,0,0.063-0.761,0.423-1.08
					c-0.012,0.295,0.014,1.144,0.154,1.271c0.118,0.127,0.54,0.476,0.707,0.476C55.804,23.997,56.228,23.574,56.563,23.186z"/>
				<path fill="#C86328" d="M64.269,27.617c-0.32,0.253-0.764,0.345-1.191,0.301c0.419,0.113,0.883,0.104,1.301-0.131
					c0.355-0.2,0.599-0.58,0.704-0.971c0.129-0.392,0.139-0.819,0.005-1.238c-0.044-0.202-0.139-0.407-0.299-0.582
					c-0.139-0.154-0.255-0.293-0.407-0.434c-0.157-0.15-0.292-0.274-0.504-0.387c-0.188-0.118-0.395-0.196-0.627-0.219
					c-0.064-0.008-0.107-0.019-0.17-0.021l-0.151-0.004l-0.276-0.01c-0.185-0.005-0.372-0.01-0.558-0.022
					c-0.392-0.011-0.764-0.018-1.155-0.021c-0.741-0.005-1.503,0-2.263,0.021l-1.298,0.036l1.294,0.168
					c0.756,0.093,1.514,0.177,2.253,0.248c0.392,0.034,0.763,0.059,1.133,0.088c0.388,0.019,0.75,0.047,1.113,0.066
					c0.156,0.023,0.313,0.072,0.435,0.148c0.143,0.08,0.273,0.185,0.412,0.301c0.118,0.109,0.264,0.255,0.379,0.384
					c0.122,0.099,0.182,0.237,0.248,0.394c0.133,0.305,0.151,0.659,0.088,1.002C64.691,27.076,64.537,27.399,64.269,27.617z"/>
			</g>
			<polygon fill="#C96228" points="55.223,24.443 63.233,31.671 61.615,35.802 62.358,35.878 64.214,31.709 			"/>
		</g>
		<g>
			<g>
				<polygon fill="#FBB317" points="12.885,75.838 23.876,73.737 14.94,80.78 				"/>
				<polygon fill="#B0D237" points="23.244,76.387 18.229,81.244 22.773,82.825 				"/>
				<polygon fill="#EF4137" points="14.317,72.171 25.361,71.692 16.193,67.698 				"/>
			</g>
			<g>
				<path fill="#EF4137" d="M79.638,18.896c-0.141,0.472-3.59,7.364-3.59,7.364l6.581-4.384L79.638,18.896z"/>
				<polygon fill="#B0D237" points="76.831,20.622 73.22,28.296 72.597,21.09 				"/>
				<polygon fill="#FBB317" points="80.581,25.948 74.622,29.86 81.988,29.389 				"/>
			</g>
		</g>
		<g>
			<path fill="#FED307" d="M24.233,50.117c0,0-2.637-1.631-2.249-1.941c0.388-0.308,3.494,0.388,3.494,0.388s1.392-2.786,1.78-2.715
				c0.388,0.08,0.224,2.811,0.224,2.811l2.871,0.682c-0.229,0.537-2.398,1.084-2.398,1.084s0.388,3.093,0,3.093
				c-0.767,0-2.02-1.929-2.02-1.929s-2.945,1.713-2.945,1.073C22.99,51.731,24.233,50.117,24.233,50.117z"/>
			<path fill="#FED307" d="M34.385,33.765c0,0-1.719-1.062-1.473-1.268c0.255-0.206,2.287,0.255,2.287,0.255
				s0.913-1.826,1.169-1.777c0.255,0.048,0.153,1.837,0.153,1.837l1.88,0.451c-0.148,0.353-1.572,0.707-1.572,0.707
				s0.255,2.033,0,2.033c-0.504,0-1.325-1.268-1.325-1.268s-1.926,1.11-1.926,0.707C33.579,34.829,34.385,33.765,34.385,33.765z"/>
			<path fill="#FED307" d="M66.104,53.571c0,0-1.73-1.082-1.475-1.276c0.255-0.197,2.277,0.255,2.277,0.255s0.925-1.827,1.18-1.776
				c0.255,0.048,0.154,1.844,0.154,1.844l1.868,0.442c-0.138,0.354-1.57,0.708-1.57,0.708s0.255,2.041,0,2.041
				c-0.506,0-1.316-1.275-1.316-1.275s-1.924,1.12-1.924,0.707C65.299,54.626,66.104,53.571,66.104,53.571z"/>
			<path fill="#FED307" d="M40.833,61.475c0,0,0.111-1.82,0.378-1.712c0.268,0.126,0.776,1.932,0.776,1.932s1.832-0.064,1.904,0.148
				c0.063,0.23-1.39,0.913-1.39,0.913l0.448,1.671c-0.346,0.044-1.229-0.941-1.229-0.941s-1.501,1.079-1.605,0.865
				c-0.215-0.386,0.438-1.581,0.438-1.581s-1.712-1.046-1.385-1.219C39.653,61.288,40.833,61.475,40.833,61.475z"/>
			<path fill="#FED307" d="M71.341,40.299c0,0,0.118-1.82,0.383-1.702c0.267,0.107,0.775,1.913,0.775,1.913s1.832-0.055,1.905,0.167
				c0.071,0.22-1.391,0.904-1.391,0.904l0.446,1.671c-0.344,0.035-1.227-0.935-1.227-0.935s-1.515,1.063-1.616,0.868
				c-0.202-0.395,0.439-1.59,0.439-1.59s-1.715-1.046-1.388-1.219C70.165,40.112,71.341,40.299,71.341,40.299z"/>
		</g>
	</g>
</g>
<path fill="#3A54A5" d="M50,0C22.386,0,0,22.386,0,50c0,27.613,22.386,50,50,50s50-22.387,50-50C100,22.386,77.614,0,50,0z
	 M50,96.667C24.228,96.667,3.333,75.771,3.333,50C3.333,24.228,24.228,3.333,50,3.333c25.772,0,46.667,20.895,46.667,46.667
	C96.667,75.771,75.772,96.667,50,96.667z"/>
</svg>
