<?xml version="1.0" encoding="utf-8"?>
<!-- Generator: Adobe Illustrator 16.0.0, SVG Export Plug-In . SVG Version: 6.00 Build 0)  -->
<!DOCTYPE svg PUBLIC "-//W3C//DTD SVG 1.1//EN" "http://www.w3.org/Graphics/SVG/1.1/DTD/svg11.dtd">
<svg version="1.1" id="Layer_1" xmlns="http://www.w3.org/2000/svg" xmlns:xlink="http://www.w3.org/1999/xlink" x="0px" y="0px"
	 width="100px" height="100px" viewBox="0 0 100 100" enable-background="new 0 0 100 100" xml:space="preserve">
<g>
	<g>
		<g opacity="0.25">
			<ellipse fill="#1B154E" cx="49.781" cy="83.116" rx="32.141" ry="3.699"/>
		</g>
		<g>
			<g>
				<path fill="#FFFFFF" d="M76.18,32.149c-0.367-1.11-0.387-2.344,0.023-3.534c0.996-2.889,4.146-4.422,7.035-3.425
					c2.887,0.996,4.422,4.145,3.426,7.034c-0.998,2.888-4.146,4.421-7.035,3.425c-0.803-0.277-1.502-0.721-2.07-1.28l-2.623-0.024
					L76.18,32.149z"/>
			</g>
			<g opacity="0.5">
				<g>
					<path fill="#FFFFFF" d="M80.842,25.976c-2.834,0.336-4.912,2.758-4.881,5.549c-0.043-0.19-0.078-0.384-0.102-0.583
						c-0.359-3.034,1.809-5.785,4.842-6.144c3.035-0.359,5.787,1.809,6.145,4.843c0.025,0.199,0.037,0.396,0.037,0.593
						C86.264,27.512,83.678,25.64,80.842,25.976z"/>
				</g>
			</g>
			<g>
				<path fill="#1B154E" d="M81.439,36.402c-0.658,0-1.318-0.109-1.957-0.33c-0.789-0.272-1.496-0.695-2.104-1.257l-2.447-0.022
					c-0.158-0.001-0.305-0.086-0.385-0.224c-0.078-0.138-0.08-0.307-0.002-0.445l1.15-2.028c-0.354-1.194-0.324-2.443,0.086-3.627
					c0.52-1.51,1.598-2.727,3.035-3.426c1.436-0.699,3.057-0.797,4.566-0.276c3.117,1.075,4.777,4.485,3.703,7.603
					c-0.521,1.51-1.598,2.727-3.035,3.426C83.225,36.199,82.332,36.402,81.439,36.402z M75.699,33.905l1.863,0.017
					c0.115,0.001,0.227,0.047,0.311,0.129c0.541,0.531,1.182,0.927,1.9,1.176c2.652,0.914,5.553-0.498,6.467-3.149
					c0.443-1.284,0.359-2.663-0.236-3.884c-0.594-1.221-1.629-2.137-2.912-2.58c-1.285-0.443-2.666-0.36-3.887,0.235
					c-1.221,0.594-2.135,1.629-2.578,2.913c-0.367,1.061-0.373,2.183-0.021,3.248c0.039,0.12,0.025,0.251-0.037,0.361L75.699,33.905
					z"/>
			</g>
			<g opacity="0.3">
				<path fill="#1B154E" d="M76.16,32.091c1.184,1.593,3.088,2.615,5.225,2.585c2.369-0.033,4.416-1.352,5.494-3.282
					c-0.049,0.277-0.121,0.555-0.215,0.83c-0.998,2.888-4.146,4.421-7.035,3.425c-0.803-0.277-1.502-0.721-2.07-1.28l-2.623-0.024
					l1.244-2.196C76.174,32.13,76.166,32.11,76.16,32.091z"/>
			</g>
			<g>
				<path fill="#ED1A6A" d="M79.619,28.859L79.619,28.859c0.477-0.479,1.254-0.393,1.732,0.086l0.074,0.075l0.074-0.075
					c0.479-0.479,1.256-0.564,1.734-0.086l0,0c0.479,0.479,0.479,1.255,0,1.733l-0.074,0.075l-1.506,1.505
					c-0.125,0.126-0.332,0.126-0.457,0l-1.506-1.505l-0.072-0.075C79.139,30.114,79.139,29.338,79.619,28.859z"/>
			</g>
		</g>
		<g>
			<g>
				<g>
					<g>
						<g>
							<path fill="#E37A33" d="M35.932,67.403c0,0-1.618-2.658-3.673-2.941c-2.267-0.311-4.642,1.54-4.146,4.726
								c0.58,3.73,5.679,3.25,5.679,3.25L35.932,67.403z"/>
						</g>
						<g opacity="0.3">
							<g>
								<g>
									<path fill="#1B154E" d="M28.097,69.078C28.097,69.078,28.097,69.078,28.097,69.078c0.496,3.85,5.694,3.359,5.694,3.359
										l2.141-5.032c0,0-0.718-1.184-1.806-2.054l-1.133,2.825c-0.782,1.948-3.322,2.506-4.795,1.008
										C28.164,69.15,28.13,69.114,28.097,69.078"/>
								</g>
							</g>
						</g>
						<g>
							<path fill="#1B154E" d="M33.143,72.913c-2.003,0-5.019-0.737-5.473-3.656c-0.249-1.603,0.159-3.038,1.148-4.045
								c0.908-0.924,2.216-1.37,3.501-1.193c2.241,0.307,3.925,3.038,3.995,3.155c0.075,0.121,0.086,0.274,0.029,0.406l-2.141,5.031
								c-0.063,0.152-0.206,0.255-0.369,0.271C33.623,72.9,33.39,72.913,33.143,72.913z M31.762,64.876
								c-0.86,0-1.698,0.343-2.306,0.963c-0.787,0.8-1.107,1.967-0.902,3.28c0.439,2.821,3.942,2.918,4.934,2.886l1.937-4.555
								c-0.398-0.584-1.708-2.336-3.228-2.545C32.052,64.885,31.907,64.876,31.762,64.876z"/>
						</g>
						<g>
							<path fill="#E37A33" d="M40.542,49.684c0,0-6.687,13.859-8.868,26.421l18.231,4.572l0,0l18.231-4.572
								c-2.182-12.562-8.869-26.421-8.869-26.421"/>
						</g>
						<g>
							<path fill="#1B154E" d="M49.906,81.125c-0.041,0-0.08-0.004-0.117-0.015l-18.222-4.572c-0.228-0.057-0.372-0.279-0.333-0.51
								c2.167-12.479,8.838-26.401,8.906-26.54c0.107-0.222,0.375-0.315,0.597-0.209c0.223,0.107,0.316,0.375,0.209,0.599
								c-0.065,0.136-6.54,13.647-8.757,25.895l17.717,4.444l17.717-4.444c-2.217-12.247-8.691-25.759-8.758-25.895
								c-0.107-0.224-0.014-0.491,0.209-0.599c0.223-0.106,0.49-0.013,0.598,0.209c0.066,0.139,6.74,14.062,8.904,26.54
								c0.041,0.23-0.104,0.453-0.332,0.51L50.027,81.11C49.988,81.121,49.947,81.125,49.906,81.125z"/>
						</g>
						<g>
							<path fill="#E37A33" d="M69.592,82.154h-40.17c0,0-4.341-1.288-2.975-6.883c0.838-3.429,2.787-4.986,4.781-5.208
								c2.251-0.247,4.563,1.206,5.404,3.588h25.75c0.959-2.717,3.828-4.225,6.342-3.378c1.645,0.552,3.137,2.112,3.842,4.998
								C73.934,80.866,69.592,82.154,69.592,82.154"/>
						</g>
						<g>
							<path fill="#1B154E" d="M61.977,73.509c0.342-0.965,0.932-1.846,1.707-2.517c0.773-0.673,1.732-1.146,2.756-1.315
								c1.02-0.174,2.105-0.021,3.039,0.442c0.938,0.46,1.699,1.207,2.252,2.051c0.555,0.845,0.93,1.78,1.184,2.732
								c0.256,0.949,0.404,1.952,0.326,2.969c-0.039,0.507-0.139,1.015-0.311,1.503c-0.172,0.487-0.416,0.952-0.729,1.369
								c-0.311,0.417-0.684,0.784-1.1,1.088c-0.207,0.155-0.426,0.292-0.652,0.414c-0.113,0.062-0.23,0.12-0.35,0.172
								c-0.061,0.027-0.121,0.053-0.182,0.077l-0.096,0.036c-0.035,0.012-0.061,0.021-0.107,0.036
								c-0.039,0.013-0.078,0.018-0.115,0.018h-0.008h-40.17H29.42c-0.041,0-0.083-0.007-0.121-0.018h0
								c-0.047-0.014-0.074-0.024-0.108-0.036l-0.095-0.034c-0.063-0.022-0.124-0.049-0.183-0.074
								c-0.121-0.051-0.238-0.107-0.353-0.168c-0.229-0.12-0.45-0.255-0.66-0.407c-0.419-0.304-0.797-0.67-1.112-1.087
								c-0.635-0.833-0.989-1.867-1.061-2.886c-0.08-1.022,0.07-2.029,0.325-2.984c0.255-0.954,0.629-1.896,1.19-2.747
								c0.56-0.847,1.329-1.599,2.276-2.059c0.94-0.467,2.036-0.607,3.059-0.426c1.026,0.178,1.983,0.656,2.748,1.336
								c0.761,0.688,1.315,1.604,1.509,2.587c0.023,0.117-0.054,0.232-0.171,0.254c-0.096,0.02-0.189-0.027-0.234-0.108
								l-0.001-0.003c-0.441-0.813-0.981-1.527-1.661-2.085c-0.668-0.566-1.484-0.962-2.337-1.095
								c-0.853-0.137-1.733-0.002-2.497,0.382c-0.767,0.38-1.409,1.005-1.89,1.745c-0.485,0.74-0.832,1.587-1.066,2.468
								c-0.237,0.879-0.368,1.783-0.301,2.661c0.035,0.438,0.116,0.866,0.256,1.273s0.338,0.792,0.592,1.139
								c0.253,0.346,0.562,0.654,0.908,0.911c0.174,0.131,0.355,0.252,0.544,0.357c0.095,0.052,0.191,0.102,0.289,0.146
								c0.048,0.022,0.097,0.045,0.146,0.065l0.072,0.027l0.061,0.022l-0.123-0.018h40.17l-0.121,0.018l0.061-0.022l0.072-0.027
								c0.049-0.02,0.098-0.04,0.146-0.061c0.098-0.044,0.195-0.092,0.291-0.144c0.191-0.102,0.375-0.219,0.551-0.349
								c0.352-0.258,0.662-0.565,0.92-0.912c0.52-0.69,0.807-1.542,0.871-2.424c0.068-0.884-0.061-1.794-0.299-2.679
								c-0.236-0.884-0.582-1.734-1.072-2.482c-0.488-0.743-1.139-1.371-1.914-1.751c-0.773-0.387-1.662-0.513-2.518-0.366
								c-0.855,0.141-1.67,0.541-2.332,1.115c-0.664,0.575-1.168,1.328-1.461,2.155l0,0c-0.08,0.225-0.324,0.342-0.549,0.261
								C62.014,73.978,61.896,73.732,61.977,73.509"/>
						</g>
						<g>
							<path fill="#E37A33" d="M75.984,76.852c-0.93,6.725-6.83,6.725-8.904,6.725H32.732c-2.075,0-7.975,0-8.905-6.725
								c-0.146-1.06-0.144-2.546,0.585-3.456c0.536-0.666,1.147-0.718,1.358-0.714c0.048,0,0.09-0.024,0.113-0.065
								c0.126-0.235,0.583-0.989,1.291-1.199c1.197-0.355,1.912,0.197,2.13,0.409c0.042,0.039,0.104,0.046,0.155,0.015
								c0.231-0.148,0.917-0.523,1.726-0.356c1.676,0.351,2.717,2.329,3.014,5.112h31.414c0.166-1.564,0.568-2.873,1.186-3.783
								c0.002-0.002,0.004-0.004,0.002-0.006c0.164-0.237,0.342-0.448,0.533-0.628c0.375-0.354,0.809-0.593,1.293-0.695
								c0.939-0.194,1.715,0.345,1.801,0.406c0.006,0.006,0.012,0.006,0.016,0c0.076-0.085,0.816-0.884,2.195-0.474
								c0.803,0.238,1.281,1.175,1.324,1.263c0.002,0.003,0.004,0.005,0.01,0.003c0.078-0.007,0.805-0.062,1.428,0.713
								C76.127,74.306,76.131,75.792,75.984,76.852"/>
						</g>
						<g opacity="0.3">
							<g>
								<g>
									<path fill="#FFFFFF" d="M33.967,75.179v1.074c-0.46-2.024-1.408-3.405-2.782-3.692c-0.999-0.207-1.81,0.412-1.81,0.412
										s-0.743-0.913-2.202-0.48c-0.84,0.251-1.327,1.268-1.327,1.268s-0.775-0.108-1.434,0.713
										c-0.402,0.5-0.583,1.175-0.64,1.858c-0.074-0.986,0.023-2.166,0.64-2.936c0.658-0.819,1.434-0.711,1.434-0.711
										s0.487-1.019,1.327-1.268c1.458-0.433,2.202,0.481,2.202,0.481s0.811-0.621,1.81-0.412
										C32.559,71.772,33.507,73.153,33.967,75.179"/>
								</g>
							</g>
						</g>
						<g opacity="0.3">
							<g>
								<g>
									<path fill="#FFFFFF" d="M76.039,76.34c-0.057-0.688-0.236-1.366-0.639-1.867c-0.66-0.821-1.436-0.713-1.436-0.713
										s-0.486-1.017-1.326-1.268c-1.457-0.433-2.201,0.48-2.201,0.48s-0.811-0.619-1.811-0.412
										c-1.377,0.287-2.326,1.673-2.785,3.703v-1.075c0.459-2.029,1.408-3.416,2.785-3.702c1-0.209,1.811,0.412,1.811,0.412
										s0.744-0.914,2.201-0.481c0.84,0.249,1.326,1.268,1.326,1.268s0.775-0.108,1.436,0.711
										C76.018,74.167,76.113,75.351,76.039,76.34"/>
								</g>
							</g>
						</g>
						<g>
							<path fill="#F8D8C2" d="M68.725,78.453c-0.078,1.371,0.826,2.535,2.018,2.602s2.217-0.992,2.293-2.362
								c0.076-1.371-0.826-2.535-2.018-2.603C69.826,76.025,68.801,77.083,68.725,78.453"/>
						</g>
						<g>
							<path fill="#F8D8C2" d="M73.051,76.077c-0.074,0.526,0.229,1.004,0.68,1.069c0.449,0.063,0.877-0.308,0.951-0.833
								c0.076-0.527-0.229-1.005-0.678-1.07C73.553,75.179,73.127,75.553,73.051,76.077"/>
						</g>
						<g>
							<path fill="#F8D8C2" d="M70.891,74.308c-0.076,0.525,0.229,1.003,0.678,1.067c0.451,0.066,0.877-0.308,0.953-0.832
								c0.076-0.525-0.227-1.005-0.678-1.07C71.395,73.409,70.967,73.782,70.891,74.308"/>
						</g>
						<g>
							<path fill="#F8D8C2" d="M68.207,74.716c-0.076,0.527,0.229,1.005,0.678,1.068c0.451,0.067,0.877-0.308,0.953-0.831
								c0.076-0.527-0.227-1.005-0.678-1.069C68.709,73.818,68.283,74.192,68.207,74.716"/>
						</g>
						<g>
							<path fill="#F8D8C2" d="M31.211,78.453c0.076,1.371-0.827,2.535-2.018,2.602s-2.218-0.992-2.294-2.362
								c-0.076-1.371,0.828-2.535,2.019-2.603C30.109,76.025,31.136,77.083,31.211,78.453"/>
						</g>
						<g opacity="0.25">
							<g>
								<g>
									<path fill="#1B154E" d="M75.984,76.852c-0.93,6.725-6.83,6.725-8.904,6.725H32.732c-2.075,0-7.975,0-8.905-6.725
										c-0.092-0.674-0.126-1.52,0.051-2.278c1.072,6.399,6.813,6.399,8.854,6.399h5.378c1.446,0,2.085-1.817,0.959-2.725
										c-0.663-0.537-1.321-1.09-1.964-1.651c-2.368-2.079-4.518-4.326-5.876-6.533c2.251-0.247,4.563,1.206,5.404,3.588h25.75
										c0.959-2.717,3.828-4.225,6.342-3.378c-0.406,0.634-0.873,1.271-1.391,1.906c-0.172,0.209-0.348,0.421-0.533,0.628
										c0.002,0.002,0,0.004-0.002,0.006c-1.121,1.289-2.434,2.565-3.82,3.783c-0.643,0.563-1.301,1.116-1.965,1.651
										c-1.125,0.907-0.486,2.725,0.961,2.725h5.105c2.041,0,7.783,0,8.854-6.4C76.111,75.332,76.076,76.178,75.984,76.852"/>
								</g>
							</g>
						</g>
						<g>
							<path fill="#F8D8C2" d="M26.884,76.077c0.075,0.526-0.229,1.004-0.679,1.069c-0.45,0.063-0.876-0.308-0.953-0.833
								c-0.075-0.527,0.229-1.005,0.679-1.07C26.381,75.179,26.808,75.553,26.884,76.077"/>
						</g>
						<g>
							<path fill="#F8D8C2" d="M29.044,74.308c0.076,0.525-0.228,1.003-0.678,1.067c-0.451,0.066-0.877-0.308-0.953-0.832
								c-0.076-0.525,0.228-1.005,0.678-1.07C28.542,73.409,28.969,73.782,29.044,74.308"/>
						</g>
						<g>
							<path fill="#F8D8C2" d="M31.729,74.716c0.075,0.527-0.228,1.005-0.679,1.068c-0.45,0.067-0.876-0.308-0.952-0.831
								c-0.076-0.527,0.228-1.005,0.678-1.069C31.226,73.818,31.652,74.192,31.729,74.716"/>
						</g>
						<g>
							<path fill="#1B154E" d="M33.986,76.619c-0.209-0.953-0.456-1.889-0.854-2.728c-0.098-0.211-0.208-0.412-0.329-0.603
								c-0.119-0.192-0.25-0.372-0.394-0.535c-0.286-0.326-0.621-0.591-1-0.735c-0.094-0.038-0.192-0.063-0.291-0.088
								c-0.049-0.013-0.095-0.02-0.143-0.029c-0.048-0.003-0.095-0.013-0.144-0.013c-0.193-0.01-0.393,0.015-0.588,0.069
								c-0.098,0.031-0.195,0.065-0.29,0.108c-0.047,0.021-0.093,0.043-0.139,0.068c-0.022,0.012-0.044,0.024-0.066,0.036
								l-0.033,0.021l-0.015,0.01c0.003-0.004-0.023,0.014-0.058,0.032c-0.125,0.063-0.276,0.074-0.405,0.036
								c-0.065-0.019-0.126-0.05-0.179-0.089c-0.021-0.014-0.063-0.054-0.058-0.049l-0.012-0.011
								c-0.032-0.031-0.068-0.06-0.106-0.089c-0.075-0.056-0.159-0.105-0.246-0.146c-0.348-0.169-0.759-0.191-1.167-0.101
								l-0.154,0.04c-0.049,0.014-0.083,0.025-0.126,0.042c-0.081,0.035-0.161,0.081-0.24,0.137
								c-0.157,0.111-0.305,0.26-0.436,0.429c-0.065,0.085-0.127,0.174-0.183,0.265l-0.042,0.07l-0.019,0.035l-0.009,0.017
								c-0.013,0.022-0.034,0.056-0.054,0.08c-0.083,0.107-0.214,0.185-0.348,0.203c-0.033,0.006-0.07,0.009-0.097,0.008h-0.015
								c-0.009,0-0.019,0.001-0.029,0.001c-0.167,0.007-0.349,0.062-0.51,0.152c-0.163,0.091-0.31,0.223-0.439,0.376
								c-0.128,0.153-0.231,0.33-0.313,0.526c-0.164,0.391-0.242,0.84-0.266,1.297c-0.022,0.458,0.005,0.927,0.074,1.391
								c0.136,0.939,0.388,1.858,0.812,2.687c0.42,0.826,1.018,1.551,1.757,2.099c0.737,0.554,1.606,0.93,2.517,1.162
								c0.914,0.235,1.867,0.326,2.832,0.34l5.912,0.002h11.837h11.836l5.912-0.004c0.963-0.017,1.916-0.109,2.828-0.35
								c0.91-0.237,1.775-0.62,2.51-1.177c0.732-0.557,1.326-1.287,1.74-2.116c0.418-0.829,0.666-1.749,0.797-2.688
								c0.064-0.465,0.092-0.936,0.064-1.392c-0.027-0.457-0.109-0.905-0.281-1.29c-0.086-0.191-0.189-0.367-0.322-0.517
								c-0.133-0.151-0.281-0.28-0.447-0.362c-0.16-0.088-0.346-0.136-0.508-0.137c-0.01,0.001-0.02,0-0.025,0.001h-0.012
								c-0.059-0.001,0.121,0.005-0.131-0.005c-0.488-0.26-0.264-0.265-0.32-0.246l-0.008-0.017l-0.018-0.033
								c-0.025-0.045-0.053-0.091-0.082-0.138c-0.057-0.091-0.119-0.18-0.186-0.263c-0.133-0.167-0.281-0.315-0.439-0.422
								c-0.162-0.113-0.303-0.162-0.525-0.21c-0.41-0.089-0.818-0.055-1.164,0.119c-0.086,0.04-0.168,0.092-0.242,0.151
								c-0.037,0.026-0.072,0.058-0.104,0.087l-0.02,0.022l-0.012,0.011c-0.037,0.032,0.074-0.068-0.082,0.076
								c-0.404,0.2-0.621-0.098-0.521-0.008l-0.014-0.009l-0.027-0.019c-0.17-0.107-0.365-0.194-0.561-0.253
								c-0.195-0.057-0.395-0.079-0.588-0.07c-0.098,0.005-0.191,0.018-0.287,0.043c-0.1,0.024-0.195,0.051-0.291,0.09
								c-0.379,0.143-0.711,0.408-0.998,0.734c-0.285,0.328-0.521,0.722-0.719,1.137c-0.398,0.84-0.645,1.774-0.859,2.728
								l-0.002,0.002c-0.025,0.115-0.141,0.189-0.258,0.163c-0.1-0.022-0.168-0.114-0.168-0.211
								c-0.002-1.006,0.148-2.028,0.527-3.006c0.191-0.487,0.445-0.966,0.797-1.392c0.348-0.424,0.813-0.793,1.359-0.997
								c0.135-0.052,0.277-0.092,0.42-0.122c0.143-0.031,0.295-0.05,0.445-0.056c0.299-0.009,0.594,0.038,0.869,0.121
								c0.279,0.083,0.537,0.202,0.785,0.364l0.047,0.03l0.023,0.019c0.109,0.098-0.092-0.186-0.48,0.006
								c-0.146,0.133-0.025,0.021-0.053,0.042l0.023-0.023l0.043-0.045c0.059-0.055,0.117-0.104,0.178-0.15
								c0.123-0.093,0.25-0.172,0.385-0.237c0.541-0.273,1.172-0.311,1.723-0.19c0.141,0.031,0.27,0.062,0.426,0.124
								c0.15,0.058,0.285,0.134,0.41,0.217c0.25,0.172,0.453,0.38,0.627,0.599c0.088,0.109,0.166,0.223,0.24,0.34
								c0.037,0.059,0.072,0.119,0.107,0.182l0.025,0.049l0.014,0.025c-0.049,0.028,0.176,0.045-0.295-0.211
								c-0.236-0.009-0.043-0.006-0.086-0.007l0.035-0.002c0.023-0.002,0.045-0.002,0.068-0.002c0.33,0.005,0.633,0.091,0.906,0.235
								c0.275,0.141,0.506,0.344,0.697,0.562c0.193,0.22,0.346,0.474,0.461,0.731c0.227,0.521,0.318,1.06,0.352,1.587
								c0.031,0.527,0.002,1.048-0.07,1.562c-0.143,1.01-0.412,2.021-0.883,2.957c-0.234,0.467-0.52,0.91-0.852,1.319
								c-0.334,0.408-0.719,0.775-1.137,1.096c-0.84,0.639-1.814,1.064-2.813,1.323c-0.998,0.262-2.021,0.361-3.029,0.38
								l-5.928,0.004H49.931H38.094l-5.926-0.004c-1.007-0.014-2.031-0.109-3.031-0.365c-0.997-0.254-1.975-0.676-2.819-1.308
								c-0.846-0.626-1.536-1.466-2.008-2.399c-0.478-0.93-0.751-1.941-0.898-2.952c-0.075-0.512-0.107-1.032-0.081-1.559
								c0.028-0.525,0.115-1.064,0.333-1.587c0.108-0.258,0.254-0.516,0.443-0.739c0.186-0.225,0.412-0.429,0.68-0.578
								s0.569-0.248,0.896-0.263c0.021-0.002,0.041-0.002,0.063-0.002h0.032c-0.012-0.002-0.034,0-0.051,0.004
								c-0.074,0.01-0.147,0.053-0.193,0.113c-0.011,0.014-0.023,0.032-0.028,0.04l0.014-0.021l0.025-0.047l0.054-0.091
								c0.073-0.118,0.151-0.231,0.237-0.343c0.172-0.219,0.373-0.428,0.617-0.602c0.124-0.088,0.257-0.165,0.403-0.229
								c0.071-0.029,0.154-0.057,0.223-0.077l0.205-0.054c0.276-0.06,0.569-0.087,0.863-0.063c0.294,0.021,0.589,0.1,0.861,0.228
								c0.135,0.065,0.266,0.143,0.389,0.231c0.061,0.047,0.121,0.093,0.179,0.147l0.022,0.02c0.017,0.015-0.013-0.013-0.022-0.018
								c-0.028-0.022-0.061-0.04-0.096-0.05c-0.071-0.021-0.155-0.016-0.225,0.022c-0.022,0.01-0.035,0.019-0.018,0.007l0.023-0.012
								l0.046-0.031c0.032-0.017,0.063-0.036,0.094-0.054c0.063-0.034,0.127-0.066,0.192-0.097c0.13-0.06,0.264-0.111,0.403-0.153
								c0.276-0.084,0.571-0.13,0.872-0.121c0.075,0,0.15,0.013,0.225,0.018c0.074,0.013,0.151,0.022,0.221,0.038
								c0.141,0.03,0.282,0.07,0.417,0.122c0.271,0.104,0.528,0.245,0.755,0.417c0.229,0.17,0.428,0.371,0.604,0.582
								c0.351,0.426,0.603,0.903,0.793,1.39c0.377,0.979,0.526,2,0.532,3.006c0.001,0.12-0.096,0.216-0.215,0.216
								c-0.104,0.001-0.191-0.07-0.212-0.168V76.619z"/>
						</g>
						<g>
							<path fill="#E37A33" d="M41.29,22.478l-7.76,7.613c0,0-3.536-0.39-6.054-3.199c-0.851-0.948-1.586-2.175-2.03-3.754
								c-1.364-4.861,2.294-8.964,7.37-9.179c2.406-0.102,4.212,1.119,5.524,2.666v0.001C40.459,19.126,41.29,22.478,41.29,22.478"
								/>
						</g>
						<g opacity="0.4">
							<g>
								<g>
									<path fill="#FFFFFF" d="M40.149,19.462c-1.433-2.239-3.663-4.374-6.929-4.237c-4.106,0.175-7.347,2.726-8.054,6.208
										c-0.192-4.082,3.179-7.287,7.649-7.476C36.623,13.796,38.924,16.947,40.149,19.462"/>
								</g>
							</g>
						</g>
						<g opacity="0.25">
							<g>
								<g>
									<path fill="#1B154E" d="M41.29,22.478l-7.76,7.613c0,0-3.536-0.39-6.054-3.199c0.087,0,2.089-1.008,2.156-2.424
										c0.15-3.216,5.682-5.845,5.682-5.845s2.698-0.014,3.026-1.997C40.459,19.126,41.29,22.478,41.29,22.478"/>
								</g>
							</g>
						</g>
						<g>
							<path fill="#1B154E" d="M33.53,30.538c-0.017,0-0.034-0.001-0.05-0.002c-0.068-0.007-1.688-0.195-3.544-1.181
								c-1.721-0.913-3.971-2.712-4.921-6.096c-0.638-2.277-0.262-4.534,1.059-6.354c1.477-2.038,3.928-3.274,6.723-3.393
								c2.747-0.116,5.167,1.396,6.999,4.372c1.353,2.197,1.907,4.394,1.929,4.486c0.06,0.24-0.087,0.482-0.326,0.542
								c-0.24,0.06-0.483-0.087-0.543-0.326c-0.021-0.084-2.17-8.431-8.021-8.18c-2.52,0.107-4.721,1.209-6.037,3.023
								c-1.157,1.596-1.484,3.58-0.921,5.587c0.69,2.46,2.188,4.322,4.45,5.533c1.708,0.914,3.237,1.095,3.252,1.097
								c0.246,0.027,0.423,0.249,0.395,0.494C33.948,30.368,33.754,30.538,33.53,30.538z"/>
						</g>
						<g>
							<path fill="#F19EA8" d="M37.772,22.654c0,0-1.213-4.891-4.717-4.742c-2.825,0.12-4.861,2.402-4.102,5.109
								c0.977,3.482,4.499,3.871,4.499,3.871"/>
						</g>
						<g>
							<path fill="#F19EA8" d="M37.772,22.655l-3.614,3.544l-0.706,0.693c0,0-3.523-0.389-4.5-3.871
								c-0.758-2.706,1.277-4.99,4.103-5.109c0.995-0.042,1.806,0.322,2.456,0.866C37.151,20.146,37.772,22.655,37.772,22.655"/>
						</g>
						<g>
							<path fill="#ED7B8A" d="M37.772,22.655l-3.614,3.544c-0.646-0.57-1.229-1.374-1.546-2.503
								c-0.646-2.303,0.733-4.3,2.899-4.917C37.151,20.146,37.772,22.655,37.772,22.655"/>
						</g>
						<g>
							<path fill="#1B154E" d="M33.453,27.339c-0.016,0-0.033-0.001-0.05-0.002c-0.156-0.017-3.834-0.464-4.881-4.194
								c-0.373-1.327-0.152-2.643,0.619-3.707c0.858-1.184,2.278-1.901,3.895-1.97c3.83-0.16,5.117,4.867,5.171,5.081
								c0.059,0.24-0.087,0.483-0.327,0.542c-0.239,0.06-0.482-0.087-0.542-0.326l0,0c-0.011-0.045-1.172-4.538-4.264-4.403
								c-1.342,0.057-2.511,0.641-3.208,1.602c-0.608,0.837-0.779,1.882-0.482,2.94c0.884,3.154,4.085,3.542,4.117,3.545
								c0.246,0.028,0.423,0.249,0.396,0.494C33.872,27.169,33.678,27.339,33.453,27.339z"/>
						</g>
						<g>
							<path fill="#E37A33" d="M58.766,22.478l7.76,7.613c0,0,3.535-0.39,6.055-3.199c0.852-0.948,1.588-2.175,2.029-3.754
								c1.363-4.861-2.293-8.964-7.369-9.179c-2.408-0.102-4.213,1.119-5.523,2.666v0.001
								C59.596,19.126,58.766,22.478,58.766,22.478"/>
						</g>
						<g opacity="0.4">
							<g>
								<g>
									<path fill="#FFFFFF" d="M59.906,19.462c1.434-2.239,3.662-4.374,6.928-4.237c4.107,0.175,7.35,2.726,8.055,6.208
										c0.191-4.082-3.178-7.287-7.648-7.476C63.434,13.796,61.131,16.947,59.906,19.462"/>
								</g>
							</g>
						</g>
						<g opacity="0.25">
							<g>
								<g>
									<path fill="#1B154E" d="M58.766,22.478l7.76,7.613c0,0,3.535-0.39,6.055-3.199c-0.088,0-2.09-1.008-2.156-2.424
										c-0.15-3.216-5.682-5.845-5.682-5.845s-2.697-0.014-3.025-1.997C59.596,19.126,58.766,22.478,58.766,22.478"/>
								</g>
							</g>
						</g>
						<g>
							<path fill="#1B154E" d="M66.525,30.538c-0.225,0-0.418-0.169-0.443-0.398c-0.027-0.246,0.148-0.467,0.396-0.494
								c0.014-0.001,1.543-0.183,3.25-1.097c2.264-1.211,3.76-3.072,4.451-5.533c0.563-2.007,0.234-3.991-0.922-5.586
								c-1.314-1.814-3.516-2.917-6.037-3.024c-5.867-0.252-8,8.095-8.021,8.18c-0.059,0.239-0.301,0.386-0.541,0.327
								c-0.24-0.06-0.387-0.302-0.328-0.543c0.023-0.092,0.578-2.289,1.93-4.486c1.834-2.976,4.254-4.487,7-4.372
								c2.795,0.119,5.246,1.355,6.723,3.393c1.32,1.821,1.697,4.078,1.059,6.354c-0.949,3.383-3.199,5.183-4.92,6.096
								c-1.855,0.985-3.479,1.173-3.547,1.181C66.559,30.537,66.543,30.538,66.525,30.538z"/>
						</g>
						<g>
							<path fill="#F19EA8" d="M62.283,22.654c0,0,1.213-4.891,4.719-4.742c2.824,0.12,4.861,2.402,4.102,5.109
								c-0.977,3.482-4.5,3.871-4.5,3.871"/>
						</g>
						<g>
							<path fill="#F19EA8" d="M62.283,22.655l3.615,3.544l0.705,0.693c0,0,3.523-0.389,4.5-3.871
								c0.76-2.706-1.277-4.99-4.104-5.109c-0.994-0.042-1.805,0.322-2.455,0.866C62.906,20.146,62.283,22.655,62.283,22.655"/>
						</g>
						<g>
							<path fill="#ED7B8A" d="M62.283,22.655l3.615,3.544c0.646-0.57,1.229-1.374,1.545-2.503c0.646-2.303-0.732-4.3-2.898-4.917
								C62.906,20.146,62.283,22.655,62.283,22.655"/>
						</g>
						<g>
							<path fill="#1B154E" d="M66.604,27.339c-0.225,0-0.42-0.169-0.445-0.398c-0.025-0.246,0.152-0.466,0.396-0.494
								c0.131-0.015,3.236-0.407,4.117-3.545c0.297-1.058,0.125-2.103-0.48-2.94c-0.697-0.961-1.867-1.544-3.209-1.602
								c-3.094-0.132-4.252,4.357-4.264,4.403c-0.061,0.239-0.305,0.386-0.543,0.326c-0.24-0.06-0.387-0.302-0.326-0.542
								c0.053-0.214,1.348-5.241,5.17-5.081c1.617,0.069,3.037,0.787,3.896,1.97c0.77,1.064,0.99,2.381,0.617,3.707
								c-1.045,3.73-4.725,4.177-4.881,4.194C66.637,27.338,66.619,27.339,66.604,27.339z"/>
						</g>
						<g>
							<path fill="#E37A33" d="M70.225,48.337c-2.252,4.63-10.947,8.939-20.195,8.938c-9.248,0-17.935-4.309-20.185-8.938
								c-3.843-7.899,0.146-19.388,3.913-23.919c2.015-2.426,4.354-4.25,7.161-5.442c0.001-0.002,0.003-0.002,0.004-0.003
								c3.13-1.959,9.368-5.885,11.272-5.827c2.033,0.062,0.631,2.806,0.631,2.806s5.053-1.241,5.758-0.077
								c0.746,1.077-0.43,2.114-1.02,2.542c3.848,1.213,6.922,3.343,8.748,6C68.637,27.803,74.066,40.438,70.225,48.337"/>
						</g>
						<g>
							<path fill="#E37A33" d="M70.225,48.337c-2.252,4.63-10.947,8.939-20.195,8.938c-9.248,0-17.935-4.309-20.185-8.938
								c-3.843-7.899,0.146-19.388,3.913-23.919c2.015-2.426,4.354-4.25,7.161-5.442c0.001-0.002,0.003-0.002,0.004-0.003
								c3.13-1.959,9.368-5.885,11.272-5.827c2.033,0.062,0.631,2.806,0.631,2.806s5.053-1.241,5.758-0.077
								c0.746,1.077-0.43,2.114-1.02,2.542c3.848,1.213,6.922,3.343,8.748,6C68.637,27.803,74.066,40.438,70.225,48.337"/>
						</g>
						<g opacity="0.4">
							<g>
								<g>
									<path fill="#FFFFFF" d="M71.547,42.553c-0.24-6.838-3.553-14.136-5.234-16.587c-1.826-2.658-4.9-4.788-8.748-6
										c-1.895-1.188,0.994-1.955,0.498-2.952c-0.496-0.998-5.193-0.495-5.443-0.801c-0.266-0.324,0.5-1.459-0.424-1.52
										c-1.9-0.123-8.143,3.868-11.273,5.828c-0.001,0.001-0.003,0.001-0.004,0.002c-2.808,1.191-5.146,3.016-7.16,5.442
										c-2.573,3.096-5.252,9.439-5.464,15.665c-0.233-6.698,2.676-13.861,5.464-17.214c2.014-2.426,4.353-4.25,7.16-5.441
										c0.001-0.001,0.002-0.001,0.004-0.003c3.13-1.958,9.369-5.884,11.273-5.826c2.033,0.062,0.631,2.806,0.631,2.806
										s5.053-1.242,5.758-0.078c0.746,1.078-0.43,2.115-1.02,2.543c3.848,1.213,6.922,3.343,8.748,5.999
										C68.123,27.054,71.818,35.301,71.547,42.553"/>
								</g>
							</g>
						</g>
						<g opacity="0.25">
							<g>
								<g>
									<path fill="#1B154E" d="M71.098,45.895c-0.211,0.851-0.496,1.668-0.873,2.442c-2.252,4.63-10.947,8.939-20.197,8.938
										c-9.246,0-17.932-4.309-20.182-8.938c-0.403-0.829-0.719-1.694-0.959-2.589c3.168,4.563,11.901,8.556,21.149,8.556
										C59.191,54.306,67.842,50.397,71.098,45.895"/>
								</g>
							</g>
						</g>
						<g>
							<path fill="#1B154E" d="M36.553,41.098c-0.011-0.475,0.044-0.959,0.17-1.439c0.129-0.478,0.337-0.951,0.637-1.376
								c0.299-0.424,0.684-0.805,1.14-1.086c0.452-0.285,0.969-0.475,1.5-0.554c0.531-0.081,1.079-0.049,1.595,0.087
								c0.516,0.141,1,0.384,1.412,0.708c0.103,0.081,0.206,0.162,0.296,0.256l0.139,0.137c0.046,0.046,0.087,0.096,0.129,0.145
								l0.124,0.148c0.04,0.05,0.075,0.104,0.112,0.156l0.11,0.156c0.036,0.053,0.064,0.109,0.098,0.163
								c0.25,0.439,0.425,0.909,0.508,1.385c0.044,0.251-0.125,0.491-0.376,0.535c-0.205,0.036-0.402-0.069-0.492-0.246
								l-0.006-0.012c-0.365-0.721-0.848-1.319-1.452-1.696c-0.3-0.188-0.624-0.324-0.96-0.399
								c-0.335-0.075-0.682-0.085-1.018-0.038c-0.675,0.095-1.305,0.44-1.772,0.987c-0.483,0.54-0.776,1.275-0.981,2.069
								l-0.004,0.016c-0.063,0.247-0.315,0.396-0.563,0.331C36.695,41.481,36.559,41.299,36.553,41.098"/>
						</g>
						<g>
							<path fill="#1B154E" d="M62.426,41.187c-0.205-0.794-0.498-1.529-0.982-2.069c-0.467-0.546-1.098-0.892-1.771-0.987
								c-0.336-0.047-0.684-0.037-1.018,0.038c-0.338,0.075-0.66,0.211-0.963,0.399c-0.604,0.376-1.086,0.975-1.451,1.696
								l-0.006,0.011c-0.115,0.228-0.393,0.319-0.621,0.203c-0.186-0.094-0.281-0.297-0.246-0.492
								c0.082-0.477,0.258-0.946,0.508-1.385c0.033-0.054,0.063-0.11,0.098-0.163l0.109-0.156c0.037-0.052,0.074-0.106,0.113-0.156
								l0.125-0.148c0.041-0.049,0.082-0.099,0.127-0.145l0.139-0.137c0.092-0.094,0.193-0.175,0.297-0.256
								c0.412-0.325,0.896-0.568,1.412-0.708c0.516-0.137,1.064-0.168,1.594-0.087c0.533,0.079,1.051,0.269,1.502,0.554
								c0.455,0.281,0.842,0.662,1.139,1.086c0.301,0.426,0.51,0.898,0.639,1.376c0.125,0.48,0.182,0.964,0.17,1.439
								c-0.006,0.255-0.217,0.457-0.473,0.451c-0.211-0.005-0.387-0.151-0.436-0.346L62.426,41.187z"/>
						</g>
						<g>
							<path fill="#F8D8C2" d="M42.366,46.055c0-3.343,4.635-6.707,7.661-6.707c3.027,0,7.662,3.363,7.662,6.707
								s-2.52,4.928-7.662,4.928C44.886,50.983,42.366,49.398,42.366,46.055"/>
						</g>
						<g>
							<path fill="#1B154E" d="M50.031,57.723h-0.002c-4.422,0-9.005-0.986-12.903-2.774c-3.734-1.713-6.535-4.052-7.684-6.416
								c-2.238-4.597-1.742-9.887-0.932-13.515c0.938-4.206,2.818-8.376,4.903-10.886c2.112-2.542,4.5-4.359,7.297-5.553
								l0.131-0.083c4.528-2.834,9.517-5.849,11.366-5.797c0.777,0.023,1.15,0.382,1.326,0.678c0.338,0.572,0.207,1.363,0.021,1.957
								c0.49-0.099,1.146-0.217,1.832-0.301c2.025-0.247,3.162-0.057,3.572,0.598c0.561,0.818,0.373,1.746-0.5,2.616
								c3.555,1.266,6.455,3.348,8.221,5.918c1.283,1.869,3.189,5.923,4.336,10.409c1.006,3.936,1.754,9.554-0.389,13.958l0,0
								c-1.148,2.365-3.953,4.703-7.689,6.416C59.037,56.736,54.455,57.723,50.031,57.723z M41.165,19.349
								c-0.022,0.015-0.047,0.027-0.071,0.038c-2.677,1.137-4.965,2.876-6.992,5.317c-3.455,4.156-7.697,15.541-3.855,23.437
								c2.031,4.178,10.171,8.686,19.782,8.686c0,0,0.002,0,0.004,0c9.613,0.002,17.758-4.508,19.789-8.686l0,0
								c3.861-7.934-1.904-20.594-3.879-23.47c-1.777-2.587-4.801-4.656-8.514-5.825c-0.162-0.051-0.281-0.188-0.309-0.355
								c-0.025-0.167,0.043-0.334,0.18-0.434c0.559-0.406,1.422-1.196,0.914-1.925c-0.006-0.008-0.01-0.016-0.016-0.024
								c-0.283-0.47-2.744-0.34-5.268,0.28c-0.17,0.042-0.348-0.02-0.457-0.157c-0.109-0.137-0.127-0.325-0.047-0.481
								c0.221-0.436,0.594-1.478,0.334-1.917c-0.033-0.056-0.133-0.225-0.582-0.238c-0.012,0-0.023-0.001-0.035-0.001
								c-1.783,0-8.115,3.963-10.828,5.662L41.165,19.349z"/>
						</g>
						<g>
							<path fill="#F8D8C2" d="M53.826,44.738c-0.459,1.176-1.402,1.462-1.887,1.511c-1.225,0.123-1.912-0.771-1.912-1.811v-1.217
								h0.014v1.217c0,1.04-0.686,1.934-1.911,1.811c-0.484-0.049-1.429-0.335-1.887-1.511l3.784-3.347L53.826,44.738z"/>
						</g>
						<g opacity="0.25">
							<g>
								<g>
									<path fill="#1B154E" d="M53.719,44.979c-0.484,0.975-1.33,1.225-1.779,1.271c-1.156,0.117-1.834-0.674-1.904-1.638
										c-0.073,0.963-0.749,1.754-1.905,1.638c-0.449-0.045-1.294-0.295-1.778-1.269c0.277,0.094,0.532,0.142,0.734,0.161
										c1.791,0.18,2.835-1.041,2.949-2.532c0.111,1.492,1.158,2.712,2.945,2.532C53.186,45.122,53.439,45.074,53.719,44.979"/>
								</g>
							</g>
						</g>
						<g>
							<path fill="#1B154E" d="M50.473,43.221v0.848l-0.002,0.433c-0.004,0.167-0.021,0.335-0.059,0.502
								c-0.074,0.332-0.211,0.66-0.43,0.944c-0.219,0.285-0.535,0.512-0.877,0.619c-0.346,0.108-0.699,0.115-1.022,0.064
								c-0.334-0.052-0.644-0.165-0.924-0.333s-0.522-0.394-0.711-0.649c-0.186-0.258-0.321-0.542-0.406-0.833
								c-0.033-0.114,0.033-0.234,0.147-0.267c0.102-0.03,0.208,0.019,0.254,0.111c0.235,0.473,0.596,0.847,1.035,1.04
								c0.219,0.097,0.457,0.155,0.685,0.166c0.236,0.005,0.461-0.029,0.649-0.113c0.188-0.083,0.35-0.196,0.484-0.353
								c0.135-0.155,0.227-0.359,0.275-0.578c0.023-0.109,0.035-0.224,0.037-0.339l0.002-0.413v-0.848c0-0.237,0.193-0.43,0.43-0.43
								C50.279,42.792,50.473,42.984,50.473,43.221"/>
						</g>
						<g>
							<path fill="#1B154E" d="M50.457,43.221v0.848l0.002,0.413c0.002,0.115,0.016,0.229,0.039,0.339
								c0.049,0.219,0.141,0.423,0.275,0.578c0.133,0.157,0.297,0.271,0.484,0.353c0.188,0.084,0.412,0.118,0.648,0.113
								c0.227-0.01,0.467-0.068,0.686-0.166c0.438-0.193,0.799-0.567,1.035-1.04c0.053-0.106,0.182-0.15,0.289-0.097
								c0.096,0.047,0.141,0.156,0.111,0.253c-0.084,0.291-0.221,0.575-0.406,0.833c-0.189,0.256-0.432,0.481-0.711,0.649
								c-0.281,0.168-0.592,0.281-0.924,0.333c-0.324,0.05-0.678,0.044-1.021-0.064c-0.344-0.107-0.658-0.334-0.875-0.619
								c-0.223-0.284-0.36-0.613-0.434-0.944c-0.035-0.167-0.053-0.334-0.057-0.502l-0.002-0.433v-0.848
								c0-0.237,0.193-0.43,0.43-0.43C50.266,42.792,50.457,42.984,50.457,43.221"/>
						</g>
						<g>
							<path fill="#1B154E" d="M52.906,42.395c0,1.589-2.879,2.304-2.879,2.304s-2.879-0.715-2.879-2.304
								c0-0.815,2.881-0.815,2.881-0.815S52.906,41.58,52.906,42.395"/>
						</g>
						<g opacity="0.5">
							<g>
								<g>
									<path fill="#FFFFFF" d="M51.279,42.236c0,0.412-0.711,0.597-1.238,0.597c-0.526,0-1.239-0.185-1.239-0.597
										c0-0.211,1.241-0.211,1.241-0.211S51.279,42.024,51.279,42.236"/>
								</g>
							</g>
						</g>
						<g>
							<path fill="#E85094" d="M70.35,62.884c0,8.49-20.307,20.146-20.307,20.146S29.734,71.374,29.734,62.884
								c0-1.254,0.192-2.463,0.551-3.599c1.527-4.855,6.063-8.374,11.421-8.374c3.242,0,6.179,1.288,8.337,3.382
								c2.154-2.094,5.094-3.382,8.334-3.382c5.611,0,10.324,3.863,11.619,9.075C70.227,60.913,70.35,61.884,70.35,62.884"/>
						</g>
						<g>
							<path fill="#E85094" d="M70.35,62.884c0,8.49-20.307,20.146-20.307,20.146S29.734,71.374,29.734,62.884
								c0-1.254,0.192-2.463,0.551-3.599c1.527-4.855,6.063-8.374,11.421-8.374c3.242,0,6.179,1.288,8.337,3.382
								c2.154-2.094,5.094-3.382,8.334-3.382c5.611,0,10.324,3.863,11.619,9.075C70.227,60.913,70.35,61.884,70.35,62.884"/>
						</g>
						<g opacity="0.4">
							<g>
								<g>
									<path fill="#FFFFFF" d="M70.35,62.884c0,0.238-0.016,0.479-0.047,0.723c-0.055-0.624-0.16-1.231-0.307-1.822
										c-1.295-5.211-6.008-9.075-11.619-9.075c-3.24,0-6.201,1.326-6.369,3.943c-2.159-2.093-7.06-3.943-10.301-3.943
										c-5.359,0-9.895,3.521-11.422,8.375c-0.255,0.809-0.425,1.651-0.503,2.524c-0.032-0.242-0.048-0.485-0.048-0.725
										c0-1.254,0.192-2.463,0.551-3.601c1.527-4.854,6.063-8.372,11.422-8.372c3.241,0,6.178,1.288,8.334,3.382
										c2.156-2.094,5.096-3.382,8.336-3.382c5.611,0,10.324,3.864,11.619,9.075C70.227,60.913,70.35,61.884,70.35,62.884"/>
								</g>
							</g>
						</g>
						<g>
							<path fill="#1B154E" d="M50.043,83.477c-0.079,0-0.155-0.021-0.225-0.061c-0.838-0.479-20.532-11.883-20.532-20.532
								c0-1.276,0.192-2.533,0.571-3.734c0.776-2.464,2.351-4.678,4.434-6.23c2.155-1.605,4.719-2.455,7.415-2.455
								c3.102,0,6.046,1.138,8.335,3.214c2.289-2.076,5.23-3.214,8.336-3.214c5.721,0,10.676,3.87,12.055,9.414
								c0.242,0.981,0.365,1.992,0.365,3.006c0,8.649-19.693,20.053-20.531,20.532C50.195,83.456,50.119,83.477,50.043,83.477z
								 M41.706,51.358c-5.059,0-9.477,3.24-10.994,8.062c-0.352,1.113-0.53,2.278-0.53,3.464c0,7.668,17.658,18.328,19.861,19.626
								C52.244,81.212,69.9,70.552,69.9,62.884c0-0.941-0.113-1.882-0.338-2.791c-1.279-5.143-5.879-8.734-11.186-8.734
								c-3.014,0-5.863,1.157-8.023,3.256c-0.174,0.168-0.45,0.168-0.624,0C47.567,52.516,44.717,51.358,41.706,51.358z"/>
						</g>
						<g>
							<path fill="#E52E7B" d="M68.146,62.646c0,1.644-0.854,3.42-2.191,5.193c-4.816,6.397-15.914,12.765-15.914,12.765
								s-11.117-6.38-15.927-12.783c-1.33-1.768-2.176-3.538-2.176-5.175c0-0.403,0.724-3.688,1.013-5.096
								c0.094,0.006,0.196,0.014,0.306,0.027c0.626,0.084,1.474,0.367,2.224,1.201c1.228,1.363,1.733,5.239,0.504,7.442
								c7.869,7.313,20.181,7.327,28.068,0.045c-1.26-2.195-0.756-6.114,0.479-7.487c1.4-1.558,3.145-1.195,3.145-1.195
								c0.115,0.039,0.232,0.087,0.348,0.146c0.07,0.037,0.139,0.074,0.205,0.119C68.234,59.181,68.146,62.243,68.146,62.646"/>
						</g>
						<g>
							<path fill="#E37A33" d="M30.97,56.582c0,0,1.742-0.362,3.142,1.193c1.416,1.574,1.871,6.485-0.185,8.323
								c-1.941,1.735-4.112,0.657-4.812-1.301C27.462,60.172,29.192,57.171,30.97,56.582"/>
						</g>
						<g opacity="0.4">
							<g>
								<g>
									<path fill="#FFFFFF" d="M33.352,57.119c-0.781-0.213-1.382-0.087-1.382-0.087c-1.778,0.589-3.508,3.59-1.854,8.216
										c0.248,0.694,0.68,1.278,1.223,1.665c-0.999-0.217-1.836-1.033-2.223-2.113c-1.652-4.628,0.077-7.629,1.856-8.22
										C30.971,56.58,32.153,56.336,33.352,57.119"/>
								</g>
							</g>
						</g>
						<g opacity="0.25">
							<g>
								<g>
									<path fill="#1B154E" d="M33.928,66.099c-1.695,1.517-3.568,0.885-4.479-0.603c0.852,0.254,2.303,0.439,2.093-0.964
										c0.918-0.188,2.421-1.306,2.024-2.854c-0.278-1.078-0.764-1.889-2.304-2.438c1.374-0.258,2.07-1.431,1.429-2.457
										c0.462,0.174,0.959,0.479,1.422,0.993C35.529,59.35,35.983,64.261,33.928,66.099"/>
								</g>
							</g>
						</g>
						<g>
							<path fill="#1B154E" d="M31.872,67.417c-0.244,0-0.488-0.029-0.73-0.091c-1.101-0.279-2.017-1.169-2.448-2.377
								c-0.904-2.531-0.923-4.908-0.051-6.692c0.509-1.043,1.306-1.807,2.187-2.101c0.016-0.005,0.033-0.009,0.05-0.012
								c0.082-0.02,2.011-0.396,3.566,1.332c0.882,0.979,1.421,3.064,1.313,5.068c-0.093,1.708-0.637,3.088-1.532,3.889
								C33.501,67.08,32.686,67.417,31.872,67.417z M31.083,57.018c-0.643,0.225-1.238,0.816-1.636,1.632
								c-0.442,0.907-1.019,2.894,0.09,6c0.331,0.927,1.014,1.603,1.826,1.81c0.759,0.192,1.543-0.046,2.266-0.694
								c0.716-0.641,1.154-1.801,1.234-3.268c0.095-1.759-0.36-3.617-1.084-4.42C32.647,56.817,31.285,56.984,31.083,57.018z"/>
						</g>
						<g>
							<path fill="#1B154E" d="M31.212,59.029c0.398-0.102,0.785-0.161,1.189-0.19c0.401-0.027,0.812-0.018,1.226,0.059
								c0.412,0.074,0.836,0.225,1.207,0.5c0.183,0.141,0.348,0.309,0.486,0.499c0.135,0.192,0.235,0.403,0.314,0.62
								c0.082,0.225-0.034,0.473-0.258,0.554c-0.223,0.08-0.471-0.035-0.552-0.258c-0.004-0.011-0.008-0.023-0.011-0.034
								l-0.004-0.014c-0.04-0.151-0.091-0.296-0.165-0.428c-0.077-0.129-0.171-0.25-0.286-0.355c-0.23-0.21-0.538-0.361-0.875-0.456
								c-0.337-0.094-0.702-0.141-1.07-0.149c-0.366-0.008-0.748,0.017-1.104,0.072L31.3,59.45c-0.117,0.02-0.228-0.062-0.247-0.179
								C31.036,59.162,31.106,59.057,31.212,59.029"/>
						</g>
						<g>
							<path fill="#1B154E" d="M31.573,64.317c0.366,0.028,0.756,0.018,1.125-0.029c0.372-0.048,0.735-0.134,1.059-0.276
								c0.327-0.137,0.605-0.34,0.799-0.589c0.097-0.126,0.167-0.267,0.223-0.414c0.057-0.146,0.081-0.308,0.101-0.469l0.003-0.024
								c0.029-0.235,0.246-0.402,0.481-0.372c0.236,0.031,0.403,0.246,0.373,0.482c-0.001,0.01-0.003,0.024-0.005,0.034
								c-0.048,0.226-0.106,0.452-0.211,0.667c-0.103,0.211-0.233,0.413-0.394,0.585c-0.324,0.345-0.732,0.574-1.144,0.706
								c-0.413,0.134-0.831,0.19-1.243,0.206c-0.415,0.012-0.815-0.01-1.23-0.079c-0.117-0.021-0.196-0.133-0.177-0.249
								c0.019-0.109,0.118-0.188,0.228-0.179H31.573z"/>
						</g>
						<g>
							<path fill="#E37A33" d="M69.129,56.582c0,0-1.742-0.362-3.145,1.193c-1.414,1.574-1.869,6.485,0.188,8.323
								c1.939,1.735,4.111,0.657,4.811-1.301C72.637,60.172,70.906,57.171,69.129,56.582"/>
						</g>
						<g opacity="0.4">
							<g>
								<g>
									<path fill="#FFFFFF" d="M66.746,57.119c0.781-0.213,1.383-0.087,1.383-0.087c1.779,0.589,3.508,3.59,1.854,8.216
										c-0.248,0.694-0.678,1.278-1.221,1.665c0.996-0.217,1.836-1.033,2.221-2.113c1.654-4.628-0.074-7.629-1.855-8.22
										C69.127,56.58,67.945,56.336,66.746,57.119"/>
								</g>
							</g>
						</g>
						<g opacity="0.25">
							<g>
								<g>
									<path fill="#1B154E" d="M66.172,66.099c1.693,1.517,3.566,0.885,4.477-0.603c-0.85,0.254-2.301,0.439-2.092-0.964
										c-0.918-0.188-2.42-1.306-2.023-2.854c0.277-1.078,0.764-1.889,2.305-2.438c-1.375-0.258-2.072-1.431-1.43-2.457
										c-0.461,0.174-0.961,0.479-1.424,0.993C64.568,59.35,64.115,64.261,66.172,66.099"/>
								</g>
							</g>
						</g>
						<g>
							<path fill="#1B154E" d="M68.227,67.417c-0.814,0-1.631-0.337-2.355-0.983c-0.895-0.801-1.438-2.181-1.531-3.887
								c-0.109-2.006,0.432-4.091,1.313-5.07c1.555-1.728,3.486-1.352,3.566-1.332c0.018,0.003,0.035,0.007,0.051,0.012
								c0.881,0.294,1.678,1.058,2.188,2.101c0.869,1.784,0.852,4.161-0.053,6.692c-0.432,1.208-1.346,2.098-2.449,2.377
								C68.715,67.388,68.471,67.417,68.227,67.417z M68.658,56.991c-0.523,0-1.496,0.146-2.34,1.086
								c-0.723,0.803-1.18,2.661-1.084,4.42c0.08,1.467,0.518,2.627,1.234,3.268c0.723,0.648,1.508,0.887,2.268,0.694
								c0.811-0.207,1.494-0.883,1.824-1.81c1.109-3.106,0.533-5.093,0.09-6c-0.396-0.815-0.992-1.407-1.635-1.632
								C68.963,57.008,68.838,56.991,68.658,56.991z"/>
						</g>
						<g>
							<path fill="#1B154E" d="M68.787,59.448c-0.355-0.056-0.738-0.08-1.104-0.072c-0.367,0.009-0.732,0.056-1.068,0.149
								c-0.338,0.095-0.645,0.246-0.875,0.456c-0.113,0.105-0.209,0.227-0.285,0.355c-0.074,0.132-0.125,0.276-0.166,0.428
								l-0.004,0.014c-0.063,0.228-0.299,0.364-0.527,0.304c-0.23-0.062-0.367-0.299-0.305-0.528
								c0.002-0.013,0.006-0.024,0.012-0.037c0.078-0.217,0.178-0.428,0.314-0.62c0.135-0.19,0.301-0.358,0.484-0.499
								c0.371-0.275,0.795-0.426,1.207-0.5c0.414-0.076,0.824-0.086,1.227-0.059c0.404,0.029,0.791,0.089,1.188,0.19
								c0.115,0.029,0.186,0.148,0.156,0.263c-0.029,0.106-0.135,0.176-0.242,0.158L68.787,59.448z"/>
						</g>
						<g>
							<path fill="#1B154E" d="M68.588,64.745c-0.414,0.069-0.814,0.091-1.23,0.079c-0.412-0.016-0.83-0.072-1.242-0.206
								c-0.412-0.132-0.82-0.361-1.145-0.706c-0.162-0.172-0.291-0.374-0.393-0.585c-0.105-0.215-0.164-0.441-0.213-0.667
								c-0.049-0.231,0.1-0.462,0.334-0.51c0.232-0.05,0.459,0.098,0.51,0.331c0.002,0.012,0.004,0.022,0.006,0.034l0.004,0.024
								c0.02,0.161,0.043,0.322,0.102,0.469c0.053,0.147,0.125,0.288,0.221,0.414c0.195,0.249,0.473,0.452,0.799,0.589
								c0.326,0.143,0.689,0.229,1.061,0.276c0.369,0.047,0.76,0.058,1.125,0.029h0.01c0.119-0.009,0.223,0.079,0.23,0.197
								C68.775,64.627,68.695,64.724,68.588,64.745"/>
						</g>
						<g>
							<path fill="#1B154E" d="M50.361,54.004c0.164,0.209,0.316,0.413,0.473,0.62c0.154,0.208,0.307,0.417,0.457,0.628
								c0.303,0.419,0.598,0.841,0.885,1.269c0.068,0.098,0.041,0.232-0.057,0.299c-0.09,0.062-0.211,0.045-0.281-0.035
								c-0.344-0.378-0.691-0.752-1.043-1.121c-0.176-0.184-0.354-0.367-0.533-0.548c-0.178-0.18-0.36-0.361-0.538-0.533h-0.002
								c-0.172-0.165-0.178-0.438-0.014-0.61c0.166-0.172,0.44-0.179,0.612-0.014C50.334,53.972,50.35,53.989,50.361,54.004"/>
						</g>
						<g opacity="0.4">
							<g>
								<g>
									<path fill="#FFFFFF" d="M48.143,59.046c0,1.808-2.303,3.272-5.144,3.272c-2.84,0-5.143-1.465-5.143-3.272
										c0-1.806,2.303-3.27,5.143-3.27C45.84,55.776,48.143,57.24,48.143,59.046"/>
								</g>
							</g>
						</g>
						<g opacity="0.4">
							<g>
								<g>
									<path fill="#FFFFFF" d="M48.853,64.159c0,0.658-0.837,1.192-1.874,1.192c-1.034,0-1.874-0.534-1.874-1.192
										s0.839-1.191,1.874-1.191C48.016,62.968,48.853,63.501,48.853,64.159"/>
								</g>
							</g>
						</g>
					</g>
				</g>
			</g>
		</g>
	</g>
</g>
<path fill="#A9CF38" d="M50,0C22.386,0,0,22.386,0,50c0,27.613,22.386,50,50,50s50-22.387,50-50C100,22.386,77.614,0,50,0z
	 M50,96.667C24.228,96.667,3.333,75.771,3.333,50C3.333,24.228,24.228,3.333,50,3.333c25.772,0,46.667,20.895,46.667,46.667
	C96.667,75.771,75.772,96.667,50,96.667z"/>
</svg>
